<svg viewBox="0 0 330 200" xmlns="http://www.w3.org/2000/svg"><g><g><g><g><g><line x1="50" y1="178" x2="45" y2="178" style="visibility: inherit;" fill="rgb(0, 0, 0)" stroke="rgb(204, 204, 204)" stroke-width="1px"></line><line x1="50" y1="160.1999999999999" x2="45" y2="160.1999999999999" style="visibility: inherit;" fill="rgb(0, 0, 0)" stroke="rgb(204, 204, 204)" stroke-width="1px"></line><line x1="50" y1="142.39999999999998" x2="45" y2="142.39999999999998" style="visibility: inherit;" fill="rgb(0, 0, 0)" stroke="rgb(204, 204, 204)" stroke-width="1px"></line><line x1="50" y1="124.60000000000002" x2="45" y2="124.60000000000002" style="visibility: inherit;" fill="rgb(0, 0, 0)" stroke="rgb(204, 204, 204)" stroke-width="1px"></line><line x1="50" y1="106.79999999999994" x2="45" y2="106.79999999999994" style="visibility: inherit;" fill="rgb(0, 0, 0)" stroke="rgb(204, 204, 204)" stroke-width="1px"></line><line x1="50" y1="89" x2="45" y2="89" style="visibility: inherit;" fill="rgb(0, 0, 0)" stroke="rgb(204, 204, 204)" stroke-width="1px"></line><line x1="50" y1="71.1999999999999" x2="45" y2="71.1999999999999" style="visibility: inherit;" fill="rgb(0, 0, 0)" stroke="rgb(204, 204, 204)" stroke-width="1px"></line><line x1="50" y1="53.39999999999996" x2="45" y2="53.39999999999996" style="visibility: inherit;" fill="rgb(0, 0, 0)" stroke="rgb(204, 204, 204)" stroke-width="1px"></line><line x1="50" y1="35.60000000000002" x2="45" y2="35.60000000000002" style="visibility: inherit;" fill="rgb(0, 0, 0)" stroke="rgb(204, 204, 204)" stroke-width="1px"></line><line x1="50" y1="17.799999999999926" x2="45" y2="17.799999999999926" style="visibility: inherit;" fill="rgb(0, 0, 0)" stroke="rgb(204, 204, 204)" stroke-width="1px"></line><line x1="50" y1="0" x2="45" y2="0" style="visibility: inherit;" fill="rgb(0, 0, 0)" stroke="rgb(204, 204, 204)" stroke-width="1px"></line></g><g transform="translate(40, 0)"><text x="0" y="178" dx="0em" dy="0.3em" style="text-anchor: end; visibility: hidden; font-family: &quot;Helvetica Neue&quot;, sans-serif; font-size: 12px; font-weight: 200;" fill="rgb(50, 49, 63)" stroke="none" stroke-width="1px">2.4</text><text x="0" y="160.1999999999999" dx="0em" dy="0.3em" style="text-anchor: end; visibility: inherit; font-family: &quot;Helvetica Neue&quot;, sans-serif; font-size: 12px; font-weight: 200;" fill="rgb(50, 49, 63)" stroke="none" stroke-width="1px">2.45</text><text x="0" y="142.39999999999998" dx="0em" dy="0.3em" style="text-anchor: end; visibility: hidden; font-family: &quot;Helvetica Neue&quot;, sans-serif; font-size: 12px; font-weight: 200;" fill="rgb(50, 49, 63)" stroke="none" stroke-width="1px">2.5</text><text x="0" y="124.60000000000002" dx="0em" dy="0.3em" style="text-anchor: end; visibility: inherit; font-family: &quot;Helvetica Neue&quot;, sans-serif; font-size: 12px; font-weight: 200;" fill="rgb(50, 49, 63)" stroke="none" stroke-width="1px">2.55</text><text x="0" y="106.79999999999994" dx="0em" dy="0.3em" style="text-anchor: end; visibility: hidden; font-family: &quot;Helvetica Neue&quot;, sans-serif; font-size: 12px; font-weight: 200;" fill="rgb(50, 49, 63)" stroke="none" stroke-width="1px">2.6</text><text x="0" y="89" dx="0em" dy="0.3em" style="text-anchor: end; visibility: inherit; font-family: &quot;Helvetica Neue&quot;, sans-serif; font-size: 12px; font-weight: 200;" fill="rgb(50, 49, 63)" stroke="none" stroke-width="1px">2.65</text><text x="0" y="71.1999999999999" dx="0em" dy="0.3em" style="text-anchor: end; visibility: hidden; font-family: &quot;Helvetica Neue&quot;, sans-serif; font-size: 12px; font-weight: 200;" fill="rgb(50, 49, 63)" stroke="none" stroke-width="1px">2.7</text><text x="0" y="53.39999999999996" dx="0em" dy="0.3em" style="text-anchor: end; visibility: inherit; font-family: &quot;Helvetica Neue&quot;, sans-serif; font-size: 12px; font-weight: 200;" fill="rgb(50, 49, 63)" stroke="none" stroke-width="1px">2.75</text><text x="0" y="35.60000000000002" dx="0em" dy="0.3em" style="text-anchor: end; visibility: hidden; font-family: &quot;Helvetica Neue&quot;, sans-serif; font-size: 12px; font-weight: 200;" fill="rgb(50, 49, 63)" stroke="none" stroke-width="1px">2.8</text><text x="0" y="17.799999999999926" dx="0em" dy="0.3em" style="text-anchor: end; visibility: inherit; font-family: &quot;Helvetica Neue&quot;, sans-serif; font-size: 12px; font-weight: 200;" fill="rgb(50, 49, 63)" stroke="none" stroke-width="1px">2.85</text><text x="0" y="0" dx="0em" dy="0.3em" style="text-anchor: end; visibility: hidden; font-family: &quot;Helvetica Neue&quot;, sans-serif; font-size: 12px; font-weight: 200;" fill="rgb(50, 49, 63)" stroke="none" stroke-width="1px">2.9</text></g><line x1="50" y1="0" x2="50" y2="178" fill="rgb(0, 0, 0)" stroke="rgb(204, 204, 204)" stroke-width="1px"></line></g></g><g transform="translate(50, 0)" clip-path="url(#clip_0)"><clipPath id="clip_0"><rect width="280" height="178"></rect></clipPath><g><g><g><line x1="0" y1="0" x2="0" y2="178" fill="rgb(0, 0, 0)" stroke="rgb(60, 60, 60)" stroke-width="1px" opacity="0.25"></line><line x1="35" y1="0" x2="35" y2="178" fill="rgb(0, 0, 0)" stroke="rgb(60, 60, 60)" stroke-width="1px" opacity="0.25"></line><line x1="70" y1="0" x2="70" y2="178" fill="rgb(0, 0, 0)" stroke="rgb(60, 60, 60)" stroke-width="1px" opacity="0.25"></line><line x1="105" y1="0" x2="105" y2="178" fill="rgb(0, 0, 0)" stroke="rgb(60, 60, 60)" stroke-width="1px" opacity="0.25"></line><line x1="140" y1="0" x2="140" y2="178" fill="rgb(0, 0, 0)" stroke="rgb(60, 60, 60)" stroke-width="1px" opacity="0.25"></line><line x1="175" y1="0" x2="175" y2="178" fill="rgb(0, 0, 0)" stroke="rgb(60, 60, 60)" stroke-width="1px" opacity="0.25"></line><line x1="210" y1="0" x2="210" y2="178" fill="rgb(0, 0, 0)" stroke="rgb(60, 60, 60)" stroke-width="1px" opacity="0.25"></line><line x1="245" y1="0" x2="245" y2="178" fill="rgb(0, 0, 0)" stroke="rgb(60, 60, 60)" stroke-width="1px" opacity="0.25"></line><line x1="280" y1="0" x2="280" y2="178" fill="rgb(0, 0, 0)" stroke="rgb(60, 60, 60)" stroke-width="1px" opacity="0.25"></line></g><g><line x1="0" y1="178" x2="280" y2="178" fill="rgb(0, 0, 0)" stroke="rgb(60, 60, 60)" stroke-width="1px" opacity="0.25"></line><line x1="0" y1="160.1999999999999" x2="280" y2="160.1999999999999" fill="rgb(0, 0, 0)" stroke="rgb(60, 60, 60)" stroke-width="1px" opacity="0.25"></line><line x1="0" y1="142.39999999999998" x2="280" y2="142.39999999999998" fill="rgb(0, 0, 0)" stroke="rgb(60, 60, 60)" stroke-width="1px" opacity="0.25"></line><line x1="0" y1="124.60000000000002" x2="280" y2="124.60000000000002" fill="rgb(0, 0, 0)" stroke="rgb(60, 60, 60)" stroke-width="1px" opacity="0.25"></line><line x1="0" y1="106.79999999999994" x2="280" y2="106.79999999999994" fill="rgb(0, 0, 0)" stroke="rgb(60, 60, 60)" stroke-width="1px" opacity="0.25"></line><line x1="0" y1="89" x2="280" y2="89" fill="rgb(0, 0, 0)" stroke="rgb(60, 60, 60)" stroke-width="1px" opacity="0.25"></line><line x1="0" y1="71.1999999999999" x2="280" y2="71.1999999999999" fill="rgb(0, 0, 0)" stroke="rgb(60, 60, 60)" stroke-width="1px" opacity="0.25"></line><line x1="0" y1="53.39999999999996" x2="280" y2="53.39999999999996" fill="rgb(0, 0, 0)" stroke="rgb(60, 60, 60)" stroke-width="1px" opacity="0.25"></line><line x1="0" y1="35.60000000000002" x2="280" y2="35.60000000000002" fill="rgb(0, 0, 0)" stroke="rgb(60, 60, 60)" stroke-width="1px" opacity="0.25"></line><line x1="0" y1="17.799999999999926" x2="280" y2="17.799999999999926" fill="rgb(0, 0, 0)" stroke="rgb(60, 60, 60)" stroke-width="1px" opacity="0.25"></line><line x1="0" y1="0" x2="280" y2="0" fill="rgb(0, 0, 0)" stroke="rgb(60, 60, 60)" stroke-width="1px" opacity="0.25"></line></g></g></g><g><g><line x1="0" y1="1032.4" x2="280" y2="1032.4" fill="rgb(0, 0, 0)" stroke="rgb(153, 153, 153)" stroke-width="1.5px"></line></g></g><g><g><line x1="35" y1="0" x2="35" y2="178" fill="rgb(0, 0, 0)" stroke="rgb(153, 153, 153)" stroke-width="1.5px"></line></g></g><g><g><g><g><g><path style="fill: none;" stroke="rgb(255, 112, 67)" stroke-width="2px" d="M42.973,-7.383154150453635L43.673,1.211973741698415L44.464,9.241621794252552L45.164,16.40814498600733L45.864,22.79260452107826L46.655,28.87670171075473L47.355,34.193260206119504L48.055,39.179885874484796L48.846,43.97640404201363L49.546,48.09928524801751L50.246,52.05497057707244L51.037,55.80851255544566L51.737,59.30627102038105L52.437,62.54029664355053L53.227999999999994,65.74910791575778L53.928,68.42232636514106L54.628,71.18231458323689L55.419,73.90897897112391L56.119,76.55121088124633L56.818999999999996,78.97201101472899L57.61,81.39392218582768L58.309999999999995,83.72052112971944L59.01,85.62207579964038L59.800999999999995,87.71139037607144L60.501,89.54533416561685L61.201,91.34196354890709L61.992000000000004,93.1670286502825L62.69199999999999,94.65857916470216L63.391999999999996,96.23493609181082L64.183,97.76531521853352L64.883,99.1680885920841L65.583,100.52207027321163L66.37400000000001,101.87736661500197L67.074,103.12355299534018L67.774,104.28067758895028L68.565,105.41726344125863L69.265,106.6052856618453L69.965,107.66039101688182L70.756,108.85068880326028L71.45599999999999,109.81569602732533L72.15599999999999,110.61018612531021L72.947,111.46033904640433L73.647,112.59553303294715L74.34700000000001,113.41248659833371L75.13799999999999,114.18203991737477L75.838,115.02877404502969L76.538,115.82115251905894L77.32900000000001,116.57935586385241L78.029,117.38767180688575L78.729,117.98860337404847L79.52,118.74187128346252L80.22,119.36484223724065L80.91999999999999,119.92783264947326L81.711,120.56531065840962L82.411,121.17363822304858L83.111,121.79574421312611L83.902,122.28043435136189L84.60199999999999,122.86791057419609L85.30199999999999,123.45424945731064L86.093,123.97947350251127L86.793,124.41234932367482L87.493,124.88521797433174L88.284,125.3892798934856L88.98400000000001,125.89847745147226L89.684,126.27457971123972L90.475,126.70350454061108L91.175,127.07371191626126L91.875,127.57189034250577L92.66600000000001,127.97309117571835L93.36600000000001,128.41408747825815L94.066,128.75205295082208L94.857,129.08112923143068L95.557,129.50387254618266L96.257,129.84541717089792L97.048,130.2138510258053L97.748,130.54141501611784L98.44800000000001,130.82415450588644L99.239,131.1681016360269L99.939,131.56296478715808L100.639,131.80385492209956L101.43,132.09770464637495L102.13000000000001,132.38703671299584L102.83000000000001,132.69491138936982L103.621,132.98176021863168L104.321,133.2803023164818L105.021,133.57177079113424L105.812,133.85617717499798L106.512,134.08864542243043L107.212,134.33378127811656L108.003,134.55046194313945L108.703,134.80544325780258L109.40299999999999,135.0587227265321L110.194,135.22637567998663L110.894,135.45336630154668L111.59400000000001,135.80457112675322L112.38499999999999,135.97560553005587L113.085,136.2196991792396L113.785,136.42363408273908L114.57600000000001,136.70583541790506L115.276,136.86205120801836L115.976,137.00986431550928L116.767,137.2180250651356L117.467,137.3722889618108L118.167,137.64658596253565L118.958,137.81000983557794L119.658,138.07798794175204L120.358,138.18879921951904L121.14899999999999,138.42931781601317L121.84899999999999,138.57586972708347L122.54899999999999,138.70124861237326L123.34,138.8450565709884L124.04,139.0172368844877L124.74000000000001,139.26320635798757L125.53099999999999,139.3737477131079L126.231,139.54708546563336L126.931,139.75742204048842L127.722,139.91995134746202L128.422,140.06751241919494L129.122,140.14382677219567L129.913,140.27347387398623L130.613,140.36691345647182L131.313,140.6306882350159L132.10399999999998,140.7847771530457L132.804,140.9016750839418L133.504,141.00600230378296L134.29500000000002,141.12441376019945L134.995,141.32206318837063L135.695,141.43977012432615L136.486,141.5831508624376L137.186,141.61835494922525L137.886,141.82026544145901L138.677,142.0044583829174L139.377,142.07457268905225L140.077,142.15646556777708L140.868,142.26793497421124L141.568,142.41935412417504L142.268,142.50932289320613L143.059,142.622514359703L143.75900000000001,142.7152133277358L144.459,142.8633826047957L145.25,142.98450348560692L145.95,143.09316386809763L146.65,143.2266012169767L147.441,143.24847194539598L148.141,143.46441649548473L148.841,143.515047602369L149.632,143.59896668703163L150.33200000000002,143.74709645814187L151.032,143.79146481458235L151.82299999999998,143.91474377217224L152.523,144.02422368945088L153.22299999999998,144.03606566203484L154.014,144.179109871464L154.714,144.2186614490014L155.41400000000002,144.36722950795064L156.205,144.4459813967869L156.905,144.5792638716414L157.60500000000002,144.64894626243796L158.396,144.71173729481626L159.096,144.77365278948741L159.796,144.89744454234477L160.587,144.964861531315L161.287,145.00378393844224L161.987,145.16626778433002L162.77800000000002,145.2703784989672L163.478,145.32316894813516L164.178,145.41646392991618L164.969,145.4497617808012L165.66899999999998,145.587006574096L166.369,145.61537166906703L167.16,145.65276120944807L167.86,145.71298218038072L168.56,145.84889618078694L169.351,145.9520712442388L170.051,145.9982231084818L170.75099999999998,146.07972625400515L171.542,146.11715276900458L172.242,146.2590815631362L172.942,146.25158709095794L173.733,146.3614706719331L174.433,146.37759498860902L175.133,146.48915594641255L175.92399999999998,146.57904326572356L176.624,146.60421932491272L177.32399999999998,146.654701699928L178.115,146.68872571356036L178.815,146.75894595364898L179.515,146.87940260636904L180.306,146.93599132578427L181.006,146.97486742425474L181.70600000000002,147.0561810594113L182.49699999999999,147.15321333535377L183.197,147.09759564952762L183.897,147.22467654560043L184.688,147.26079523094918L185.388,147.299577648213L186.088,147.4425236885372L186.87900000000002,147.45784339097867L187.579,147.53999549381575L188.27900000000002,147.58202128310577L189.07,147.6797217267727L189.76999999999998,147.70167512285556L190.47,147.68741490952874L191.261,147.7635320908588L191.961,147.8570390848376L192.661,147.8634393017326L193.452,147.9117549872895L194.15200000000002,147.99391136029365L194.85199999999998,148.02368347083927L195.643,148.096682845565L196.343,148.10965513885742L197.043,148.16425667584377L197.834,148.2770396469857L198.534,148.34341929905565L199.234,148.29823427291484L200.025,148.35908979470588L200.72500000000002,148.42028534349834L201.42499999999998,148.46871570072796L202.21599999999998,148.5182462508812L202.916,148.58344317289195L203.61599999999999,148.5629097605467L204.407,148.6283710089159L205.107,148.69103986303995L205.80700000000002,148.73308873105634L206.598,148.7963429542099L207.29799999999997,148.8279127366374L207.998,148.886543097915L208.789,148.97923397947656L209.489,148.96300860362837L210.189,148.9922828538274L210.98,149.02553267616364L211.68,149.1169150646826L212.38,149.11966396190527L213.17100000000002,149.13132878790975L213.87099999999998,149.2348158732096L214.571,149.24951279968258L215.362,149.27496685034177L216.06199999999998,149.34052042392574L216.762,149.3692938675145L217.553,149.3403508871591L218.25300000000001,149.47562792121147L218.953,149.5035592783617L219.74400000000003,149.5145804064946L220.444,149.5409524522707L221.14399999999998,149.61805688395998L221.935,149.6582423487599L222.635,149.63400768037408L223.335,149.69344568488452L224.126,149.78658720158015L224.82600000000002,149.82356151284264L225.526,149.76131044591352L226.31699999999998,149.77325637558036L227.017,149.8810541213688L227.71699999999998,149.91381901151755L228.508,149.95306756047498L229.208,149.94375230996656L229.90800000000002,150.01669137316247L230.699,150.10445505522065L231.399,150.1102272018335L232.09900000000002,150.09437248137843L232.89,150.10991534368543L233.59,150.1572320126077L234.29,150.20524557963492L235.081,150.2288931973903L235.781,150.28752337265783L236.481,150.32032492142173L237.27200000000002,150.36424672592437L237.972,150.3628280495927L238.67200000000003,150.41752036186014L239.463,150.45206724030947L240.16299999999998,150.48124911798942L240.863,150.5177027941579L241.654,150.5361120176813L242.354,150.56776569083337L243.054,150.58244614240533L243.845,150.61386564992063L244.54500000000002,150.62389014495733L245.24499999999998,150.67617979009938L246.036,150.7424550054072L246.736,150.71655927643764L247.436,150.75659930792796L248.227,150.81936119608497L248.927,150.79855504162558L249.627,150.81167025642065L250.418,150.89501202628878L251.11800000000002,150.88326057270677L251.81799999999998,150.90007711693946L252.60899999999998,150.9436764886695L253.309,150.9838238436411L254.009,150.99321155777164" fill="none"></path></g></g></g></g><g opacity="0.2"><g><g><g><path style="fill: none;" stroke="rgb(255, 112, 67)" stroke-width="2px" d="M42.272999999999996,-0.7189422607422102L42.973,6.9103130340575945L43.673,14.057891273498512L44.464,21.25987567901609L45.164,27.143889808654762L45.864,32.36178913116453L46.655,37.998556518554665L47.355,42.165848159790016L48.055,46.65855827331541L48.846,51.17045059204098L49.546,54.28323020935055L50.246,57.98828163146969L51.037,61.43870201110836L51.737,64.5528396606445L52.437,67.39129676818844L53.227999999999994,70.56230201721188L53.928,72.43214263916012L54.628,75.3222898483276L55.419,77.99897136688229L56.119,80.514556312561L56.818999999999996,82.60320987701412L57.61,85.02678813934322L58.309999999999995,87.21041908264156L59.01,88.47440757751461L59.800999999999995,90.84536209106442L60.501,92.29624977111813L61.201,94.03690757751461L61.992000000000004,95.90462627410885L62.69199999999999,96.89590492248531L63.391999999999996,98.59947147369381L64.183,100.06088390350338L64.883,101.27224864959713L65.583,102.55304279327389L66.37400000000001,103.91031112670895L67.074,104.99283256530758L67.774,106.0163644790649L68.565,107.12214221954342L69.265,108.38731899261471L69.965,109.2430490493774L70.756,110.63613548278805L71.45599999999999,111.26320686340328L72.15599999999999,111.8019212722778L72.947,112.73556842803951L73.647,114.29832401275632L74.34700000000001,114.63791694641111L75.13799999999999,115.33636989593504L75.838,116.29887523651121L76.538,117.00972023010252L77.32900000000001,117.71666088104246L78.029,118.60014572143552L78.729,118.89000072479246L79.52,119.87177314758299L80.22,120.29929866790769L80.91999999999999,120.77231826782224L81.711,121.52152767181394L82.411,122.0861295700073L83.111,122.72890319824216L83.902,123.0074695587158L84.60199999999999,123.74912490844724L85.30199999999999,124.3337577819824L86.093,124.76730957031248L86.793,125.0616630554199L87.493,125.59452095031736L88.284,126.14537277221677L88.98400000000001,126.66227378845213L89.684,126.83873310089109L90.475,127.34689178466795L91.175,127.6290229797363L91.875,128.31915798187254L92.66600000000001,128.5748924255371L93.36600000000001,129.07558193206785L94.066,129.25900115966795L94.857,129.57474365234373L95.557,130.13798751831052L96.257,130.35773410797117L97.048,130.76650180816648L97.748,131.0327610015869L98.44800000000001,131.24826374053953L99.239,131.68402233123777L99.939,132.15525951385496L100.639,132.1651901245117L101.43,132.53847923278806L102.13000000000001,132.82103481292722L102.83000000000001,133.15672340393064L103.621,133.4120334625244L104.321,133.7281154632568L105.021,134.00897350311277L105.812,134.28278675079343L106.512,134.43734779357908L107.212,134.70148506164549L108.003,134.8754829406738L108.703,135.18791522979734L109.40299999999999,135.43864192962644L110.194,135.47785511016843L110.894,135.7938522338867L111.59400000000001,136.33137836456297L112.38499999999999,136.23215713500974L113.085,136.5858396530151L113.785,136.72953643798826L114.57600000000001,137.12913742065427L115.276,137.09637489318845L115.976,137.23158397674558L116.767,137.53026618957517L117.467,137.6036848068237L118.167,138.05803146362302L118.958,138.05514564514158L119.658,138.47995510101316L120.358,138.3550161361694L121.14899999999999,138.79009571075437L121.84899999999999,138.79569759368894L122.54899999999999,138.8893169403076L123.34,139.0607685089111L124.04,139.2755073547363L124.74000000000001,139.63216056823728L125.53099999999999,139.53955974578855L126.231,139.80709209442136L126.931,140.07292690277097L127.722,140.16374530792234L128.422,140.2888540267944L129.122,140.25829830169675L129.913,140.46794452667234L130.613,140.50707283020017L131.313,141.026350402832L132.10399999999998,141.0159105300903L132.804,141.07702198028562L133.504,141.1624931335449L134.29500000000002,141.3020309448242L134.995,141.61853733062742L135.695,141.61633052825925L136.486,141.79822196960447L137.186,141.67116107940672L137.886,142.12313117980955L138.677,142.28074779510496L139.377,142.17974414825437L140.077,142.27930488586424L140.868,142.43513908386228L141.568,142.64648284912107L142.268,142.6442760467529L143.059,142.79230155944822L143.75900000000001,142.85426177978513L144.459,143.08563652038572L145.25,143.1661848068237L145.95,143.25615444183347L146.65,143.4267572402954L147.441,143.28127803802488L148.141,143.78833332061765L148.841,143.5909942626953L149.632,143.72484531402586L150.33200000000002,143.9692911148071L151.032,143.85801734924314L151.82299999999998,144.0996622085571L152.523,144.18844356536863L153.22299999999998,144.05382862091062L154.014,144.3936761856079L154.714,144.2779888153076L155.41400000000002,144.5900815963745L156.205,144.56410923004148L156.905,144.77918758392332L157.60500000000002,144.7534698486328L158.396,144.80592384338377L159.096,144.86652603149412L159.796,145.08313217163084L160.587,145.06598701477049L161.287,145.06216754913328L161.987,145.4099935531616L162.77800000000002,145.42654457092283L163.478,145.40235462188718L164.178,145.55640640258787L164.969,145.49970855712888L165.66899999999998,145.79287376403806L166.369,145.65791931152341L167.16,145.7088455200195L167.86,145.80331363677976L168.56,146.05276718139646L169.351,146.10683383941648L170.051,146.06745090484617L170.75099999999998,146.20198097229002L171.542,146.17329254150388L172.242,146.47197475433347L172.942,146.2403453826904L173.733,146.52629604339597L174.433,146.40178146362302L175.133,146.65649738311765L175.92399999999998,146.71387424468992L176.624,146.64198341369627L177.32399999999998,146.73042526245115L178.115,146.73976173400877L178.815,146.86427631378172L179.515,147.0600875854492L180.306,147.0208744049072L181.006,147.03318157196043L181.70600000000002,147.17815151214597L182.49699999999999,147.29876174926756L183.197,147.01416912078855L183.897,147.41529788970945L184.688,147.31497325897215L185.388,147.35775127410886L186.088,147.65694274902341L186.87900000000002,147.4808229446411L187.579,147.66322364807127L188.27900000000002,147.645059967041L189.07,147.82627239227293L189.76999999999998,147.73460521697996L190.47,147.66602458953855L191.261,147.87770786285398L191.961,147.99729957580564L192.661,147.87303962707517L193.452,147.98422851562498L194.15200000000002,148.11714591979978L194.85199999999998,148.0683416366577L195.643,148.2061819076538L196.343,148.12911357879636L197.043,148.24615898132322L197.834,148.4462141036987L198.534,148.44298877716062L199.234,148.2304567337036L200.025,148.45037307739256L200.72500000000002,148.512078666687L201.42499999999998,148.54136123657224L202.21599999999998,148.59254207611082L202.916,148.68123855590818L203.61599999999999,148.5321096420288L204.407,148.7265628814697L205.107,148.78504314422605L205.80700000000002,148.79616203308103L206.598,148.8912242889404L207.29799999999997,148.8752674102783L207.998,148.97448863983152L208.789,149.11827030181882L209.489,148.93867053985593L210.189,149.03619422912595L210.98,149.07540740966795L211.68,149.25398864746091L212.38,149.12378730773924L213.17100000000002,149.14882602691648L213.87099999999998,149.39004650115965L214.571,149.27155818939207L215.362,149.31314792633054L216.06199999999998,149.43885078430174L216.762,149.41245403289793L217.553,149.29693641662595L218.25300000000001,149.67854347229002L218.953,149.5454563140869L219.74400000000003,149.53111209869382L220.444,149.58051052093504L221.14399999999998,149.73371353149412L221.935,149.71852054595945L222.635,149.5976556777954L223.335,149.78260269165037L224.126,149.9262994766235L224.82600000000002,149.8790229797363L225.526,149.66793384552L226.31699999999998,149.79117527008054L227.017,150.04275074005125L227.71699999999998,149.9629663467407L228.508,150.0119403839111L229.208,149.92977943420408L229.90800000000002,150.12609996795652L230.699,150.23610057830808L231.399,150.1188854217529L232.09900000000002,150.07059040069578L232.89,150.13322963714597L233.59,150.2282070159912L234.29,150.27726593017576L235.081,150.26436462402341L235.781,150.37546863555906L236.481,150.36952724456785L237.27200000000002,150.4301294326782L237.972,150.3607000350952L238.67200000000003,150.4995588302612L239.463,150.50388755798338L240.16299999999998,150.52502193450925L240.863,150.57238330841062L241.654,150.5637258529663L242.354,150.6152462005615L243.054,150.60446681976316L243.845,150.66099491119382L244.54500000000002,150.63892688751218L245.24499999999998,150.75461425781248L246.036,150.84186782836912L246.736,150.67771568298338L247.436,150.81665935516355L248.227,150.9135040283203L248.927,150.7673458099365L249.627,150.83134307861326L250.418,151.0200246810913L251.11800000000002,150.86563339233396L251.81799999999998,150.92530193328855L252.60899999999998,151.00907554626463L253.309,151.0440448760986L254.009,151.00729312896726" fill="none"></path></g></g></g></g></g></g><g transform="translate(50, 178)" clip-path="url(#clip_1)"><clipPath id="clip_1"><rect width="280" height="22"></rect></clipPath><g><g><line x1="0" y1="0" x2="0" y2="5" style="visibility: inherit;" fill="rgb(0, 0, 0)" stroke="rgb(204, 204, 204)" stroke-width="1px"></line><line x1="35" y1="0" x2="35" y2="5" style="visibility: inherit;" fill="rgb(0, 0, 0)" stroke="rgb(204, 204, 204)" stroke-width="1px"></line><line x1="70" y1="0" x2="70" y2="5" style="visibility: inherit;" fill="rgb(0, 0, 0)" stroke="rgb(204, 204, 204)" stroke-width="1px"></line><line x1="105" y1="0" x2="105" y2="5" style="visibility: inherit;" fill="rgb(0, 0, 0)" stroke="rgb(204, 204, 204)" stroke-width="1px"></line><line x1="140" y1="0" x2="140" y2="5" style="visibility: inherit;" fill="rgb(0, 0, 0)" stroke="rgb(204, 204, 204)" stroke-width="1px"></line><line x1="175" y1="0" x2="175" y2="5" style="visibility: inherit;" fill="rgb(0, 0, 0)" stroke="rgb(204, 204, 204)" stroke-width="1px"></line><line x1="210" y1="0" x2="210" y2="5" style="visibility: inherit;" fill="rgb(0, 0, 0)" stroke="rgb(204, 204, 204)" stroke-width="1px"></line><line x1="245" y1="0" x2="245" y2="5" style="visibility: inherit;" fill="rgb(0, 0, 0)" stroke="rgb(204, 204, 204)" stroke-width="1px"></line><line x1="280" y1="0" x2="280" y2="5" style="visibility: inherit;" fill="rgb(0, 0, 0)" stroke="rgb(204, 204, 204)" stroke-width="1px"></line></g><g transform="translate(0, 8)"><text x="0" y="0" dx="0em" dy="0.95em" style="text-anchor: middle; visibility: hidden; font-family: &quot;Helvetica Neue&quot;, sans-serif; font-size: 12px; font-weight: 200;" fill="rgb(50, 49, 63)" stroke="none" stroke-width="1px">-5k</text><text x="35" y="0" dx="0em" dy="0.95em" style="text-anchor: middle; visibility: inherit; font-family: &quot;Helvetica Neue&quot;, sans-serif; font-size: 12px; font-weight: 200;" fill="rgb(50, 49, 63)" stroke="none" stroke-width="1px">0</text><text x="70" y="0" dx="0em" dy="0.95em" style="text-anchor: middle; visibility: inherit; font-family: &quot;Helvetica Neue&quot;, sans-serif; font-size: 12px; font-weight: 200;" fill="rgb(50, 49, 63)" stroke="none" stroke-width="1px">5k</text><text x="105" y="0" dx="0em" dy="0.95em" style="text-anchor: middle; visibility: inherit; font-family: &quot;Helvetica Neue&quot;, sans-serif; font-size: 12px; font-weight: 200;" fill="rgb(50, 49, 63)" stroke="none" stroke-width="1px">10k</text><text x="140" y="0" dx="0em" dy="0.95em" style="text-anchor: middle; visibility: inherit; font-family: &quot;Helvetica Neue&quot;, sans-serif; font-size: 12px; font-weight: 200;" fill="rgb(50, 49, 63)" stroke="none" stroke-width="1px">15k</text><text x="175" y="0" dx="0em" dy="0.95em" style="text-anchor: middle; visibility: inherit; font-family: &quot;Helvetica Neue&quot;, sans-serif; font-size: 12px; font-weight: 200;" fill="rgb(50, 49, 63)" stroke="none" stroke-width="1px">20k</text><text x="210" y="0" dx="0em" dy="0.95em" style="text-anchor: middle; visibility: inherit; font-family: &quot;Helvetica Neue&quot;, sans-serif; font-size: 12px; font-weight: 200;" fill="rgb(50, 49, 63)" stroke="none" stroke-width="1px">25k</text><text x="245" y="0" dx="0em" dy="0.95em" style="text-anchor: middle; visibility: inherit; font-family: &quot;Helvetica Neue&quot;, sans-serif; font-size: 12px; font-weight: 200;" fill="rgb(50, 49, 63)" stroke="none" stroke-width="1px">30k</text><text x="280" y="0" dx="0em" dy="0.95em" style="text-anchor: middle; visibility: hidden; font-family: &quot;Helvetica Neue&quot;, sans-serif; font-size: 12px; font-weight: 200;" fill="rgb(50, 49, 63)" stroke="none" stroke-width="1px">35k</text></g><line x1="0" y1="0" x2="280" y2="0" fill="rgb(0, 0, 0)" stroke="rgb(204, 204, 204)" stroke-width="1px"></line></g></g></g></g></svg>