<svg viewBox="0 0 330 200" xmlns="http://www.w3.org/2000/svg"><g><g><g><g><g><line x1="50" y1="178" x2="45" y2="178" style="visibility: inherit;" fill="rgb(0, 0, 0)" stroke="rgb(204, 204, 204)" stroke-width="1px"></line><line x1="50" y1="152.57142857142856" x2="45" y2="152.57142857142856" style="visibility: inherit;" fill="rgb(0, 0, 0)" stroke="rgb(204, 204, 204)" stroke-width="1px"></line><line x1="50" y1="127.14285714285711" x2="45" y2="127.14285714285711" style="visibility: inherit;" fill="rgb(0, 0, 0)" stroke="rgb(204, 204, 204)" stroke-width="1px"></line><line x1="50" y1="101.71428571428567" x2="45" y2="101.71428571428567" style="visibility: inherit;" fill="rgb(0, 0, 0)" stroke="rgb(204, 204, 204)" stroke-width="1px"></line><line x1="50" y1="76.2857142857142" x2="45" y2="76.2857142857142" style="visibility: inherit;" fill="rgb(0, 0, 0)" stroke="rgb(204, 204, 204)" stroke-width="1px"></line><line x1="50" y1="50.85714285714289" x2="45" y2="50.85714285714289" style="visibility: inherit;" fill="rgb(0, 0, 0)" stroke="rgb(204, 204, 204)" stroke-width="1px"></line><line x1="50" y1="25.428571428571445" x2="45" y2="25.428571428571445" style="visibility: inherit;" fill="rgb(0, 0, 0)" stroke="rgb(204, 204, 204)" stroke-width="1px"></line><line x1="50" y1="0" x2="45" y2="0" style="visibility: inherit;" fill="rgb(0, 0, 0)" stroke="rgb(204, 204, 204)" stroke-width="1px"></line></g><g transform="translate(40, 0)"><text x="0" y="178" dx="0em" dy="0.3em" style="text-anchor: end; visibility: hidden; font-family: &quot;Helvetica Neue&quot;, sans-serif; font-size: 12px; font-weight: 200;" fill="rgb(50, 49, 63)" stroke="none" stroke-width="1px">1.4</text><text x="0" y="152.57142857142856" dx="0em" dy="0.3em" style="text-anchor: end; visibility: inherit; font-family: &quot;Helvetica Neue&quot;, sans-serif; font-size: 12px; font-weight: 200;" fill="rgb(50, 49, 63)" stroke="none" stroke-width="1px">1.45</text><text x="0" y="127.14285714285711" dx="0em" dy="0.3em" style="text-anchor: end; visibility: inherit; font-family: &quot;Helvetica Neue&quot;, sans-serif; font-size: 12px; font-weight: 200;" fill="rgb(50, 49, 63)" stroke="none" stroke-width="1px">1.5</text><text x="0" y="101.71428571428567" dx="0em" dy="0.3em" style="text-anchor: end; visibility: inherit; font-family: &quot;Helvetica Neue&quot;, sans-serif; font-size: 12px; font-weight: 200;" fill="rgb(50, 49, 63)" stroke="none" stroke-width="1px">1.55</text><text x="0" y="76.2857142857142" dx="0em" dy="0.3em" style="text-anchor: end; visibility: inherit; font-family: &quot;Helvetica Neue&quot;, sans-serif; font-size: 12px; font-weight: 200;" fill="rgb(50, 49, 63)" stroke="none" stroke-width="1px">1.6</text><text x="0" y="50.85714285714289" dx="0em" dy="0.3em" style="text-anchor: end; visibility: inherit; font-family: &quot;Helvetica Neue&quot;, sans-serif; font-size: 12px; font-weight: 200;" fill="rgb(50, 49, 63)" stroke="none" stroke-width="1px">1.65</text><text x="0" y="25.428571428571445" dx="0em" dy="0.3em" style="text-anchor: end; visibility: inherit; font-family: &quot;Helvetica Neue&quot;, sans-serif; font-size: 12px; font-weight: 200;" fill="rgb(50, 49, 63)" stroke="none" stroke-width="1px">1.7</text><text x="0" y="0" dx="0em" dy="0.3em" style="text-anchor: end; visibility: hidden; font-family: &quot;Helvetica Neue&quot;, sans-serif; font-size: 12px; font-weight: 200;" fill="rgb(50, 49, 63)" stroke="none" stroke-width="1px">1.75</text></g><line x1="50" y1="0" x2="50" y2="178" fill="rgb(0, 0, 0)" stroke="rgb(204, 204, 204)" stroke-width="1px"></line></g></g><g transform="translate(50, 0)" clip-path="url(#clip_0)"><clipPath id="clip_0"><rect width="280" height="178"></rect></clipPath><g><g><g><line x1="0" y1="0" x2="0" y2="178" fill="rgb(0, 0, 0)" stroke="rgb(60, 60, 60)" stroke-width="1px" opacity="0.25"></line><line x1="35" y1="0" x2="35" y2="178" fill="rgb(0, 0, 0)" stroke="rgb(60, 60, 60)" stroke-width="1px" opacity="0.25"></line><line x1="70" y1="0" x2="70" y2="178" fill="rgb(0, 0, 0)" stroke="rgb(60, 60, 60)" stroke-width="1px" opacity="0.25"></line><line x1="105" y1="0" x2="105" y2="178" fill="rgb(0, 0, 0)" stroke="rgb(60, 60, 60)" stroke-width="1px" opacity="0.25"></line><line x1="140" y1="0" x2="140" y2="178" fill="rgb(0, 0, 0)" stroke="rgb(60, 60, 60)" stroke-width="1px" opacity="0.25"></line><line x1="175" y1="0" x2="175" y2="178" fill="rgb(0, 0, 0)" stroke="rgb(60, 60, 60)" stroke-width="1px" opacity="0.25"></line><line x1="210" y1="0" x2="210" y2="178" fill="rgb(0, 0, 0)" stroke="rgb(60, 60, 60)" stroke-width="1px" opacity="0.25"></line><line x1="245" y1="0" x2="245" y2="178" fill="rgb(0, 0, 0)" stroke="rgb(60, 60, 60)" stroke-width="1px" opacity="0.25"></line><line x1="280" y1="0" x2="280" y2="178" fill="rgb(0, 0, 0)" stroke="rgb(60, 60, 60)" stroke-width="1px" opacity="0.25"></line></g><g><line x1="0" y1="178" x2="280" y2="178" fill="rgb(0, 0, 0)" stroke="rgb(60, 60, 60)" stroke-width="1px" opacity="0.25"></line><line x1="0" y1="152.57142857142856" x2="280" y2="152.57142857142856" fill="rgb(0, 0, 0)" stroke="rgb(60, 60, 60)" stroke-width="1px" opacity="0.25"></line><line x1="0" y1="127.14285714285711" x2="280" y2="127.14285714285711" fill="rgb(0, 0, 0)" stroke="rgb(60, 60, 60)" stroke-width="1px" opacity="0.25"></line><line x1="0" y1="101.71428571428567" x2="280" y2="101.71428571428567" fill="rgb(0, 0, 0)" stroke="rgb(60, 60, 60)" stroke-width="1px" opacity="0.25"></line><line x1="0" y1="76.2857142857142" x2="280" y2="76.2857142857142" fill="rgb(0, 0, 0)" stroke="rgb(60, 60, 60)" stroke-width="1px" opacity="0.25"></line><line x1="0" y1="50.85714285714289" x2="280" y2="50.85714285714289" fill="rgb(0, 0, 0)" stroke="rgb(60, 60, 60)" stroke-width="1px" opacity="0.25"></line><line x1="0" y1="25.428571428571445" x2="280" y2="25.428571428571445" fill="rgb(0, 0, 0)" stroke="rgb(60, 60, 60)" stroke-width="1px" opacity="0.25"></line><line x1="0" y1="0" x2="280" y2="0" fill="rgb(0, 0, 0)" stroke="rgb(60, 60, 60)" stroke-width="1px" opacity="0.25"></line></g></g></g><g><g><line x1="0" y1="889.9999999999998" x2="280" y2="889.9999999999998" fill="rgb(0, 0, 0)" stroke="rgb(153, 153, 153)" stroke-width="1.5px"></line></g></g><g><g><line x1="35" y1="0" x2="35" y2="178" fill="rgb(0, 0, 0)" stroke="rgb(153, 153, 153)" stroke-width="1.5px"></line></g></g><g><g><g><g><g><path style="fill: none;" stroke="rgb(255, 112, 67)" stroke-width="2px" d="M42.973,-2.5405247988726956L43.673,6.180962548593413L44.464,14.04702574467197L45.164,21.330961493226226L45.864,27.52852587515315L46.655,33.407578097351404L47.355,38.44164300650658L48.055,43.013973554780506L48.846,47.61810448542877L49.546,51.55897603802447L50.246,54.75538949743613L51.037,58.387997708892314L51.737,61.79944674752255L52.437,64.33281627869366L53.227999999999994,67.32525669199437L53.928,69.72770843464683L54.628,72.23193516473361L55.419,74.52877339929506L56.119,76.95399142155028L56.818999999999996,78.95335319811778L57.61,80.88448868738884L58.309999999999995,82.93517880567697L59.01,84.72716337527227L59.800999999999995,86.26602507861816L60.501,88.20277363890177L61.201,89.62173335298878L61.992000000000004,91.00308125176977L62.69199999999999,92.65473626504213L63.391999999999996,93.83602353525147L64.183,95.13466689431881L64.883,96.6601158683185L65.583,97.5846247211953L66.37400000000001,98.96222481044468L67.074,100.06378638966633L67.774,100.99793032039949L68.565,102.06469594298626L69.265,103.22187458792983L69.965,104.01556063316427L70.756,105.13902011971204L71.45599999999999,106.01975921582493L72.15599999999999,106.75299878337L72.947,107.64434273577517L73.647,108.45776396884168L74.34700000000001,109.33244363346837L75.13799999999999,110.18958131854424L75.838,110.90191837948825L76.538,111.65670338495802L77.32900000000001,112.2902411755236L78.029,113.07420868323686L78.729,113.68999563840894L79.52,114.49772421148432L80.22,115.02724917053251L80.91999999999999,115.45768082076614L81.711,116.10040843447628L82.411,116.63819311322831L83.111,117.3329162494066L83.902,117.72423852571484L84.60199999999999,118.44224885840113L85.30199999999999,118.90892165913947L86.093,119.50052098385206L86.793,119.87805786444618L87.493,120.313134941882L88.284,120.80150608283978L88.98400000000001,121.07183022877064L89.684,121.64424745105282L90.475,122.06784593636485L91.175,122.43901405421568L91.875,122.92158409170912L92.66600000000001,123.20411769789314L93.36600000000001,123.61449457721449L94.066,124.15124259898971L94.857,124.49327388624582L95.557,124.8452571413701L96.257,125.13036284849042L97.048,125.48900447405663L97.748,125.76595566512945L98.44800000000001,126.14063282770142L99.239,126.4836364301064L99.939,126.78748366819218L100.639,126.99501260953697L101.43,127.21333120027859L102.13000000000001,127.54470485986786L102.83000000000001,127.97955990671313L103.621,128.2963462607132L104.321,128.29697257750774L105.021,128.7528226761433L105.812,128.9833364650086L106.512,129.24876625496424L107.212,129.45053538774414L108.003,129.65860793221395L108.703,129.95403000678232L109.40299999999999,130.1609902064793L110.194,130.3968887275078L110.894,130.4179024800175L111.59400000000001,130.78153781151434L112.38499999999999,130.99642093214783L113.085,131.25800145237253L113.785,131.34292555534864L114.57600000000001,131.53758892739518L115.276,131.78919589968484L115.976,131.89466600346879L116.767,131.98333841826084L117.467,132.34340864918815L118.167,132.52331743028782L118.958,132.70367491731403L119.658,132.8555161948081L120.358,132.95760647199438L121.14899999999999,133.05169591749836L121.84899999999999,133.37735522314136L122.54899999999999,133.4126485072456L123.34,133.57280452575145L124.04,133.71499848083175L124.74000000000001,133.91732388054356L125.53099999999999,134.0599383739106L126.231,134.16682332577287L126.931,134.32558004239107L127.722,134.42764848407018L128.422,134.6551999956807L129.122,134.68029950834242L129.913,134.8287858821992L130.613,134.95607236288532L131.313,135.06785009148956L132.10399999999998,135.24174051361655L132.804,135.34772380602502L133.504,135.40573614911102L134.29500000000002,135.526051084085L134.995,135.6981766665991L135.695,135.76963526108528L136.486,135.88872997649287L137.186,135.9942346137033L137.886,136.08380076926835L138.677,136.16501636461982L139.377,136.30206631770818L140.077,136.3743293030411L140.868,136.5858405845799L141.568,136.52662418673773L142.268,136.63485175944425L143.059,136.74290582626162L143.75900000000001,136.8328618625434L144.459,136.9088065056921L145.25,137.09897947313482L145.95,137.24584578106635L146.65,137.15077671869207L147.441,137.14965710831137L148.141,137.38169386433458L148.841,137.4372756831375L149.632,137.6136304179914L150.33200000000002,137.57738338777526L151.032,137.62094196939785L151.82299999999998,137.72404844492686L152.523,137.82233669460675L153.22299999999998,137.86285495647863L154.014,138.0104800898888L154.714,138.108876653002L155.41400000000002,138.07787220413377L156.205,138.1481236433508L156.905,138.2379511382636L157.60500000000002,138.28702177069187L158.396,138.4547409315034L159.096,138.48652504421872L159.796,138.45394178608763L160.587,138.53709301834272L161.287,138.63475739138022L161.987,138.72871335424426L162.77800000000002,138.71395999409648L163.478,138.854249017175L164.178,138.93228703542704L164.969,139.01041733931564L165.66899999999998,139.0047202740204L166.369,139.1181655580541L167.16,139.2115988304204L167.86,139.20957866557927L168.56,139.25597044633065L169.351,139.31229994096384L170.051,139.41458126288327L170.75099999999998,139.3871201980725L171.542,139.44283752237308L172.242,139.6243176802242L172.942,139.55122945657547L173.733,139.54021180157852L174.433,139.7102424003354L175.133,139.71419143237125L175.92399999999998,139.75783533105005L176.624,139.68556433383162L177.32399999999998,139.86082067340166L178.115,139.88456529527645L178.815,139.96368235779505L179.515,140.0109100895515L180.306,140.10562055367865L181.006,140.12000832507488L181.70600000000002,140.07315567122723L182.49699999999999,140.11199991780327L183.197,140.1983579619821L183.897,140.23392490292179L184.688,140.25257325360778L185.388,140.33612598123472L186.088,140.42736234324L186.87900000000002,140.34794997691915L187.579,140.4723846406925L188.27900000000002,140.5585644623068L189.07,140.64803050128893L189.76999999999998,140.66002338543782L190.47,140.60210632077866L191.261,140.65427014448312L191.961,140.64102013155946L192.661,140.69784341089712L193.452,140.79042976654378L194.15200000000002,140.82706613106194L194.85199999999998,140.76274015165956L195.643,140.84399090801233L196.343,140.85592898825405L197.043,140.93788061116183L197.834,140.92572187953192L198.534,141.0366481959913L199.234,141.05443607858805L200.025,141.06821288180683L200.72500000000002,141.14666012916078L201.42499999999998,141.14978643481368L202.21599999999998,141.16909838197145L202.916,141.2923837009009L203.61599999999999,141.2396698859807L204.407,141.27235412318646L205.107,141.36925124954658L205.80700000000002,141.29517538787672L206.598,141.31324785444758L207.29799999999997,141.37872788093375L207.998,141.38130052555732L208.789,141.44461032806458L209.489,141.440012199036L210.189,141.49239913024746L210.98,141.50234527910402L211.68,141.57020043702855L212.38,141.57633221115682L213.17100000000002,141.54984355974375L213.87099999999998,141.6373790732939L214.571,141.7046689818879L215.362,141.68143366757513L216.06199999999998,141.69150054870695L216.762,141.73726312001304L217.553,141.7787617459963L218.25300000000001,141.7914628821227L218.953,141.7994958235817L219.74400000000003,141.87226570093608L220.444,141.89604215545984L221.14399999999998,141.8636984221124L221.935,141.81574925477065L222.635,141.91456203193596L223.335,142.00442967390845L224.126,142.08701443930255L224.82600000000002,142.0185134971299L225.526,142.05630005384432L226.31699999999998,142.0660221805697L227.017,142.09249269633352L227.71699999999998,142.12430763387846L228.508,142.11157984138313L229.208,142.15802194919362L229.90800000000002,142.14053863774296L230.699,142.19176636545475L231.399,142.200628983004L232.09900000000002,142.26288690474732L232.89,142.32199442399371L233.59,142.33859198782253L234.29,142.2935502209441L235.081,142.32150121541733L235.781,142.33931458684663L236.481,142.35109388560056L237.27200000000002,142.32372564767934L237.972,142.36822215051816L238.67200000000003,142.40956739980794L239.463,142.4327012596741L240.16299999999998,142.4121942595711L240.863,142.50984216871007L241.654,142.50307561328995L242.354,142.52433328083322L243.054,142.5553485646913L243.845,142.49206354162936L244.54500000000002,142.68607353277966L245.24499999999998,142.60418257181627L246.036,142.70329176311276L246.736,142.66165662873811L247.436,142.60245798611908L248.227,142.68064974894676L248.927,142.65682587798486L249.627,142.6542445833618L250.418,142.72045191446318L251.11800000000002,142.75324064853845L251.81799999999998,142.70433326154213L252.60899999999998,142.7188581203775L253.309,142.79734194131834L254.009,142.80917189714307" fill="none"></path></g></g></g></g><g opacity="0.2"><g><g><g><path style="fill: none;" stroke="rgb(255, 112, 67)" stroke-width="2px" d="M41.482,-5.147487776620039L42.272999999999996,4.707279205322266L42.973,12.358457020350869L43.673,19.215731620788574L44.464,25.820436477661133L45.164,32.242595127650674L45.864,36.81758744376046L46.655,42.222010067531045L47.355,45.990610122680636L48.055,49.87130846296037L48.846,54.523599488394595L49.546,57.46992315564836L50.246,59.54983438764299L51.037,63.83679049355641L51.737,66.91655295235768L52.437,68.13284056527272L53.227999999999994,71.81389604296001L53.928,73.33137580326624L54.628,75.98826885223387L55.419,77.97402722494941L56.119,80.59181622096467L56.818999999999996,81.95239475795198L57.61,83.78119128090992L58.309999999999995,86.01121357509065L59.01,87.41514001573833L59.800999999999995,88.57431752341132L60.501,91.10789639609197L61.201,91.75017288752963L61.992000000000004,93.07510307856965L62.69199999999999,95.13221876961842L63.391999999999996,95.6079544339861L64.183,97.08263192858013L64.883,98.94828932625904L65.583,98.97138799939835L66.37400000000001,101.02862494332447L67.074,101.71612875802174L67.774,102.39914621625626L68.565,103.66484437670024L69.265,104.95764255523679L69.965,105.2060897009713L70.756,106.824209349496L71.45599999999999,107.34086785997661L72.15599999999999,107.8528581346784L72.947,108.98135866437637L73.647,109.67789581843782L74.34700000000001,110.64446313040594L75.13799999999999,111.47528784615649L75.838,111.97042397090364L76.538,112.78888089316229L77.32900000000001,113.2405478613717L78.029,114.25015994480674L78.729,114.61367607116696L79.52,115.70931707109722L80.22,115.82153660910467L80.91999999999999,116.10332829611639L81.711,117.06449985504148L82.411,117.44487013135634L83.111,118.37500095367429L83.902,118.31122194017681L84.60199999999999,119.51926435743056L85.30199999999999,119.6089308602469L86.093,120.38791997092108L86.793,120.44436318533758L87.493,120.96575055803568L88.284,121.53406279427662L88.98400000000001,121.47731644766668L89.684,122.50287328447611L90.475,122.70324366433277L91.175,122.99576623099188L91.875,123.64543914794919L92.66600000000001,123.62791810716898L93.36600000000001,124.23005989619661L94.066,124.9563646316528L94.857,125.00632081712992L95.557,125.37323202405653L96.257,125.55802140917093L97.048,126.0269669124058L97.748,126.1813824517386L98.44800000000001,126.70264857155934L99.239,126.99814183371404L99.939,127.24325452532084L100.639,127.3063060215541L101.43,127.54080908639088L102.13000000000001,128.04176534925185L102.83000000000001,128.63184247698098L103.621,128.77152579171315L104.321,128.29791205269947L105.021,129.43659782409665L105.812,129.32910714830666L106.512,129.6469109398978L107.212,129.75318908691403L108.003,129.9707167489188L108.703,130.39716311863486L109.40299999999999,130.471430506025L110.194,130.7507365090506L110.894,130.44942310878207L111.59400000000001,131.32699080875938L112.38499999999999,131.31874561309812L113.085,131.65037223270957L113.785,131.47031170981268L114.57600000000001,131.82958398546486L115.276,132.1666063581194L115.976,132.0528711591448L116.767,132.11634704044883L117.467,132.88351399557928L118.167,132.7931806019374L118.958,132.97421114785328L119.658,133.08327811104908L120.358,133.11074188777374L121.14899999999999,133.19283008575437L121.84899999999999,133.86584418160572L122.54899999999999,133.46558843340188L123.34,133.81303855351035L124.04,133.92828941345212L124.74000000000001,134.22081198011122L125.53099999999999,134.27386011396132L126.231,134.32715075356617L126.931,134.56371511731825L127.722,134.58075114658897L128.422,134.99652726309637L129.122,134.71794877733498L129.913,135.0515154429844L130.613,135.14700208391457L131.313,135.2355166843959L132.10399999999998,135.50257614680697L132.804,135.5066987446376L133.504,135.49275466373985L134.29500000000002,135.70652348654608L134.995,135.95636504037037L135.695,135.87682315281455L136.486,136.0673720496041L137.186,136.15249156951901L137.886,136.21815000261574L138.677,136.28683975764682L139.377,136.5076412473406L140.077,136.4827237810407L140.868,136.9031075068882L141.568,136.4377995899745L142.268,136.79719311850408L143.059,136.90498692648748L143.75900000000001,136.967795916966L144.459,137.02272347041537L145.25,137.38423892429893L145.95,137.46614524296348L146.65,137.00817312513075L147.441,137.14797769274026L148.141,137.72974899836947L148.841,137.52064841134205L149.632,137.87816252027235L150.33200000000002,137.52301284245078L151.032,137.68627984183172L151.82299999999998,137.87870815822055L152.523,137.96976906912664L153.22299999999998,137.92363234928672L154.014,138.23191779000416L154.714,138.2564714976719L155.41400000000002,138.03136553083144L156.205,138.2535008021763L156.905,138.37269238063266L157.60500000000002,138.36062771933416L158.396,138.70631967272072L159.096,138.53420121329168L159.796,138.40506689889088L160.587,138.66181986672535L161.287,138.78125395093642L161.987,138.86964729854037L162.77800000000002,138.69182995387484L163.478,139.06468255179266L164.178,139.04934406280515L164.969,139.12761279514854L165.66899999999998,138.99617467607766L166.369,139.28833348410467L167.16,139.35174873897006L167.86,139.20654841831748L168.56,139.32555811745777L169.351,139.3967941829136L170.051,139.56800324576238L170.75099999999998,139.3459286008562L171.542,139.5264135088239L172.242,139.89653791700087L172.942,139.44159712110243L173.733,139.52368531908303L174.433,139.9652882984706L175.133,139.72011498042514L175.92399999999998,139.82330117906838L176.624,139.57715783800393L177.32399999999998,140.12370518275668L178.115,139.92018222808835L178.815,140.08235795157293L179.515,140.08175168718606L180.306,140.24768624986916L181.006,140.14158998216897L181.70600000000002,140.00287669045582L182.49699999999999,140.17026628766737L183.197,140.3278950282505L183.897,140.28727531433103L184.688,140.2805457796369L185.388,140.4614550726754L186.088,140.56421688624786L186.87900000000002,140.22883142743788L187.579,140.6590366363525L188.27900000000002,140.68783419472828L189.07,140.7822295597621L189.76999999999998,140.67801271166115L190.47,140.51523072378973L191.261,140.73251588003973L191.961,140.62114511217385L192.661,140.7830783299037L193.452,140.92930930001393L194.15200000000002,140.88202067783897L194.85199999999998,140.66625118255612L195.643,140.96586704254148L196.343,140.8738361086164L197.043,141.06080804552346L197.834,140.907483782087L198.534,141.20303767068043L199.234,141.08111790248321L200.025,141.08887808663502L200.72500000000002,141.2643310001918L201.42499999999998,141.15447589329307L202.21599999999998,141.19806630270818L202.916,141.4773116792951L203.61599999999999,141.16059916360035L204.407,141.32138047899514L205.107,141.51459693908689L205.80700000000002,141.18406159537176L206.598,141.3403565543038L207.29799999999997,141.47694792066298L207.998,141.38515949249265L208.789,141.53957503182545L209.489,141.43311500549314L210.189,141.5709795270647L210.98,141.51726450238905L211.68,141.6719831739153L212.38,141.5855298723493L213.17100000000002,141.51011058262412L213.87099999999998,141.76868234361916L214.571,141.80560384477883L215.362,141.64658069610593L216.06199999999998,141.70660087040488L216.762,141.80590697697227L217.553,141.84100968497137L218.25300000000001,141.8105145863124L218.953,141.81154523577004L219.74400000000003,141.98142051696775L220.444,141.93170683724537L221.14399999999998,141.8151828220912L221.935,141.743825503758L222.635,142.0627811976841L223.335,142.13923113686695L224.126,142.21089158739358L224.82600000000002,141.915762083871L225.526,142.112979888916L226.31699999999998,142.08060537065774L227.017,142.1321984699794L227.71699999999998,142.17203004019598L228.508,142.09248815264016L229.208,142.22768511090956L229.90800000000002,142.11431367056707L230.699,142.26860795702248L231.399,142.2139229093279L232.09900000000002,142.3562737873622L232.89,142.41065570286338L233.59,142.3634883335658L234.29,142.22598757062636L235.081,142.36342770712713L235.781,142.36603464399062L236.481,142.36876283373147L237.27200000000002,142.28267329079762L237.972,142.4349669047764L238.67200000000003,142.47158527374265L239.463,142.46740204947332L240.16299999999998,142.3814337594168L240.863,142.65631403241835L241.654,142.49292578016005L242.354,142.55621978214805L243.054,142.6018714904785L243.845,142.39713600703644L244.54500000000002,142.97708851950506L245.24499999999998,142.48134613037107L246.036,142.8519555500575L246.736,142.5992039271763L247.436,142.5136600221906L248.227,142.79793739318845L248.927,142.6210900715419L249.627,142.65037264142714L250.418,142.81976291111533L251.11800000000002,142.80242374965118L251.81799999999998,142.63097218104767L252.60899999999998,142.74064540863034L253.309,142.91506767272946L254.009,142.82691683088026" fill="none"></path></g></g></g></g></g></g><g transform="translate(50, 178)" clip-path="url(#clip_1)"><clipPath id="clip_1"><rect width="280" height="22"></rect></clipPath><g><g><line x1="0" y1="0" x2="0" y2="5" style="visibility: inherit;" fill="rgb(0, 0, 0)" stroke="rgb(204, 204, 204)" stroke-width="1px"></line><line x1="35" y1="0" x2="35" y2="5" style="visibility: inherit;" fill="rgb(0, 0, 0)" stroke="rgb(204, 204, 204)" stroke-width="1px"></line><line x1="70" y1="0" x2="70" y2="5" style="visibility: inherit;" fill="rgb(0, 0, 0)" stroke="rgb(204, 204, 204)" stroke-width="1px"></line><line x1="105" y1="0" x2="105" y2="5" style="visibility: inherit;" fill="rgb(0, 0, 0)" stroke="rgb(204, 204, 204)" stroke-width="1px"></line><line x1="140" y1="0" x2="140" y2="5" style="visibility: inherit;" fill="rgb(0, 0, 0)" stroke="rgb(204, 204, 204)" stroke-width="1px"></line><line x1="175" y1="0" x2="175" y2="5" style="visibility: inherit;" fill="rgb(0, 0, 0)" stroke="rgb(204, 204, 204)" stroke-width="1px"></line><line x1="210" y1="0" x2="210" y2="5" style="visibility: inherit;" fill="rgb(0, 0, 0)" stroke="rgb(204, 204, 204)" stroke-width="1px"></line><line x1="245" y1="0" x2="245" y2="5" style="visibility: inherit;" fill="rgb(0, 0, 0)" stroke="rgb(204, 204, 204)" stroke-width="1px"></line><line x1="280" y1="0" x2="280" y2="5" style="visibility: inherit;" fill="rgb(0, 0, 0)" stroke="rgb(204, 204, 204)" stroke-width="1px"></line></g><g transform="translate(0, 8)"><text x="0" y="0" dx="0em" dy="0.95em" style="text-anchor: middle; visibility: hidden; font-family: &quot;Helvetica Neue&quot;, sans-serif; font-size: 12px; font-weight: 200;" fill="rgb(50, 49, 63)" stroke="none" stroke-width="1px">-5k</text><text x="35" y="0" dx="0em" dy="0.95em" style="text-anchor: middle; visibility: inherit; font-family: &quot;Helvetica Neue&quot;, sans-serif; font-size: 12px; font-weight: 200;" fill="rgb(50, 49, 63)" stroke="none" stroke-width="1px">0</text><text x="70" y="0" dx="0em" dy="0.95em" style="text-anchor: middle; visibility: inherit; font-family: &quot;Helvetica Neue&quot;, sans-serif; font-size: 12px; font-weight: 200;" fill="rgb(50, 49, 63)" stroke="none" stroke-width="1px">5k</text><text x="105" y="0" dx="0em" dy="0.95em" style="text-anchor: middle; visibility: inherit; font-family: &quot;Helvetica Neue&quot;, sans-serif; font-size: 12px; font-weight: 200;" fill="rgb(50, 49, 63)" stroke="none" stroke-width="1px">10k</text><text x="140" y="0" dx="0em" dy="0.95em" style="text-anchor: middle; visibility: inherit; font-family: &quot;Helvetica Neue&quot;, sans-serif; font-size: 12px; font-weight: 200;" fill="rgb(50, 49, 63)" stroke="none" stroke-width="1px">15k</text><text x="175" y="0" dx="0em" dy="0.95em" style="text-anchor: middle; visibility: inherit; font-family: &quot;Helvetica Neue&quot;, sans-serif; font-size: 12px; font-weight: 200;" fill="rgb(50, 49, 63)" stroke="none" stroke-width="1px">20k</text><text x="210" y="0" dx="0em" dy="0.95em" style="text-anchor: middle; visibility: inherit; font-family: &quot;Helvetica Neue&quot;, sans-serif; font-size: 12px; font-weight: 200;" fill="rgb(50, 49, 63)" stroke="none" stroke-width="1px">25k</text><text x="245" y="0" dx="0em" dy="0.95em" style="text-anchor: middle; visibility: inherit; font-family: &quot;Helvetica Neue&quot;, sans-serif; font-size: 12px; font-weight: 200;" fill="rgb(50, 49, 63)" stroke="none" stroke-width="1px">30k</text><text x="280" y="0" dx="0em" dy="0.95em" style="text-anchor: middle; visibility: hidden; font-family: &quot;Helvetica Neue&quot;, sans-serif; font-size: 12px; font-weight: 200;" fill="rgb(50, 49, 63)" stroke="none" stroke-width="1px">35k</text></g><line x1="0" y1="0" x2="280" y2="0" fill="rgb(0, 0, 0)" stroke="rgb(204, 204, 204)" stroke-width="1px"></line></g></g></g></g></svg>