<svg viewBox="0 0 330 200" xmlns="http://www.w3.org/2000/svg"><g><g><g><g><g><line x1="60" y1="178" x2="55" y2="178" style="visibility: inherit;" fill="rgb(0, 0, 0)" stroke="rgb(204, 204, 204)" stroke-width="1px"></line><line x1="60" y1="161.8181818181818" x2="55" y2="161.8181818181818" style="visibility: inherit;" fill="rgb(0, 0, 0)" stroke="rgb(204, 204, 204)" stroke-width="1px"></line><line x1="60" y1="145.63636363636363" x2="55" y2="145.63636363636363" style="visibility: inherit;" fill="rgb(0, 0, 0)" stroke="rgb(204, 204, 204)" stroke-width="1px"></line><line x1="60" y1="129.45454545454547" x2="55" y2="129.45454545454547" style="visibility: inherit;" fill="rgb(0, 0, 0)" stroke="rgb(204, 204, 204)" stroke-width="1px"></line><line x1="60" y1="113.27272727272727" x2="55" y2="113.27272727272727" style="visibility: inherit;" fill="rgb(0, 0, 0)" stroke="rgb(204, 204, 204)" stroke-width="1px"></line><line x1="60" y1="97.09090909090908" x2="55" y2="97.09090909090908" style="visibility: inherit;" fill="rgb(0, 0, 0)" stroke="rgb(204, 204, 204)" stroke-width="1px"></line><line x1="60" y1="80.90909090909089" x2="55" y2="80.90909090909089" style="visibility: inherit;" fill="rgb(0, 0, 0)" stroke="rgb(204, 204, 204)" stroke-width="1px"></line><line x1="60" y1="64.72727272727275" x2="55" y2="64.72727272727275" style="visibility: inherit;" fill="rgb(0, 0, 0)" stroke="rgb(204, 204, 204)" stroke-width="1px"></line><line x1="60" y1="48.54545454545453" x2="55" y2="48.54545454545453" style="visibility: inherit;" fill="rgb(0, 0, 0)" stroke="rgb(204, 204, 204)" stroke-width="1px"></line><line x1="60" y1="32.363636363636374" x2="55" y2="32.363636363636374" style="visibility: inherit;" fill="rgb(0, 0, 0)" stroke="rgb(204, 204, 204)" stroke-width="1px"></line><line x1="60" y1="16.181818181818187" x2="55" y2="16.181818181818187" style="visibility: inherit;" fill="rgb(0, 0, 0)" stroke="rgb(204, 204, 204)" stroke-width="1px"></line><line x1="60" y1="0" x2="55" y2="0" style="visibility: inherit;" fill="rgb(0, 0, 0)" stroke="rgb(204, 204, 204)" stroke-width="1px"></line></g><g transform="translate(50, 0)"><text x="0" y="178" dx="0em" dy="0.3em" style="text-anchor: end; visibility: hidden; font-family: &quot;Helvetica Neue&quot;, sans-serif; font-size: 12px; font-weight: 200;" fill="rgb(50, 49, 63)" stroke="none" stroke-width="1px">-0.01</text><text x="0" y="161.8181818181818" dx="0em" dy="0.3em" style="text-anchor: end; visibility: inherit; font-family: &quot;Helvetica Neue&quot;, sans-serif; font-size: 12px; font-weight: 200;" fill="rgb(50, 49, 63)" stroke="none" stroke-width="1px">0</text><text x="0" y="145.63636363636363" dx="0em" dy="0.3em" style="text-anchor: end; visibility: hidden; font-family: &quot;Helvetica Neue&quot;, sans-serif; font-size: 12px; font-weight: 200;" fill="rgb(50, 49, 63)" stroke="none" stroke-width="1px">0.01</text><text x="0" y="129.45454545454547" dx="0em" dy="0.3em" style="text-anchor: end; visibility: inherit; font-family: &quot;Helvetica Neue&quot;, sans-serif; font-size: 12px; font-weight: 200;" fill="rgb(50, 49, 63)" stroke="none" stroke-width="1px">0.02</text><text x="0" y="113.27272727272727" dx="0em" dy="0.3em" style="text-anchor: end; visibility: hidden; font-family: &quot;Helvetica Neue&quot;, sans-serif; font-size: 12px; font-weight: 200;" fill="rgb(50, 49, 63)" stroke="none" stroke-width="1px">0.03</text><text x="0" y="97.09090909090908" dx="0em" dy="0.3em" style="text-anchor: end; visibility: inherit; font-family: &quot;Helvetica Neue&quot;, sans-serif; font-size: 12px; font-weight: 200;" fill="rgb(50, 49, 63)" stroke="none" stroke-width="1px">0.04</text><text x="0" y="80.90909090909089" dx="0em" dy="0.3em" style="text-anchor: end; visibility: hidden; font-family: &quot;Helvetica Neue&quot;, sans-serif; font-size: 12px; font-weight: 200;" fill="rgb(50, 49, 63)" stroke="none" stroke-width="1px">0.05</text><text x="0" y="64.72727272727275" dx="0em" dy="0.3em" style="text-anchor: end; visibility: inherit; font-family: &quot;Helvetica Neue&quot;, sans-serif; font-size: 12px; font-weight: 200;" fill="rgb(50, 49, 63)" stroke="none" stroke-width="1px">0.06</text><text x="0" y="48.54545454545453" dx="0em" dy="0.3em" style="text-anchor: end; visibility: hidden; font-family: &quot;Helvetica Neue&quot;, sans-serif; font-size: 12px; font-weight: 200;" fill="rgb(50, 49, 63)" stroke="none" stroke-width="1px">0.07</text><text x="0" y="32.363636363636374" dx="0em" dy="0.3em" style="text-anchor: end; visibility: inherit; font-family: &quot;Helvetica Neue&quot;, sans-serif; font-size: 12px; font-weight: 200;" fill="rgb(50, 49, 63)" stroke="none" stroke-width="1px">0.08</text><text x="0" y="16.181818181818187" dx="0em" dy="0.3em" style="text-anchor: end; visibility: hidden; font-family: &quot;Helvetica Neue&quot;, sans-serif; font-size: 12px; font-weight: 200;" fill="rgb(50, 49, 63)" stroke="none" stroke-width="1px">0.09</text><text x="0" y="0" dx="0em" dy="0.3em" style="text-anchor: end; visibility: hidden; font-family: &quot;Helvetica Neue&quot;, sans-serif; font-size: 12px; font-weight: 200;" fill="rgb(50, 49, 63)" stroke="none" stroke-width="1px">0.1</text></g><line x1="60" y1="0" x2="60" y2="178" fill="rgb(0, 0, 0)" stroke="rgb(204, 204, 204)" stroke-width="1px"></line></g></g><g transform="translate(60, 0)" clip-path="url(#clip_0)"><clipPath id="clip_0"><rect width="270" height="178"></rect></clipPath><g><g><g><line x1="0" y1="0" x2="0" y2="178" fill="rgb(0, 0, 0)" stroke="rgb(60, 60, 60)" stroke-width="1px" opacity="0.25"></line><line x1="22.5" y1="0" x2="22.5" y2="178" fill="rgb(0, 0, 0)" stroke="rgb(60, 60, 60)" stroke-width="1px" opacity="0.25"></line><line x1="45" y1="0" x2="45" y2="178" fill="rgb(0, 0, 0)" stroke="rgb(60, 60, 60)" stroke-width="1px" opacity="0.25"></line><line x1="67.5" y1="0" x2="67.5" y2="178" fill="rgb(0, 0, 0)" stroke="rgb(60, 60, 60)" stroke-width="1px" opacity="0.25"></line><line x1="90" y1="0" x2="90" y2="178" fill="rgb(0, 0, 0)" stroke="rgb(60, 60, 60)" stroke-width="1px" opacity="0.25"></line><line x1="112.5" y1="0" x2="112.5" y2="178" fill="rgb(0, 0, 0)" stroke="rgb(60, 60, 60)" stroke-width="1px" opacity="0.25"></line><line x1="135" y1="0" x2="135" y2="178" fill="rgb(0, 0, 0)" stroke="rgb(60, 60, 60)" stroke-width="1px" opacity="0.25"></line><line x1="157.5" y1="0" x2="157.5" y2="178" fill="rgb(0, 0, 0)" stroke="rgb(60, 60, 60)" stroke-width="1px" opacity="0.25"></line><line x1="180" y1="0" x2="180" y2="178" fill="rgb(0, 0, 0)" stroke="rgb(60, 60, 60)" stroke-width="1px" opacity="0.25"></line><line x1="202.5" y1="0" x2="202.5" y2="178" fill="rgb(0, 0, 0)" stroke="rgb(60, 60, 60)" stroke-width="1px" opacity="0.25"></line><line x1="225" y1="0" x2="225" y2="178" fill="rgb(0, 0, 0)" stroke="rgb(60, 60, 60)" stroke-width="1px" opacity="0.25"></line><line x1="247.5" y1="0" x2="247.5" y2="178" fill="rgb(0, 0, 0)" stroke="rgb(60, 60, 60)" stroke-width="1px" opacity="0.25"></line><line x1="270" y1="0" x2="270" y2="178" fill="rgb(0, 0, 0)" stroke="rgb(60, 60, 60)" stroke-width="1px" opacity="0.25"></line></g><g><line x1="0" y1="178" x2="270" y2="178" fill="rgb(0, 0, 0)" stroke="rgb(60, 60, 60)" stroke-width="1px" opacity="0.25"></line><line x1="0" y1="161.8181818181818" x2="270" y2="161.8181818181818" fill="rgb(0, 0, 0)" stroke="rgb(60, 60, 60)" stroke-width="1px" opacity="0.25"></line><line x1="0" y1="145.63636363636363" x2="270" y2="145.63636363636363" fill="rgb(0, 0, 0)" stroke="rgb(60, 60, 60)" stroke-width="1px" opacity="0.25"></line><line x1="0" y1="129.45454545454547" x2="270" y2="129.45454545454547" fill="rgb(0, 0, 0)" stroke="rgb(60, 60, 60)" stroke-width="1px" opacity="0.25"></line><line x1="0" y1="113.27272727272727" x2="270" y2="113.27272727272727" fill="rgb(0, 0, 0)" stroke="rgb(60, 60, 60)" stroke-width="1px" opacity="0.25"></line><line x1="0" y1="97.09090909090908" x2="270" y2="97.09090909090908" fill="rgb(0, 0, 0)" stroke="rgb(60, 60, 60)" stroke-width="1px" opacity="0.25"></line><line x1="0" y1="80.90909090909089" x2="270" y2="80.90909090909089" fill="rgb(0, 0, 0)" stroke="rgb(60, 60, 60)" stroke-width="1px" opacity="0.25"></line><line x1="0" y1="64.72727272727275" x2="270" y2="64.72727272727275" fill="rgb(0, 0, 0)" stroke="rgb(60, 60, 60)" stroke-width="1px" opacity="0.25"></line><line x1="0" y1="48.54545454545453" x2="270" y2="48.54545454545453" fill="rgb(0, 0, 0)" stroke="rgb(60, 60, 60)" stroke-width="1px" opacity="0.25"></line><line x1="0" y1="32.363636363636374" x2="270" y2="32.363636363636374" fill="rgb(0, 0, 0)" stroke="rgb(60, 60, 60)" stroke-width="1px" opacity="0.25"></line><line x1="0" y1="16.181818181818187" x2="270" y2="16.181818181818187" fill="rgb(0, 0, 0)" stroke="rgb(60, 60, 60)" stroke-width="1px" opacity="0.25"></line><line x1="0" y1="0" x2="270" y2="0" fill="rgb(0, 0, 0)" stroke="rgb(60, 60, 60)" stroke-width="1px" opacity="0.25"></line></g></g></g><g><g><line x1="0" y1="161.8181818181818" x2="270" y2="161.8181818181818" fill="rgb(0, 0, 0)" stroke="rgb(153, 153, 153)" stroke-width="1.5px"></line></g></g><g><g><line x1="22.5" y1="0" x2="22.5" y2="178" fill="rgb(0, 0, 0)" stroke="rgb(153, 153, 153)" stroke-width="1.5px"></line></g></g><g><g><g><g><g><path style="fill: none;" stroke="rgb(255, 112, 67)" stroke-width="2px" d="M24.75,2.353248975493699L27,6.961865885691225L29.25,11.16730221569648L31.5,14.780647975198406L33.75,17.82742643298414L36,20.382985515504856L38.25,22.550700128269995L40.5,24.374077455205338L42.75,25.907764018055815L45,27.19709278881291L47.25,28.28570127767881L49.5,29.21042191233562L51.75,29.999709505102402L54,30.67526531695927L56.25,31.257523946732647L58.5,31.768478793746L60.75,32.21780847903645L63,32.61412176526366L65.25,32.96571773985241L67.5,33.27784257046585L69.75,33.55742076560543L72,33.80012175719813L74.25,34.0195453123944L76.5,34.216905995438L78.75,34.39168319792748L81,34.54744656137882L83.25,34.68851756953981L85.5,34.815709534064865L87.75,34.930566557512776L90,35.03442018219772L92.25,35.12830080870057L94.5,35.2141046511685L96.75,35.29254987323509L99,35.365027060919886L101.25,35.43424654011906L103.5,35.49860339234081L105.75,35.55834030576736L108,35.60300773406905L110.25,35.66153097505699L112.5,35.70703753125716L114.75,35.75630339236989L117,35.805066333475224L119.25,35.84187140080516L121.5,35.88448889155748L123.75,35.925091298115774L126,35.96335135311767L128.25,35.99959835492601L130.5,36.02776055764855L132.75,36.06026367574904L135,36.09110820213783L137.25,36.12420797733745L139.5,36.15221314228188L141.75,36.179770544747214L144,36.207049644609896L146.25,36.22872191791248L148.5,36.25339587134104L150.75,36.27835654975166L153,36.30087061436234L155.25,36.32448231134842L157.5,36.348048494346756L159.75,36.36520712521758L162,36.386256607238806L164.25,36.40676635560706L166.5,36.427072827724146L168.75,36.444667620647124L171,36.463201006708886L173.25,36.479042322258636L175.5,36.495906334520754L177.75,36.510292705374184L180,36.52279704165724L182.25,36.54112628529015L184.5,36.557505805776856L186.75,36.57272996004869L189,36.587801021045436L191.25,36.59514129480266L193.5,36.6083369816032L195.75,36.62249478324736L198,36.63102322213723L200.25,36.64778193957244L202.5,36.66364352941133L204.75,36.6744577513152L207,36.68234000361048L209.25,36.69374859729513L211.5,36.70902840678809L213.75,36.71617081828231L216,36.73025570226824L218.25,36.740225738310954L220.5,36.75172958841466L222.75,36.754233725924905L225,36.766958300019155L227.25,36.77977247136255L229.5,36.78342449343833L231.75,36.79618193043521L234,36.80499380646282L236.25,36.816231968185804L238.5,36.82570443283413L240.75,36.83575232627166L243,36.83981828138175L245.25,36.848218535669474L247.5,36.856200448391974" fill="none"></path></g><g><path stroke="rgb(187, 187, 187)" stroke-width="2px" d="M24.75,120.94920927150682L27,122.1761734241789L29.25,123.37401769447084L31.5,124.4327422710295L33.75,125.3264883268089L36,126.0700967946819L38.25,126.6882816605002L40.5,127.20648028224898L42.75,127.63794084531862L45,127.99819370641734L47.25,128.30000299969834L49.5,128.55410884188268L51.75,128.7696595002515L54,128.95356560950796L56.25,129.1114235570768L58.5,129.24831095057323L60.75,129.3678335799009L63,129.47300254024768L65.25,129.56667275307507L67.5,129.64990144569478L69.75,129.72372215996108L72,129.78913180988243L74.25,129.84725630538261L76.5,129.89890967201825L78.75,129.94517461877007L81,129.98633179621058L83.25,130.02336458404872L85.5,130.0565652029442L87.75,130.0866539277271L90,130.11393391591304L92.25,130.13857862058273L94.5,130.16123223904054L96.75,130.18211370515624L99,130.2011650935591L101.25,130.21877723959068L103.5,130.23536669590936L105.75,130.2506046871389L108,130.2650559121392L110.25,130.27850339044096L112.5,130.29100983606114L114.75,130.30308910497078L117,130.31435626809085L119.25,130.32525432040092L121.5,130.33535461058995L123.75,130.34510765820224L126,130.35422194700095L128.25,130.36295539179054L130.5,130.37157124900008L132.75,130.3797042249849L135,130.3873786827181L137.25,130.39485519042233L139.5,130.4020417273136L141.75,130.40891201626718L144,130.41540809362914L146.25,130.42172666397292L148.5,130.42809787450736L150.75,130.43396174834186L153,130.4395079581229L155.25,130.44494434731206L157.5,130.4503570415253L159.75,130.45555899952984L162,130.46045849245598L164.25,130.4654441582831L166.5,130.47031394397342L168.75,130.47486945678233L171,130.4794534209554L173.25,130.4836180144821L175.5,130.48779140373261L177.75,130.4920508482576L180,130.49603760894715L182.25,130.49966062319407L184.5,130.5034005573302L186.75,130.5071491557902L189,130.51083784831656L191.25,130.5144737183311L193.5,130.51790066584587L195.75,130.52102020831057L198,130.52434955183085L200.25,130.52737556835606L202.5,130.53056078463607L204.75,130.53361968311827L207,130.5366052022006L209.25,130.5391150747358L211.5,130.54202315688573L213.75,130.54478194891587L216,130.54746081198937L218.25,130.55003384699742L220.5,130.5526506870733L222.75,130.55503459771768L225,130.55736917365857L227.25,130.5598911638704L229.5,130.5620638427524L231.75,130.56452004135343L234,130.5667653697337L236.25,130.56899871172502L238.5,130.571263442344L240.75,130.57338424481975L243,130.57521975990767L245.25,130.577247000024L247.5,130.57899503107168" style="fill: none;" fill="none"></path></g></g></g></g><g opacity="0.2"><g><g><g><path style="fill: none;" stroke="rgb(255, 112, 67)" stroke-width="2px" d="M24.75,2.353248975493699L27,9.727036031809718L29.25,15.204521092501551L31.5,19.029942588372677L33.75,21.805300387469202L36,23.918243727900773L38.25,25.650566707957893L40.5,27.032579102299422L42.75,28.169653794982224L45,29.11159574985504L47.25,29.90874041210523L49.5,30.5924705754627L51.75,31.181063733317643L54,31.6872755505822L56.25,32.130227468230515L58.5,32.534550699320704L60.75,32.89161286570808L63,33.20849107070404L65.25,33.493058139627635L67.5,33.74600128694016L69.75,33.97677272558212L72,34.16416525840759L74.25,34.34867631305349L76.5,34.51294468207794L78.75,34.653847759420245L81,34.78109094229612L83.25,34.90012372081932L85.5,35.00649728558281L87.75,35.10285198688507L90,35.190200561826884L92.25,35.269121717322975L94.5,35.34281039779839L96.75,35.410217696970165L99,35.47374283725566L101.25,35.53807575594297L103.5,35.59513866901398L105.75,35.647945674982935L108,35.67000887610695L110.25,35.749315836212844L112.5,35.77529736540535L114.75,35.8302021839402L117,35.87821074507454L119.25,35.897079001773506L121.5,35.948415127667516L123.75,35.98599490794268L126,36.0207414356145L128.25,36.05396885763517L130.5,36.070003861730754L132.75,36.10901835289869L135,36.13737499172038L137.25,36.17385764013639L139.5,36.194220889698386L141.75,36.22110664844513L144,36.24796829440376L146.25,36.261230327866286L148.5,36.29040680148384L150.75,36.315797567367554L153,36.33464171127841L155.25,36.35989985682747L157.5,36.383397768844276L159.75,36.390945071523845L162,36.41783083027062L164.25,36.43753097815949L166.5,36.45753253589979L168.75,36.47105981003156L171,36.49100108580157L173.25,36.50280429558322L175.5,36.521202352913946L177.75,36.53187226165426L180,36.5415535460819L182.25,36.56862015073952L184.5,36.58207508650693L186.75,36.59556619145653L189,36.61040761254051L191.25,36.606151705438464L193.5,36.62813051180407L195.75,36.64373148571363L198,36.64381588047203L200.25,36.672920015725225L202.5,36.68743591416967L204.75,36.69067908417097L207,36.694163382053375L209.25,36.710861487822115L211.5,36.73194812102753L213.75,36.72688443552366L216,36.75138302824715L218.25,36.75518079237506L220.5,36.768985363570124L222.75,36.7579899321903L225,36.78604516116056L227.25,36.79899372837761L229.5,36.78890252655205L231.75,36.815318085930556L234,36.81821162050423L236.25,36.83308921077034L238.5,36.83991312980652L240.75,36.85082416642797L243,36.845917214046835L245.25,36.860818917101085L247.5,36.868173317475765" fill="none"></path></g><g><path stroke="rgb(187, 187, 187)" stroke-width="2px" d="M24.75,120.94920927150682L27,122.91235191578215L29.25,124.52394819395107L31.5,125.67780237306249L33.75,126.49336317723447L36,127.09877500479871L38.25,127.57229590957814L40.5,127.96201884746552L42.75,128.27426136894658L45,128.5331272198395L47.25,128.74997955154288L49.5,128.93388477238742L51.75,129.09228167750618L54,129.22906448217955L56.25,129.3480249223384L58.5,129.45354549722236L60.75,129.5470669459213L63,129.63072927838022L65.25,129.70716380260208L67.5,129.77473687719214L69.75,129.83444918285716L72,129.88724413243207L74.25,129.9344419010661L76.5,129.97638911008835L78.75,130.01457171006635L81,130.04806738685477L83.25,130.0789136710492L85.5,130.10636608031663L87.75,130.13178698718548L90,130.15485388311473L92.25,130.1755456694148L94.5,130.19521266222L96.75,130.2134359018369L99,130.2297421747988L101.25,130.24519545788115L103.5,130.2602508799596L105.75,130.27346167374742L108,130.28673274950546L110.25,130.29867460781878L112.5,130.30976950444958L114.75,130.321208008311L117,130.3312570127574L119.25,130.34160139885816L121.5,130.35050504586914L123.75,130.35973722961816L126,130.36789338019761L128.25,130.3760555589741L130.5,130.38449503481388L132.75,130.3919036889618L135,130.39889036931774L137.25,130.4060699519786L139.5,130.4128215326504L141.75,130.41921744969758L144,130.42515220967206L146.25,130.4312045194886L148.5,130.437654690309L150.75,130.44275755909356L153,130.44782727279446L155.25,130.4530989310958L157.5,130.45847608284515L159.75,130.4633619365367L162,130.46780773184517L164.25,130.4729226570238L166.5,130.4776186225089L168.75,130.48170272599566L171,130.48632936721498L173.25,130.48986490477216L175.5,130.49405148760837L177.75,130.49844001504508L180,130.50201774998143L182.25,130.50509514456445L184.5,130.50901045853442L186.75,130.51277205348015L189,130.51637088710612L191.25,130.5199275233529L193.5,130.52304108711806L195.75,130.52569952200759L198,130.52934356711128L200.25,130.53191459314388L202.5,130.53533860905603L204.75,130.53820803084156L207,130.5410834808241L209.25,130.5428798835386L211.5,130.54638528011063L213.75,130.54892013696107L216,130.55147910659963L218.25,130.55389339950952L220.5,130.55657594718716L222.75,130.55861046368426L225,130.5608710375699L227.25,130.56367414918813L229.5,130.5653228610754L231.75,130.56820433925498L234,130.5701333623041L236.25,130.57234872471201L238.5,130.5746605382724L240.75,130.57656544853342L243,130.57797303253955L245.25,130.58028786019844L247.5,130.58161707764322" style="fill: none;" fill="none"></path></g></g></g></g></g></g><g transform="translate(60, 178)" clip-path="url(#clip_1)"><clipPath id="clip_1"><rect width="270" height="22"></rect></clipPath><g><g><line x1="0" y1="0" x2="0" y2="5" style="visibility: inherit;" fill="rgb(0, 0, 0)" stroke="rgb(204, 204, 204)" stroke-width="1px"></line><line x1="22.5" y1="0" x2="22.5" y2="5" style="visibility: inherit;" fill="rgb(0, 0, 0)" stroke="rgb(204, 204, 204)" stroke-width="1px"></line><line x1="45" y1="0" x2="45" y2="5" style="visibility: inherit;" fill="rgb(0, 0, 0)" stroke="rgb(204, 204, 204)" stroke-width="1px"></line><line x1="67.5" y1="0" x2="67.5" y2="5" style="visibility: inherit;" fill="rgb(0, 0, 0)" stroke="rgb(204, 204, 204)" stroke-width="1px"></line><line x1="90" y1="0" x2="90" y2="5" style="visibility: inherit;" fill="rgb(0, 0, 0)" stroke="rgb(204, 204, 204)" stroke-width="1px"></line><line x1="112.5" y1="0" x2="112.5" y2="5" style="visibility: inherit;" fill="rgb(0, 0, 0)" stroke="rgb(204, 204, 204)" stroke-width="1px"></line><line x1="135" y1="0" x2="135" y2="5" style="visibility: inherit;" fill="rgb(0, 0, 0)" stroke="rgb(204, 204, 204)" stroke-width="1px"></line><line x1="157.5" y1="0" x2="157.5" y2="5" style="visibility: inherit;" fill="rgb(0, 0, 0)" stroke="rgb(204, 204, 204)" stroke-width="1px"></line><line x1="180" y1="0" x2="180" y2="5" style="visibility: inherit;" fill="rgb(0, 0, 0)" stroke="rgb(204, 204, 204)" stroke-width="1px"></line><line x1="202.5" y1="0" x2="202.5" y2="5" style="visibility: inherit;" fill="rgb(0, 0, 0)" stroke="rgb(204, 204, 204)" stroke-width="1px"></line><line x1="225" y1="0" x2="225" y2="5" style="visibility: inherit;" fill="rgb(0, 0, 0)" stroke="rgb(204, 204, 204)" stroke-width="1px"></line><line x1="247.5" y1="0" x2="247.5" y2="5" style="visibility: inherit;" fill="rgb(0, 0, 0)" stroke="rgb(204, 204, 204)" stroke-width="1px"></line><line x1="270" y1="0" x2="270" y2="5" style="visibility: inherit;" fill="rgb(0, 0, 0)" stroke="rgb(204, 204, 204)" stroke-width="1px"></line></g><g transform="translate(0, 8)"><text x="0" y="0" dx="0em" dy="0.95em" style="text-anchor: middle; visibility: hidden; font-family: &quot;Helvetica Neue&quot;, sans-serif; font-size: 12px; font-weight: 200;" fill="rgb(50, 49, 63)" stroke="none" stroke-width="1px">-10</text><text x="22.5" y="0" dx="0em" dy="0.95em" style="text-anchor: middle; visibility: inherit; font-family: &quot;Helvetica Neue&quot;, sans-serif; font-size: 12px; font-weight: 200;" fill="rgb(50, 49, 63)" stroke="none" stroke-width="1px">0</text><text x="45" y="0" dx="0em" dy="0.95em" style="text-anchor: middle; visibility: inherit; font-family: &quot;Helvetica Neue&quot;, sans-serif; font-size: 12px; font-weight: 200;" fill="rgb(50, 49, 63)" stroke="none" stroke-width="1px">10</text><text x="67.5" y="0" dx="0em" dy="0.95em" style="text-anchor: middle; visibility: inherit; font-family: &quot;Helvetica Neue&quot;, sans-serif; font-size: 12px; font-weight: 200;" fill="rgb(50, 49, 63)" stroke="none" stroke-width="1px">20</text><text x="90" y="0" dx="0em" dy="0.95em" style="text-anchor: middle; visibility: inherit; font-family: &quot;Helvetica Neue&quot;, sans-serif; font-size: 12px; font-weight: 200;" fill="rgb(50, 49, 63)" stroke="none" stroke-width="1px">30</text><text x="112.5" y="0" dx="0em" dy="0.95em" style="text-anchor: middle; visibility: inherit; font-family: &quot;Helvetica Neue&quot;, sans-serif; font-size: 12px; font-weight: 200;" fill="rgb(50, 49, 63)" stroke="none" stroke-width="1px">40</text><text x="135" y="0" dx="0em" dy="0.95em" style="text-anchor: middle; visibility: inherit; font-family: &quot;Helvetica Neue&quot;, sans-serif; font-size: 12px; font-weight: 200;" fill="rgb(50, 49, 63)" stroke="none" stroke-width="1px">50</text><text x="157.5" y="0" dx="0em" dy="0.95em" style="text-anchor: middle; visibility: inherit; font-family: &quot;Helvetica Neue&quot;, sans-serif; font-size: 12px; font-weight: 200;" fill="rgb(50, 49, 63)" stroke="none" stroke-width="1px">60</text><text x="180" y="0" dx="0em" dy="0.95em" style="text-anchor: middle; visibility: inherit; font-family: &quot;Helvetica Neue&quot;, sans-serif; font-size: 12px; font-weight: 200;" fill="rgb(50, 49, 63)" stroke="none" stroke-width="1px">70</text><text x="202.5" y="0" dx="0em" dy="0.95em" style="text-anchor: middle; visibility: inherit; font-family: &quot;Helvetica Neue&quot;, sans-serif; font-size: 12px; font-weight: 200;" fill="rgb(50, 49, 63)" stroke="none" stroke-width="1px">80</text><text x="225" y="0" dx="0em" dy="0.95em" style="text-anchor: middle; visibility: inherit; font-family: &quot;Helvetica Neue&quot;, sans-serif; font-size: 12px; font-weight: 200;" fill="rgb(50, 49, 63)" stroke="none" stroke-width="1px">90</text><text x="247.5" y="0" dx="0em" dy="0.95em" style="text-anchor: middle; visibility: inherit; font-family: &quot;Helvetica Neue&quot;, sans-serif; font-size: 12px; font-weight: 200;" fill="rgb(50, 49, 63)" stroke="none" stroke-width="1px">100</text><text x="270" y="0" dx="0em" dy="0.95em" style="text-anchor: middle; visibility: hidden; font-family: &quot;Helvetica Neue&quot;, sans-serif; font-size: 12px; font-weight: 200;" fill="rgb(50, 49, 63)" stroke="none" stroke-width="1px">110</text></g><line x1="0" y1="0" x2="270" y2="0" fill="rgb(0, 0, 0)" stroke="rgb(204, 204, 204)" stroke-width="1px"></line></g></g></g></g></svg>