<svg viewBox="0 0 330 200" xmlns="http://www.w3.org/2000/svg"><g><g><g><g><g><line x1="50" y1="178" x2="45" y2="178" style="visibility: inherit;" fill="rgb(0, 0, 0)" stroke="rgb(204, 204, 204)" stroke-width="1px"></line><line x1="50" y1="165.28571428571428" x2="45" y2="165.28571428571428" style="visibility: inherit;" fill="rgb(0, 0, 0)" stroke="rgb(204, 204, 204)" stroke-width="1px"></line><line x1="50" y1="152.57142857142856" x2="45" y2="152.57142857142856" style="visibility: inherit;" fill="rgb(0, 0, 0)" stroke="rgb(204, 204, 204)" stroke-width="1px"></line><line x1="50" y1="139.85714285714283" x2="45" y2="139.85714285714283" style="visibility: inherit;" fill="rgb(0, 0, 0)" stroke="rgb(204, 204, 204)" stroke-width="1px"></line><line x1="50" y1="127.14285714285711" x2="45" y2="127.14285714285711" style="visibility: inherit;" fill="rgb(0, 0, 0)" stroke="rgb(204, 204, 204)" stroke-width="1px"></line><line x1="50" y1="114.42857142857152" x2="45" y2="114.42857142857152" style="visibility: inherit;" fill="rgb(0, 0, 0)" stroke="rgb(204, 204, 204)" stroke-width="1px"></line><line x1="50" y1="101.7142857142858" x2="45" y2="101.7142857142858" style="visibility: inherit;" fill="rgb(0, 0, 0)" stroke="rgb(204, 204, 204)" stroke-width="1px"></line><line x1="50" y1="89.00000000000007" x2="45" y2="89.00000000000007" style="visibility: inherit;" fill="rgb(0, 0, 0)" stroke="rgb(204, 204, 204)" stroke-width="1px"></line><line x1="50" y1="76.28571428571435" x2="45" y2="76.28571428571435" style="visibility: inherit;" fill="rgb(0, 0, 0)" stroke="rgb(204, 204, 204)" stroke-width="1px"></line><line x1="50" y1="63.571428571428626" x2="45" y2="63.571428571428626" style="visibility: inherit;" fill="rgb(0, 0, 0)" stroke="rgb(204, 204, 204)" stroke-width="1px"></line><line x1="50" y1="50.85714285714289" x2="45" y2="50.85714285714289" style="visibility: inherit;" fill="rgb(0, 0, 0)" stroke="rgb(204, 204, 204)" stroke-width="1px"></line><line x1="50" y1="38.14285714285717" x2="45" y2="38.14285714285717" style="visibility: inherit;" fill="rgb(0, 0, 0)" stroke="rgb(204, 204, 204)" stroke-width="1px"></line><line x1="50" y1="25.428571428571445" x2="45" y2="25.428571428571445" style="visibility: inherit;" fill="rgb(0, 0, 0)" stroke="rgb(204, 204, 204)" stroke-width="1px"></line><line x1="50" y1="12.714285714285722" x2="45" y2="12.714285714285722" style="visibility: inherit;" fill="rgb(0, 0, 0)" stroke="rgb(204, 204, 204)" stroke-width="1px"></line><line x1="50" y1="0" x2="45" y2="0" style="visibility: inherit;" fill="rgb(0, 0, 0)" stroke="rgb(204, 204, 204)" stroke-width="1px"></line></g><g transform="translate(40, 0)"><text x="0" y="178" dx="0em" dy="0.3em" style="text-anchor: end; visibility: hidden; font-family: &quot;Helvetica Neue&quot;, sans-serif; font-size: 12px; font-weight: 200;" fill="rgb(50, 49, 63)" stroke="none" stroke-width="1px">1.78</text><text x="0" y="165.28571428571428" dx="0em" dy="0.3em" style="text-anchor: end; visibility: inherit; font-family: &quot;Helvetica Neue&quot;, sans-serif; font-size: 12px; font-weight: 200;" fill="rgb(50, 49, 63)" stroke="none" stroke-width="1px">1.8</text><text x="0" y="152.57142857142856" dx="0em" dy="0.3em" style="text-anchor: end; visibility: hidden; font-family: &quot;Helvetica Neue&quot;, sans-serif; font-size: 12px; font-weight: 200;" fill="rgb(50, 49, 63)" stroke="none" stroke-width="1px">1.82</text><text x="0" y="139.85714285714283" dx="0em" dy="0.3em" style="text-anchor: end; visibility: inherit; font-family: &quot;Helvetica Neue&quot;, sans-serif; font-size: 12px; font-weight: 200;" fill="rgb(50, 49, 63)" stroke="none" stroke-width="1px">1.84</text><text x="0" y="127.14285714285711" dx="0em" dy="0.3em" style="text-anchor: end; visibility: hidden; font-family: &quot;Helvetica Neue&quot;, sans-serif; font-size: 12px; font-weight: 200;" fill="rgb(50, 49, 63)" stroke="none" stroke-width="1px">1.86</text><text x="0" y="114.42857142857152" dx="0em" dy="0.3em" style="text-anchor: end; visibility: inherit; font-family: &quot;Helvetica Neue&quot;, sans-serif; font-size: 12px; font-weight: 200;" fill="rgb(50, 49, 63)" stroke="none" stroke-width="1px">1.88</text><text x="0" y="101.7142857142858" dx="0em" dy="0.3em" style="text-anchor: end; visibility: hidden; font-family: &quot;Helvetica Neue&quot;, sans-serif; font-size: 12px; font-weight: 200;" fill="rgb(50, 49, 63)" stroke="none" stroke-width="1px">1.9</text><text x="0" y="89.00000000000007" dx="0em" dy="0.3em" style="text-anchor: end; visibility: inherit; font-family: &quot;Helvetica Neue&quot;, sans-serif; font-size: 12px; font-weight: 200;" fill="rgb(50, 49, 63)" stroke="none" stroke-width="1px">1.92</text><text x="0" y="76.28571428571435" dx="0em" dy="0.3em" style="text-anchor: end; visibility: hidden; font-family: &quot;Helvetica Neue&quot;, sans-serif; font-size: 12px; font-weight: 200;" fill="rgb(50, 49, 63)" stroke="none" stroke-width="1px">1.94</text><text x="0" y="63.571428571428626" dx="0em" dy="0.3em" style="text-anchor: end; visibility: inherit; font-family: &quot;Helvetica Neue&quot;, sans-serif; font-size: 12px; font-weight: 200;" fill="rgb(50, 49, 63)" stroke="none" stroke-width="1px">1.96</text><text x="0" y="50.85714285714289" dx="0em" dy="0.3em" style="text-anchor: end; visibility: hidden; font-family: &quot;Helvetica Neue&quot;, sans-serif; font-size: 12px; font-weight: 200;" fill="rgb(50, 49, 63)" stroke="none" stroke-width="1px">1.98</text><text x="0" y="38.14285714285717" dx="0em" dy="0.3em" style="text-anchor: end; visibility: inherit; font-family: &quot;Helvetica Neue&quot;, sans-serif; font-size: 12px; font-weight: 200;" fill="rgb(50, 49, 63)" stroke="none" stroke-width="1px">2</text><text x="0" y="25.428571428571445" dx="0em" dy="0.3em" style="text-anchor: end; visibility: hidden; font-family: &quot;Helvetica Neue&quot;, sans-serif; font-size: 12px; font-weight: 200;" fill="rgb(50, 49, 63)" stroke="none" stroke-width="1px">2.02</text><text x="0" y="12.714285714285722" dx="0em" dy="0.3em" style="text-anchor: end; visibility: inherit; font-family: &quot;Helvetica Neue&quot;, sans-serif; font-size: 12px; font-weight: 200;" fill="rgb(50, 49, 63)" stroke="none" stroke-width="1px">2.04</text><text x="0" y="0" dx="0em" dy="0.3em" style="text-anchor: end; visibility: hidden; font-family: &quot;Helvetica Neue&quot;, sans-serif; font-size: 12px; font-weight: 200;" fill="rgb(50, 49, 63)" stroke="none" stroke-width="1px">2.06</text></g><line x1="50" y1="0" x2="50" y2="178" fill="rgb(0, 0, 0)" stroke="rgb(204, 204, 204)" stroke-width="1px"></line></g></g><g transform="translate(50, 0)" clip-path="url(#clip_0)"><clipPath id="clip_0"><rect width="280" height="178"></rect></clipPath><g><g><g><line x1="0" y1="0" x2="0" y2="178" fill="rgb(0, 0, 0)" stroke="rgb(60, 60, 60)" stroke-width="1px" opacity="0.25"></line><line x1="35" y1="0" x2="35" y2="178" fill="rgb(0, 0, 0)" stroke="rgb(60, 60, 60)" stroke-width="1px" opacity="0.25"></line><line x1="70" y1="0" x2="70" y2="178" fill="rgb(0, 0, 0)" stroke="rgb(60, 60, 60)" stroke-width="1px" opacity="0.25"></line><line x1="105" y1="0" x2="105" y2="178" fill="rgb(0, 0, 0)" stroke="rgb(60, 60, 60)" stroke-width="1px" opacity="0.25"></line><line x1="140" y1="0" x2="140" y2="178" fill="rgb(0, 0, 0)" stroke="rgb(60, 60, 60)" stroke-width="1px" opacity="0.25"></line><line x1="175" y1="0" x2="175" y2="178" fill="rgb(0, 0, 0)" stroke="rgb(60, 60, 60)" stroke-width="1px" opacity="0.25"></line><line x1="210" y1="0" x2="210" y2="178" fill="rgb(0, 0, 0)" stroke="rgb(60, 60, 60)" stroke-width="1px" opacity="0.25"></line><line x1="245" y1="0" x2="245" y2="178" fill="rgb(0, 0, 0)" stroke="rgb(60, 60, 60)" stroke-width="1px" opacity="0.25"></line><line x1="280" y1="0" x2="280" y2="178" fill="rgb(0, 0, 0)" stroke="rgb(60, 60, 60)" stroke-width="1px" opacity="0.25"></line></g><g><line x1="0" y1="178" x2="280" y2="178" fill="rgb(0, 0, 0)" stroke="rgb(60, 60, 60)" stroke-width="1px" opacity="0.25"></line><line x1="0" y1="165.28571428571428" x2="280" y2="165.28571428571428" fill="rgb(0, 0, 0)" stroke="rgb(60, 60, 60)" stroke-width="1px" opacity="0.25"></line><line x1="0" y1="152.57142857142856" x2="280" y2="152.57142857142856" fill="rgb(0, 0, 0)" stroke="rgb(60, 60, 60)" stroke-width="1px" opacity="0.25"></line><line x1="0" y1="139.85714285714283" x2="280" y2="139.85714285714283" fill="rgb(0, 0, 0)" stroke="rgb(60, 60, 60)" stroke-width="1px" opacity="0.25"></line><line x1="0" y1="127.14285714285711" x2="280" y2="127.14285714285711" fill="rgb(0, 0, 0)" stroke="rgb(60, 60, 60)" stroke-width="1px" opacity="0.25"></line><line x1="0" y1="114.42857142857152" x2="280" y2="114.42857142857152" fill="rgb(0, 0, 0)" stroke="rgb(60, 60, 60)" stroke-width="1px" opacity="0.25"></line><line x1="0" y1="101.7142857142858" x2="280" y2="101.7142857142858" fill="rgb(0, 0, 0)" stroke="rgb(60, 60, 60)" stroke-width="1px" opacity="0.25"></line><line x1="0" y1="89.00000000000007" x2="280" y2="89.00000000000007" fill="rgb(0, 0, 0)" stroke="rgb(60, 60, 60)" stroke-width="1px" opacity="0.25"></line><line x1="0" y1="76.28571428571435" x2="280" y2="76.28571428571435" fill="rgb(0, 0, 0)" stroke="rgb(60, 60, 60)" stroke-width="1px" opacity="0.25"></line><line x1="0" y1="63.571428571428626" x2="280" y2="63.571428571428626" fill="rgb(0, 0, 0)" stroke="rgb(60, 60, 60)" stroke-width="1px" opacity="0.25"></line><line x1="0" y1="50.85714285714289" x2="280" y2="50.85714285714289" fill="rgb(0, 0, 0)" stroke="rgb(60, 60, 60)" stroke-width="1px" opacity="0.25"></line><line x1="0" y1="38.14285714285717" x2="280" y2="38.14285714285717" fill="rgb(0, 0, 0)" stroke="rgb(60, 60, 60)" stroke-width="1px" opacity="0.25"></line><line x1="0" y1="25.428571428571445" x2="280" y2="25.428571428571445" fill="rgb(0, 0, 0)" stroke="rgb(60, 60, 60)" stroke-width="1px" opacity="0.25"></line><line x1="0" y1="12.714285714285722" x2="280" y2="12.714285714285722" fill="rgb(0, 0, 0)" stroke="rgb(60, 60, 60)" stroke-width="1px" opacity="0.25"></line><line x1="0" y1="0" x2="280" y2="0" fill="rgb(0, 0, 0)" stroke="rgb(60, 60, 60)" stroke-width="1px" opacity="0.25"></line></g></g></g><g><g><line x1="0" y1="1309.5714285714284" x2="280" y2="1309.5714285714284" fill="rgb(0, 0, 0)" stroke="rgb(153, 153, 153)" stroke-width="1.5px"></line></g></g><g><g><line x1="35" y1="0" x2="35" y2="178" fill="rgb(0, 0, 0)" stroke="rgb(153, 153, 153)" stroke-width="1.5px"></line></g></g><g><g><g><g><g><path style="fill: none;" stroke="rgb(255, 112, 67)" stroke-width="2px" d="M43.673,-4.2680573416971015L44.464,5.289448905095156L45.164,13.5404805995625L45.864,20.724884844977765L46.655,27.447948326041768L47.355,33.30500945655112L48.055,38.68864211351308L48.846,43.44895821243534L49.546,47.98340591246139L50.246,52.12799345734982L51.037,55.830051694906956L51.737,59.17994677446818L52.437,62.97850687342567L53.227999999999994,65.9509876506528L53.928,68.97040339576164L54.628,71.594596222578L55.419,74.1655669578906L56.119,76.63937082996304L56.818999999999996,79.0187111952657L57.61,81.17134675421603L58.309999999999995,83.38729929105409L59.01,85.37357631549031L59.800999999999995,87.25530167468118L60.501,89.35502678217651L61.201,90.71210663222742L61.992000000000004,92.5304193038086L62.69199999999999,94.14888723130017L63.391999999999996,95.3285532467124L64.183,96.6481645610934L64.883,98.37112313433474L65.583,99.74534604399935L66.37400000000001,101.0222439617596L67.074,102.22483244435486L67.774,103.5136974338403L68.565,104.74126001932767L69.265,105.92949485201659L69.965,106.79224368159757L70.756,107.85286336421152L71.45599999999999,108.8699995219399L72.15599999999999,109.88729681269116L72.947,110.68986099777315L73.647,111.7404392623271L74.34700000000001,112.56348735642165L75.13799999999999,113.29257710819822L75.838,114.09291050801787L76.538,115.08664679679785L77.32900000000001,115.87477124850653L78.029,116.61140124103413L78.729,117.20070148255738L79.52,117.8133383999758L80.22,118.59715136522438L80.91999999999999,119.3703894584867L81.711,119.94567276909066L82.411,120.30184645407428L83.111,121.24194634017871L83.902,121.7227964847454L84.60199999999999,122.18897235005385L85.30199999999999,123.03474692724856L86.093,123.46821710514934L86.793,123.75521735066623L87.493,124.5698152422915L88.284,124.97991117307181L88.98400000000001,125.45171127598665L89.684,125.96793030770189L90.475,126.65403065809265L91.175,126.78065566684575L91.875,127.15191174171687L92.66600000000001,127.66233783820384L93.36600000000001,127.94519169076332L94.066,128.47899607982652L94.857,128.83607896154692L95.557,129.2407866477106L96.257,129.58864656443197L97.048,129.8858468017269L97.748,130.30630894021493L98.44800000000001,130.65276939580625L99.239,131.03343101941567L99.939,131.37268343671835L100.639,131.54528509015074L101.43,131.78913566132925L102.13000000000001,132.11553684015246L102.83000000000001,132.55927905523293L103.621,132.78181272198862L104.321,133.0083338789861L105.021,133.36710936179367L105.812,133.57373538396547L106.512,133.99138546626273L107.212,134.1299984833883L108.003,134.0858507724236L108.703,134.64859050343216L109.40299999999999,134.94473554475692L110.194,135.1319712336448L110.894,135.24688927062152L111.59400000000001,135.52366752462257L112.38499999999999,135.6586937404162L113.085,135.9559639766847L113.785,136.23138904678183L114.57600000000001,136.41846960676693L115.276,136.57985567131294L115.976,136.8278290216842L116.767,136.99734727393755L117.467,137.1573808593053L118.167,137.36725746237798L118.958,137.6148000602254L119.658,137.73349741110027L120.358,137.77467542125646L121.14899999999999,137.8925953768297L121.84899999999999,138.09163289443285L122.54899999999999,138.3895093272664L123.34,138.5484103415164L124.04,138.7399954214799L124.74000000000001,138.81199263764918L125.53099999999999,139.09445320762438L126.231,138.97286201747875L126.931,139.254875101897L127.722,139.44790914295146L128.422,139.48224763399043L129.122,139.68503317686475L129.913,139.8194057414939L130.613,139.93525324114802L131.313,140.1285912419562L132.10399999999998,140.33504868896034L132.804,140.36143584375597L133.504,140.5126166609994L134.29500000000002,140.54697287658712L134.995,140.72745852475418L135.695,140.8918293694389L136.486,140.95747109360468L137.186,141.14199582231788L137.886,141.21042371856254L138.677,141.31686607043204L139.377,141.409225907736L140.077,141.46821877000082L140.868,141.6215329106036L141.568,141.7364381887886L142.268,141.84979022203697L143.059,141.99825272612208L143.75900000000001,142.11479400529777L144.459,142.1718962810211L145.25,142.24720174544547L145.95,142.27992629095016L146.65,142.5005679757159L147.441,142.56123190960992L148.141,142.63600680563457L148.841,142.7522896880211L149.632,142.7779233700899L150.33200000000002,142.85141402081155L151.032,143.07514454907044L151.82299999999998,143.18016092257938L152.523,143.19785248376706L153.22299999999998,143.27979442559354L154.014,143.49313598665051L154.714,143.49115783874242L155.41400000000002,143.43316397694898L156.205,143.5219849683532L156.905,143.63860187840305L157.60500000000002,143.74464475545102L158.396,143.87198886873875L159.096,143.8572434861471L159.796,143.94864207295927L160.587,143.97435022125802L161.287,144.03048576381465L161.987,144.2297985198384L162.77800000000002,144.35702510472697L163.478,144.41750724194395L164.178,144.31420414919992L164.969,144.39527037563278L165.66899999999998,144.54418624107873L166.369,144.57854758045835L167.16,144.7309359485697L167.86,144.72573042617122L168.56,144.75016182911486L169.351,144.8895292552579L170.051,144.96475294918577L170.75099999999998,144.9232822978796L171.542,144.94386973611034L172.242,145.01718208314733L172.942,145.2024897199463L173.733,145.28963591908686L174.433,145.11990962010373L175.133,145.34973077354448L175.92399999999998,145.31377715267732L176.624,145.43889064855733L177.32399999999998,145.46879204926438L178.115,145.54629836569768L178.815,145.55688099063613L179.515,145.65250299656412L180.306,145.65025009767348L181.006,145.76211823258484L181.70600000000002,145.8375752488509L182.49699999999999,145.89091277495578L183.197,145.92873542873247L183.897,145.9124462209237L184.688,146.03720276368213L185.388,146.01362966613073L186.088,146.07363194211268L186.87900000000002,146.175049235044L187.579,146.2581798270196L188.27900000000002,146.20159815587286L189.07,146.35274167049263L189.76999999999998,146.28176738050857L190.47,146.36619519556493L191.261,146.36907825091436L191.961,146.52422328721846L192.661,146.4953299143651L193.452,146.4890279024939L194.15200000000002,146.68734492873045L194.85199999999998,146.61502841719928L195.643,146.5877651429709L196.343,146.70342124867224L197.043,146.6941824211175L197.834,146.75954174462782L198.534,146.78939055395693L199.234,146.87417080142492L200.025,146.8048167219919L200.72500000000002,146.98088350243347L201.42499999999998,146.99894868001667L202.21599999999998,147.00921183539907L202.916,147.08020970480302L203.61599999999999,147.09540527615945L204.407,147.04632123783495L205.107,147.16407180796938L205.80700000000002,147.27030986955862L206.598,147.24884224693923L207.29799999999997,147.3004985173486L207.998,147.40936694008622L208.789,147.39541892514717L209.489,147.47265464760812L210.189,147.42405507810264L210.98,147.45764370043906L211.68,147.48261667571643L212.38,147.53579511725493L213.17100000000002,147.60886753404574L213.87099999999998,147.53727824486242L214.571,147.60354320064488L215.362,147.69516809241026L216.06199999999998,147.69145663482163L216.762,147.68807785793322L217.553,147.69365920985538L218.25300000000001,147.7763074028097L218.953,147.84893436528284L219.74400000000003,147.82545770158023L220.444,147.92795634495153L221.14399999999998,147.931617908468L221.935,147.9509418155066L222.635,147.93392048067L223.335,148.02665137265663L224.126,148.08059236756534L224.82600000000002,148.063303911227L225.526,148.13889912748056L226.31699999999998,148.14021114952743L227.017,148.14578785141163L227.71699999999998,148.22082463628828L228.508,148.1961566159447L229.208,148.27608461418515L229.90800000000002,148.28736241772464L230.699,148.21664851120784L231.399,148.24788129030108L232.09900000000002,148.4235221810758L232.89,148.4688865412417L233.59,148.51059487618724L234.29,148.42958423589315L235.081,148.5253294022274L235.781,148.48256099888044L236.481,148.50818992400042L237.27200000000002,148.59055949382025L237.972,148.5478896753484L238.67200000000003,148.54180949752214L239.463,148.6083364936053L240.16299999999998,148.67914186176552L240.863,148.6465089251298L241.654,148.64208577281994L242.354,148.6774143452707L243.054,148.71895165892028L243.845,148.6361711787847L244.54500000000002,148.76380491064003L245.24499999999998,148.83329185642697L246.036,148.87725751534992L246.736,148.84264671338568L247.436,148.88271886342847L248.227,148.8993960411536L248.927,149.04271988645888L249.627,148.9429850987281L250.418,148.93992088591878L251.11800000000002,149.00461987469092L251.81799999999998,149.0394682362202L252.60899999999998,148.9762580694612L253.309,149.00680953190164L254.009,149.1350258294837" fill="none"></path></g></g></g></g><g opacity="0.2"><g><g><g><path style="fill: none;" stroke="rgb(255, 112, 67)" stroke-width="2px" d="M42.272999999999996,-5.342062268938321L42.973,3.8958913258144037L43.673,11.442064149039169L44.464,19.594501359122177L45.164,25.900863511221786L45.864,31.493046215602362L46.655,37.52780192238947L47.355,42.0881226403373L48.055,46.76272419520791L48.846,50.588707174573656L49.546,54.78466299601966L50.246,58.34464747565136L51.037,61.38301723343989L51.737,64.20472325597493L52.437,68.67630202429638L53.227999999999994,70.4096876893725L53.928,73.49951413699561L54.628,75.53087874821257L55.419,78.02201911381316L56.119,80.35007435934887L56.818999999999996,82.58772042819434L57.61,84.40029937880382L58.309999999999995,86.71122765541078L59.01,88.35299161502296L59.800999999999995,90.07788957868306L60.501,92.50461435317996L61.201,92.74772637231013L61.992000000000004,95.25788828304839L62.69199999999999,96.57658910751344L63.391999999999996,97.0980522632599L64.183,98.62758152825495L64.883,100.9555609907423L65.583,101.80668040684294L66.37400000000001,102.93759083747865L67.074,104.02871516772682L67.774,105.44699491773335L68.565,106.58260389736724L69.265,107.7118471009391L69.965,108.08636692592079L70.756,109.44379288809643L71.45599999999999,110.39570375851225L72.15599999999999,111.41324274880549L72.947,111.89370727539064L73.647,113.31630665915355L74.34700000000001,113.7980594975608L75.13799999999999,114.38621173586166L75.838,115.2934106077467L76.538,116.5772512299674L77.32900000000001,117.056957926069L78.029,117.71634622982572L78.729,118.08465184484211L79.52,118.73229377610346L80.22,119.77287081309728L80.91999999999999,120.53024659837997L81.711,120.80859773499628L82.411,120.83610698154996L83.111,122.65209616933552L83.902,122.4440717015948L84.60199999999999,122.88823614801682L85.30199999999999,124.30340879304072L86.093,124.11842237200058L86.793,124.18571771894185L87.493,125.79171207972936L88.284,125.59505506924222L88.98400000000001,126.15941143035892L89.684,126.74225885527477L90.475,127.68318118367878L91.175,126.97059317997525L91.875,127.70879585402355L92.66600000000001,128.42797698293415L93.36600000000001,128.36947246960233L94.066,129.27970266342166L94.857,129.3717032841274L95.557,129.8478481769562L96.257,130.1104364395142L97.048,130.3316471576691L97.748,130.93700214794706L98.44800000000001,131.17246007919314L99.239,131.60442345482966L99.939,131.88156206267223L100.639,131.80418757029943L101.43,132.15491151809695L102.13000000000001,132.60513860838756L102.83000000000001,133.22489237785342L103.621,133.11561322212222L104.321,133.34811561448237L105.021,133.90527258600508L105.812,133.88367441722326L106.512,134.6178605897086L107.212,134.33791800907682L108.003,134.01962920597623L108.703,135.4927000999451L109.40299999999999,135.38895310674397L110.194,135.4128247669765L110.894,135.41926632608687L111.59400000000001,135.93883490562442L112.38499999999999,135.86123306410656L113.085,136.4018693310874L113.785,136.64452665192744L114.57600000000001,136.69909044674466L115.276,136.82193476813183L115.976,137.19978904724124L116.767,137.25162465231762L117.467,137.397431237357L118.167,137.68207236698697L118.958,137.9861139569964L119.658,137.91154343741283L120.358,137.83644243649076L121.14899999999999,138.0694753101894L121.84899999999999,138.39018917083743L122.54899999999999,138.83632397651675L123.34,138.78676186289107L124.04,139.02737304142545L124.74000000000001,138.9199884619032L125.53099999999999,139.51814406258723L126.231,138.79047523226058L126.931,139.67789472852436L127.722,139.7374602045332L128.422,139.53375537054882L129.122,139.9892114911761L129.913,140.02096458843778L130.613,140.10902449062894L131.313,140.41859824316845L132.10399999999998,140.64473485946658L132.804,140.40101657594954L133.504,140.73938788686482L134.29500000000002,140.59850719996862L134.995,140.99818699700495L135.695,141.1383856364659L136.486,141.05593367985318L137.186,141.41878291538785L137.886,141.31306556292944L138.677,141.4765295982361L139.377,141.54776566369196L140.077,141.5567080633981L140.868,141.85150412150793L141.568,141.90879610606603L142.268,142.01981827190946L143.059,142.2209464822497L143.75900000000001,142.2896059240614L144.459,142.25754969460627L145.25,142.36015994208202L145.95,142.32901310920718L146.65,142.83153050286433L147.441,142.652227810451L148.141,142.7481691496713L148.841,142.92671401160106L149.632,142.81637389319286L150.33200000000002,142.96164999689375L151.032,143.41074034145902L151.82299999999998,143.3376854828426L152.523,143.22438982554846L153.22299999999998,143.40270733833316L154.014,143.8131483282362L154.714,143.48819061688016L155.41400000000002,143.34617318425862L156.205,143.65521645545962L156.905,143.81352724347798L157.60500000000002,143.90370907102314L158.396,144.06300503867016L159.096,143.8351254122598L159.796,144.08573995317732L160.587,144.012912443706L161.287,144.1146890776498L161.987,144.528767653874L162.77800000000002,144.54786498206005L163.478,144.5082304477692L164.178,144.1592495100839L164.969,144.51686971528193L165.66899999999998,144.7675600392478L166.369,144.6300895895277L167.16,144.9595185007368L167.86,144.7179221425738L168.56,144.78680893353055L169.351,145.0985803944724L170.051,145.07758849007746L170.75099999999998,144.8610763209207L171.542,144.97475089345662L172.242,145.12715060370311L172.942,145.48045117514476L173.733,145.42035521779744L174.433,144.8653201716287L175.133,145.69446250370572L175.92399999999998,145.2598467213767L176.624,145.6265608923776L177.32399999999998,145.51364415032526L178.115,145.66255784034732L178.815,145.57275492804393L179.515,145.79593600545613L180.306,145.64687074933735L181.006,145.9299204349518L181.70600000000002,145.95076077325007L182.49699999999999,145.9709190641131L183.197,145.9854694093977L183.897,145.88801240921023L184.688,146.22433757781985L185.388,145.97827001980374L186.088,146.16363535608565L186.87900000000002,146.32717517444067L187.579,146.38287571498327L188.27900000000002,146.1167256491525L189.07,146.57945694242207L189.76999999999998,146.17530594553267L190.47,146.4928369181497L191.261,146.37340283393863L191.961,146.75694084167483L192.661,146.45198985508512L193.452,146.47957488468717L194.15200000000002,146.98482046808516L194.85199999999998,146.50655364990237L195.643,146.54687023162845L196.343,146.8769054072244L197.043,146.6803241797856L197.834,146.8575807298933L198.534,146.83416376795088L199.234,147.00134117262706L200.025,146.70078560284207L200.72500000000002,147.24498367309573L201.42499999999998,147.02604644639155L202.21599999999998,147.02460656847273L202.916,147.18670650890897L203.61599999999999,147.118198633194L204.407,146.972695180348L205.107,147.34069766317097L205.80700000000002,147.42966696194242L206.598,147.2166408130101L207.29799999999997,147.37798292296276L207.998,147.57266957419262L208.789,147.37449690273831L209.489,147.58850823129927L210.189,147.35115572384427L210.98,147.50802663394384L211.68,147.52007613863265L212.38,147.61556277956282L213.17100000000002,147.718476159232L213.87099999999998,147.42989431108748L214.571,147.7029406343188L215.362,147.8326054300581L216.06199999999998,147.6858894484384L216.762,147.68300969260082L217.553,147.70203123773848L218.25300000000001,147.90027969224116L218.953,147.95787480899267L219.74400000000003,147.79024270602636L220.444,148.0817043100085L221.14399999999998,147.9371102537428L221.935,147.97992767606465L222.635,147.90838847841536L223.335,148.1657477106367L224.126,148.1615038599287L224.82600000000002,148.03737122671947L225.526,148.2522919518607L226.31699999999998,148.1421791825976L227.017,148.15415290423803L227.71699999999998,148.33337981360302L228.508,148.15915458542963L229.208,148.39597661154613L229.90800000000002,148.3042791230338L230.699,148.1105776514326L231.399,148.2947304589408L232.09900000000002,148.6869835172381L232.89,148.53693308149067L233.59,148.57315737860546L234.29,148.3080682754517L235.081,148.66894715172907L235.781,148.4184083938599L236.481,148.5466333116804L237.27200000000002,148.71411384855L237.972,148.48388494764058L238.67200000000003,148.53268923078267L239.463,148.70812698772977L240.16299999999998,148.78534991400585L240.863,148.5975595201765L241.654,148.63545104435514L242.354,148.7304072039468L243.054,148.78125762939456L243.845,148.51200045858113L244.54500000000002,148.95525550842288L245.24499999999998,148.93752227510726L246.036,148.94320600373408L246.736,148.7907305104392L247.436,148.94282708849227L248.227,148.92441180774145L248.927,149.25770565441678L249.627,148.7933829171317L250.418,148.9353245667049L251.11800000000002,149.10166835784915L251.81799999999998,149.09174077851435L252.60899999999998,148.88144281932287L253.309,149.05263672556197L254.009,149.32735027585713" fill="none"></path></g></g></g></g></g></g><g transform="translate(50, 178)" clip-path="url(#clip_1)"><clipPath id="clip_1"><rect width="280" height="22"></rect></clipPath><g><g><line x1="0" y1="0" x2="0" y2="5" style="visibility: inherit;" fill="rgb(0, 0, 0)" stroke="rgb(204, 204, 204)" stroke-width="1px"></line><line x1="35" y1="0" x2="35" y2="5" style="visibility: inherit;" fill="rgb(0, 0, 0)" stroke="rgb(204, 204, 204)" stroke-width="1px"></line><line x1="70" y1="0" x2="70" y2="5" style="visibility: inherit;" fill="rgb(0, 0, 0)" stroke="rgb(204, 204, 204)" stroke-width="1px"></line><line x1="105" y1="0" x2="105" y2="5" style="visibility: inherit;" fill="rgb(0, 0, 0)" stroke="rgb(204, 204, 204)" stroke-width="1px"></line><line x1="140" y1="0" x2="140" y2="5" style="visibility: inherit;" fill="rgb(0, 0, 0)" stroke="rgb(204, 204, 204)" stroke-width="1px"></line><line x1="175" y1="0" x2="175" y2="5" style="visibility: inherit;" fill="rgb(0, 0, 0)" stroke="rgb(204, 204, 204)" stroke-width="1px"></line><line x1="210" y1="0" x2="210" y2="5" style="visibility: inherit;" fill="rgb(0, 0, 0)" stroke="rgb(204, 204, 204)" stroke-width="1px"></line><line x1="245" y1="0" x2="245" y2="5" style="visibility: inherit;" fill="rgb(0, 0, 0)" stroke="rgb(204, 204, 204)" stroke-width="1px"></line><line x1="280" y1="0" x2="280" y2="5" style="visibility: inherit;" fill="rgb(0, 0, 0)" stroke="rgb(204, 204, 204)" stroke-width="1px"></line></g><g transform="translate(0, 8)"><text x="0" y="0" dx="0em" dy="0.95em" style="text-anchor: middle; visibility: hidden; font-family: &quot;Helvetica Neue&quot;, sans-serif; font-size: 12px; font-weight: 200;" fill="rgb(50, 49, 63)" stroke="none" stroke-width="1px">-5k</text><text x="35" y="0" dx="0em" dy="0.95em" style="text-anchor: middle; visibility: inherit; font-family: &quot;Helvetica Neue&quot;, sans-serif; font-size: 12px; font-weight: 200;" fill="rgb(50, 49, 63)" stroke="none" stroke-width="1px">0</text><text x="70" y="0" dx="0em" dy="0.95em" style="text-anchor: middle; visibility: inherit; font-family: &quot;Helvetica Neue&quot;, sans-serif; font-size: 12px; font-weight: 200;" fill="rgb(50, 49, 63)" stroke="none" stroke-width="1px">5k</text><text x="105" y="0" dx="0em" dy="0.95em" style="text-anchor: middle; visibility: inherit; font-family: &quot;Helvetica Neue&quot;, sans-serif; font-size: 12px; font-weight: 200;" fill="rgb(50, 49, 63)" stroke="none" stroke-width="1px">10k</text><text x="140" y="0" dx="0em" dy="0.95em" style="text-anchor: middle; visibility: inherit; font-family: &quot;Helvetica Neue&quot;, sans-serif; font-size: 12px; font-weight: 200;" fill="rgb(50, 49, 63)" stroke="none" stroke-width="1px">15k</text><text x="175" y="0" dx="0em" dy="0.95em" style="text-anchor: middle; visibility: inherit; font-family: &quot;Helvetica Neue&quot;, sans-serif; font-size: 12px; font-weight: 200;" fill="rgb(50, 49, 63)" stroke="none" stroke-width="1px">20k</text><text x="210" y="0" dx="0em" dy="0.95em" style="text-anchor: middle; visibility: inherit; font-family: &quot;Helvetica Neue&quot;, sans-serif; font-size: 12px; font-weight: 200;" fill="rgb(50, 49, 63)" stroke="none" stroke-width="1px">25k</text><text x="245" y="0" dx="0em" dy="0.95em" style="text-anchor: middle; visibility: inherit; font-family: &quot;Helvetica Neue&quot;, sans-serif; font-size: 12px; font-weight: 200;" fill="rgb(50, 49, 63)" stroke="none" stroke-width="1px">30k</text><text x="280" y="0" dx="0em" dy="0.95em" style="text-anchor: middle; visibility: hidden; font-family: &quot;Helvetica Neue&quot;, sans-serif; font-size: 12px; font-weight: 200;" fill="rgb(50, 49, 63)" stroke="none" stroke-width="1px">35k</text></g><line x1="0" y1="0" x2="280" y2="0" fill="rgb(0, 0, 0)" stroke="rgb(204, 204, 204)" stroke-width="1px"></line></g></g></g></g></svg>