<svg viewBox="0 0 330 200" xmlns="http://www.w3.org/2000/svg"><g><g><g><g><g><line x1="60" y1="178" x2="55" y2="178" style="visibility: inherit;" fill="rgb(0, 0, 0)" stroke="rgb(204, 204, 204)" stroke-width="1px"></line><line x1="60" y1="164.30769230769232" x2="55" y2="164.30769230769232" style="visibility: inherit;" fill="rgb(0, 0, 0)" stroke="rgb(204, 204, 204)" stroke-width="1px"></line><line x1="60" y1="150.6153846153846" x2="55" y2="150.6153846153846" style="visibility: inherit;" fill="rgb(0, 0, 0)" stroke="rgb(204, 204, 204)" stroke-width="1px"></line><line x1="60" y1="136.92307692307693" x2="55" y2="136.92307692307693" style="visibility: inherit;" fill="rgb(0, 0, 0)" stroke="rgb(204, 204, 204)" stroke-width="1px"></line><line x1="60" y1="123.23076923076923" x2="55" y2="123.23076923076923" style="visibility: inherit;" fill="rgb(0, 0, 0)" stroke="rgb(204, 204, 204)" stroke-width="1px"></line><line x1="60" y1="109.53846153846153" x2="55" y2="109.53846153846153" style="visibility: inherit;" fill="rgb(0, 0, 0)" stroke="rgb(204, 204, 204)" stroke-width="1px"></line><line x1="60" y1="95.84615384615384" x2="55" y2="95.84615384615384" style="visibility: inherit;" fill="rgb(0, 0, 0)" stroke="rgb(204, 204, 204)" stroke-width="1px"></line><line x1="60" y1="82.15384615384616" x2="55" y2="82.15384615384616" style="visibility: inherit;" fill="rgb(0, 0, 0)" stroke="rgb(204, 204, 204)" stroke-width="1px"></line><line x1="60" y1="68.46153846153845" x2="55" y2="68.46153846153845" style="visibility: inherit;" fill="rgb(0, 0, 0)" stroke="rgb(204, 204, 204)" stroke-width="1px"></line><line x1="60" y1="54.769230769230774" x2="55" y2="54.769230769230774" style="visibility: inherit;" fill="rgb(0, 0, 0)" stroke="rgb(204, 204, 204)" stroke-width="1px"></line><line x1="60" y1="41.076923076923094" x2="55" y2="41.076923076923094" style="visibility: inherit;" fill="rgb(0, 0, 0)" stroke="rgb(204, 204, 204)" stroke-width="1px"></line><line x1="60" y1="27.384615384615387" x2="55" y2="27.384615384615387" style="visibility: inherit;" fill="rgb(0, 0, 0)" stroke="rgb(204, 204, 204)" stroke-width="1px"></line><line x1="60" y1="13.692307692307708" x2="55" y2="13.692307692307708" style="visibility: inherit;" fill="rgb(0, 0, 0)" stroke="rgb(204, 204, 204)" stroke-width="1px"></line><line x1="60" y1="0" x2="55" y2="0" style="visibility: inherit;" fill="rgb(0, 0, 0)" stroke="rgb(204, 204, 204)" stroke-width="1px"></line></g><g transform="translate(50, 0)"><text x="0" y="178" dx="0em" dy="0.3em" style="text-anchor: end; visibility: hidden; font-family: &quot;Helvetica Neue&quot;, sans-serif; font-size: 12px; font-weight: 200;" fill="rgb(50, 49, 63)" stroke="none" stroke-width="1px">-5e-3</text><text x="0" y="164.30769230769232" dx="0em" dy="0.3em" style="text-anchor: end; visibility: inherit; font-family: &quot;Helvetica Neue&quot;, sans-serif; font-size: 12px; font-weight: 200;" fill="rgb(50, 49, 63)" stroke="none" stroke-width="1px">0</text><text x="0" y="150.6153846153846" dx="0em" dy="0.3em" style="text-anchor: end; visibility: hidden; font-family: &quot;Helvetica Neue&quot;, sans-serif; font-size: 12px; font-weight: 200;" fill="rgb(50, 49, 63)" stroke="none" stroke-width="1px">5e-3</text><text x="0" y="136.92307692307693" dx="0em" dy="0.3em" style="text-anchor: end; visibility: inherit; font-family: &quot;Helvetica Neue&quot;, sans-serif; font-size: 12px; font-weight: 200;" fill="rgb(50, 49, 63)" stroke="none" stroke-width="1px">0.01</text><text x="0" y="123.23076923076923" dx="0em" dy="0.3em" style="text-anchor: end; visibility: hidden; font-family: &quot;Helvetica Neue&quot;, sans-serif; font-size: 12px; font-weight: 200;" fill="rgb(50, 49, 63)" stroke="none" stroke-width="1px">0.015</text><text x="0" y="109.53846153846153" dx="0em" dy="0.3em" style="text-anchor: end; visibility: inherit; font-family: &quot;Helvetica Neue&quot;, sans-serif; font-size: 12px; font-weight: 200;" fill="rgb(50, 49, 63)" stroke="none" stroke-width="1px">0.02</text><text x="0" y="95.84615384615384" dx="0em" dy="0.3em" style="text-anchor: end; visibility: hidden; font-family: &quot;Helvetica Neue&quot;, sans-serif; font-size: 12px; font-weight: 200;" fill="rgb(50, 49, 63)" stroke="none" stroke-width="1px">0.025</text><text x="0" y="82.15384615384616" dx="0em" dy="0.3em" style="text-anchor: end; visibility: inherit; font-family: &quot;Helvetica Neue&quot;, sans-serif; font-size: 12px; font-weight: 200;" fill="rgb(50, 49, 63)" stroke="none" stroke-width="1px">0.03</text><text x="0" y="68.46153846153845" dx="0em" dy="0.3em" style="text-anchor: end; visibility: hidden; font-family: &quot;Helvetica Neue&quot;, sans-serif; font-size: 12px; font-weight: 200;" fill="rgb(50, 49, 63)" stroke="none" stroke-width="1px">0.035</text><text x="0" y="54.769230769230774" dx="0em" dy="0.3em" style="text-anchor: end; visibility: inherit; font-family: &quot;Helvetica Neue&quot;, sans-serif; font-size: 12px; font-weight: 200;" fill="rgb(50, 49, 63)" stroke="none" stroke-width="1px">0.04</text><text x="0" y="41.076923076923094" dx="0em" dy="0.3em" style="text-anchor: end; visibility: hidden; font-family: &quot;Helvetica Neue&quot;, sans-serif; font-size: 12px; font-weight: 200;" fill="rgb(50, 49, 63)" stroke="none" stroke-width="1px">0.045</text><text x="0" y="27.384615384615387" dx="0em" dy="0.3em" style="text-anchor: end; visibility: inherit; font-family: &quot;Helvetica Neue&quot;, sans-serif; font-size: 12px; font-weight: 200;" fill="rgb(50, 49, 63)" stroke="none" stroke-width="1px">0.05</text><text x="0" y="13.692307692307708" dx="0em" dy="0.3em" style="text-anchor: end; visibility: hidden; font-family: &quot;Helvetica Neue&quot;, sans-serif; font-size: 12px; font-weight: 200;" fill="rgb(50, 49, 63)" stroke="none" stroke-width="1px">0.055</text><text x="0" y="0" dx="0em" dy="0.3em" style="text-anchor: end; visibility: hidden; font-family: &quot;Helvetica Neue&quot;, sans-serif; font-size: 12px; font-weight: 200;" fill="rgb(50, 49, 63)" stroke="none" stroke-width="1px">0.06</text></g><line x1="60" y1="0" x2="60" y2="178" fill="rgb(0, 0, 0)" stroke="rgb(204, 204, 204)" stroke-width="1px"></line></g></g><g transform="translate(60, 0)" clip-path="url(#clip_0)"><clipPath id="clip_0"><rect width="270" height="178"></rect></clipPath><g><g><g><line x1="0" y1="0" x2="0" y2="178" fill="rgb(0, 0, 0)" stroke="rgb(60, 60, 60)" stroke-width="1px" opacity="0.25"></line><line x1="22.5" y1="0" x2="22.5" y2="178" fill="rgb(0, 0, 0)" stroke="rgb(60, 60, 60)" stroke-width="1px" opacity="0.25"></line><line x1="45" y1="0" x2="45" y2="178" fill="rgb(0, 0, 0)" stroke="rgb(60, 60, 60)" stroke-width="1px" opacity="0.25"></line><line x1="67.5" y1="0" x2="67.5" y2="178" fill="rgb(0, 0, 0)" stroke="rgb(60, 60, 60)" stroke-width="1px" opacity="0.25"></line><line x1="90" y1="0" x2="90" y2="178" fill="rgb(0, 0, 0)" stroke="rgb(60, 60, 60)" stroke-width="1px" opacity="0.25"></line><line x1="112.5" y1="0" x2="112.5" y2="178" fill="rgb(0, 0, 0)" stroke="rgb(60, 60, 60)" stroke-width="1px" opacity="0.25"></line><line x1="135" y1="0" x2="135" y2="178" fill="rgb(0, 0, 0)" stroke="rgb(60, 60, 60)" stroke-width="1px" opacity="0.25"></line><line x1="157.5" y1="0" x2="157.5" y2="178" fill="rgb(0, 0, 0)" stroke="rgb(60, 60, 60)" stroke-width="1px" opacity="0.25"></line><line x1="180" y1="0" x2="180" y2="178" fill="rgb(0, 0, 0)" stroke="rgb(60, 60, 60)" stroke-width="1px" opacity="0.25"></line><line x1="202.5" y1="0" x2="202.5" y2="178" fill="rgb(0, 0, 0)" stroke="rgb(60, 60, 60)" stroke-width="1px" opacity="0.25"></line><line x1="225" y1="0" x2="225" y2="178" fill="rgb(0, 0, 0)" stroke="rgb(60, 60, 60)" stroke-width="1px" opacity="0.25"></line><line x1="247.5" y1="0" x2="247.5" y2="178" fill="rgb(0, 0, 0)" stroke="rgb(60, 60, 60)" stroke-width="1px" opacity="0.25"></line><line x1="270" y1="0" x2="270" y2="178" fill="rgb(0, 0, 0)" stroke="rgb(60, 60, 60)" stroke-width="1px" opacity="0.25"></line></g><g><line x1="0" y1="178" x2="270" y2="178" fill="rgb(0, 0, 0)" stroke="rgb(60, 60, 60)" stroke-width="1px" opacity="0.25"></line><line x1="0" y1="164.30769230769232" x2="270" y2="164.30769230769232" fill="rgb(0, 0, 0)" stroke="rgb(60, 60, 60)" stroke-width="1px" opacity="0.25"></line><line x1="0" y1="150.6153846153846" x2="270" y2="150.6153846153846" fill="rgb(0, 0, 0)" stroke="rgb(60, 60, 60)" stroke-width="1px" opacity="0.25"></line><line x1="0" y1="136.92307692307693" x2="270" y2="136.92307692307693" fill="rgb(0, 0, 0)" stroke="rgb(60, 60, 60)" stroke-width="1px" opacity="0.25"></line><line x1="0" y1="123.23076923076923" x2="270" y2="123.23076923076923" fill="rgb(0, 0, 0)" stroke="rgb(60, 60, 60)" stroke-width="1px" opacity="0.25"></line><line x1="0" y1="109.53846153846153" x2="270" y2="109.53846153846153" fill="rgb(0, 0, 0)" stroke="rgb(60, 60, 60)" stroke-width="1px" opacity="0.25"></line><line x1="0" y1="95.84615384615384" x2="270" y2="95.84615384615384" fill="rgb(0, 0, 0)" stroke="rgb(60, 60, 60)" stroke-width="1px" opacity="0.25"></line><line x1="0" y1="82.15384615384616" x2="270" y2="82.15384615384616" fill="rgb(0, 0, 0)" stroke="rgb(60, 60, 60)" stroke-width="1px" opacity="0.25"></line><line x1="0" y1="68.46153846153845" x2="270" y2="68.46153846153845" fill="rgb(0, 0, 0)" stroke="rgb(60, 60, 60)" stroke-width="1px" opacity="0.25"></line><line x1="0" y1="54.769230769230774" x2="270" y2="54.769230769230774" fill="rgb(0, 0, 0)" stroke="rgb(60, 60, 60)" stroke-width="1px" opacity="0.25"></line><line x1="0" y1="41.076923076923094" x2="270" y2="41.076923076923094" fill="rgb(0, 0, 0)" stroke="rgb(60, 60, 60)" stroke-width="1px" opacity="0.25"></line><line x1="0" y1="27.384615384615387" x2="270" y2="27.384615384615387" fill="rgb(0, 0, 0)" stroke="rgb(60, 60, 60)" stroke-width="1px" opacity="0.25"></line><line x1="0" y1="13.692307692307708" x2="270" y2="13.692307692307708" fill="rgb(0, 0, 0)" stroke="rgb(60, 60, 60)" stroke-width="1px" opacity="0.25"></line><line x1="0" y1="0" x2="270" y2="0" fill="rgb(0, 0, 0)" stroke="rgb(60, 60, 60)" stroke-width="1px" opacity="0.25"></line></g></g></g><g><g><line x1="0" y1="164.30769230769232" x2="270" y2="164.30769230769232" fill="rgb(0, 0, 0)" stroke="rgb(153, 153, 153)" stroke-width="1.5px"></line></g></g><g><g><line x1="22.5" y1="0" x2="22.5" y2="178" fill="rgb(0, 0, 0)" stroke="rgb(153, 153, 153)" stroke-width="1.5px"></line></g></g><g><g><g><g><g><path stroke="rgb(0, 153, 136)" stroke-width="2px" d="M24.75,-1.2877601797763987L27,5.774865604937077L29.25,11.588908154043708L31.5,16.155486949142187L33.75,19.759037935087292L36,22.632828373671572L38.25,24.95967583036324L40.5,26.848454113682806L42.75,28.392983212451213L45,29.669586640680052L47.25,30.733750474688946L49.5,31.62849238148013L51.75,32.39425981844448L54,33.048421331595165L56.25,33.60843976778321L58.5,34.09291609687327L60.75,34.5180713308782L63,34.88510215101729L65.25,35.21056702004665L67.5,35.50427786140227L69.75,35.76047134987769L72,35.98955807508716L74.25,36.19851762958103L76.5,36.38894186834051L78.75,36.558333405077235L81,36.71372219269199L83.25,36.85229925459302L85.5,36.978891849264386L87.75,37.09423356989669L90,37.198923703841956L92.25,37.29201193533817L94.5,37.37818799818055L96.75,37.45936799219629L99,37.537130041804346L101.25,37.603386515624976L103.5,37.67002764207638L105.75,37.73428795983244L108,37.78216837994677L110.25,37.83710241008191L112.5,37.888254257393896L114.75,37.93395390700326L117,37.980764829989795L119.25,38.01937939802673L121.5,38.0546186296076L123.75,38.08167499516429L126,38.11375796464162L128.25,38.14869775206989L130.5,38.17511334043567L132.75,38.20586513844114L135,38.2343953626758L137.25,38.258152675199085L139.5,38.28647706006035L141.75,38.31036794837755L144,38.32729775930082L146.25,38.354475935569326L148.5,38.37826670882896L150.75,38.3957771089496L153,38.413963086553196L155.25,38.43008971273537L157.5,38.452684949350044L159.75,38.46596868939821L162,38.48306321244934L164.25,38.49922459164006L166.5,38.51365086431858L168.75,38.516532542587356L171,38.53509413048184L173.25,38.5479082203733L175.5,38.56437818077325L177.75,38.5780551388963L180,38.59472045080639L182.25,38.60801678350251L184.5,38.61538248926806L186.75,38.62438853599258L189,38.63683940457804L191.25,38.64883533960926L193.5,38.661717212201324L195.75,38.670723571594664L198,38.68126489496274L200.25,38.68918929425044L202.5,38.6741324961429L204.75,38.696033640564366L207,38.70820313830521L209.25,38.71699018469752L211.5,38.71993237526917L213.75,38.72808794942827L216,38.74132617344088L218.25,38.749056915313105L220.5,38.75963675142762L222.75,38.75965968329115L225,38.77170720754185L227.25,38.77899693147751L229.5,38.78805532412042L231.75,38.79358013347115L234,38.801542851731995L236.25,38.809878788282134L238.5,38.81647995547905L240.75,38.81738018653667L243,38.81843856463266L245.25,38.828006081105485L247.5,38.8181137140061" style="fill: none;" fill="none"></path></g><g><path stroke="rgb(238, 51, 119)" stroke-width="2px" d="M24.75,121.05463113234593L27,123.1445347327166L29.25,124.96580102440888L31.5,126.42178371642629L33.75,127.55515467193081L36,128.44029128463097L38.25,129.1395428017742L40.5,129.6972094046802L42.75,130.14593753667145L45,130.51004521235376L47.25,130.80867154806L49.5,131.05691775368598L51.75,131.26692098031256L54,131.44504981992628L56.25,131.59649568625628L58.5,131.7260945037001L60.75,131.83804712830633L63,131.93591946185762L65.25,132.02140295493857L67.5,132.09669691551372L69.75,132.16322795298075L72,132.2227094385484L74.25,132.27585488335154L76.5,132.32377779637386L78.75,132.3667218150062L81,132.4058950665911L83.25,132.44146947789346L85.5,132.47379201135158L87.75,132.5027749926062L90,132.52934414402262L92.25,132.55409672328324L94.5,132.5765239509176L96.75,132.59729072761206L99,132.61627673380107L101.25,132.6338515053354L103.5,132.65000314780585L105.75,132.6649897651915L108,132.67889990968357L110.25,132.6919978849616L112.5,132.70426272569443L114.75,132.71586956146075L117,132.72601757110354L119.25,132.73600949535088L121.5,132.74525384809633L123.75,132.75380073977465L126,132.76192711450022L128.25,132.7698297434341L130.5,132.77757466129532L132.75,132.7847434386827L135,132.79110950170957L137.25,132.7975621632462L139.5,132.80375257571126L141.75,132.80974075185088L144,132.81503935906923L146.25,132.82019150591688L148.5,132.82546796907752L150.75,132.83049869291006L153,132.83464133958458L155.25,132.83935086858537L157.5,132.84351299089627L159.75,132.84791183585003L162,132.85187122523007L164.25,132.85548532875217L166.5,132.85916974330584L168.75,132.8627463814847L171,132.86632568416238L173.25,132.86938426545223L175.5,132.8724507430253L177.75,132.87553828087104L180,132.87832322654654L182.25,132.88138364699614L184.5,132.88424005568612L186.75,132.8870903551522L189,132.8897900865594L191.25,132.89223217147844L193.5,132.89485529996676L195.75,132.89655975708155L198,132.89892189673012L200.25,132.90130424849278L202.5,132.90327230214024L204.75,132.90545594808975L207,132.90758124063922L209.25,132.9099632858848L211.5,132.9116628544835L213.75,132.91364766361622L216,132.91549961045615L218.25,132.9173544725904L220.5,132.91918353967796L222.75,132.92046766855537L225,132.92242356764208L227.25,132.92348897051357L229.5,132.92534219837648L231.75,132.92697441486854L234,132.92841179499646L236.25,132.92976287799848L238.5,132.93146718482376L240.75,132.9327703119345L243,132.93454684071062L245.25,132.93556481062456L247.5,132.93672749719624" style="fill: none;" fill="none"></path></g></g></g></g><g opacity="0.2"><g><g><g><path stroke="rgb(0, 153, 136)" stroke-width="2px" d="M24.75,-1.2877601797763987L27,10.012441075765196L29.25,17.170389001186095L31.5,21.525783612177946L33.75,24.463834102337188L36,26.608315114791594L38.25,28.287104922991546L40.5,29.6023109830343L42.75,30.67086362380249L45,31.56519395112994L47.25,32.32034433805026L49.5,32.96573609572192L51.75,33.5404106103457L54,34.0283820308172L56.25,34.44780914141583L58.5,34.81928890026535L60.75,35.155624270439176L63,35.43555519214044L65.25,35.69871474229373L67.5,35.94481727710138L69.75,36.14474753233105L72,36.33318062470511L74.25,36.51195283577994L76.5,36.67457597072308L78.75,36.812419506219726L81,36.946804711451904L83.25,37.06016449286389L85.5,37.168780546921965L87.75,37.26724604459912L90,37.3559588468992L92.25,37.43164425171341L94.5,37.50745207529803L96.75,37.581137973528655L99,37.65377311064648L101.25,37.70277122350842L103.5,37.769989330035L105.75,37.83067843547235L108,37.853989009673796L110.25,37.91950345497867L112.5,37.96498202819092L114.75,38.00250338132565L117,38.0509812144133L119.25,38.07730125005429L121.5,38.10747747696365L123.75,38.12225954349225L126,38.1618824188526L128.25,38.201107433209074L130.5,38.21473672298288L132.75,38.25199283544836L135,38.27719069902716L137.25,38.2937886439837L139.5,38.32896363735202L141.75,38.3462042808533L144,38.35269247568573L146.25,38.395243199972015L148.5,38.41395286871838L150.75,38.42204270913052L153,38.441242052958586L155.25,38.454279652008665L157.5,38.486577804272L159.75,38.48589429947049L162,38.50870499702603L164.25,38.52346666042624L166.5,38.53529027333627L168.75,38.52085505999054L171,38.562936512323546L173.25,38.56712935521054L175.5,38.58908312137311L177.75,38.59857057608093L180,38.61971841867154L182.25,38.62796128254672L184.5,38.62643104791644L186.75,38.637897606079406L189,38.655515707456175L191.25,38.666829242156126L193.5,38.681040021089416L195.75,38.68423311068463L198,38.69707688001489L200.25,38.701075893182036L202.5,38.6515472989816L204.75,38.72888535719653L207,38.72645738491647L209.25,38.73017075428598L211.5,38.72434566112668L213.75,38.7403213106669L216,38.76118350945987L218.25,38.76065302812137L220.5,38.775506505599395L222.75,38.759694081086394L225,38.789778493917936L227.25,38.78993151738095L229.5,38.80164291308478L231.75,38.80186734749722L234,38.81348692912323L236.25,38.82238269310733L238.5,38.8263817062745L240.75,38.818730533123045L243,38.82002613177667L245.25,38.84235735581473L247.5,38.803275163357085" style="fill: none;" fill="none"></path></g><g><path stroke="rgb(238, 51, 119)" stroke-width="2px" d="M24.75,121.05463113234593L27,124.39847689293897L29.25,126.71421666443348L31.5,128.13401936223875L33.75,129.0348837914375L36,129.6647538691759L38.25,130.13948365931327L40.5,130.5102926653165L42.75,130.80772437040622L45,131.05070267617702L47.25,131.2539025327334L49.5,131.4279361172364L51.75,131.5812401232811L54,131.71189410640642L56.25,131.82348646682044L58.5,131.92040132673887L60.75,132.00592869061688L63,132.08270311240966L65.25,132.14961517201021L67.5,132.20963097421023L69.75,132.2630208604611L72,132.31192970963625L74.25,132.35557200129216L76.5,132.39566159821473L78.75,132.43113753772698L81,132.46465477691248L83.25,132.49483100382182L85.5,132.5222757619161L87.75,132.54624943779066L90,132.56919785646292L92.25,132.59122558396598L94.5,132.61016478790685L96.75,132.62844089017466L99,132.6447557417246L101.25,132.66021366188158L103.5,132.67423061109506L105.75,132.68746969103813L108,132.6997651262925L110.25,132.7116448478057L112.5,132.72265998675272L114.75,132.73327981508695L117,132.74123958555552L119.25,132.75099738171468L121.5,132.75912037721048L123.75,132.76662107728993L126,132.7741166765873L128.25,132.78168368683413L130.5,132.78919203808675L132.75,132.79549660476354L135,132.80065859624972L137.25,132.80724115555103L139.5,132.81303819440876L141.75,132.81872301606032L144,132.82298726989671L146.25,132.82791972618838L148.5,132.8333826638185L150.75,132.8380447786588L153,132.8408553095964L155.25,132.8464151620865L157.5,132.84975617436262L159.75,132.85451010328075L162,132.85781030930005L164.25,132.86090648403535L166.5,132.86469636513635L168.75,132.86811133875295L171,132.8716946381789L173.25,132.873972137387L175.5,132.87705045938492L177.75,132.88016958763967L180,132.8825006450598L182.25,132.88597427767058L184.5,132.88852466872106L186.75,132.8913658043513L189,132.89383968367025L191.25,132.89589529885694L193.5,132.89878999269925L195.75,132.89911644275372L198,132.902465106203L200.25,132.90487777613674L202.5,132.9062243826114L204.75,132.90873141701405L207,132.9107691794634L209.25,132.91353635375316L211.5,132.91421220738152L213.75,132.91662487731531L216,132.918277530716L218.25,132.92013676579182L220.5,132.92192714030926L222.75,132.9223938618715L225,132.92535741627216L227.25,132.9250870748208L229.5,132.92812204017088L231.75,132.92942273960665L234,132.93056786518832L236.25,132.9317895025015L238.5,132.9340236450617L240.75,132.9347250026006L243,132.93721163387482L245.25,132.93709176549544L247.5,132.93847152705376" style="fill: none;" fill="none"></path></g></g></g></g></g></g><g transform="translate(60, 178)" clip-path="url(#clip_1)"><clipPath id="clip_1"><rect width="270" height="22"></rect></clipPath><g><g><line x1="0" y1="0" x2="0" y2="5" style="visibility: inherit;" fill="rgb(0, 0, 0)" stroke="rgb(204, 204, 204)" stroke-width="1px"></line><line x1="22.5" y1="0" x2="22.5" y2="5" style="visibility: inherit;" fill="rgb(0, 0, 0)" stroke="rgb(204, 204, 204)" stroke-width="1px"></line><line x1="45" y1="0" x2="45" y2="5" style="visibility: inherit;" fill="rgb(0, 0, 0)" stroke="rgb(204, 204, 204)" stroke-width="1px"></line><line x1="67.5" y1="0" x2="67.5" y2="5" style="visibility: inherit;" fill="rgb(0, 0, 0)" stroke="rgb(204, 204, 204)" stroke-width="1px"></line><line x1="90" y1="0" x2="90" y2="5" style="visibility: inherit;" fill="rgb(0, 0, 0)" stroke="rgb(204, 204, 204)" stroke-width="1px"></line><line x1="112.5" y1="0" x2="112.5" y2="5" style="visibility: inherit;" fill="rgb(0, 0, 0)" stroke="rgb(204, 204, 204)" stroke-width="1px"></line><line x1="135" y1="0" x2="135" y2="5" style="visibility: inherit;" fill="rgb(0, 0, 0)" stroke="rgb(204, 204, 204)" stroke-width="1px"></line><line x1="157.5" y1="0" x2="157.5" y2="5" style="visibility: inherit;" fill="rgb(0, 0, 0)" stroke="rgb(204, 204, 204)" stroke-width="1px"></line><line x1="180" y1="0" x2="180" y2="5" style="visibility: inherit;" fill="rgb(0, 0, 0)" stroke="rgb(204, 204, 204)" stroke-width="1px"></line><line x1="202.5" y1="0" x2="202.5" y2="5" style="visibility: inherit;" fill="rgb(0, 0, 0)" stroke="rgb(204, 204, 204)" stroke-width="1px"></line><line x1="225" y1="0" x2="225" y2="5" style="visibility: inherit;" fill="rgb(0, 0, 0)" stroke="rgb(204, 204, 204)" stroke-width="1px"></line><line x1="247.5" y1="0" x2="247.5" y2="5" style="visibility: inherit;" fill="rgb(0, 0, 0)" stroke="rgb(204, 204, 204)" stroke-width="1px"></line><line x1="270" y1="0" x2="270" y2="5" style="visibility: inherit;" fill="rgb(0, 0, 0)" stroke="rgb(204, 204, 204)" stroke-width="1px"></line></g><g transform="translate(0, 8)"><text x="0" y="0" dx="0em" dy="0.95em" style="text-anchor: middle; visibility: hidden; font-family: &quot;Helvetica Neue&quot;, sans-serif; font-size: 12px; font-weight: 200;" fill="rgb(50, 49, 63)" stroke="none" stroke-width="1px">-10</text><text x="22.5" y="0" dx="0em" dy="0.95em" style="text-anchor: middle; visibility: inherit; font-family: &quot;Helvetica Neue&quot;, sans-serif; font-size: 12px; font-weight: 200;" fill="rgb(50, 49, 63)" stroke="none" stroke-width="1px">0</text><text x="45" y="0" dx="0em" dy="0.95em" style="text-anchor: middle; visibility: inherit; font-family: &quot;Helvetica Neue&quot;, sans-serif; font-size: 12px; font-weight: 200;" fill="rgb(50, 49, 63)" stroke="none" stroke-width="1px">10</text><text x="67.5" y="0" dx="0em" dy="0.95em" style="text-anchor: middle; visibility: inherit; font-family: &quot;Helvetica Neue&quot;, sans-serif; font-size: 12px; font-weight: 200;" fill="rgb(50, 49, 63)" stroke="none" stroke-width="1px">20</text><text x="90" y="0" dx="0em" dy="0.95em" style="text-anchor: middle; visibility: inherit; font-family: &quot;Helvetica Neue&quot;, sans-serif; font-size: 12px; font-weight: 200;" fill="rgb(50, 49, 63)" stroke="none" stroke-width="1px">30</text><text x="112.5" y="0" dx="0em" dy="0.95em" style="text-anchor: middle; visibility: inherit; font-family: &quot;Helvetica Neue&quot;, sans-serif; font-size: 12px; font-weight: 200;" fill="rgb(50, 49, 63)" stroke="none" stroke-width="1px">40</text><text x="135" y="0" dx="0em" dy="0.95em" style="text-anchor: middle; visibility: inherit; font-family: &quot;Helvetica Neue&quot;, sans-serif; font-size: 12px; font-weight: 200;" fill="rgb(50, 49, 63)" stroke="none" stroke-width="1px">50</text><text x="157.5" y="0" dx="0em" dy="0.95em" style="text-anchor: middle; visibility: inherit; font-family: &quot;Helvetica Neue&quot;, sans-serif; font-size: 12px; font-weight: 200;" fill="rgb(50, 49, 63)" stroke="none" stroke-width="1px">60</text><text x="180" y="0" dx="0em" dy="0.95em" style="text-anchor: middle; visibility: inherit; font-family: &quot;Helvetica Neue&quot;, sans-serif; font-size: 12px; font-weight: 200;" fill="rgb(50, 49, 63)" stroke="none" stroke-width="1px">70</text><text x="202.5" y="0" dx="0em" dy="0.95em" style="text-anchor: middle; visibility: inherit; font-family: &quot;Helvetica Neue&quot;, sans-serif; font-size: 12px; font-weight: 200;" fill="rgb(50, 49, 63)" stroke="none" stroke-width="1px">80</text><text x="225" y="0" dx="0em" dy="0.95em" style="text-anchor: middle; visibility: inherit; font-family: &quot;Helvetica Neue&quot;, sans-serif; font-size: 12px; font-weight: 200;" fill="rgb(50, 49, 63)" stroke="none" stroke-width="1px">90</text><text x="247.5" y="0" dx="0em" dy="0.95em" style="text-anchor: middle; visibility: inherit; font-family: &quot;Helvetica Neue&quot;, sans-serif; font-size: 12px; font-weight: 200;" fill="rgb(50, 49, 63)" stroke="none" stroke-width="1px">100</text><text x="270" y="0" dx="0em" dy="0.95em" style="text-anchor: middle; visibility: hidden; font-family: &quot;Helvetica Neue&quot;, sans-serif; font-size: 12px; font-weight: 200;" fill="rgb(50, 49, 63)" stroke="none" stroke-width="1px">110</text></g><line x1="0" y1="0" x2="270" y2="0" fill="rgb(0, 0, 0)" stroke="rgb(204, 204, 204)" stroke-width="1px"></line></g></g></g></g></svg>