<svg viewBox="0 0 330 200" xmlns="http://www.w3.org/2000/svg"><g><g><g><g><g><line x1="50" y1="178" x2="45" y2="178" style="visibility: inherit;" fill="rgb(0, 0, 0)" stroke="rgb(204, 204, 204)" stroke-width="1px"></line><line x1="50" y1="164.3076923076923" x2="45" y2="164.3076923076923" style="visibility: inherit;" fill="rgb(0, 0, 0)" stroke="rgb(204, 204, 204)" stroke-width="1px"></line><line x1="50" y1="150.61538461538458" x2="45" y2="150.61538461538458" style="visibility: inherit;" fill="rgb(0, 0, 0)" stroke="rgb(204, 204, 204)" stroke-width="1px"></line><line x1="50" y1="136.92307692307685" x2="45" y2="136.92307692307685" style="visibility: inherit;" fill="rgb(0, 0, 0)" stroke="rgb(204, 204, 204)" stroke-width="1px"></line><line x1="50" y1="123.23076923076945" x2="45" y2="123.23076923076945" style="visibility: inherit;" fill="rgb(0, 0, 0)" stroke="rgb(204, 204, 204)" stroke-width="1px"></line><line x1="50" y1="109.53846153846172" x2="45" y2="109.53846153846172" style="visibility: inherit;" fill="rgb(0, 0, 0)" stroke="rgb(204, 204, 204)" stroke-width="1px"></line><line x1="50" y1="95.84615384615401" x2="45" y2="95.84615384615401" style="visibility: inherit;" fill="rgb(0, 0, 0)" stroke="rgb(204, 204, 204)" stroke-width="1px"></line><line x1="50" y1="82.1538461538463" x2="45" y2="82.1538461538463" style="visibility: inherit;" fill="rgb(0, 0, 0)" stroke="rgb(204, 204, 204)" stroke-width="1px"></line><line x1="50" y1="68.46153846153858" x2="45" y2="68.46153846153858" style="visibility: inherit;" fill="rgb(0, 0, 0)" stroke="rgb(204, 204, 204)" stroke-width="1px"></line><line x1="50" y1="54.76923076923087" x2="45" y2="54.76923076923087" style="visibility: inherit;" fill="rgb(0, 0, 0)" stroke="rgb(204, 204, 204)" stroke-width="1px"></line><line x1="50" y1="41.07692307692315" x2="45" y2="41.07692307692315" style="visibility: inherit;" fill="rgb(0, 0, 0)" stroke="rgb(204, 204, 204)" stroke-width="1px"></line><line x1="50" y1="27.384615384615415" x2="45" y2="27.384615384615415" style="visibility: inherit;" fill="rgb(0, 0, 0)" stroke="rgb(204, 204, 204)" stroke-width="1px"></line><line x1="50" y1="13.692307692307736" x2="45" y2="13.692307692307736" style="visibility: inherit;" fill="rgb(0, 0, 0)" stroke="rgb(204, 204, 204)" stroke-width="1px"></line><line x1="50" y1="0" x2="45" y2="0" style="visibility: inherit;" fill="rgb(0, 0, 0)" stroke="rgb(204, 204, 204)" stroke-width="1px"></line></g><g transform="translate(40, 0)"><text x="0" y="178" dx="0em" dy="0.3em" style="text-anchor: end; visibility: hidden; font-family: &quot;Helvetica Neue&quot;, sans-serif; font-size: 12px; font-weight: 200;" fill="rgb(50, 49, 63)" stroke="none" stroke-width="1px">3.18</text><text x="0" y="164.3076923076923" dx="0em" dy="0.3em" style="text-anchor: end; visibility: inherit; font-family: &quot;Helvetica Neue&quot;, sans-serif; font-size: 12px; font-weight: 200;" fill="rgb(50, 49, 63)" stroke="none" stroke-width="1px">3.2</text><text x="0" y="150.61538461538458" dx="0em" dy="0.3em" style="text-anchor: end; visibility: hidden; font-family: &quot;Helvetica Neue&quot;, sans-serif; font-size: 12px; font-weight: 200;" fill="rgb(50, 49, 63)" stroke="none" stroke-width="1px">3.22</text><text x="0" y="136.92307692307685" dx="0em" dy="0.3em" style="text-anchor: end; visibility: inherit; font-family: &quot;Helvetica Neue&quot;, sans-serif; font-size: 12px; font-weight: 200;" fill="rgb(50, 49, 63)" stroke="none" stroke-width="1px">3.24</text><text x="0" y="123.23076923076945" dx="0em" dy="0.3em" style="text-anchor: end; visibility: hidden; font-family: &quot;Helvetica Neue&quot;, sans-serif; font-size: 12px; font-weight: 200;" fill="rgb(50, 49, 63)" stroke="none" stroke-width="1px">3.26</text><text x="0" y="109.53846153846172" dx="0em" dy="0.3em" style="text-anchor: end; visibility: inherit; font-family: &quot;Helvetica Neue&quot;, sans-serif; font-size: 12px; font-weight: 200;" fill="rgb(50, 49, 63)" stroke="none" stroke-width="1px">3.28</text><text x="0" y="95.84615384615401" dx="0em" dy="0.3em" style="text-anchor: end; visibility: hidden; font-family: &quot;Helvetica Neue&quot;, sans-serif; font-size: 12px; font-weight: 200;" fill="rgb(50, 49, 63)" stroke="none" stroke-width="1px">3.3</text><text x="0" y="82.1538461538463" dx="0em" dy="0.3em" style="text-anchor: end; visibility: inherit; font-family: &quot;Helvetica Neue&quot;, sans-serif; font-size: 12px; font-weight: 200;" fill="rgb(50, 49, 63)" stroke="none" stroke-width="1px">3.32</text><text x="0" y="68.46153846153858" dx="0em" dy="0.3em" style="text-anchor: end; visibility: hidden; font-family: &quot;Helvetica Neue&quot;, sans-serif; font-size: 12px; font-weight: 200;" fill="rgb(50, 49, 63)" stroke="none" stroke-width="1px">3.34</text><text x="0" y="54.76923076923087" dx="0em" dy="0.3em" style="text-anchor: end; visibility: inherit; font-family: &quot;Helvetica Neue&quot;, sans-serif; font-size: 12px; font-weight: 200;" fill="rgb(50, 49, 63)" stroke="none" stroke-width="1px">3.36</text><text x="0" y="41.07692307692315" dx="0em" dy="0.3em" style="text-anchor: end; visibility: hidden; font-family: &quot;Helvetica Neue&quot;, sans-serif; font-size: 12px; font-weight: 200;" fill="rgb(50, 49, 63)" stroke="none" stroke-width="1px">3.38</text><text x="0" y="27.384615384615415" dx="0em" dy="0.3em" style="text-anchor: end; visibility: inherit; font-family: &quot;Helvetica Neue&quot;, sans-serif; font-size: 12px; font-weight: 200;" fill="rgb(50, 49, 63)" stroke="none" stroke-width="1px">3.4</text><text x="0" y="13.692307692307736" dx="0em" dy="0.3em" style="text-anchor: end; visibility: hidden; font-family: &quot;Helvetica Neue&quot;, sans-serif; font-size: 12px; font-weight: 200;" fill="rgb(50, 49, 63)" stroke="none" stroke-width="1px">3.42</text><text x="0" y="0" dx="0em" dy="0.3em" style="text-anchor: end; visibility: hidden; font-family: &quot;Helvetica Neue&quot;, sans-serif; font-size: 12px; font-weight: 200;" fill="rgb(50, 49, 63)" stroke="none" stroke-width="1px">3.44</text></g><line x1="50" y1="0" x2="50" y2="178" fill="rgb(0, 0, 0)" stroke="rgb(204, 204, 204)" stroke-width="1px"></line></g></g><g transform="translate(50, 0)" clip-path="url(#clip_0)"><clipPath id="clip_0"><rect width="280" height="178"></rect></clipPath><g><g><g><line x1="0" y1="0" x2="0" y2="178" fill="rgb(0, 0, 0)" stroke="rgb(60, 60, 60)" stroke-width="1px" opacity="0.25"></line><line x1="35" y1="0" x2="35" y2="178" fill="rgb(0, 0, 0)" stroke="rgb(60, 60, 60)" stroke-width="1px" opacity="0.25"></line><line x1="70" y1="0" x2="70" y2="178" fill="rgb(0, 0, 0)" stroke="rgb(60, 60, 60)" stroke-width="1px" opacity="0.25"></line><line x1="105" y1="0" x2="105" y2="178" fill="rgb(0, 0, 0)" stroke="rgb(60, 60, 60)" stroke-width="1px" opacity="0.25"></line><line x1="140" y1="0" x2="140" y2="178" fill="rgb(0, 0, 0)" stroke="rgb(60, 60, 60)" stroke-width="1px" opacity="0.25"></line><line x1="175" y1="0" x2="175" y2="178" fill="rgb(0, 0, 0)" stroke="rgb(60, 60, 60)" stroke-width="1px" opacity="0.25"></line><line x1="210" y1="0" x2="210" y2="178" fill="rgb(0, 0, 0)" stroke="rgb(60, 60, 60)" stroke-width="1px" opacity="0.25"></line><line x1="245" y1="0" x2="245" y2="178" fill="rgb(0, 0, 0)" stroke="rgb(60, 60, 60)" stroke-width="1px" opacity="0.25"></line><line x1="280" y1="0" x2="280" y2="178" fill="rgb(0, 0, 0)" stroke="rgb(60, 60, 60)" stroke-width="1px" opacity="0.25"></line></g><g><line x1="0" y1="178" x2="280" y2="178" fill="rgb(0, 0, 0)" stroke="rgb(60, 60, 60)" stroke-width="1px" opacity="0.25"></line><line x1="0" y1="164.3076923076923" x2="280" y2="164.3076923076923" fill="rgb(0, 0, 0)" stroke="rgb(60, 60, 60)" stroke-width="1px" opacity="0.25"></line><line x1="0" y1="150.61538461538458" x2="280" y2="150.61538461538458" fill="rgb(0, 0, 0)" stroke="rgb(60, 60, 60)" stroke-width="1px" opacity="0.25"></line><line x1="0" y1="136.92307692307685" x2="280" y2="136.92307692307685" fill="rgb(0, 0, 0)" stroke="rgb(60, 60, 60)" stroke-width="1px" opacity="0.25"></line><line x1="0" y1="123.23076923076945" x2="280" y2="123.23076923076945" fill="rgb(0, 0, 0)" stroke="rgb(60, 60, 60)" stroke-width="1px" opacity="0.25"></line><line x1="0" y1="109.53846153846172" x2="280" y2="109.53846153846172" fill="rgb(0, 0, 0)" stroke="rgb(60, 60, 60)" stroke-width="1px" opacity="0.25"></line><line x1="0" y1="95.84615384615401" x2="280" y2="95.84615384615401" fill="rgb(0, 0, 0)" stroke="rgb(60, 60, 60)" stroke-width="1px" opacity="0.25"></line><line x1="0" y1="82.1538461538463" x2="280" y2="82.1538461538463" fill="rgb(0, 0, 0)" stroke="rgb(60, 60, 60)" stroke-width="1px" opacity="0.25"></line><line x1="0" y1="68.46153846153858" x2="280" y2="68.46153846153858" fill="rgb(0, 0, 0)" stroke="rgb(60, 60, 60)" stroke-width="1px" opacity="0.25"></line><line x1="0" y1="54.76923076923087" x2="280" y2="54.76923076923087" fill="rgb(0, 0, 0)" stroke="rgb(60, 60, 60)" stroke-width="1px" opacity="0.25"></line><line x1="0" y1="41.07692307692315" x2="280" y2="41.07692307692315" fill="rgb(0, 0, 0)" stroke="rgb(60, 60, 60)" stroke-width="1px" opacity="0.25"></line><line x1="0" y1="27.384615384615415" x2="280" y2="27.384615384615415" fill="rgb(0, 0, 0)" stroke="rgb(60, 60, 60)" stroke-width="1px" opacity="0.25"></line><line x1="0" y1="13.692307692307736" x2="280" y2="13.692307692307736" fill="rgb(0, 0, 0)" stroke="rgb(60, 60, 60)" stroke-width="1px" opacity="0.25"></line><line x1="0" y1="0" x2="280" y2="0" fill="rgb(0, 0, 0)" stroke="rgb(60, 60, 60)" stroke-width="1px" opacity="0.25"></line></g></g></g><g><g><line x1="0" y1="2355.0769230769247" x2="280" y2="2355.0769230769247" fill="rgb(0, 0, 0)" stroke="rgb(153, 153, 153)" stroke-width="1.5px"></line></g></g><g><g><line x1="35" y1="0" x2="35" y2="178" fill="rgb(0, 0, 0)" stroke="rgb(153, 153, 153)" stroke-width="1.5px"></line></g></g><g><g><g><g><g><path style="fill: none;" stroke="rgb(238, 51, 119)" stroke-width="2px" d="M35.7,25.223777184119285L36.4,25.131044965523927L37.1,25.232488070776895L37.891,25.226309572410173L38.591,25.18422088440792L39.291000000000004,25.100486842893872L40.082,25.080627236046126L40.782000000000004,25.14152160731419L41.482,25.1197525873869L42.272999999999996,25.146967310675763L42.973,25.18068635222309L43.673,25.188276285001052L44.464,25.176802685049893L45.164,25.177311680497695L45.864,25.221838952325413L46.655,25.25102363310029L47.355,25.218247351929364L48.055,25.160517191733646L48.846,25.08324587297318L49.546,25.15983168092862L50.246,25.218709079350873L51.037,25.190441384139945L51.737,25.222318318967467L52.437,25.17302006311263L53.227999999999994,25.186859239781995L53.928,25.172572338299375L54.628,25.146959502722694L55.419,25.114159374540748L56.119,25.08559986576978L56.818999999999996,25.18265642153756L57.61,25.159604266922514L58.309999999999995,25.16000619961818L59.01,25.155154738122036L59.800999999999995,25.200297310766132L60.501,25.207077659788354L61.201,25.121829133304942L61.992000000000004,25.121606226788884L62.69199999999999,25.144258696766087L63.391999999999996,25.17998349244067L64.183,25.220156602945536L64.883,25.11844661812364L65.583,25.119315557638004L66.37400000000001,25.1256477323181L67.074,25.16692350338343L67.774,25.037343380252395L68.565,25.06889078462322L69.265,25.132869334761864L69.965,25.06790237759833L70.756,25.007833529782857L71.45599999999999,25.075081018326244L72.15599999999999,25.104591369644368L72.947,25.129936511709502L73.647,25.132934364911137L74.34700000000001,25.101500461288282L75.13799999999999,25.054434834408937L75.838,25.154229169641496L76.538,25.11075168353807L77.32900000000001,25.09413224345562L78.029,25.118633705157265L78.729,25.105129297472786L79.52,25.16701754453854L80.22,25.110198167104215L80.91999999999999,25.113713586917072L81.711,25.167597817443067L82.411,25.174138801455967L83.111,25.075231624707925L83.902,25.038281792395907L84.60199999999999,25.09256649576318L85.30199999999999,25.102089943938722L86.093,25.134377047276814L86.793,25.095445329552973L87.493,25.11445951598793L88.284,25.070175648557523L88.98400000000001,25.143042014688717L89.684,25.13172235518485L90.475,25.107693996607168L91.175,25.145117250109053L91.875,25.155819000249636L92.66600000000001,25.16008547997464L93.36600000000001,25.15474527649161L94.066,25.18718950034861L94.857,25.08900343503481L95.557,25.10968031912455L96.257,25.14134700279169L97.048,25.090682571369513L97.748,25.12550863339777L98.44800000000001,25.179506306137085L99.239,25.16254566154629L99.939,25.133957491720167L100.639,25.11902445019473L101.43,25.14277492073674L102.13000000000001,25.14618706125364L102.83000000000001,25.137265623733555L103.621,25.140661622681392L104.321,25.075907540907252L105.021,25.111550994270914L105.812,25.099965610788416L106.512,25.127030476373875L107.212,25.121331952065248L108.003,25.216174303873288L108.703,25.09973473603847L109.40299999999999,25.104758637831395L110.194,25.08217929463723L110.894,25.108980915452207L111.59400000000001,25.00244724748532L112.38499999999999,25.023861090941665L113.085,25.02358610482605L113.785,25.03412867494285L114.57600000000001,25.021585403865174L115.276,25.052972287710645L115.976,25.016112038726476L116.767,24.983223037538522L117.467,25.05711551244596L118.167,25.109351088708053L118.958,25.921038644651844L119.658,27.94478216459285L120.358,31.607730135077958L121.14899999999999,37.441956654044816L121.84899999999999,42.76264748908403L122.54899999999999,47.898810904386295L123.34,54.59881606721463L124.04,59.667833769920435L124.74000000000001,65.93045765894371L125.53099999999999,72.2560187007787L126.231,77.96076169442894L126.931,82.11831598319134L127.722,85.93007452620374L128.422,90.07306350163923L129.122,95.04105252100885L129.913,100.42092738287288L130.613,106.04858665034243L131.313,109.47552080922235L132.10399999999998,112.38449942682688L132.804,114.15410919143056L133.504,115.9353056802168L134.29500000000002,117.2164772689324L134.995,119.0249889356348L135.695,120.42551197827726L136.486,122.27279364185677L137.186,123.96400656724106L137.886,123.75422016818413L138.677,124.4384014938924L139.377,125.00678153565526L140.077,126.20709139406827L140.868,126.14771457906062L141.568,127.77313165717015L142.268,127.17417445140849L143.059,127.06858240029042L143.75900000000001,129.16658769020256L144.459,128.62403946362778L145.25,128.8595475912814L145.95,128.51391956663787L146.65,129.12841340896563L147.441,128.11857642437957L148.141,128.08128493849L148.841,130.97737353384775L149.632,130.60707339938963L150.33200000000002,130.3844362886386L151.032,131.07559743978086L151.82299999999998,130.74873018675004L152.523,131.01512427209337L153.22299999999998,131.8420287645877L154.014,131.62925252181418L154.714,133.4416794498186L155.41400000000002,131.95808026768822L156.205,131.1721889058055L156.905,134.12531103001618L157.60500000000002,133.70193826830632L158.396,133.77808619636357L159.096,133.10584599342477L159.796,133.5098128563463L160.587,132.75554095782655L161.287,132.54298389875507L161.987,135.12550743543497L162.77800000000002,134.5323339799754L163.478,134.62027140074645L164.178,134.98172502470814L164.969,134.5647617733418L165.66899999999998,135.26847088166048L166.369,135.0202332247971L167.16,134.7405800288723L167.86,133.83409692808087L168.56,135.97551992560037L169.351,136.44222459761892L170.051,134.9654237877368L170.75099999999998,134.95723278826705L171.542,132.73931326938634L172.242,136.08796192872921L172.942,136.88092880143068L173.733,136.09621997476233L174.433,137.56104763168918L175.133,136.34883575698265L175.92399999999998,135.6711943304479L176.624,136.7965090000962L177.32399999999998,137.4344824956765L178.115,136.6628739104355L178.815,138.03142414484546L179.515,136.9295023046657L180.306,138.2291388076795L181.006,137.09435643007774L181.70600000000002,137.9360500575283L182.49699999999999,137.3538569726178L183.197,137.57158486627233L183.897,138.3766674149841L184.688,138.03843389719518L185.388,139.59688770037764L186.088,139.1933188889596L186.87900000000002,139.23616849965444L187.579,139.9248983266841L188.27900000000002,138.3916451281657L189.07,136.82303695083843L189.76999999999998,139.28054356144736L190.47,139.11835753476132L191.261,138.01851780149667L191.961,138.88071998547272L192.661,139.8836683968765L193.452,138.65921054904652L194.15200000000002,137.9594007061652L194.85199999999998,141.10905027594714L195.643,140.4397327508768L196.343,142.07584347578717L197.043,140.1408092541359L197.834,140.66538093235485L198.534,140.87918558244672L199.234,140.3413143913664L200.025,141.18656468157263L200.72500000000002,139.2536965686245L201.42499999999998,141.13877535882415L202.21599999999998,140.83285478321275L202.916,141.13238322843875L203.61599999999999,139.71817525965747L204.407,138.92455937754931L205.107,140.45096506237698L205.80700000000002,139.94302920574233L206.598,139.4940420577003L207.29799999999997,139.9294554364588L207.998,140.96928684360614L208.789,141.6841999630787L209.489,140.79729295523595L210.189,140.1639492336474L210.98,139.8647720341788L211.68,141.42968422552164L212.38,141.08150426559385L213.17100000000002,142.53455351690405L213.87099999999998,140.99483122536745L214.571,140.35494410781666L215.362,141.140160062337L216.06199999999998,141.30272904357122L216.762,141.19356225782664L217.553,141.63392919077432L218.25300000000001,141.12981650236077L218.953,141.48370936881432L219.74400000000003,141.7380265656904L220.444,141.41902713513988L221.14399999999998,141.17552604811766L221.935,141.6576458807113L222.635,141.3554555715927L223.335,141.67524221972104L224.126,140.84088581739067L224.82600000000002,141.78931847773902L225.526,141.91016214917173L226.31699999999998,142.4955866776024L227.017,141.71954406659188L227.71699999999998,141.80594554208096L228.508,143.74969507300437L229.208,142.22416822248536L229.90800000000002,140.63505919976416L230.699,142.27687171910546L231.399,142.07772901314337L232.09900000000002,141.61344684204326L232.89,141.5336856225506L233.59,142.12312468717602L234.29,141.65857370944738L235.081,142.75889873287989L235.781,142.23088083870832L236.481,141.51090428494442L237.27200000000002,141.77393051863584L237.972,140.88717137458303L238.67200000000003,141.94394830321872L239.463,142.67986687739213L240.16299999999998,142.84830990633316L240.863,141.37203435054784L241.654,139.56711624373293L242.354,140.7693157608789L243.054,143.5566072858357L243.845,142.9682502836485L244.54500000000002,141.2009891563953L245.24499999999998,143.23028637549498L246.036,141.48748503307002L246.736,141.19022362247495L247.436,143.09657682391313L248.227,143.82710297582707L248.927,141.89911280220107L249.627,143.36945815631486L250.418,142.91863921639248L251.11800000000002,143.07723380402436L251.81799999999998,142.58569451872398L252.60899999999998,140.0257298896634L253.309,142.91758907093012L254.009,143.9843307381843" fill="none"></path></g></g></g></g><g opacity="0.2"><g><g><g><path style="fill: none;" stroke="rgb(238, 51, 119)" stroke-width="2px" d="M35.7,25.22377718411957L36.4,25.07540563436652L37.1,25.329873451819765L37.891,25.219043658329866L38.591,25.129269893352784L39.291000000000004,24.984652519226046L40.082,25.052227680499726L40.782000000000004,25.230306185208804L41.482,25.087647511408846L42.272999999999996,25.18737800304703L42.973,25.23095908531775L43.673,25.199619880089358L44.464,25.159629748417757L45.164,25.178074176494874L45.864,25.2885775199303L46.655,25.29478007096509L47.355,25.169096799997163L48.055,25.07393660912146L48.846,24.96735066633957L49.546,25.274703392615663L50.246,25.307021948007417L51.037,25.148040771484347L51.737,25.270133091853182L52.437,25.099073263315034L53.227999999999994,25.207617906423707L53.928,25.15114204700174L54.628,25.10854031489444L55.419,25.06495923262375L56.119,25.04276062892032L56.818999999999996,25.328241201547456L57.61,25.125026042644777L58.309999999999995,25.160609098581148L59.01,25.147877546457124L59.800999999999995,25.26801116649918L60.501,25.217248183030335L61.201,24.99395634577823L61.992000000000004,25.121271867018464L62.69199999999999,25.178237401522097L63.391999999999996,25.23357068575342L64.183,25.280416268568757L64.883,24.965881641094484L65.583,25.120618966909547L66.37400000000001,25.1351459943331L67.074,25.228837159963746L67.774,24.84297319558948L68.565,25.116211891174288L69.265,25.228837159963746L69.965,24.970451941856936L70.756,24.91773025806131L71.45599999999999,25.17595225114087L72.15599999999999,25.148856896620515L72.947,25.16795422480655L73.647,25.137431144714327L74.34700000000001,25.05434960585373L75.13799999999999,24.983836394089906L75.838,25.303920672490023L76.538,25.04553545438324L77.32900000000001,25.069203083331757L78.029,25.15538589770975L78.729,25.084872685945925L79.52,25.259849915137636L80.22,25.02496910095212L80.91999999999999,25.11898671663721L81.711,25.248424163231448L82.411,25.18395027747519L83.111,24.926870859586245L83.902,24.982857043926515L84.60199999999999,25.17399355081409L85.30199999999999,25.11637511620154L86.093,25.182807702284578L86.793,25.037047752967226L87.493,25.1429807956402L88.284,25.00374984741208L88.98400000000001,25.25234156388501L89.684,25.114742865929202L90.475,25.071651458740206L91.175,25.201252130361695L91.875,25.171871625460085L92.66600000000001,25.166485199561464L93.36600000000001,25.14673497126651L94.066,25.235855836134675L94.857,24.941724337064272L95.557,25.140695645258944L96.257,25.188847028292116L97.048,25.014685924236574L97.748,25.1777477264404L98.44800000000001,25.260502815246554L99.239,25.137104694659882L99.939,25.091075236980714L100.639,25.096624887906557L101.43,25.17840062654932L102.13000000000001,25.151305272028964L102.83000000000001,25.123883467454164L103.621,25.14575562110312L104.321,24.97877641824573L105.021,25.165016174316378L105.812,25.0825875355647L106.512,25.167627774752077L107.212,25.11278416560245L108.003,25.358437831585206L108.703,24.925075384286714L109.40299999999999,25.112294490520753L110.194,25.048310279846163L110.894,25.14918334667496L111.59400000000001,24.842646745535006L112.38499999999999,25.05598185612604L113.085,25.02317362565259L113.785,25.04994253011847L114.57600000000001,25.00277049724869L115.276,25.100052613478425L115.976,24.960821665250307L116.767,24.933889535757174L117.467,25.16795422480655L118.167,25.187704453101503L118.958,27.13856997856726L119.658,30.980397444504945L120.358,37.102152090806214L121.14899999999999,46.19329643249512L121.84899999999999,50.74368374164288L122.54899999999999,55.603056027339065L123.34,64.64882381145772L124.04,67.27136032397932L124.74000000000001,75.32439349247862L125.53099999999999,81.74436026353105L126.231,86.5178761849037L126.931,88.35464741633491L127.722,91.64771234072175L128.422,96.28754696479216L129.122,102.49303605006295L129.913,108.49073967566862L130.613,114.4900755515466L131.313,114.61592204754174L132.10399999999998,116.74796735323397L132.804,116.80852383833671L133.504,118.60710041339587L134.29500000000002,119.13823465200576L134.995,121.73775643568779L135.695,122.52629654224108L136.486,125.04371613722587L137.186,126.50082595531764L137.886,123.43954056959892L138.677,125.46467348245481L139.377,125.85935159829954L140.077,128.00755618168765L140.868,126.05864935654867L141.568,130.21125727433432L142.268,126.27573864276599L143.059,126.91019432361317L143.75900000000001,132.3135956250705L144.459,127.81021712376528L145.25,129.21280978276187L145.95,127.99547752967254L146.65,130.05015417245727L147.441,126.60382094750044L148.141,128.02534770965582L148.841,135.32150642688464L149.632,130.05162319770233L150.33200000000002,130.0504806225117L151.032,132.1123391664946L151.82299999999998,130.2584293072041L152.523,131.414715400109L153.22299999999998,133.08238550332885L154.014,131.31008815765387L154.714,136.16031984182513L155.41400000000002,129.73268149449282L156.205,129.99335186298083L156.905,138.55499421633215L157.60500000000002,133.06687912574188L158.396,133.8923080884494L159.096,132.09748568901657L159.796,134.11576315072875L160.587,131.62413311004644L161.287,132.22414831014788L161.987,138.99929274045513L162.77800000000002,133.64257379678588L163.478,134.75217753190267L164.178,135.52390546065118L164.969,133.93931689629196L165.66899999999998,136.32403454413787L166.369,134.647876739502L167.16,134.3211002349854L167.86,132.4743722768931L168.56,139.18765442187976L169.351,137.14228160564724L170.051,132.7502225729136L170.75099999999998,134.94494628906256L171.542,129.41243399106546L172.242,141.11093491774346L172.942,138.0703791104831L173.733,134.91915673476007L174.433,139.75828911707958L175.133,134.53051794492288L175.92399999999998,134.65473219064575L176.624,138.48448100456832L177.32399999999998,138.39144273904662L178.115,135.50546103257406L178.815,140.08424949646005L179.515,135.2766195443961L180.306,140.17859356219958L181.006,135.3921828636757L181.70600000000002,139.19859049870425L182.49699999999999,136.48056734525247L183.197,137.89817670675433L183.897,139.58429123805126L184.688,137.53108362051165L185.388,141.93456840515145L186.088,138.58796567183282L186.87900000000002,139.30044291569644L187.579,140.95799306722796L188.27900000000002,136.09176533038806L189.07,134.4701246848474L189.76999999999998,142.96680347736074L190.47,138.87507849473226L191.261,136.36875820159918L191.961,140.17402326143713L192.661,141.3880910139818L193.452,136.82252377730157L194.15200000000002,136.90968594184295L194.85199999999998,145.83352463062002L195.643,139.435756463271L196.343,144.5300095631527L197.043,137.2382579216591L197.834,141.45223844968365L198.534,141.1998925575844L199.234,139.53450760474578L200.025,142.4544401168824L200.72500000000002,136.35439439920287L201.42499999999998,143.9663935441238L202.21599999999998,140.3739739197952L202.916,141.5816758962779L203.61599999999999,137.59686330648577L204.407,137.73413555438708L205.107,142.74057358961846L205.80700000000002,139.18112542079052L206.598,138.82056133563708L207.29799999999997,140.5825755045965L207.998,142.52903395432702L208.789,142.7565696422871L209.489,139.46693244347213L210.189,139.21393365126397L210.98,139.41600623497604L211.68,143.77705251253576L212.38,140.55923432570245L213.17100000000002,144.71412739386932L213.87099999999998,138.68524778806255L214.571,139.39511343149047L215.362,142.31798399411724L216.06199999999998,141.5465825154232L216.762,141.02981207920962L217.553,142.29447959019595L218.25300000000001,140.37364746974072L218.953,142.01454866849468L219.74400000000003,142.11950236100427L220.444,140.94052798931423L221.14399999999998,140.81027441758383L221.935,142.3808256296012L222.635,140.9021701079149L223.335,142.15492219191339L224.126,139.58935121389544L224.82600000000002,143.2119674682618L225.526,142.0914276563205L226.31699999999998,143.3737234702478L227.017,140.55548015007614L227.71699999999998,141.93554775531484L228.508,146.66531936938955L229.208,139.935877946707L229.90800000000002,138.25139566568237L230.699,144.73959049811737L231.399,141.77901495420025L232.09900000000002,140.91702358539294L232.89,141.41404379331158L233.59,143.00728328411404L234.29,140.96174724285427L235.081,144.40938626802892L235.781,141.43885399745068L236.481,140.43093945429882L237.27200000000002,142.16846986917358L237.972,139.5570326585037L238.67200000000003,143.52911369617178L239.463,143.78374473865225L240.16299999999998,143.10097444974468L240.863,139.15762101686926L241.654,136.85973908351025L242.354,142.5726150365977L243.054,147.73754457327044L243.845,142.08571478036743L244.54500000000002,138.55009746551522L245.24499999999998,146.2742322041439L246.036,138.87328301943273L246.736,140.74433150658248L247.436,145.95610662607055L248.227,144.92289220369787L248.927,139.0071275417622L249.627,145.57497618748602L250.418,142.24241080650924L251.11800000000002,143.31512568547183L251.81799999999998,141.84838559077343L252.60899999999998,136.18578294607318L253.309,147.25537784282986L254.009,145.5844432390654" fill="none"></path></g></g></g></g></g></g><g transform="translate(50, 178)" clip-path="url(#clip_1)"><clipPath id="clip_1"><rect width="280" height="22"></rect></clipPath><g><g><line x1="0" y1="0" x2="0" y2="5" style="visibility: inherit;" fill="rgb(0, 0, 0)" stroke="rgb(204, 204, 204)" stroke-width="1px"></line><line x1="35" y1="0" x2="35" y2="5" style="visibility: inherit;" fill="rgb(0, 0, 0)" stroke="rgb(204, 204, 204)" stroke-width="1px"></line><line x1="70" y1="0" x2="70" y2="5" style="visibility: inherit;" fill="rgb(0, 0, 0)" stroke="rgb(204, 204, 204)" stroke-width="1px"></line><line x1="105" y1="0" x2="105" y2="5" style="visibility: inherit;" fill="rgb(0, 0, 0)" stroke="rgb(204, 204, 204)" stroke-width="1px"></line><line x1="140" y1="0" x2="140" y2="5" style="visibility: inherit;" fill="rgb(0, 0, 0)" stroke="rgb(204, 204, 204)" stroke-width="1px"></line><line x1="175" y1="0" x2="175" y2="5" style="visibility: inherit;" fill="rgb(0, 0, 0)" stroke="rgb(204, 204, 204)" stroke-width="1px"></line><line x1="210" y1="0" x2="210" y2="5" style="visibility: inherit;" fill="rgb(0, 0, 0)" stroke="rgb(204, 204, 204)" stroke-width="1px"></line><line x1="245" y1="0" x2="245" y2="5" style="visibility: inherit;" fill="rgb(0, 0, 0)" stroke="rgb(204, 204, 204)" stroke-width="1px"></line><line x1="280" y1="0" x2="280" y2="5" style="visibility: inherit;" fill="rgb(0, 0, 0)" stroke="rgb(204, 204, 204)" stroke-width="1px"></line></g><g transform="translate(0, 8)"><text x="0" y="0" dx="0em" dy="0.95em" style="text-anchor: middle; visibility: hidden; font-family: &quot;Helvetica Neue&quot;, sans-serif; font-size: 12px; font-weight: 200;" fill="rgb(50, 49, 63)" stroke="none" stroke-width="1px">-5k</text><text x="35" y="0" dx="0em" dy="0.95em" style="text-anchor: middle; visibility: inherit; font-family: &quot;Helvetica Neue&quot;, sans-serif; font-size: 12px; font-weight: 200;" fill="rgb(50, 49, 63)" stroke="none" stroke-width="1px">0</text><text x="70" y="0" dx="0em" dy="0.95em" style="text-anchor: middle; visibility: inherit; font-family: &quot;Helvetica Neue&quot;, sans-serif; font-size: 12px; font-weight: 200;" fill="rgb(50, 49, 63)" stroke="none" stroke-width="1px">5k</text><text x="105" y="0" dx="0em" dy="0.95em" style="text-anchor: middle; visibility: inherit; font-family: &quot;Helvetica Neue&quot;, sans-serif; font-size: 12px; font-weight: 200;" fill="rgb(50, 49, 63)" stroke="none" stroke-width="1px">10k</text><text x="140" y="0" dx="0em" dy="0.95em" style="text-anchor: middle; visibility: inherit; font-family: &quot;Helvetica Neue&quot;, sans-serif; font-size: 12px; font-weight: 200;" fill="rgb(50, 49, 63)" stroke="none" stroke-width="1px">15k</text><text x="175" y="0" dx="0em" dy="0.95em" style="text-anchor: middle; visibility: inherit; font-family: &quot;Helvetica Neue&quot;, sans-serif; font-size: 12px; font-weight: 200;" fill="rgb(50, 49, 63)" stroke="none" stroke-width="1px">20k</text><text x="210" y="0" dx="0em" dy="0.95em" style="text-anchor: middle; visibility: inherit; font-family: &quot;Helvetica Neue&quot;, sans-serif; font-size: 12px; font-weight: 200;" fill="rgb(50, 49, 63)" stroke="none" stroke-width="1px">25k</text><text x="245" y="0" dx="0em" dy="0.95em" style="text-anchor: middle; visibility: inherit; font-family: &quot;Helvetica Neue&quot;, sans-serif; font-size: 12px; font-weight: 200;" fill="rgb(50, 49, 63)" stroke="none" stroke-width="1px">30k</text><text x="280" y="0" dx="0em" dy="0.95em" style="text-anchor: middle; visibility: hidden; font-family: &quot;Helvetica Neue&quot;, sans-serif; font-size: 12px; font-weight: 200;" fill="rgb(50, 49, 63)" stroke="none" stroke-width="1px">35k</text></g><line x1="0" y1="0" x2="280" y2="0" fill="rgb(0, 0, 0)" stroke="rgb(204, 204, 204)" stroke-width="1px"></line></g></g></g></g></svg>