<svg viewBox="0 0 330 200" xmlns="http://www.w3.org/2000/svg"><g><g><g><g><g><line x1="60" y1="178" x2="55" y2="178" style="visibility: inherit;" fill="rgb(0, 0, 0)" stroke="rgb(204, 204, 204)" stroke-width="1px"></line><line x1="60" y1="161.8181818181818" x2="55" y2="161.8181818181818" style="visibility: inherit;" fill="rgb(0, 0, 0)" stroke="rgb(204, 204, 204)" stroke-width="1px"></line><line x1="60" y1="145.6363636363636" x2="55" y2="145.6363636363636" style="visibility: inherit;" fill="rgb(0, 0, 0)" stroke="rgb(204, 204, 204)" stroke-width="1px"></line><line x1="60" y1="129.4545454545455" x2="55" y2="129.4545454545455" style="visibility: inherit;" fill="rgb(0, 0, 0)" stroke="rgb(204, 204, 204)" stroke-width="1px"></line><line x1="60" y1="113.2727272727273" x2="55" y2="113.2727272727273" style="visibility: inherit;" fill="rgb(0, 0, 0)" stroke="rgb(204, 204, 204)" stroke-width="1px"></line><line x1="60" y1="97.09090909090911" x2="55" y2="97.09090909090911" style="visibility: inherit;" fill="rgb(0, 0, 0)" stroke="rgb(204, 204, 204)" stroke-width="1px"></line><line x1="60" y1="80.90909090909089" x2="55" y2="80.90909090909089" style="visibility: inherit;" fill="rgb(0, 0, 0)" stroke="rgb(204, 204, 204)" stroke-width="1px"></line><line x1="60" y1="64.72727272727269" x2="55" y2="64.72727272727269" style="visibility: inherit;" fill="rgb(0, 0, 0)" stroke="rgb(204, 204, 204)" stroke-width="1px"></line><line x1="60" y1="48.545454545454504" x2="55" y2="48.545454545454504" style="visibility: inherit;" fill="rgb(0, 0, 0)" stroke="rgb(204, 204, 204)" stroke-width="1px"></line><line x1="60" y1="32.36363636363629" x2="55" y2="32.36363636363629" style="visibility: inherit;" fill="rgb(0, 0, 0)" stroke="rgb(204, 204, 204)" stroke-width="1px"></line><line x1="60" y1="16.181818181818215" x2="55" y2="16.181818181818215" style="visibility: inherit;" fill="rgb(0, 0, 0)" stroke="rgb(204, 204, 204)" stroke-width="1px"></line><line x1="60" y1="0" x2="55" y2="0" style="visibility: inherit;" fill="rgb(0, 0, 0)" stroke="rgb(204, 204, 204)" stroke-width="1px"></line></g><g transform="translate(50, 0)"><text x="0" y="178" dx="0em" dy="0.3em" style="text-anchor: end; visibility: hidden; font-family: &quot;Helvetica Neue&quot;, sans-serif; font-size: 12px; font-weight: 200;" fill="rgb(50, 49, 63)" stroke="none" stroke-width="1px">0.066</text><text x="0" y="161.8181818181818" dx="0em" dy="0.3em" style="text-anchor: end; visibility: inherit; font-family: &quot;Helvetica Neue&quot;, sans-serif; font-size: 12px; font-weight: 200;" fill="rgb(50, 49, 63)" stroke="none" stroke-width="1px">0.068</text><text x="0" y="145.6363636363636" dx="0em" dy="0.3em" style="text-anchor: end; visibility: hidden; font-family: &quot;Helvetica Neue&quot;, sans-serif; font-size: 12px; font-weight: 200;" fill="rgb(50, 49, 63)" stroke="none" stroke-width="1px">0.07</text><text x="0" y="129.4545454545455" dx="0em" dy="0.3em" style="text-anchor: end; visibility: inherit; font-family: &quot;Helvetica Neue&quot;, sans-serif; font-size: 12px; font-weight: 200;" fill="rgb(50, 49, 63)" stroke="none" stroke-width="1px">0.072</text><text x="0" y="113.2727272727273" dx="0em" dy="0.3em" style="text-anchor: end; visibility: hidden; font-family: &quot;Helvetica Neue&quot;, sans-serif; font-size: 12px; font-weight: 200;" fill="rgb(50, 49, 63)" stroke="none" stroke-width="1px">0.074</text><text x="0" y="97.09090909090911" dx="0em" dy="0.3em" style="text-anchor: end; visibility: inherit; font-family: &quot;Helvetica Neue&quot;, sans-serif; font-size: 12px; font-weight: 200;" fill="rgb(50, 49, 63)" stroke="none" stroke-width="1px">0.076</text><text x="0" y="80.90909090909089" dx="0em" dy="0.3em" style="text-anchor: end; visibility: hidden; font-family: &quot;Helvetica Neue&quot;, sans-serif; font-size: 12px; font-weight: 200;" fill="rgb(50, 49, 63)" stroke="none" stroke-width="1px">0.078</text><text x="0" y="64.72727272727269" dx="0em" dy="0.3em" style="text-anchor: end; visibility: inherit; font-family: &quot;Helvetica Neue&quot;, sans-serif; font-size: 12px; font-weight: 200;" fill="rgb(50, 49, 63)" stroke="none" stroke-width="1px">0.08</text><text x="0" y="48.545454545454504" dx="0em" dy="0.3em" style="text-anchor: end; visibility: hidden; font-family: &quot;Helvetica Neue&quot;, sans-serif; font-size: 12px; font-weight: 200;" fill="rgb(50, 49, 63)" stroke="none" stroke-width="1px">0.082</text><text x="0" y="32.36363636363629" dx="0em" dy="0.3em" style="text-anchor: end; visibility: inherit; font-family: &quot;Helvetica Neue&quot;, sans-serif; font-size: 12px; font-weight: 200;" fill="rgb(50, 49, 63)" stroke="none" stroke-width="1px">0.084</text><text x="0" y="16.181818181818215" dx="0em" dy="0.3em" style="text-anchor: end; visibility: hidden; font-family: &quot;Helvetica Neue&quot;, sans-serif; font-size: 12px; font-weight: 200;" fill="rgb(50, 49, 63)" stroke="none" stroke-width="1px">0.086</text><text x="0" y="0" dx="0em" dy="0.3em" style="text-anchor: end; visibility: hidden; font-family: &quot;Helvetica Neue&quot;, sans-serif; font-size: 12px; font-weight: 200;" fill="rgb(50, 49, 63)" stroke="none" stroke-width="1px">0.088</text></g><line x1="60" y1="0" x2="60" y2="178" fill="rgb(0, 0, 0)" stroke="rgb(204, 204, 204)" stroke-width="1px"></line></g></g><g transform="translate(60, 0)" clip-path="url(#clip_0)"><clipPath id="clip_0"><rect width="270" height="178"></rect></clipPath><g><g><g><line x1="0" y1="0" x2="0" y2="178" fill="rgb(0, 0, 0)" stroke="rgb(60, 60, 60)" stroke-width="1px" opacity="0.25"></line><line x1="22.5" y1="0" x2="22.5" y2="178" fill="rgb(0, 0, 0)" stroke="rgb(60, 60, 60)" stroke-width="1px" opacity="0.25"></line><line x1="45" y1="0" x2="45" y2="178" fill="rgb(0, 0, 0)" stroke="rgb(60, 60, 60)" stroke-width="1px" opacity="0.25"></line><line x1="67.5" y1="0" x2="67.5" y2="178" fill="rgb(0, 0, 0)" stroke="rgb(60, 60, 60)" stroke-width="1px" opacity="0.25"></line><line x1="90" y1="0" x2="90" y2="178" fill="rgb(0, 0, 0)" stroke="rgb(60, 60, 60)" stroke-width="1px" opacity="0.25"></line><line x1="112.5" y1="0" x2="112.5" y2="178" fill="rgb(0, 0, 0)" stroke="rgb(60, 60, 60)" stroke-width="1px" opacity="0.25"></line><line x1="135" y1="0" x2="135" y2="178" fill="rgb(0, 0, 0)" stroke="rgb(60, 60, 60)" stroke-width="1px" opacity="0.25"></line><line x1="157.5" y1="0" x2="157.5" y2="178" fill="rgb(0, 0, 0)" stroke="rgb(60, 60, 60)" stroke-width="1px" opacity="0.25"></line><line x1="180" y1="0" x2="180" y2="178" fill="rgb(0, 0, 0)" stroke="rgb(60, 60, 60)" stroke-width="1px" opacity="0.25"></line><line x1="202.5" y1="0" x2="202.5" y2="178" fill="rgb(0, 0, 0)" stroke="rgb(60, 60, 60)" stroke-width="1px" opacity="0.25"></line><line x1="225" y1="0" x2="225" y2="178" fill="rgb(0, 0, 0)" stroke="rgb(60, 60, 60)" stroke-width="1px" opacity="0.25"></line><line x1="247.5" y1="0" x2="247.5" y2="178" fill="rgb(0, 0, 0)" stroke="rgb(60, 60, 60)" stroke-width="1px" opacity="0.25"></line><line x1="270" y1="0" x2="270" y2="178" fill="rgb(0, 0, 0)" stroke="rgb(60, 60, 60)" stroke-width="1px" opacity="0.25"></line></g><g><line x1="0" y1="178" x2="270" y2="178" fill="rgb(0, 0, 0)" stroke="rgb(60, 60, 60)" stroke-width="1px" opacity="0.25"></line><line x1="0" y1="161.8181818181818" x2="270" y2="161.8181818181818" fill="rgb(0, 0, 0)" stroke="rgb(60, 60, 60)" stroke-width="1px" opacity="0.25"></line><line x1="0" y1="145.6363636363636" x2="270" y2="145.6363636363636" fill="rgb(0, 0, 0)" stroke="rgb(60, 60, 60)" stroke-width="1px" opacity="0.25"></line><line x1="0" y1="129.4545454545455" x2="270" y2="129.4545454545455" fill="rgb(0, 0, 0)" stroke="rgb(60, 60, 60)" stroke-width="1px" opacity="0.25"></line><line x1="0" y1="113.2727272727273" x2="270" y2="113.2727272727273" fill="rgb(0, 0, 0)" stroke="rgb(60, 60, 60)" stroke-width="1px" opacity="0.25"></line><line x1="0" y1="97.09090909090911" x2="270" y2="97.09090909090911" fill="rgb(0, 0, 0)" stroke="rgb(60, 60, 60)" stroke-width="1px" opacity="0.25"></line><line x1="0" y1="80.90909090909089" x2="270" y2="80.90909090909089" fill="rgb(0, 0, 0)" stroke="rgb(60, 60, 60)" stroke-width="1px" opacity="0.25"></line><line x1="0" y1="64.72727272727269" x2="270" y2="64.72727272727269" fill="rgb(0, 0, 0)" stroke="rgb(60, 60, 60)" stroke-width="1px" opacity="0.25"></line><line x1="0" y1="48.545454545454504" x2="270" y2="48.545454545454504" fill="rgb(0, 0, 0)" stroke="rgb(60, 60, 60)" stroke-width="1px" opacity="0.25"></line><line x1="0" y1="32.36363636363629" x2="270" y2="32.36363636363629" fill="rgb(0, 0, 0)" stroke="rgb(60, 60, 60)" stroke-width="1px" opacity="0.25"></line><line x1="0" y1="16.181818181818215" x2="270" y2="16.181818181818215" fill="rgb(0, 0, 0)" stroke="rgb(60, 60, 60)" stroke-width="1px" opacity="0.25"></line><line x1="0" y1="0" x2="270" y2="0" fill="rgb(0, 0, 0)" stroke="rgb(60, 60, 60)" stroke-width="1px" opacity="0.25"></line></g></g></g><g><g><line x1="0" y1="712.0000000000002" x2="270" y2="712.0000000000002" fill="rgb(0, 0, 0)" stroke="rgb(153, 153, 153)" stroke-width="1.5px"></line></g></g><g><g><line x1="22.5" y1="0" x2="22.5" y2="178" fill="rgb(0, 0, 0)" stroke="rgb(153, 153, 153)" stroke-width="1.5px"></line></g></g><g><g><g><g><g><path stroke="rgb(238, 51, 119)" stroke-width="2px" d="M24.75,26.125184985724445L27,26.080463299019726L29.25,25.981271008502972L31.5,25.91908713481945L33.75,25.84242468583878L36,25.832702822877792L38.25,25.883753654589498L40.5,25.850327306152707L42.75,25.986576074559366L45,26.06826604474216L47.25,26.041481117787527L49.5,25.935504738884106L51.75,25.904637435376458L54,25.756024755519434L56.25,25.731343146030667L58.5,25.7022869304067L60.75,25.74594648050538L63,25.68380336634894L65.25,25.661110663113618L67.5,25.627867399023557L69.75,25.65547367975381L72,25.61394858946798L74.25,25.658358698403845L76.5,25.56272801138627L78.75,25.486131942418893L81,25.51217534853612L83.25,25.56949241709293L85.5,25.475650734747518L87.75,25.492479875517546L90,25.591240097505988L92.25,25.57244311124842L94.5,25.57912894966401L96.75,25.59384653080656L99,25.614902262966268L101.25,25.66049788379391L103.5,30.435108690211308L105.75,40.30080619958389L108,47.91229135271624L110.25,53.682024751450115L112.5,56.86844851626098L114.75,58.66567057763703L117,60.290062013425356L119.25,61.67673619780358L121.5,61.84590427560239L123.75,62.084076405305424L126,62.58611554929912L128.25,62.9328639796355L130.5,62.99003932259839L132.75,63.04525031567019L135,63.007027171483855L137.25,62.803030359025755L139.5,62.44331421093601L141.75,62.110079356757055L144,61.83690790674876L146.25,61.66883352440024L148.5,60.73850898388021L150.75,61.09428538022969L153,60.78973619099307L155.25,60.916060282704066L157.5,60.87355739924507L159.75,60.84728405994987L162,60.52760247498807L164.25,60.65871198242934L166.5,60.55928063388633L168.75,60.45325293321811L171,60.222004209850724L173.25,60.62931317545292L175.5,60.545523508586854L177.75,61.23054506920586L180,62.12487473052795L182.25,61.79464190742249L184.5,61.00547366410473L186.75,62.97604492131674L189,63.934283422915414L191.25,63.66966746733256L193.5,63.564259494078314L195.75,63.644051769216176L198,63.09055419874372L200.25,62.58337270196671L202.5,63.62716156176016L204.75,65.11307988667708L207,66.48348674077685L209.25,74.16241916845486L211.5,73.01376674886876L213.75,80.41516320568849L216,84.81117540667704L218.25,94.63649139771282L220.5,111.96569987517255L222.75,124.37317052765232L225,132.33045958395383L227.25,139.81007082899674L229.5,144.19468306847213L231.75,146.97044060708484L234,148.23253641068683L236.25,150.43856254108235L238.5,149.534036033675L240.75,149.69449725620177L243,149.5400251061236L245.25,151.97626692065148L247.5,153.0848320018671" style="fill: none;" fill="none"></path></g><g><path stroke="rgb(51, 187, 238)" stroke-width="2px" d="M24.75,26.191012897274675L27,26.119993201033623L29.25,26.030835090519588L31.5,25.88442810465466L33.75,25.92735562328795L36,25.82842854142956L38.25,25.808106605657542L40.5,25.843297617006584L42.75,25.955909454588863L45,25.975682440014168L47.25,25.982847122314325L49.5,25.97359664080963L51.75,25.909799006334964L54,25.916868993414255L56.25,25.890590412567605L58.5,25.901555682506654L60.75,25.92074598750807L63,25.929291917217597L65.25,25.945800849096628L67.5,25.96255384657644L69.75,26.04147288664413L72,25.97163350997124L74.25,25.97438770854268L76.5,25.935844005514554L78.75,25.884529971140154L81,25.884292598537996L83.25,25.87677165452115L85.5,25.865965651475108L87.75,25.858059398871603L90,25.838438055618695L92.25,25.904211989302837L94.5,25.86721468673582L96.75,25.91166405660877L99,25.962470578767608L101.25,26.0585171631393L103.5,28.22037170193809L105.75,35.85965409264418L108,44.38829266195077L110.25,50.6640952547106L112.5,55.17487897022009L114.75,58.17853930940619L117,60.136865814487194L119.25,61.42287699344017L121.5,62.254934460385826L123.75,62.88647580885436L126,63.167719713238924L128.25,63.23649443633536L130.5,63.38981139655837L132.75,63.45563919758621L135,63.40984894664368L137.25,63.435664057809944L139.5,63.427570817734406L141.75,63.18407060972736L144,62.71153155944023L146.25,62.53436963763771L148.5,62.39682231116085L150.75,62.305155168579745L153,62.25300019202835L155.25,62.11175289229915L157.5,61.83530784695792L159.75,61.63681621743537L162,61.575157901008794L164.25,61.55009874126905L166.5,61.38903620060867L168.75,61.55968893245273L171,61.630492819130026L173.25,61.69433908140533L175.5,61.91440903557148L177.75,62.045799962791904L180,62.12622596313976L182.25,62.32880340727604L184.5,62.47137622499292L186.75,62.67924408972371L189,62.81023413347185L191.25,63.07239881563012L193.5,63.408759189457314L195.75,63.50771025966071L198,63.67508207974389L200.25,64.27480867526378L202.5,64.59271249404594L204.75,65.12035866083959L207,66.77438626642925L209.25,69.85477737812286L211.5,74.17327073623315L213.75,79.401895853338L216,84.37943125080145L218.25,89.73766221535304L220.5,99.23202896186064L222.75,118.12403472594336L225,130.91622929337416L227.25,138.61336810707547L229.5,144.80103220967507L231.75,148.87498491390656L234,151.06636516355667L236.25,153.06561069116546L238.5,153.83158596465867L240.75,154.90064596111597L243,155.90878924062315L245.25,156.9668991737122L247.5,157.647434754253" style="fill: none;" fill="none"></path></g></g></g></g><g opacity="0.2"><g><g><g><path stroke="rgb(238, 51, 119)" stroke-width="2px" d="M24.75,26.12518498572433L27,26.05363028699699L29.25,25.886046409606905L31.5,25.8459588993679L33.75,25.742334192449363L36,25.819253986532004L38.25,25.95675716075027L40.5,25.801591369238736L42.75,26.187516542998196L45,26.189566129987867L47.25,26.00154666467145L49.5,25.777116889303358L51.75,25.858437267216743L54,25.53339688344434L56.25,25.694349744103135L58.5,25.658723099665195L60.75,25.811417330395074L63,25.590604473244042L65.25,25.627075065265984L67.5,25.578005541454644L69.75,25.696881586855085L72,25.551662320440442L74.25,25.724972985007497L76.5,25.41928311369631L78.75,25.37123838337982L81,25.551240346648427L83.25,25.655467873269828L85.5,25.334888355298432L87.75,25.51772357117042L90,25.739380375905426L92.25,25.54424763809547L94.5,25.589157705957206L96.75,25.615922900763394L99,25.646485859697492L101.25,25.72889131307599L103.5,37.597024776718825L105.75,55.09935231100427L108,59.32951901175757L110.25,62.3366248174147L112.5,61.64808415282856L114.75,61.36150366609745L117,62.72664916515349L119.25,63.75674747336994L121.5,62.099656392227516L123.75,62.44133459979837L126,63.33917426521127L128.25,63.452986625107826L130.5,63.07580233703959L132.75,63.12806680527598L135,62.949692455205025L137.25,62.49703514034097L139.5,61.90373998880385L141.75,61.61022707549006L144,61.427150731736944L146.25,61.416721950877786L148.5,59.34302217310123L150.75,61.62794997475362L153,60.33291240713811L155.25,61.10554642027073L157.5,60.80980307405643L159.75,60.80787405100733L162,60.04808009754527L164.25,60.855376243591294L166.5,60.41013361107218L168.75,60.294211382215664L171,59.87513112479989L173.25,61.240276623855934L175.5,60.41983900828792L177.75,62.258077410134376L180,63.466369222510934L182.25,61.29929267276417L184.5,59.82172129912807L186.75,65.93190180713479L189,65.37164117531341L191.25,63.27274353395808L193.5,63.40614753419702L195.75,63.7637401819229L198,62.26030784303491L200.25,61.82260045680131L202.5,65.19284485145046L204.75,67.34195737405254L207,68.53909702192652L209.25,85.68081780997188L211.5,71.29078811948949L213.75,91.51725789091803L216,91.4051937081597L218.25,109.3744653842666L220.5,137.959512591362L222.75,142.98437650637194L225,144.26639316840607L227.25,151.02948769656098L229.5,150.77160142768514L231.75,151.13407691500404L234,150.1256801160899L236.25,153.74760173667562L238.5,148.17724627256393L240.75,149.93518908999184L243,149.30831688100642L245.25,155.63062964244324L247.5,154.74767962369054" style="fill: none;" fill="none"></path></g><g><path stroke="rgb(51, 187, 238)" stroke-width="2px" d="M24.75,26.191012897274675L27,26.07738138328895L29.25,25.945243304425986L31.5,25.712253489277543L33.75,25.983401791615876L36,25.691576773470075L38.25,25.779045912352444L40.5,25.894606449387254L42.75,26.121990041299256L45,26.00504301894793L47.25,25.993529162623616L49.5,25.9597712592645L51.75,25.81431086496869L54,25.927460123192162L56.25,25.851203430782647L58.5,25.917995853857548L60.75,25.949523324316175L63,25.942108641971203L65.25,25.970561731945367L67.5,25.987681811506064L69.75,26.159847118637742L72,25.86687674305651L74.25,25.97851895202288L76.5,25.8780289075591L78.75,25.80755928429687L81,25.883936540646943L83.25,25.865490257739992L85.5,25.84975666349581L87.75,25.84620002724904L90,25.80900605158368L92.25,26.002872868017704L94.5,25.811718740246477L96.75,25.978338106112034L99,26.03868035836652L101.25,26.202587035569252L103.5,31.463153454390408L105.75,47.31857756051147L108,57.18125043673946L110.25,60.07779910889536L112.5,61.941054528409765L114.75,62.684029812162564L117,63.074355569752754L119.25,63.35189376094122L121.5,63.503020660443724L123.75,63.83378783139314L126,63.58958556977183L128.25,63.33965652097355L130.5,63.61978683688422L132.75,63.55438089912586L135,63.34116357023065L137.25,63.47438672455873L139.5,63.415430957620785L141.75,62.818820297718034L144,62.002722984010504L146.25,62.26862675493412L148.5,62.19050132144581L150.75,62.167654454708085L153,62.174767727201626L155.25,61.89988194270565L157.5,61.420640278946266L159.75,61.33907877315174L162,61.4826704263687L164.25,61.51251000165938L166.5,61.14744238961826L168.75,61.81566803021862L171,61.73669864914632L173.25,61.790108474818126L175.5,62.244513966820435L177.75,62.24288635362278L180,62.24686496366154L182.25,62.63266957348041L184.5,62.685235451568246L186.75,62.991045886820004L189,63.00671919909388L191.25,63.46564583886753L193.5,63.91329975019801L195.75,63.6561368649656L198,63.92613980986853L200.25,65.17439856854351L202.5,65.06956822221927L204.75,65.91182791103016L207,69.25542767481369L209.25,74.4753640456633L211.5,80.65101077339865L213.75,87.24483352899551L216,91.84573434699665L218.25,97.77500866218047L220.5,113.47357908162203L222.75,146.46204337206754L225,150.10452114452016L227.25,150.15907632762736L229.5,154.08252836357465L231.75,154.9859139702537L234,154.35343553803185L236.25,156.06447898257863L238.5,154.9805488748984L240.75,156.5042359558019L243,157.42100415988403L245.25,158.5540640733459L247.5,158.66823812506416" style="fill: none;" fill="none"></path></g></g></g></g></g></g><g transform="translate(60, 178)" clip-path="url(#clip_1)"><clipPath id="clip_1"><rect width="270" height="22"></rect></clipPath><g><g><line x1="0" y1="0" x2="0" y2="5" style="visibility: inherit;" fill="rgb(0, 0, 0)" stroke="rgb(204, 204, 204)" stroke-width="1px"></line><line x1="22.5" y1="0" x2="22.5" y2="5" style="visibility: inherit;" fill="rgb(0, 0, 0)" stroke="rgb(204, 204, 204)" stroke-width="1px"></line><line x1="45" y1="0" x2="45" y2="5" style="visibility: inherit;" fill="rgb(0, 0, 0)" stroke="rgb(204, 204, 204)" stroke-width="1px"></line><line x1="67.5" y1="0" x2="67.5" y2="5" style="visibility: inherit;" fill="rgb(0, 0, 0)" stroke="rgb(204, 204, 204)" stroke-width="1px"></line><line x1="90" y1="0" x2="90" y2="5" style="visibility: inherit;" fill="rgb(0, 0, 0)" stroke="rgb(204, 204, 204)" stroke-width="1px"></line><line x1="112.5" y1="0" x2="112.5" y2="5" style="visibility: inherit;" fill="rgb(0, 0, 0)" stroke="rgb(204, 204, 204)" stroke-width="1px"></line><line x1="135" y1="0" x2="135" y2="5" style="visibility: inherit;" fill="rgb(0, 0, 0)" stroke="rgb(204, 204, 204)" stroke-width="1px"></line><line x1="157.5" y1="0" x2="157.5" y2="5" style="visibility: inherit;" fill="rgb(0, 0, 0)" stroke="rgb(204, 204, 204)" stroke-width="1px"></line><line x1="180" y1="0" x2="180" y2="5" style="visibility: inherit;" fill="rgb(0, 0, 0)" stroke="rgb(204, 204, 204)" stroke-width="1px"></line><line x1="202.5" y1="0" x2="202.5" y2="5" style="visibility: inherit;" fill="rgb(0, 0, 0)" stroke="rgb(204, 204, 204)" stroke-width="1px"></line><line x1="225" y1="0" x2="225" y2="5" style="visibility: inherit;" fill="rgb(0, 0, 0)" stroke="rgb(204, 204, 204)" stroke-width="1px"></line><line x1="247.5" y1="0" x2="247.5" y2="5" style="visibility: inherit;" fill="rgb(0, 0, 0)" stroke="rgb(204, 204, 204)" stroke-width="1px"></line><line x1="270" y1="0" x2="270" y2="5" style="visibility: inherit;" fill="rgb(0, 0, 0)" stroke="rgb(204, 204, 204)" stroke-width="1px"></line></g><g transform="translate(0, 8)"><text x="0" y="0" dx="0em" dy="0.95em" style="text-anchor: middle; visibility: hidden; font-family: &quot;Helvetica Neue&quot;, sans-serif; font-size: 12px; font-weight: 200;" fill="rgb(50, 49, 63)" stroke="none" stroke-width="1px">-10</text><text x="22.5" y="0" dx="0em" dy="0.95em" style="text-anchor: middle; visibility: inherit; font-family: &quot;Helvetica Neue&quot;, sans-serif; font-size: 12px; font-weight: 200;" fill="rgb(50, 49, 63)" stroke="none" stroke-width="1px">0</text><text x="45" y="0" dx="0em" dy="0.95em" style="text-anchor: middle; visibility: inherit; font-family: &quot;Helvetica Neue&quot;, sans-serif; font-size: 12px; font-weight: 200;" fill="rgb(50, 49, 63)" stroke="none" stroke-width="1px">10</text><text x="67.5" y="0" dx="0em" dy="0.95em" style="text-anchor: middle; visibility: inherit; font-family: &quot;Helvetica Neue&quot;, sans-serif; font-size: 12px; font-weight: 200;" fill="rgb(50, 49, 63)" stroke="none" stroke-width="1px">20</text><text x="90" y="0" dx="0em" dy="0.95em" style="text-anchor: middle; visibility: inherit; font-family: &quot;Helvetica Neue&quot;, sans-serif; font-size: 12px; font-weight: 200;" fill="rgb(50, 49, 63)" stroke="none" stroke-width="1px">30</text><text x="112.5" y="0" dx="0em" dy="0.95em" style="text-anchor: middle; visibility: inherit; font-family: &quot;Helvetica Neue&quot;, sans-serif; font-size: 12px; font-weight: 200;" fill="rgb(50, 49, 63)" stroke="none" stroke-width="1px">40</text><text x="135" y="0" dx="0em" dy="0.95em" style="text-anchor: middle; visibility: inherit; font-family: &quot;Helvetica Neue&quot;, sans-serif; font-size: 12px; font-weight: 200;" fill="rgb(50, 49, 63)" stroke="none" stroke-width="1px">50</text><text x="157.5" y="0" dx="0em" dy="0.95em" style="text-anchor: middle; visibility: inherit; font-family: &quot;Helvetica Neue&quot;, sans-serif; font-size: 12px; font-weight: 200;" fill="rgb(50, 49, 63)" stroke="none" stroke-width="1px">60</text><text x="180" y="0" dx="0em" dy="0.95em" style="text-anchor: middle; visibility: inherit; font-family: &quot;Helvetica Neue&quot;, sans-serif; font-size: 12px; font-weight: 200;" fill="rgb(50, 49, 63)" stroke="none" stroke-width="1px">70</text><text x="202.5" y="0" dx="0em" dy="0.95em" style="text-anchor: middle; visibility: inherit; font-family: &quot;Helvetica Neue&quot;, sans-serif; font-size: 12px; font-weight: 200;" fill="rgb(50, 49, 63)" stroke="none" stroke-width="1px">80</text><text x="225" y="0" dx="0em" dy="0.95em" style="text-anchor: middle; visibility: inherit; font-family: &quot;Helvetica Neue&quot;, sans-serif; font-size: 12px; font-weight: 200;" fill="rgb(50, 49, 63)" stroke="none" stroke-width="1px">90</text><text x="247.5" y="0" dx="0em" dy="0.95em" style="text-anchor: middle; visibility: inherit; font-family: &quot;Helvetica Neue&quot;, sans-serif; font-size: 12px; font-weight: 200;" fill="rgb(50, 49, 63)" stroke="none" stroke-width="1px">100</text><text x="270" y="0" dx="0em" dy="0.95em" style="text-anchor: middle; visibility: hidden; font-family: &quot;Helvetica Neue&quot;, sans-serif; font-size: 12px; font-weight: 200;" fill="rgb(50, 49, 63)" stroke="none" stroke-width="1px">110</text></g><line x1="0" y1="0" x2="270" y2="0" fill="rgb(0, 0, 0)" stroke="rgb(204, 204, 204)" stroke-width="1px"></line></g></g></g></g></svg>