<svg viewBox="0 0 330 200" xmlns="http://www.w3.org/2000/svg"><g><g><g><g><g><line x1="70" y1="178" x2="65" y2="178" style="visibility: inherit;" fill="rgb(0, 0, 0)" stroke="rgb(204, 204, 204)" stroke-width="1px"></line><line x1="70" y1="161.81818181818178" x2="65" y2="161.81818181818178" style="visibility: inherit;" fill="rgb(0, 0, 0)" stroke="rgb(204, 204, 204)" stroke-width="1px"></line><line x1="70" y1="145.63636363636357" x2="65" y2="145.63636363636357" style="visibility: inherit;" fill="rgb(0, 0, 0)" stroke="rgb(204, 204, 204)" stroke-width="1px"></line><line x1="70" y1="129.45454545454533" x2="65" y2="129.45454545454533" style="visibility: inherit;" fill="rgb(0, 0, 0)" stroke="rgb(204, 204, 204)" stroke-width="1px"></line><line x1="70" y1="113.27272727272711" x2="65" y2="113.27272727272711" style="visibility: inherit;" fill="rgb(0, 0, 0)" stroke="rgb(204, 204, 204)" stroke-width="1px"></line><line x1="70" y1="97.09090909090888" x2="65" y2="97.09090909090888" style="visibility: inherit;" fill="rgb(0, 0, 0)" stroke="rgb(204, 204, 204)" stroke-width="1px"></line><line x1="70" y1="80.90909090909066" x2="65" y2="80.90909090909066" style="visibility: inherit;" fill="rgb(0, 0, 0)" stroke="rgb(204, 204, 204)" stroke-width="1px"></line><line x1="70" y1="64.72727272727244" x2="65" y2="64.72727272727244" style="visibility: inherit;" fill="rgb(0, 0, 0)" stroke="rgb(204, 204, 204)" stroke-width="1px"></line><line x1="70" y1="48.54545454545422" x2="65" y2="48.54545454545422" style="visibility: inherit;" fill="rgb(0, 0, 0)" stroke="rgb(204, 204, 204)" stroke-width="1px"></line><line x1="70" y1="32.363636363636004" x2="65" y2="32.363636363636004" style="visibility: inherit;" fill="rgb(0, 0, 0)" stroke="rgb(204, 204, 204)" stroke-width="1px"></line><line x1="70" y1="16.181818181818215" x2="65" y2="16.181818181818215" style="visibility: inherit;" fill="rgb(0, 0, 0)" stroke="rgb(204, 204, 204)" stroke-width="1px"></line><line x1="70" y1="0" x2="65" y2="0" style="visibility: inherit;" fill="rgb(0, 0, 0)" stroke="rgb(204, 204, 204)" stroke-width="1px"></line></g><g transform="translate(60, 0)"><text x="0" y="178" dx="0em" dy="0.3em" style="text-anchor: end; visibility: hidden; font-family: &quot;Helvetica Neue&quot;, sans-serif; font-size: 12px; font-weight: 200;" fill="rgb(50, 49, 63)" stroke="none" stroke-width="1px">0.081</text><text x="0" y="161.81818181818178" dx="0em" dy="0.3em" style="text-anchor: end; visibility: inherit; font-family: &quot;Helvetica Neue&quot;, sans-serif; font-size: 12px; font-weight: 200;" fill="rgb(50, 49, 63)" stroke="none" stroke-width="1px">0.0815</text><text x="0" y="145.63636363636357" dx="0em" dy="0.3em" style="text-anchor: end; visibility: hidden; font-family: &quot;Helvetica Neue&quot;, sans-serif; font-size: 12px; font-weight: 200;" fill="rgb(50, 49, 63)" stroke="none" stroke-width="1px">0.082</text><text x="0" y="129.45454545454533" dx="0em" dy="0.3em" style="text-anchor: end; visibility: inherit; font-family: &quot;Helvetica Neue&quot;, sans-serif; font-size: 12px; font-weight: 200;" fill="rgb(50, 49, 63)" stroke="none" stroke-width="1px">0.0825</text><text x="0" y="113.27272727272711" dx="0em" dy="0.3em" style="text-anchor: end; visibility: hidden; font-family: &quot;Helvetica Neue&quot;, sans-serif; font-size: 12px; font-weight: 200;" fill="rgb(50, 49, 63)" stroke="none" stroke-width="1px">0.083</text><text x="0" y="97.09090909090888" dx="0em" dy="0.3em" style="text-anchor: end; visibility: inherit; font-family: &quot;Helvetica Neue&quot;, sans-serif; font-size: 12px; font-weight: 200;" fill="rgb(50, 49, 63)" stroke="none" stroke-width="1px">0.0835</text><text x="0" y="80.90909090909066" dx="0em" dy="0.3em" style="text-anchor: end; visibility: hidden; font-family: &quot;Helvetica Neue&quot;, sans-serif; font-size: 12px; font-weight: 200;" fill="rgb(50, 49, 63)" stroke="none" stroke-width="1px">0.084</text><text x="0" y="64.72727272727244" dx="0em" dy="0.3em" style="text-anchor: end; visibility: inherit; font-family: &quot;Helvetica Neue&quot;, sans-serif; font-size: 12px; font-weight: 200;" fill="rgb(50, 49, 63)" stroke="none" stroke-width="1px">0.0845</text><text x="0" y="48.54545454545422" dx="0em" dy="0.3em" style="text-anchor: end; visibility: hidden; font-family: &quot;Helvetica Neue&quot;, sans-serif; font-size: 12px; font-weight: 200;" fill="rgb(50, 49, 63)" stroke="none" stroke-width="1px">0.085</text><text x="0" y="32.363636363636004" dx="0em" dy="0.3em" style="text-anchor: end; visibility: inherit; font-family: &quot;Helvetica Neue&quot;, sans-serif; font-size: 12px; font-weight: 200;" fill="rgb(50, 49, 63)" stroke="none" stroke-width="1px">0.0855</text><text x="0" y="16.181818181818215" dx="0em" dy="0.3em" style="text-anchor: end; visibility: hidden; font-family: &quot;Helvetica Neue&quot;, sans-serif; font-size: 12px; font-weight: 200;" fill="rgb(50, 49, 63)" stroke="none" stroke-width="1px">0.086</text><text x="0" y="0" dx="0em" dy="0.3em" style="text-anchor: end; visibility: hidden; font-family: &quot;Helvetica Neue&quot;, sans-serif; font-size: 12px; font-weight: 200;" fill="rgb(50, 49, 63)" stroke="none" stroke-width="1px">0.0865</text></g><line x1="70" y1="0" x2="70" y2="178" fill="rgb(0, 0, 0)" stroke="rgb(204, 204, 204)" stroke-width="1px"></line></g></g><g transform="translate(70, 0)" clip-path="url(#clip_0)"><clipPath id="clip_0"><rect width="260" height="178"></rect></clipPath><g><g><g><line x1="0" y1="0" x2="0" y2="178" fill="rgb(0, 0, 0)" stroke="rgb(60, 60, 60)" stroke-width="1px" opacity="0.25"></line><line x1="21.666666666666664" y1="0" x2="21.666666666666664" y2="178" fill="rgb(0, 0, 0)" stroke="rgb(60, 60, 60)" stroke-width="1px" opacity="0.25"></line><line x1="43.33333333333333" y1="0" x2="43.33333333333333" y2="178" fill="rgb(0, 0, 0)" stroke="rgb(60, 60, 60)" stroke-width="1px" opacity="0.25"></line><line x1="65" y1="0" x2="65" y2="178" fill="rgb(0, 0, 0)" stroke="rgb(60, 60, 60)" stroke-width="1px" opacity="0.25"></line><line x1="86.66666666666666" y1="0" x2="86.66666666666666" y2="178" fill="rgb(0, 0, 0)" stroke="rgb(60, 60, 60)" stroke-width="1px" opacity="0.25"></line><line x1="108.33333333333334" y1="0" x2="108.33333333333334" y2="178" fill="rgb(0, 0, 0)" stroke="rgb(60, 60, 60)" stroke-width="1px" opacity="0.25"></line><line x1="130" y1="0" x2="130" y2="178" fill="rgb(0, 0, 0)" stroke="rgb(60, 60, 60)" stroke-width="1px" opacity="0.25"></line><line x1="151.66666666666669" y1="0" x2="151.66666666666669" y2="178" fill="rgb(0, 0, 0)" stroke="rgb(60, 60, 60)" stroke-width="1px" opacity="0.25"></line><line x1="173.33333333333331" y1="0" x2="173.33333333333331" y2="178" fill="rgb(0, 0, 0)" stroke="rgb(60, 60, 60)" stroke-width="1px" opacity="0.25"></line><line x1="195" y1="0" x2="195" y2="178" fill="rgb(0, 0, 0)" stroke="rgb(60, 60, 60)" stroke-width="1px" opacity="0.25"></line><line x1="216.66666666666669" y1="0" x2="216.66666666666669" y2="178" fill="rgb(0, 0, 0)" stroke="rgb(60, 60, 60)" stroke-width="1px" opacity="0.25"></line><line x1="238.33333333333331" y1="0" x2="238.33333333333331" y2="178" fill="rgb(0, 0, 0)" stroke="rgb(60, 60, 60)" stroke-width="1px" opacity="0.25"></line><line x1="260" y1="0" x2="260" y2="178" fill="rgb(0, 0, 0)" stroke="rgb(60, 60, 60)" stroke-width="1px" opacity="0.25"></line></g><g><line x1="0" y1="178" x2="260" y2="178" fill="rgb(0, 0, 0)" stroke="rgb(60, 60, 60)" stroke-width="1px" opacity="0.25"></line><line x1="0" y1="161.81818181818178" x2="260" y2="161.81818181818178" fill="rgb(0, 0, 0)" stroke="rgb(60, 60, 60)" stroke-width="1px" opacity="0.25"></line><line x1="0" y1="145.63636363636357" x2="260" y2="145.63636363636357" fill="rgb(0, 0, 0)" stroke="rgb(60, 60, 60)" stroke-width="1px" opacity="0.25"></line><line x1="0" y1="129.45454545454533" x2="260" y2="129.45454545454533" fill="rgb(0, 0, 0)" stroke="rgb(60, 60, 60)" stroke-width="1px" opacity="0.25"></line><line x1="0" y1="113.27272727272711" x2="260" y2="113.27272727272711" fill="rgb(0, 0, 0)" stroke="rgb(60, 60, 60)" stroke-width="1px" opacity="0.25"></line><line x1="0" y1="97.09090909090888" x2="260" y2="97.09090909090888" fill="rgb(0, 0, 0)" stroke="rgb(60, 60, 60)" stroke-width="1px" opacity="0.25"></line><line x1="0" y1="80.90909090909066" x2="260" y2="80.90909090909066" fill="rgb(0, 0, 0)" stroke="rgb(60, 60, 60)" stroke-width="1px" opacity="0.25"></line><line x1="0" y1="64.72727272727244" x2="260" y2="64.72727272727244" fill="rgb(0, 0, 0)" stroke="rgb(60, 60, 60)" stroke-width="1px" opacity="0.25"></line><line x1="0" y1="48.54545454545422" x2="260" y2="48.54545454545422" fill="rgb(0, 0, 0)" stroke="rgb(60, 60, 60)" stroke-width="1px" opacity="0.25"></line><line x1="0" y1="32.363636363636004" x2="260" y2="32.363636363636004" fill="rgb(0, 0, 0)" stroke="rgb(60, 60, 60)" stroke-width="1px" opacity="0.25"></line><line x1="0" y1="16.181818181818215" x2="260" y2="16.181818181818215" fill="rgb(0, 0, 0)" stroke="rgb(60, 60, 60)" stroke-width="1px" opacity="0.25"></line><line x1="0" y1="0" x2="260" y2="0" fill="rgb(0, 0, 0)" stroke="rgb(60, 60, 60)" stroke-width="1px" opacity="0.25"></line></g></g></g><g><g><line x1="0" y1="2799.4545454545496" x2="260" y2="2799.4545454545496" fill="rgb(0, 0, 0)" stroke="rgb(153, 153, 153)" stroke-width="1.5px"></line></g></g><g><g><line x1="21.666666666666664" y1="0" x2="21.666666666666664" y2="178" fill="rgb(0, 0, 0)" stroke="rgb(153, 153, 153)" stroke-width="1.5px"></line></g></g><g><g><g><g><g><path stroke="rgb(238, 51, 119)" stroke-width="2px" d="M23.833333333333332,70.40993736006988L26,66.66718053004948L28.166666666666668,64.84246681882186L30.333333333333332,44.309506413691224L32.5,30.939344689279096L34.666666666666664,32.17116054272418L36.833333333333336,21.227894295759967L39,30.016337248856615L41.166666666666664,34.983221836908825L43.33333333333333,38.219519315181174L45.5,35.61324782666074L47.666666666666664,34.05844948679169L49.833333333333336,33.04680760016231L52,32.33709549615628L54.16666666666667,31.815320812939262L56.333333333333336,31.418862790439164L58.5,31.110927711147582L60.666666666666664,30.87314650379554L62.833333333333336,30.69133168147377L65,30.540677912295422L67.16666666666667,30.42935881684474L69.33333333333333,30.340384865420674L71.5,30.288158667040136L73.66666666666667,30.262706760156505L75.83333333333334,30.269426618491707L78,30.302393916361098L80.16666666666667,30.3871824023812L82.33333333333333,30.49727648242788L84.5,30.586384721117412L86.66666666666666,30.867956669301805L88.83333333333333,31.021081807273333L91,31.51187887535852L93.16666666666667,32.299222503789366L95.33333333333333,32.47957455878529L97.5,30.078126758461536L99.66666666666667,30.459220393349767L101.83333333333333,32.33815580047997L104,33.914400702507635L106.16666666666667,35.00820015932612L108.33333333333334,35.75041780880994L110.5,36.245806546028774L112.66666666666667,36.57708704493882L114.83333333333333,36.79562783044176L117,36.93157485932693L119.16666666666666,37.00388376600685L121.33333333333333,37.0514165095654L123.5,37.0681691150989L125.66666666666667,37.08497225909011L127.83333333333333,37.10141992154712L130,37.11562882088134L132.16666666666666,37.12743349966567L134.33333333333334,37.13692758574766L136.5,37.144360158140415L138.66666666666666,37.14737293429005L140.83333333333331,37.14686577232044L143,37.15736400421301L145.16666666666666,37.162505529520075L147.33333333333334,37.16134659399586L149.5,37.1669205575906L151.66666666666669,37.167757205784255L153.83333333333334,37.17086337581628L156,37.17060515248204L158.16666666666666,37.16582056316324L160.33333333333334,37.1666149533653L162.5,37.16217257871142L164.66666666666666,37.163461651169484L166.83333333333334,37.16510315501668L169,37.16290516929354L171.16666666666666,37.16351540090912L173.33333333333331,37.158673177645824L175.5,37.15885428056649L177.66666666666666,37.16137422112999L179.83333333333334,37.15854588360787L182,37.16186434102218L184.16666666666669,37.16539863391023L186.33333333333334,37.16404696815468L188.5,37.166515307884794L190.66666666666666,37.17011823707679L192.83333333333334,41.70548415996424L195,44.431333369014084L197.16666666666666,46.05382198886315L199.33333333333334,47.02818322114433L201.5,47.62688182877159L203.66666666666666,47.375082942547095L205.83333333333331,47.83309263856407L208,48.094877550592685L210.16666666666666,48.263908440714175L212.33333333333334,48.365616328244954L214.5,48.4591450991403L216.66666666666669,48.48275832330009L218.83333333333334,48.48699178909328L221,47.95673570240933L223.16666666666666,48.19452649314809L225.33333333333334,42.91423492082416L227.5,40.44311245622026L229.66666666666666,39.842774120113546L231.83333333333334,41.365972772432826L234,42.610430063286714L236.16666666666666,43.4125638504608L238.33333333333331,43.897605717711144" style="fill: none;" fill="none"></path></g><g><path stroke="rgb(51, 187, 238)" stroke-width="2px" d="M23.833333333333332,57.996432911266325L26,207.1346302140844L43.33333333333333,192.97328189105778L45.5,165.24716463896348L47.666666666666664,148.70462385539673L49.833333333333336,138.81617931809322L52,132.9023887293697L54.16666666666667,129.38033738077908L56.333333333333336,127.26083436460134L58.5,125.99028703799132L60.666666666666664,125.24044329666042L62.833333333333336,124.7976271566562L65,124.51044534926692L67.16666666666667,124.34508762018783L69.33333333333333,124.23111808377226L71.5,124.17749446485337L73.66666666666667,124.12959895218661L75.83333333333334,124.12372077795371L78,124.10929488529058L80.16666666666667,124.10565483050257L82.33333333333333,100.8552565403434L84.5,83.18538663918763L86.66666666666666,72.56581830046483L88.83333333333333,66.21172936300582L91,62.37632116383294L93.16666666666667,60.081828020681925L95.33333333333333,58.76261709342377L97.5,82.43650450889179L99.66666666666667,99.01768247216901L101.83333333333333,108.97574490252505L104,114.95376520934005L106.16666666666667,118.54240995112357L108.33333333333334,120.6965613026023L110.5,122.01953067584714L112.66666666666667,122.78485920912698L114.83333333333333,123.24434568231635L117,123.53064719291726L119.16666666666666,123.71294127486439L121.33333333333333,123.81190099955523L123.5,123.88179000998375L125.66666666666667,123.91369249638328L127.83333333333333,123.93293043937574L130,123.94466610747506L132.16666666666666,123.95161105718209L134.33333333333334,123.95577802700632L136.5,123.9582782089011L138.66666666666666,123.9598747691908L140.83333333333331,123.96102560766917L143,123.95187809320555L145.16666666666666,123.95651695553556L147.33333333333334,123.95930027293375L149.5,123.95103579466993L151.66666666666669,123.95591512526155L153.83333333333334,123.94900470606615L156,123.95469647209974L158.16666666666666,106.8112185506234L160.33333333333334,86.69251551189375L162.5,74.63113170620599L164.66666666666666,67.38455985639567L166.83333333333334,63.03671319766218L169,60.437746768820034L171.16666666666666,58.86862534511674L173.33333333333331,57.93689405729239L175.5,57.37476884771961L177.66666666666666,57.04414885149487L179.83333333333334,56.8422081611192L182,56.72461243953525L184.16666666666669,56.647399877065055L186.33333333333334,56.60415877646166L188.5,56.575127679221L190.66666666666666,56.55770902087677L192.83333333333334,56.55699939226771L195,56.56843710685449L197.16666666666666,56.5470395479373L199.33333333333334,56.54085614210628L201.5,56.54437993504159L203.66666666666666,56.5490019407666L205.83333333333331,74.11302227624314L208,67.07379064957051L210.16666666666666,81.64096164594845L212.33333333333334,89.95813303795644L214.5,103.55727993665992L216.66666666666669,111.71001649521017L218.83333333333334,116.60165843034005L221,119.55294383618319L223.16666666666666,121.30741483492413L225.33333333333334,122.38160604116638L227.5,124.40672256114817L229.66666666666666,124.21862110722621L231.83333333333334,124.09833349613385L234,124.03079058479598L236.16666666666666,123.99190450758516L238.33333333333331,123.96905511702114" style="fill: none;" fill="none"></path></g></g></g></g><g opacity="0.2"><g><g><g><path stroke="rgb(238, 51, 119)" stroke-width="2px" d="M23.833333333333332,70.40993736006988L26,64.42152643203725L28.166666666666668,63.09074165604321L30.333333333333332,20.16274497725729L32.5,13.483261541886577L34.666666666666664,33.875205321745284L36.833333333333336,5.5788484703408585L39,42.829971443522936L41.166666666666664,42.308411836624L43.33333333333333,43.0250438993626L45.5,31.72747928445972L47.666666666666664,31.734713120893844L49.833333333333336,31.532647956501194L52,31.273917740041384L54.16666666666667,31.033272114666858L56.333333333333336,30.82445536960239L58.5,30.64915540001593L60.666666666666664,30.516535065390684L62.833333333333336,30.418637145649143L65,30.314711028879174L67.16666666666667,30.262386278672494L69.33333333333333,30.20692686601103L71.5,30.209820400584647L73.66666666666667,30.224529201334008L75.83333333333334,30.27950635823322L78,30.351844722574242L80.16666666666667,30.514364914460458L82.33333333333333,30.662417433478453L84.5,30.720046997070142L86.66666666666666,31.29031443595869L88.83333333333333,31.250769463452258L91,32.248074379834094L93.16666666666667,33.480237852443196L95.33333333333333,32.750102628360935L97.5,26.47595516118119L99.66666666666667,31.030860835855492L101.83333333333333,35.15655888210628L104,36.27876804091699L106.16666666666667,36.648899338462L108.33333333333334,36.8637442805549L110.5,36.98888965086488L112.66666666666667,37.07400779290617L114.83333333333333,37.12343900853921L117,37.135495402596064L119.16666666666666,37.11234712600694L121.33333333333333,37.12271562489582L123.5,37.093298023397125L125.66666666666667,37.11017697507668L127.83333333333333,37.12609141523171L130,37.1369421698829L132.16666666666666,37.145140517841526L134.33333333333334,37.151168714869954L136.5,37.155509016730434L138.66666666666666,37.15189209851337L140.83333333333331,37.14610502936608L143,37.17311135205341L145.16666666666666,37.17021781747977L147.33333333333334,37.15960819070975L149.5,37.17528150298364L151.66666666666669,37.16901217807407L153.83333333333334,37.175522630864776L156,37.17021781747977L158.16666666666666,37.15864367918519L160.33333333333334,37.1678065386684L162.5,37.155509016730434L164.66666666666666,37.165395259857036L166.83333333333334,37.16756541078726L169,37.15960819070975L171.16666666666666,37.16443074833248L173.33333333333331,37.15140984275109L175.5,37.15912593494747L177.66666666666666,37.165154131975896L179.83333333333334,37.15430337732474L182,37.16684202714384L184.16666666666669,37.170700073242045L186.33333333333334,37.16201946952111L188.5,37.17021781747977L190.66666666666666,37.175522630864776L192.83333333333334,48.50853304429475L195,48.5201071825893L197.16666666666666,48.48755491863585L199.33333333333334,48.48972506956608L201.5,48.52492974021203L203.66666666666666,46.997384613210386L205.83333333333331,48.5201071825893L208,48.48755491863585L210.16666666666666,48.517454775896795L212.33333333333334,48.51817815954021L214.5,48.599438255483335L216.66666666666669,48.51817815954021L218.83333333333334,48.49334198778314L221,47.16135157238341L223.16666666666666,48.55121267925597L225.33333333333334,34.993797562338926L227.5,36.73642875931466L229.66666666666666,38.94226661595417L231.83333333333334,43.65077075091261L234,44.47711599956847L236.16666666666666,44.61576453122211L238.33333333333331,44.62516851858646" style="fill: none;" fill="none"></path></g><g><path stroke="rgb(51, 187, 238)" stroke-width="2px" d="M23.833333333333332,57.99643291126587L26,296.61754859577553L39,248.66275897893058L41.166666666666664,145.0886889154261L43.33333333333333,123.78913979096845L45.5,123.90946260365573L47.666666666666664,123.98083645647222L49.833333333333336,124.01579999923706L52,124.04328857768664L54.16666666666667,124.10140039704063L56.333333333333336,124.08307467807421L58.5,124.08500370112333L60.666666666666664,124.11586806990883L62.833333333333336,124.1334704052318L65,124.07969888773832L67.16666666666667,124.09706009518015L69.33333333333333,124.06016752936623L71.5,124.09706009518015L73.66666666666667,124.05775625055486L75.83333333333334,124.11490355838427L78,124.08765610781583L80.16666666666667,124.10019475763494L82.33333333333333,65.9796947999433L84.5,56.680598063902295L86.66666666666666,56.63647166165427L88.83333333333333,56.680598063902295L91,56.623209628191745L93.16666666666667,56.64008857987132L95.33333333333333,56.78380079702886L97.5,117.947334614667L99.66666666666667,123.88944898952136L101.83333333333333,123.91283839399165L104,123.92079561406916L106.16666666666667,123.92537704381076L108.33333333333334,123.92778832262212L110.5,124.00398473306134L112.66666666666667,123.93285200812599L114.83333333333333,123.93357539176941L117,123.96009945869446L119.16666666666666,123.98638239773837L121.33333333333333,123.9603405865756L123.5,123.9866235256195L125.66666666666667,123.96154622598127L127.83333333333333,123.9617873538624L130,123.96226960962468L132.16666666666666,123.96202848174354L134.33333333333334,123.96202848174354L136.5,123.96202848174354L138.66666666666666,123.96226960962468L140.83333333333331,123.96275186538696L143,123.938156821511L145.16666666666666,123.96347524903038L147.33333333333334,123.96347524903038L149.5,123.93863907727328L151.66666666666669,123.96323412114924L153.83333333333334,123.93863907727328L156,123.96323412114924L158.16666666666666,81.09600166840978L160.33333333333334,56.514460953799045L162.5,56.53905599767501L164.66666666666666,56.514702081680184L166.83333333333334,56.51494320956131L169,56.53929712555613L171.16666666666666,56.51494320956131L173.33333333333331,56.53929712555613L175.5,56.53158103335977L177.66666666666666,56.548218857158204L179.83333333333334,56.53929712555613L182,56.548218857158204L184.16666666666669,56.53158103335977L186.33333333333334,56.53929712555613L188.5,56.53158103335977L190.66666666666666,56.53158103335977L192.83333333333334,56.555934949354565L195,56.5855936787344L197.16666666666666,56.51494320956131L199.33333333333334,56.53158103335977L201.5,56.549665624445026L203.66666666666666,56.555934949354565L205.83333333333331,100.45905277945774L208,56.51494320956131L210.16666666666666,103.49171814051537L212.33333333333334,102.4338901259682L214.5,123.95600028471512L216.66666666666669,123.93912133303556L218.83333333333334,123.93912133303556L221,123.97987194494766L223.16666666666666,123.93912133303556L225.33333333333334,123.99289285052905L227.5,127.44439734112132L229.66666666666666,123.93646892634305L231.83333333333334,123.91790207949552L234,123.92947621779007L236.16666666666666,123.93357539176941L238.33333333333331,123.93478103117508" style="fill: none;" fill="none"></path></g></g></g></g></g></g><g transform="translate(70, 178)" clip-path="url(#clip_1)"><clipPath id="clip_1"><rect width="260" height="22"></rect></clipPath><g><g><line x1="0" y1="0" x2="0" y2="5" style="visibility: inherit;" fill="rgb(0, 0, 0)" stroke="rgb(204, 204, 204)" stroke-width="1px"></line><line x1="21.666666666666664" y1="0" x2="21.666666666666664" y2="5" style="visibility: inherit;" fill="rgb(0, 0, 0)" stroke="rgb(204, 204, 204)" stroke-width="1px"></line><line x1="43.33333333333333" y1="0" x2="43.33333333333333" y2="5" style="visibility: inherit;" fill="rgb(0, 0, 0)" stroke="rgb(204, 204, 204)" stroke-width="1px"></line><line x1="65" y1="0" x2="65" y2="5" style="visibility: inherit;" fill="rgb(0, 0, 0)" stroke="rgb(204, 204, 204)" stroke-width="1px"></line><line x1="86.66666666666666" y1="0" x2="86.66666666666666" y2="5" style="visibility: inherit;" fill="rgb(0, 0, 0)" stroke="rgb(204, 204, 204)" stroke-width="1px"></line><line x1="108.33333333333334" y1="0" x2="108.33333333333334" y2="5" style="visibility: inherit;" fill="rgb(0, 0, 0)" stroke="rgb(204, 204, 204)" stroke-width="1px"></line><line x1="130" y1="0" x2="130" y2="5" style="visibility: inherit;" fill="rgb(0, 0, 0)" stroke="rgb(204, 204, 204)" stroke-width="1px"></line><line x1="151.66666666666669" y1="0" x2="151.66666666666669" y2="5" style="visibility: inherit;" fill="rgb(0, 0, 0)" stroke="rgb(204, 204, 204)" stroke-width="1px"></line><line x1="173.33333333333331" y1="0" x2="173.33333333333331" y2="5" style="visibility: inherit;" fill="rgb(0, 0, 0)" stroke="rgb(204, 204, 204)" stroke-width="1px"></line><line x1="195" y1="0" x2="195" y2="5" style="visibility: inherit;" fill="rgb(0, 0, 0)" stroke="rgb(204, 204, 204)" stroke-width="1px"></line><line x1="216.66666666666669" y1="0" x2="216.66666666666669" y2="5" style="visibility: inherit;" fill="rgb(0, 0, 0)" stroke="rgb(204, 204, 204)" stroke-width="1px"></line><line x1="238.33333333333331" y1="0" x2="238.33333333333331" y2="5" style="visibility: inherit;" fill="rgb(0, 0, 0)" stroke="rgb(204, 204, 204)" stroke-width="1px"></line><line x1="260" y1="0" x2="260" y2="5" style="visibility: inherit;" fill="rgb(0, 0, 0)" stroke="rgb(204, 204, 204)" stroke-width="1px"></line></g><g transform="translate(0, 8)"><text x="0" y="0" dx="0em" dy="0.95em" style="text-anchor: middle; visibility: hidden; font-family: &quot;Helvetica Neue&quot;, sans-serif; font-size: 12px; font-weight: 200;" fill="rgb(50, 49, 63)" stroke="none" stroke-width="1px">-10</text><text x="21.666666666666664" y="0" dx="0em" dy="0.95em" style="text-anchor: middle; visibility: inherit; font-family: &quot;Helvetica Neue&quot;, sans-serif; font-size: 12px; font-weight: 200;" fill="rgb(50, 49, 63)" stroke="none" stroke-width="1px">0</text><text x="43.33333333333333" y="0" dx="0em" dy="0.95em" style="text-anchor: middle; visibility: inherit; font-family: &quot;Helvetica Neue&quot;, sans-serif; font-size: 12px; font-weight: 200;" fill="rgb(50, 49, 63)" stroke="none" stroke-width="1px">10</text><text x="65" y="0" dx="0em" dy="0.95em" style="text-anchor: middle; visibility: inherit; font-family: &quot;Helvetica Neue&quot;, sans-serif; font-size: 12px; font-weight: 200;" fill="rgb(50, 49, 63)" stroke="none" stroke-width="1px">20</text><text x="86.66666666666666" y="0" dx="0em" dy="0.95em" style="text-anchor: middle; visibility: inherit; font-family: &quot;Helvetica Neue&quot;, sans-serif; font-size: 12px; font-weight: 200;" fill="rgb(50, 49, 63)" stroke="none" stroke-width="1px">30</text><text x="108.33333333333334" y="0" dx="0em" dy="0.95em" style="text-anchor: middle; visibility: inherit; font-family: &quot;Helvetica Neue&quot;, sans-serif; font-size: 12px; font-weight: 200;" fill="rgb(50, 49, 63)" stroke="none" stroke-width="1px">40</text><text x="130" y="0" dx="0em" dy="0.95em" style="text-anchor: middle; visibility: inherit; font-family: &quot;Helvetica Neue&quot;, sans-serif; font-size: 12px; font-weight: 200;" fill="rgb(50, 49, 63)" stroke="none" stroke-width="1px">50</text><text x="151.66666666666669" y="0" dx="0em" dy="0.95em" style="text-anchor: middle; visibility: inherit; font-family: &quot;Helvetica Neue&quot;, sans-serif; font-size: 12px; font-weight: 200;" fill="rgb(50, 49, 63)" stroke="none" stroke-width="1px">60</text><text x="173.33333333333331" y="0" dx="0em" dy="0.95em" style="text-anchor: middle; visibility: inherit; font-family: &quot;Helvetica Neue&quot;, sans-serif; font-size: 12px; font-weight: 200;" fill="rgb(50, 49, 63)" stroke="none" stroke-width="1px">70</text><text x="195" y="0" dx="0em" dy="0.95em" style="text-anchor: middle; visibility: inherit; font-family: &quot;Helvetica Neue&quot;, sans-serif; font-size: 12px; font-weight: 200;" fill="rgb(50, 49, 63)" stroke="none" stroke-width="1px">80</text><text x="216.66666666666669" y="0" dx="0em" dy="0.95em" style="text-anchor: middle; visibility: inherit; font-family: &quot;Helvetica Neue&quot;, sans-serif; font-size: 12px; font-weight: 200;" fill="rgb(50, 49, 63)" stroke="none" stroke-width="1px">90</text><text x="238.33333333333331" y="0" dx="0em" dy="0.95em" style="text-anchor: middle; visibility: inherit; font-family: &quot;Helvetica Neue&quot;, sans-serif; font-size: 12px; font-weight: 200;" fill="rgb(50, 49, 63)" stroke="none" stroke-width="1px">100</text><text x="260" y="0" dx="0em" dy="0.95em" style="text-anchor: middle; visibility: hidden; font-family: &quot;Helvetica Neue&quot;, sans-serif; font-size: 12px; font-weight: 200;" fill="rgb(50, 49, 63)" stroke="none" stroke-width="1px">110</text></g><line x1="0" y1="0" x2="260" y2="0" fill="rgb(0, 0, 0)" stroke="rgb(204, 204, 204)" stroke-width="1px"></line></g></g></g></g></svg>