<svg viewBox="0 0 330 200" xmlns="http://www.w3.org/2000/svg"><g><g><g><g><g><line x1="70" y1="178" x2="65" y2="178" style="visibility: inherit;" fill="rgb(0, 0, 0)" stroke="rgb(204, 204, 204)" stroke-width="1px"></line><line x1="70" y1="165.28571428571425" x2="65" y2="165.28571428571425" style="visibility: inherit;" fill="rgb(0, 0, 0)" stroke="rgb(204, 204, 204)" stroke-width="1px"></line><line x1="70" y1="152.57142857142853" x2="65" y2="152.57142857142853" style="visibility: inherit;" fill="rgb(0, 0, 0)" stroke="rgb(204, 204, 204)" stroke-width="1px"></line><line x1="70" y1="139.85714285714278" x2="65" y2="139.85714285714278" style="visibility: inherit;" fill="rgb(0, 0, 0)" stroke="rgb(204, 204, 204)" stroke-width="1px"></line><line x1="70" y1="127.14285714285705" x2="65" y2="127.14285714285705" style="visibility: inherit;" fill="rgb(0, 0, 0)" stroke="rgb(204, 204, 204)" stroke-width="1px"></line><line x1="70" y1="114.42857142857166" x2="65" y2="114.42857142857166" style="visibility: inherit;" fill="rgb(0, 0, 0)" stroke="rgb(204, 204, 204)" stroke-width="1px"></line><line x1="70" y1="101.71428571428592" x2="65" y2="101.71428571428592" style="visibility: inherit;" fill="rgb(0, 0, 0)" stroke="rgb(204, 204, 204)" stroke-width="1px"></line><line x1="70" y1="89.00000000000018" x2="65" y2="89.00000000000018" style="visibility: inherit;" fill="rgb(0, 0, 0)" stroke="rgb(204, 204, 204)" stroke-width="1px"></line><line x1="70" y1="76.28571428571443" x2="65" y2="76.28571428571443" style="visibility: inherit;" fill="rgb(0, 0, 0)" stroke="rgb(204, 204, 204)" stroke-width="1px"></line><line x1="70" y1="63.5714285714287" x2="65" y2="63.5714285714287" style="visibility: inherit;" fill="rgb(0, 0, 0)" stroke="rgb(204, 204, 204)" stroke-width="1px"></line><line x1="70" y1="50.85714285714295" x2="65" y2="50.85714285714295" style="visibility: inherit;" fill="rgb(0, 0, 0)" stroke="rgb(204, 204, 204)" stroke-width="1px"></line><line x1="70" y1="38.142857142857224" x2="65" y2="38.142857142857224" style="visibility: inherit;" fill="rgb(0, 0, 0)" stroke="rgb(204, 204, 204)" stroke-width="1px"></line><line x1="70" y1="25.428571428571473" x2="65" y2="25.428571428571473" style="visibility: inherit;" fill="rgb(0, 0, 0)" stroke="rgb(204, 204, 204)" stroke-width="1px"></line><line x1="70" y1="12.71428571428575" x2="65" y2="12.71428571428575" style="visibility: inherit;" fill="rgb(0, 0, 0)" stroke="rgb(204, 204, 204)" stroke-width="1px"></line><line x1="70" y1="0" x2="65" y2="0" style="visibility: inherit;" fill="rgb(0, 0, 0)" stroke="rgb(204, 204, 204)" stroke-width="1px"></line></g><g transform="translate(60, 0)"><text x="0" y="178" dx="0em" dy="0.3em" style="text-anchor: end; visibility: hidden; font-family: &quot;Helvetica Neue&quot;, sans-serif; font-size: 12px; font-weight: 200;" fill="rgb(50, 49, 63)" stroke="none" stroke-width="1px">0.068</text><text x="0" y="165.28571428571425" dx="0em" dy="0.3em" style="text-anchor: end; visibility: inherit; font-family: &quot;Helvetica Neue&quot;, sans-serif; font-size: 12px; font-weight: 200;" fill="rgb(50, 49, 63)" stroke="none" stroke-width="1px">0.0685</text><text x="0" y="152.57142857142853" dx="0em" dy="0.3em" style="text-anchor: end; visibility: hidden; font-family: &quot;Helvetica Neue&quot;, sans-serif; font-size: 12px; font-weight: 200;" fill="rgb(50, 49, 63)" stroke="none" stroke-width="1px">0.069</text><text x="0" y="139.85714285714278" dx="0em" dy="0.3em" style="text-anchor: end; visibility: inherit; font-family: &quot;Helvetica Neue&quot;, sans-serif; font-size: 12px; font-weight: 200;" fill="rgb(50, 49, 63)" stroke="none" stroke-width="1px">0.0695</text><text x="0" y="127.14285714285705" dx="0em" dy="0.3em" style="text-anchor: end; visibility: hidden; font-family: &quot;Helvetica Neue&quot;, sans-serif; font-size: 12px; font-weight: 200;" fill="rgb(50, 49, 63)" stroke="none" stroke-width="1px">0.07</text><text x="0" y="114.42857142857166" dx="0em" dy="0.3em" style="text-anchor: end; visibility: inherit; font-family: &quot;Helvetica Neue&quot;, sans-serif; font-size: 12px; font-weight: 200;" fill="rgb(50, 49, 63)" stroke="none" stroke-width="1px">0.0705</text><text x="0" y="101.71428571428592" dx="0em" dy="0.3em" style="text-anchor: end; visibility: hidden; font-family: &quot;Helvetica Neue&quot;, sans-serif; font-size: 12px; font-weight: 200;" fill="rgb(50, 49, 63)" stroke="none" stroke-width="1px">0.071</text><text x="0" y="89.00000000000018" dx="0em" dy="0.3em" style="text-anchor: end; visibility: inherit; font-family: &quot;Helvetica Neue&quot;, sans-serif; font-size: 12px; font-weight: 200;" fill="rgb(50, 49, 63)" stroke="none" stroke-width="1px">0.0715</text><text x="0" y="76.28571428571443" dx="0em" dy="0.3em" style="text-anchor: end; visibility: hidden; font-family: &quot;Helvetica Neue&quot;, sans-serif; font-size: 12px; font-weight: 200;" fill="rgb(50, 49, 63)" stroke="none" stroke-width="1px">0.072</text><text x="0" y="63.5714285714287" dx="0em" dy="0.3em" style="text-anchor: end; visibility: inherit; font-family: &quot;Helvetica Neue&quot;, sans-serif; font-size: 12px; font-weight: 200;" fill="rgb(50, 49, 63)" stroke="none" stroke-width="1px">0.0725</text><text x="0" y="50.85714285714295" dx="0em" dy="0.3em" style="text-anchor: end; visibility: hidden; font-family: &quot;Helvetica Neue&quot;, sans-serif; font-size: 12px; font-weight: 200;" fill="rgb(50, 49, 63)" stroke="none" stroke-width="1px">0.073</text><text x="0" y="38.142857142857224" dx="0em" dy="0.3em" style="text-anchor: end; visibility: inherit; font-family: &quot;Helvetica Neue&quot;, sans-serif; font-size: 12px; font-weight: 200;" fill="rgb(50, 49, 63)" stroke="none" stroke-width="1px">0.0735</text><text x="0" y="25.428571428571473" dx="0em" dy="0.3em" style="text-anchor: end; visibility: hidden; font-family: &quot;Helvetica Neue&quot;, sans-serif; font-size: 12px; font-weight: 200;" fill="rgb(50, 49, 63)" stroke="none" stroke-width="1px">0.074</text><text x="0" y="12.71428571428575" dx="0em" dy="0.3em" style="text-anchor: end; visibility: inherit; font-family: &quot;Helvetica Neue&quot;, sans-serif; font-size: 12px; font-weight: 200;" fill="rgb(50, 49, 63)" stroke="none" stroke-width="1px">0.0745</text><text x="0" y="0" dx="0em" dy="0.3em" style="text-anchor: end; visibility: hidden; font-family: &quot;Helvetica Neue&quot;, sans-serif; font-size: 12px; font-weight: 200;" fill="rgb(50, 49, 63)" stroke="none" stroke-width="1px">0.075</text></g><line x1="70" y1="0" x2="70" y2="178" fill="rgb(0, 0, 0)" stroke="rgb(204, 204, 204)" stroke-width="1px"></line></g></g><g transform="translate(70, 0)" clip-path="url(#clip_0)"><clipPath id="clip_0"><rect width="260" height="178"></rect></clipPath><g><g><g><line x1="0" y1="0" x2="0" y2="178" fill="rgb(0, 0, 0)" stroke="rgb(60, 60, 60)" stroke-width="1px" opacity="0.25"></line><line x1="21.666666666666664" y1="0" x2="21.666666666666664" y2="178" fill="rgb(0, 0, 0)" stroke="rgb(60, 60, 60)" stroke-width="1px" opacity="0.25"></line><line x1="43.33333333333333" y1="0" x2="43.33333333333333" y2="178" fill="rgb(0, 0, 0)" stroke="rgb(60, 60, 60)" stroke-width="1px" opacity="0.25"></line><line x1="65" y1="0" x2="65" y2="178" fill="rgb(0, 0, 0)" stroke="rgb(60, 60, 60)" stroke-width="1px" opacity="0.25"></line><line x1="86.66666666666666" y1="0" x2="86.66666666666666" y2="178" fill="rgb(0, 0, 0)" stroke="rgb(60, 60, 60)" stroke-width="1px" opacity="0.25"></line><line x1="108.33333333333334" y1="0" x2="108.33333333333334" y2="178" fill="rgb(0, 0, 0)" stroke="rgb(60, 60, 60)" stroke-width="1px" opacity="0.25"></line><line x1="130" y1="0" x2="130" y2="178" fill="rgb(0, 0, 0)" stroke="rgb(60, 60, 60)" stroke-width="1px" opacity="0.25"></line><line x1="151.66666666666669" y1="0" x2="151.66666666666669" y2="178" fill="rgb(0, 0, 0)" stroke="rgb(60, 60, 60)" stroke-width="1px" opacity="0.25"></line><line x1="173.33333333333331" y1="0" x2="173.33333333333331" y2="178" fill="rgb(0, 0, 0)" stroke="rgb(60, 60, 60)" stroke-width="1px" opacity="0.25"></line><line x1="195" y1="0" x2="195" y2="178" fill="rgb(0, 0, 0)" stroke="rgb(60, 60, 60)" stroke-width="1px" opacity="0.25"></line><line x1="216.66666666666669" y1="0" x2="216.66666666666669" y2="178" fill="rgb(0, 0, 0)" stroke="rgb(60, 60, 60)" stroke-width="1px" opacity="0.25"></line><line x1="238.33333333333331" y1="0" x2="238.33333333333331" y2="178" fill="rgb(0, 0, 0)" stroke="rgb(60, 60, 60)" stroke-width="1px" opacity="0.25"></line><line x1="260" y1="0" x2="260" y2="178" fill="rgb(0, 0, 0)" stroke="rgb(60, 60, 60)" stroke-width="1px" opacity="0.25"></line></g><g><line x1="0" y1="178" x2="260" y2="178" fill="rgb(0, 0, 0)" stroke="rgb(60, 60, 60)" stroke-width="1px" opacity="0.25"></line><line x1="0" y1="165.28571428571425" x2="260" y2="165.28571428571425" fill="rgb(0, 0, 0)" stroke="rgb(60, 60, 60)" stroke-width="1px" opacity="0.25"></line><line x1="0" y1="152.57142857142853" x2="260" y2="152.57142857142853" fill="rgb(0, 0, 0)" stroke="rgb(60, 60, 60)" stroke-width="1px" opacity="0.25"></line><line x1="0" y1="139.85714285714278" x2="260" y2="139.85714285714278" fill="rgb(0, 0, 0)" stroke="rgb(60, 60, 60)" stroke-width="1px" opacity="0.25"></line><line x1="0" y1="127.14285714285705" x2="260" y2="127.14285714285705" fill="rgb(0, 0, 0)" stroke="rgb(60, 60, 60)" stroke-width="1px" opacity="0.25"></line><line x1="0" y1="114.42857142857166" x2="260" y2="114.42857142857166" fill="rgb(0, 0, 0)" stroke="rgb(60, 60, 60)" stroke-width="1px" opacity="0.25"></line><line x1="0" y1="101.71428571428592" x2="260" y2="101.71428571428592" fill="rgb(0, 0, 0)" stroke="rgb(60, 60, 60)" stroke-width="1px" opacity="0.25"></line><line x1="0" y1="89.00000000000018" x2="260" y2="89.00000000000018" fill="rgb(0, 0, 0)" stroke="rgb(60, 60, 60)" stroke-width="1px" opacity="0.25"></line><line x1="0" y1="76.28571428571443" x2="260" y2="76.28571428571443" fill="rgb(0, 0, 0)" stroke="rgb(60, 60, 60)" stroke-width="1px" opacity="0.25"></line><line x1="0" y1="63.5714285714287" x2="260" y2="63.5714285714287" fill="rgb(0, 0, 0)" stroke="rgb(60, 60, 60)" stroke-width="1px" opacity="0.25"></line><line x1="0" y1="50.85714285714295" x2="260" y2="50.85714285714295" fill="rgb(0, 0, 0)" stroke="rgb(60, 60, 60)" stroke-width="1px" opacity="0.25"></line><line x1="0" y1="38.142857142857224" x2="260" y2="38.142857142857224" fill="rgb(0, 0, 0)" stroke="rgb(60, 60, 60)" stroke-width="1px" opacity="0.25"></line><line x1="0" y1="25.428571428571473" x2="260" y2="25.428571428571473" fill="rgb(0, 0, 0)" stroke="rgb(60, 60, 60)" stroke-width="1px" opacity="0.25"></line><line x1="0" y1="12.71428571428575" x2="260" y2="12.71428571428575" fill="rgb(0, 0, 0)" stroke="rgb(60, 60, 60)" stroke-width="1px" opacity="0.25"></line><line x1="0" y1="0" x2="260" y2="0" fill="rgb(0, 0, 0)" stroke="rgb(60, 60, 60)" stroke-width="1px" opacity="0.25"></line></g></g></g><g><g><line x1="0" y1="1907.1428571428592" x2="260" y2="1907.1428571428592" fill="rgb(0, 0, 0)" stroke="rgb(153, 153, 153)" stroke-width="1.5px"></line></g></g><g><g><line x1="21.666666666666664" y1="0" x2="21.666666666666664" y2="178" fill="rgb(0, 0, 0)" stroke="rgb(153, 153, 153)" stroke-width="1.5px"></line></g></g><g><g><g><g><g><path style="fill: none;" stroke="rgb(238, 51, 119)" stroke-width="2px" d="M23.833333333333332,229.70971124512826L26,130.71976208261088L28.166666666666668,95.08193779964834L30.333333333333332,77.90665668004951L32.5,68.64370389187728L34.666666666666664,63.30548393382426L36.833333333333336,60.041688246953655L39,58.08569197759009L41.166666666666664,56.80112463862508L43.33333333333333,56.01294924885133L45.5,55.48294257029346L47.666666666666664,55.13199510377849L49.833333333333336,54.93747202438702L52,54.7681345358296L54.16666666666667,54.59534743524709L56.333333333333336,54.494077121827814L58.5,54.42643579642777L60.666666666666664,54.39404373009032L62.833333333333336,54.3490701522193L65,54.333152489090594L67.16666666666667,54.307990613252L69.33333333333333,54.262049734360346L71.5,54.2179647590134L73.66666666666667,54.230315101236485L75.83333333333334,54.1956655577021L78,54.233304724579824L80.16666666666667,54.21269180184014L82.33333333333333,43.44003398371319L84.5,37.050483592237384L86.66666666666666,33.17469526294917L88.83333333333333,30.889463617766808L91,29.508927725911974L93.16666666666667,28.784353259272194L95.33333333333333,28.506706865178103L97.5,28.3007118479901L99.66666666666667,28.39635520110221L101.83333333333333,28.016851935854334L104,28.029230676296265L106.16666666666667,28.16298826242553L108.33333333333334,27.83166507773285L110.5,27.84726141117588L112.66666666666667,28.078057278640188L114.83333333333333,38.928544470490976L117,45.2156557061457L119.16666666666666,38.12783270087198L121.33333333333333,34.002227070282544L123.5,31.750347901707414L125.66666666666667,41.38109350441326L127.83333333333333,47.59347460079809L130,51.75468542737573L132.16666666666666,42.271097157585444L134.33333333333334,48.91675724127825L136.5,53.76550341911168L138.66666666666666,57.16673467574297L140.83333333333331,45.3434194310357L143,38.72716662106052L145.16666666666666,35.65567140725611L147.33333333333334,34.800151616021424L149.5,35.06664730887675L151.66666666666669,35.764907500120074L153.83333333333334,36.53974080995209L156,32.95487047468629L158.16666666666666,31.69265608161271L160.33333333333334,34.02234992060241L162.5,35.877138005590695L164.66666666666666,40.59364637206889L166.83333333333334,38.626105515698384L169,38.5084382550867L171.16666666666666,38.76196199654413L173.33333333333331,44.40751363378928L175.5,49.91138937370704L177.66666666666666,53.62961218704241L179.83333333333334,51.23687052866899L182,53.73777598056445L184.16666666666669,55.90164827397267L186.33333333333334,57.382381447413636L188.5,57.22706142645352L190.66666666666666,57.985367745219435L192.83333333333334,58.633825658935294L195,59.10451875024545L197.16666666666666,58.58477103816992L199.33333333333334,58.901845929241745L201.5,59.236002872715346L203.66666666666666,54.56448064295823L205.83333333333331,56.33886342588376L208,57.65706317544246L210.16666666666666,58.5326326901927L212.33333333333334,59.100488689171485L214.5,54.50787740659618L216.66666666666669,56.458665289183315L218.83333333333334,57.792298921849095L221,53.626415942596L223.16666666666666,55.76586967718646L225.33333333333334,57.19125621836872L227.5,58.170923908481086L229.66666666666666,58.819350961234335L231.83333333333334,59.2447830560975L234,59.52467180373159L236.16666666666666,59.71071720086927L238.33333333333331,59.835909604808194" fill="none"></path></g><g><path style="fill: none;" stroke="rgb(51, 187, 238)" stroke-width="2px" d="M23.833333333333332,157.0976150887354L26,172.97795287200395L28.166666666666668,163.96808305391406L30.333333333333332,159.34344711987413L32.5,156.6862244967416L34.666666666666664,155.16231960905787L36.833333333333336,154.25175372300694L39,153.6390709303164L41.166666666666664,153.22904290109008L43.33333333333333,152.9220991877955L45.5,152.757227145672L47.666666666666664,152.64448522665177L49.833333333333336,152.55059035581144L52,143.03533350696208L54.16666666666667,121.56854996857135L56.333333333333336,111.52138553035914L58.5,99.99568285903997L60.666666666666664,89.08620081201045L62.833333333333336,92.46811665363438L65,84.5559294279051L67.16666666666667,88.91183434937186L69.33333333333333,82.43782385728409L71.5,78.58795365747557L73.66666666666667,76.21121003060958L75.83333333333334,87.57170224869685L78,90.33531991856715L80.16666666666667,83.29237211768319L82.33333333333333,79.0519819132102L84.5,76.49054669877081L86.66666666666666,74.9857424106669L88.83333333333333,74.05087960006657L91,98.6142422314667L93.16666666666667,120.01374039396183L95.33333333333333,132.85351442051422L97.5,129.20068234505047L99.66666666666667,106.57999501747852L101.83333333333333,107.0535161719172L104,93.29169549581776L106.16666666666667,85.03467890591045L108.33333333333334,96.2928880865816L110.5,118.62100268611974L112.66666666666667,132.01794721742982L114.83333333333333,140.05611393208943L117,144.87901395939994L119.16666666666666,147.78980516113384L121.33333333333333,149.5192286960987L123.5,150.5568828170086L125.66666666666667,151.17947528952965L127.83333333333333,151.55303077303358L130,151.77716406313255L132.16666666666666,151.96863288955583L134.33333333333334,152.02652533304448L136.5,152.06126079913724L138.66666666666666,152.08210207879307L140.83333333333331,151.31298048582912L143,119.84744991830146L145.16666666666666,100.9681315777923L147.33333333333334,89.64054057348984L149.5,82.84398597090899L151.66666666666669,78.76605320936078L153.83333333333334,76.31929355243192L156,77.1228346327847L158.16666666666666,107.11904637898152L160.33333333333334,123.69508343951713L162.5,103.27671169052594L164.66666666666666,109.02287431416359L166.83333333333334,113.66665574056958L169,97.25965507115748L171.16666666666666,87.41545466951042L173.33333333333331,110.37219670721494L175.5,99.04037897174726L177.66666666666666,88.4838890098638L179.83333333333334,88.77343345916056L182,114.00785639000857L184.16666666666669,97.76902331521694L186.33333333333334,98.68862572335688L188.5,120.18272944958235L190.66666666666666,132.95498326906L192.83333333333334,140.6183355607465L195,145.2163469357586L197.16666666666666,148.1120937291475L199.33333333333334,149.7126018367994L201.5,150.67290670139027L203.66666666666666,151.3734496024991L205.83333333333331,123.53950564107042L208,124.40769601573693L210.16666666666666,135.48996320875287L212.33333333333334,142.13932352456257L214.5,145.33928035016535L216.66666666666669,143.49177597949296L218.83333333333334,146.9404111870067L221,149.14918468658897L223.16666666666666,150.3942703211762L225.33333333333334,151.08183200896815L227.5,149.56493261046703L229.66666666666666,118.79862119309574L231.83333333333334,100.33883434267295L234,89.26296223241958L236.16666666666666,82.61743896626754L238.33333333333331,78.63012500657646" fill="none"></path></g></g></g></g><g opacity="0.2"><g><g><g><path style="fill: none;" stroke="rgb(238, 51, 119)" stroke-width="2px" d="M23.833333333333332,229.70971124512826L26,71.32579258510046L28.166666666666668,60.8696264880044L30.333333333333332,57.70852608340125L32.5,56.54999273163932L34.666666666666664,55.92080397265296L36.833333333333336,55.374408193996956L39,55.2338306392942L41.166666666666664,54.90663732801164L43.33333333333333,54.84260065214973L45.5,54.6927396740232L47.666666666666664,54.60748374462126L49.833333333333336,54.646322556904366L52,54.5144600527627L54.16666666666667,54.33636988912309L56.333333333333336,54.342243075370774L58.5,54.32500243186949L60.666666666666664,54.34546385492597L62.833333333333336,54.281616636684944L65,54.30927744933537L67.16666666666667,54.270249179431374L69.33333333333333,54.19313992772783L71.5,54.15183816637311L73.66666666666667,54.24884046827043L75.83333333333334,54.14369148867469L78,54.289763314383364L80.16666666666667,54.18177247047423L82.33333333333333,27.281063795089693L84.5,27.466163890702347L86.66666666666666,27.361014911106622L88.83333333333333,27.461616907800902L91,27.43812416281014L93.16666666666667,27.69749164581296L95.33333333333333,28.09023729392456L97.5,27.991719331060096L99.66666666666667,28.539820228304137L101.83333333333333,27.447597043854813L104,28.04779878684448L106.16666666666667,28.363624640873468L108.33333333333334,27.33468030180245L110.5,27.870655911309342L112.66666666666667,28.424251079559298L114.83333333333333,55.20427525043486L117,54.646322556904366L119.16666666666666,27.496098194803466L121.33333333333333,27.813818625041364L123.5,28.372529149055453L125.66666666666667,55.82721190793174L127.83333333333333,56.91204624516624L130,57.99650166715894L132.16666666666666,28.045714753014664L134.33333333333334,58.885247366768965L136.5,61.03862268584115L138.66666666666666,62.26858156067985L140.83333333333331,27.60844656399314L143,28.802787406103903L145.16666666666666,31.04842858655107L147.33333333333334,33.51687192916867L149.5,35.46639084815976L151.66666666666669,36.812297786985084L153.83333333333334,37.701990774699595L156,27.577564971787552L158.16666666666666,29.799334492002174L160.33333333333334,37.51689067908694L162.5,38.65932013307295L164.66666666666666,47.66840892178669L166.83333333333334,35.6747942311423L169,38.331937364169505L171.16666666666666,39.14224760872975L173.33333333333331,52.87584108965736L175.5,58.16720298358372L177.66666666666666,59.206946407045635L179.83333333333334,47.64775804110934L182,57.48913415840693L184.16666666666669,59.147456714085166L186.33333333333334,59.603481207575115L188.5,56.994081395012984L190.66666666666666,59.12282722336906L192.83333333333334,59.6065125295094L195,59.81055838721139L197.16666666666666,57.805149470056804L199.33333333333334,59.377458265849526L201.5,59.73723828792572L203.66666666666666,47.55719729832239L205.83333333333331,59.000437600272036L208,59.6343627997807L210.16666666666666,59.84598696231842L212.33333333333334,59.95227268763951L214.5,47.61896048273357L216.66666666666669,59.38484711306435L218.83333333333334,59.79274937084742L221,47.377591473715626L223.16666666666666,58.97505027907235L225.33333333333334,59.32933603014264L227.5,59.64042544364929L229.66666666666666,59.79199154036385L231.83333333333334,59.88293119839258L234,59.94450492518288L236.16666666666666,59.98978529657636L238.33333333333331,60.02369821071625" fill="none"></path></g><g><path style="fill: none;" stroke="rgb(51, 187, 238)" stroke-width="2px" d="M23.833333333333332,157.0976150887354L26,182.50615554196506L28.166666666666668,155.3186080285482L30.333333333333332,153.9048752614431L32.5,153.21695463997986L34.666666666666664,153.05421054363262L36.833333333333336,152.94962993689956L39,152.74577353681846L41.166666666666664,152.62433120182592L43.33333333333333,152.46632354600098L45.5,152.51141445977356L47.666666666666664,152.47598588466653L49.833333333333336,152.4100546325957L52,128.78108961241594L54.16666666666667,89.39360805920195L56.333333333333336,96.45772491182603L58.5,82.71200614316125L60.666666666666664,72.72474765777588L62.833333333333336,97.54047521523071L65,72.68837179456439L67.16666666666667,95.44545284339362L69.33333333333333,72.72702114922662L71.5,72.81322436673302L73.66666666666667,72.64612274510522L75.83333333333334,104.6123598303114L78,94.48073463780543L80.16666666666667,72.72796843733107L82.33333333333333,72.69140311649868L84.5,72.64839623655593L86.66666666666666,72.72853681019375L88.83333333333333,72.64858569417682L91,135.45928129128055L93.16666666666667,152.11298508303514L95.33333333333333,152.11317454065605L97.5,123.72143438884197L99.66666666666667,72.6489646094186L101.83333333333333,107.763797896249L104,72.6489646094186L106.16666666666667,72.64915406703949L108.33333333333334,113.18020181996488L110.5,152.11317454065605L112.66666666666667,152.11336399827695L114.83333333333333,152.11336399827695L117,152.11336399827695L119.16666666666666,152.1559919629779L121.33333333333333,152.11336399827695L123.5,152.11336399827695L125.66666666666667,152.11336399827695L127.83333333333333,152.11336399827695L130,152.11336399827695L132.16666666666666,152.25583612918862L134.33333333333334,152.11336399827695L136.5,152.11336399827695L138.66666666666666,152.11336399827695L140.83333333333331,150.15929809638442L143,72.64915406703949L145.16666666666666,72.64915406703949L147.33333333333334,72.64915406703949L149.5,72.64915406703949L151.66666666666669,72.64915406703949L153.83333333333334,72.64915406703949L156,78.32814625331335L158.16666666666666,152.11336399827695L160.33333333333334,148.5591390303204L162.5,72.64915406703949L164.66666666666666,117.64211824962078L166.83333333333334,120.63232788017824L169,72.64915406703949L171.16666666666666,72.64915406703949L173.33333333333331,144.80730976377225L175.5,82.04265236854555L177.66666666666666,72.64915406703949L179.83333333333334,89.20775013310572L182,151.85949078628005L184.16666666666669,73.41077370303017L186.33333333333334,100.06802933556696L188.5,152.4238850389209L190.66666666666666,152.11336399827695L192.83333333333334,152.11336399827695L195,152.11336399827695L197.16666666666666,152.45571391923096L199.33333333333334,152.11336399827695L201.5,152.11336399827695L203.66666666666666,152.42426395416268L205.83333333333331,81.78858969892775L208,125.70998157773705L210.16666666666666,152.11336399827695L212.33333333333334,152.11336399827695L214.5,150.13921558856973L216.66666666666669,140.7205194234849L218.83333333333334,152.11336399827695L221,152.46234493596222L223.16666666666666,152.26189877305723L225.33333333333334,152.11317454065605L227.5,147.289583512715L229.66666666666666,72.64915406703949L231.83333333333334,72.64915406703949L234,72.64915406703949L236.16666666666666,72.64915406703949L238.33333333333331,72.64915406703949" fill="none"></path></g></g></g></g></g></g><g transform="translate(70, 178)" clip-path="url(#clip_1)"><clipPath id="clip_1"><rect width="260" height="22"></rect></clipPath><g><g><line x1="0" y1="0" x2="0" y2="5" style="visibility: inherit;" fill="rgb(0, 0, 0)" stroke="rgb(204, 204, 204)" stroke-width="1px"></line><line x1="21.666666666666664" y1="0" x2="21.666666666666664" y2="5" style="visibility: inherit;" fill="rgb(0, 0, 0)" stroke="rgb(204, 204, 204)" stroke-width="1px"></line><line x1="43.33333333333333" y1="0" x2="43.33333333333333" y2="5" style="visibility: inherit;" fill="rgb(0, 0, 0)" stroke="rgb(204, 204, 204)" stroke-width="1px"></line><line x1="65" y1="0" x2="65" y2="5" style="visibility: inherit;" fill="rgb(0, 0, 0)" stroke="rgb(204, 204, 204)" stroke-width="1px"></line><line x1="86.66666666666666" y1="0" x2="86.66666666666666" y2="5" style="visibility: inherit;" fill="rgb(0, 0, 0)" stroke="rgb(204, 204, 204)" stroke-width="1px"></line><line x1="108.33333333333334" y1="0" x2="108.33333333333334" y2="5" style="visibility: inherit;" fill="rgb(0, 0, 0)" stroke="rgb(204, 204, 204)" stroke-width="1px"></line><line x1="130" y1="0" x2="130" y2="5" style="visibility: inherit;" fill="rgb(0, 0, 0)" stroke="rgb(204, 204, 204)" stroke-width="1px"></line><line x1="151.66666666666669" y1="0" x2="151.66666666666669" y2="5" style="visibility: inherit;" fill="rgb(0, 0, 0)" stroke="rgb(204, 204, 204)" stroke-width="1px"></line><line x1="173.33333333333331" y1="0" x2="173.33333333333331" y2="5" style="visibility: inherit;" fill="rgb(0, 0, 0)" stroke="rgb(204, 204, 204)" stroke-width="1px"></line><line x1="195" y1="0" x2="195" y2="5" style="visibility: inherit;" fill="rgb(0, 0, 0)" stroke="rgb(204, 204, 204)" stroke-width="1px"></line><line x1="216.66666666666669" y1="0" x2="216.66666666666669" y2="5" style="visibility: inherit;" fill="rgb(0, 0, 0)" stroke="rgb(204, 204, 204)" stroke-width="1px"></line><line x1="238.33333333333331" y1="0" x2="238.33333333333331" y2="5" style="visibility: inherit;" fill="rgb(0, 0, 0)" stroke="rgb(204, 204, 204)" stroke-width="1px"></line><line x1="260" y1="0" x2="260" y2="5" style="visibility: inherit;" fill="rgb(0, 0, 0)" stroke="rgb(204, 204, 204)" stroke-width="1px"></line></g><g transform="translate(0, 8)"><text x="0" y="0" dx="0em" dy="0.95em" style="text-anchor: middle; visibility: hidden; font-family: &quot;Helvetica Neue&quot;, sans-serif; font-size: 12px; font-weight: 200;" fill="rgb(50, 49, 63)" stroke="none" stroke-width="1px">-10</text><text x="21.666666666666664" y="0" dx="0em" dy="0.95em" style="text-anchor: middle; visibility: inherit; font-family: &quot;Helvetica Neue&quot;, sans-serif; font-size: 12px; font-weight: 200;" fill="rgb(50, 49, 63)" stroke="none" stroke-width="1px">0</text><text x="43.33333333333333" y="0" dx="0em" dy="0.95em" style="text-anchor: middle; visibility: inherit; font-family: &quot;Helvetica Neue&quot;, sans-serif; font-size: 12px; font-weight: 200;" fill="rgb(50, 49, 63)" stroke="none" stroke-width="1px">10</text><text x="65" y="0" dx="0em" dy="0.95em" style="text-anchor: middle; visibility: inherit; font-family: &quot;Helvetica Neue&quot;, sans-serif; font-size: 12px; font-weight: 200;" fill="rgb(50, 49, 63)" stroke="none" stroke-width="1px">20</text><text x="86.66666666666666" y="0" dx="0em" dy="0.95em" style="text-anchor: middle; visibility: inherit; font-family: &quot;Helvetica Neue&quot;, sans-serif; font-size: 12px; font-weight: 200;" fill="rgb(50, 49, 63)" stroke="none" stroke-width="1px">30</text><text x="108.33333333333334" y="0" dx="0em" dy="0.95em" style="text-anchor: middle; visibility: inherit; font-family: &quot;Helvetica Neue&quot;, sans-serif; font-size: 12px; font-weight: 200;" fill="rgb(50, 49, 63)" stroke="none" stroke-width="1px">40</text><text x="130" y="0" dx="0em" dy="0.95em" style="text-anchor: middle; visibility: inherit; font-family: &quot;Helvetica Neue&quot;, sans-serif; font-size: 12px; font-weight: 200;" fill="rgb(50, 49, 63)" stroke="none" stroke-width="1px">50</text><text x="151.66666666666669" y="0" dx="0em" dy="0.95em" style="text-anchor: middle; visibility: inherit; font-family: &quot;Helvetica Neue&quot;, sans-serif; font-size: 12px; font-weight: 200;" fill="rgb(50, 49, 63)" stroke="none" stroke-width="1px">60</text><text x="173.33333333333331" y="0" dx="0em" dy="0.95em" style="text-anchor: middle; visibility: inherit; font-family: &quot;Helvetica Neue&quot;, sans-serif; font-size: 12px; font-weight: 200;" fill="rgb(50, 49, 63)" stroke="none" stroke-width="1px">70</text><text x="195" y="0" dx="0em" dy="0.95em" style="text-anchor: middle; visibility: inherit; font-family: &quot;Helvetica Neue&quot;, sans-serif; font-size: 12px; font-weight: 200;" fill="rgb(50, 49, 63)" stroke="none" stroke-width="1px">80</text><text x="216.66666666666669" y="0" dx="0em" dy="0.95em" style="text-anchor: middle; visibility: inherit; font-family: &quot;Helvetica Neue&quot;, sans-serif; font-size: 12px; font-weight: 200;" fill="rgb(50, 49, 63)" stroke="none" stroke-width="1px">90</text><text x="238.33333333333331" y="0" dx="0em" dy="0.95em" style="text-anchor: middle; visibility: inherit; font-family: &quot;Helvetica Neue&quot;, sans-serif; font-size: 12px; font-weight: 200;" fill="rgb(50, 49, 63)" stroke="none" stroke-width="1px">100</text><text x="260" y="0" dx="0em" dy="0.95em" style="text-anchor: middle; visibility: hidden; font-family: &quot;Helvetica Neue&quot;, sans-serif; font-size: 12px; font-weight: 200;" fill="rgb(50, 49, 63)" stroke="none" stroke-width="1px">110</text></g><line x1="0" y1="0" x2="260" y2="0" fill="rgb(0, 0, 0)" stroke="rgb(204, 204, 204)" stroke-width="1px"></line></g></g></g></g></svg>