<svg viewBox="0 0 330 200" xmlns="http://www.w3.org/2000/svg"><g><g><g><g><g><line x1="60" y1="178" x2="55" y2="178" style="visibility: inherit;" fill="rgb(0, 0, 0)" stroke="rgb(204, 204, 204)" stroke-width="1px"></line><line x1="60" y1="166.13333333333333" x2="55" y2="166.13333333333333" style="visibility: inherit;" fill="rgb(0, 0, 0)" stroke="rgb(204, 204, 204)" stroke-width="1px"></line><line x1="60" y1="154.26666666666668" x2="55" y2="154.26666666666668" style="visibility: inherit;" fill="rgb(0, 0, 0)" stroke="rgb(204, 204, 204)" stroke-width="1px"></line><line x1="60" y1="142.4" x2="55" y2="142.4" style="visibility: inherit;" fill="rgb(0, 0, 0)" stroke="rgb(204, 204, 204)" stroke-width="1px"></line><line x1="60" y1="130.53333333333333" x2="55" y2="130.53333333333333" style="visibility: inherit;" fill="rgb(0, 0, 0)" stroke="rgb(204, 204, 204)" stroke-width="1px"></line><line x1="60" y1="118.66666666666666" x2="55" y2="118.66666666666666" style="visibility: inherit;" fill="rgb(0, 0, 0)" stroke="rgb(204, 204, 204)" stroke-width="1px"></line><line x1="60" y1="106.80000000000001" x2="55" y2="106.80000000000001" style="visibility: inherit;" fill="rgb(0, 0, 0)" stroke="rgb(204, 204, 204)" stroke-width="1px"></line><line x1="60" y1="94.93333333333334" x2="55" y2="94.93333333333334" style="visibility: inherit;" fill="rgb(0, 0, 0)" stroke="rgb(204, 204, 204)" stroke-width="1px"></line><line x1="60" y1="83.06666666666666" x2="55" y2="83.06666666666666" style="visibility: inherit;" fill="rgb(0, 0, 0)" stroke="rgb(204, 204, 204)" stroke-width="1px"></line><line x1="60" y1="71.19999999999999" x2="55" y2="71.19999999999999" style="visibility: inherit;" fill="rgb(0, 0, 0)" stroke="rgb(204, 204, 204)" stroke-width="1px"></line><line x1="60" y1="59.3333333333333" x2="55" y2="59.3333333333333" style="visibility: inherit;" fill="rgb(0, 0, 0)" stroke="rgb(204, 204, 204)" stroke-width="1px"></line><line x1="60" y1="47.46666666666664" x2="55" y2="47.46666666666664" style="visibility: inherit;" fill="rgb(0, 0, 0)" stroke="rgb(204, 204, 204)" stroke-width="1px"></line><line x1="60" y1="35.60000000000002" x2="55" y2="35.60000000000002" style="visibility: inherit;" fill="rgb(0, 0, 0)" stroke="rgb(204, 204, 204)" stroke-width="1px"></line><line x1="60" y1="23.73333333333335" x2="55" y2="23.73333333333335" style="visibility: inherit;" fill="rgb(0, 0, 0)" stroke="rgb(204, 204, 204)" stroke-width="1px"></line><line x1="60" y1="11.866666666666674" x2="55" y2="11.866666666666674" style="visibility: inherit;" fill="rgb(0, 0, 0)" stroke="rgb(204, 204, 204)" stroke-width="1px"></line><line x1="60" y1="0" x2="55" y2="0" style="visibility: inherit;" fill="rgb(0, 0, 0)" stroke="rgb(204, 204, 204)" stroke-width="1px"></line></g><g transform="translate(50, 0)"><text x="0" y="178" dx="0em" dy="0.3em" style="text-anchor: end; visibility: hidden; font-family: &quot;Helvetica Neue&quot;, sans-serif; font-size: 12px; font-weight: 200;" fill="rgb(50, 49, 63)" stroke="none" stroke-width="1px">0.048</text><text x="0" y="166.13333333333333" dx="0em" dy="0.3em" style="text-anchor: end; visibility: inherit; font-family: &quot;Helvetica Neue&quot;, sans-serif; font-size: 12px; font-weight: 200;" fill="rgb(50, 49, 63)" stroke="none" stroke-width="1px">0.05</text><text x="0" y="154.26666666666668" dx="0em" dy="0.3em" style="text-anchor: end; visibility: hidden; font-family: &quot;Helvetica Neue&quot;, sans-serif; font-size: 12px; font-weight: 200;" fill="rgb(50, 49, 63)" stroke="none" stroke-width="1px">0.052</text><text x="0" y="142.4" dx="0em" dy="0.3em" style="text-anchor: end; visibility: inherit; font-family: &quot;Helvetica Neue&quot;, sans-serif; font-size: 12px; font-weight: 200;" fill="rgb(50, 49, 63)" stroke="none" stroke-width="1px">0.054</text><text x="0" y="130.53333333333333" dx="0em" dy="0.3em" style="text-anchor: end; visibility: hidden; font-family: &quot;Helvetica Neue&quot;, sans-serif; font-size: 12px; font-weight: 200;" fill="rgb(50, 49, 63)" stroke="none" stroke-width="1px">0.056</text><text x="0" y="118.66666666666666" dx="0em" dy="0.3em" style="text-anchor: end; visibility: inherit; font-family: &quot;Helvetica Neue&quot;, sans-serif; font-size: 12px; font-weight: 200;" fill="rgb(50, 49, 63)" stroke="none" stroke-width="1px">0.058</text><text x="0" y="106.80000000000001" dx="0em" dy="0.3em" style="text-anchor: end; visibility: hidden; font-family: &quot;Helvetica Neue&quot;, sans-serif; font-size: 12px; font-weight: 200;" fill="rgb(50, 49, 63)" stroke="none" stroke-width="1px">0.06</text><text x="0" y="94.93333333333334" dx="0em" dy="0.3em" style="text-anchor: end; visibility: inherit; font-family: &quot;Helvetica Neue&quot;, sans-serif; font-size: 12px; font-weight: 200;" fill="rgb(50, 49, 63)" stroke="none" stroke-width="1px">0.062</text><text x="0" y="83.06666666666666" dx="0em" dy="0.3em" style="text-anchor: end; visibility: hidden; font-family: &quot;Helvetica Neue&quot;, sans-serif; font-size: 12px; font-weight: 200;" fill="rgb(50, 49, 63)" stroke="none" stroke-width="1px">0.064</text><text x="0" y="71.19999999999999" dx="0em" dy="0.3em" style="text-anchor: end; visibility: inherit; font-family: &quot;Helvetica Neue&quot;, sans-serif; font-size: 12px; font-weight: 200;" fill="rgb(50, 49, 63)" stroke="none" stroke-width="1px">0.066</text><text x="0" y="59.3333333333333" dx="0em" dy="0.3em" style="text-anchor: end; visibility: hidden; font-family: &quot;Helvetica Neue&quot;, sans-serif; font-size: 12px; font-weight: 200;" fill="rgb(50, 49, 63)" stroke="none" stroke-width="1px">0.068</text><text x="0" y="47.46666666666664" dx="0em" dy="0.3em" style="text-anchor: end; visibility: inherit; font-family: &quot;Helvetica Neue&quot;, sans-serif; font-size: 12px; font-weight: 200;" fill="rgb(50, 49, 63)" stroke="none" stroke-width="1px">0.07</text><text x="0" y="35.60000000000002" dx="0em" dy="0.3em" style="text-anchor: end; visibility: hidden; font-family: &quot;Helvetica Neue&quot;, sans-serif; font-size: 12px; font-weight: 200;" fill="rgb(50, 49, 63)" stroke="none" stroke-width="1px">0.072</text><text x="0" y="23.73333333333335" dx="0em" dy="0.3em" style="text-anchor: end; visibility: inherit; font-family: &quot;Helvetica Neue&quot;, sans-serif; font-size: 12px; font-weight: 200;" fill="rgb(50, 49, 63)" stroke="none" stroke-width="1px">0.074</text><text x="0" y="11.866666666666674" dx="0em" dy="0.3em" style="text-anchor: end; visibility: hidden; font-family: &quot;Helvetica Neue&quot;, sans-serif; font-size: 12px; font-weight: 200;" fill="rgb(50, 49, 63)" stroke="none" stroke-width="1px">0.076</text><text x="0" y="0" dx="0em" dy="0.3em" style="text-anchor: end; visibility: hidden; font-family: &quot;Helvetica Neue&quot;, sans-serif; font-size: 12px; font-weight: 200;" fill="rgb(50, 49, 63)" stroke="none" stroke-width="1px">0.078</text></g><line x1="60" y1="0" x2="60" y2="178" fill="rgb(0, 0, 0)" stroke="rgb(204, 204, 204)" stroke-width="1px"></line></g></g><g transform="translate(60, 0)" clip-path="url(#clip_0)"><clipPath id="clip_0"><rect width="270" height="178"></rect></clipPath><g><g><g><line x1="0" y1="0" x2="0" y2="178" fill="rgb(0, 0, 0)" stroke="rgb(60, 60, 60)" stroke-width="1px" opacity="0.25"></line><line x1="22.5" y1="0" x2="22.5" y2="178" fill="rgb(0, 0, 0)" stroke="rgb(60, 60, 60)" stroke-width="1px" opacity="0.25"></line><line x1="45" y1="0" x2="45" y2="178" fill="rgb(0, 0, 0)" stroke="rgb(60, 60, 60)" stroke-width="1px" opacity="0.25"></line><line x1="67.5" y1="0" x2="67.5" y2="178" fill="rgb(0, 0, 0)" stroke="rgb(60, 60, 60)" stroke-width="1px" opacity="0.25"></line><line x1="90" y1="0" x2="90" y2="178" fill="rgb(0, 0, 0)" stroke="rgb(60, 60, 60)" stroke-width="1px" opacity="0.25"></line><line x1="112.5" y1="0" x2="112.5" y2="178" fill="rgb(0, 0, 0)" stroke="rgb(60, 60, 60)" stroke-width="1px" opacity="0.25"></line><line x1="135" y1="0" x2="135" y2="178" fill="rgb(0, 0, 0)" stroke="rgb(60, 60, 60)" stroke-width="1px" opacity="0.25"></line><line x1="157.5" y1="0" x2="157.5" y2="178" fill="rgb(0, 0, 0)" stroke="rgb(60, 60, 60)" stroke-width="1px" opacity="0.25"></line><line x1="180" y1="0" x2="180" y2="178" fill="rgb(0, 0, 0)" stroke="rgb(60, 60, 60)" stroke-width="1px" opacity="0.25"></line><line x1="202.5" y1="0" x2="202.5" y2="178" fill="rgb(0, 0, 0)" stroke="rgb(60, 60, 60)" stroke-width="1px" opacity="0.25"></line><line x1="225" y1="0" x2="225" y2="178" fill="rgb(0, 0, 0)" stroke="rgb(60, 60, 60)" stroke-width="1px" opacity="0.25"></line><line x1="247.5" y1="0" x2="247.5" y2="178" fill="rgb(0, 0, 0)" stroke="rgb(60, 60, 60)" stroke-width="1px" opacity="0.25"></line><line x1="270" y1="0" x2="270" y2="178" fill="rgb(0, 0, 0)" stroke="rgb(60, 60, 60)" stroke-width="1px" opacity="0.25"></line></g><g><line x1="0" y1="178" x2="270" y2="178" fill="rgb(0, 0, 0)" stroke="rgb(60, 60, 60)" stroke-width="1px" opacity="0.25"></line><line x1="0" y1="166.13333333333333" x2="270" y2="166.13333333333333" fill="rgb(0, 0, 0)" stroke="rgb(60, 60, 60)" stroke-width="1px" opacity="0.25"></line><line x1="0" y1="154.26666666666668" x2="270" y2="154.26666666666668" fill="rgb(0, 0, 0)" stroke="rgb(60, 60, 60)" stroke-width="1px" opacity="0.25"></line><line x1="0" y1="142.4" x2="270" y2="142.4" fill="rgb(0, 0, 0)" stroke="rgb(60, 60, 60)" stroke-width="1px" opacity="0.25"></line><line x1="0" y1="130.53333333333333" x2="270" y2="130.53333333333333" fill="rgb(0, 0, 0)" stroke="rgb(60, 60, 60)" stroke-width="1px" opacity="0.25"></line><line x1="0" y1="118.66666666666666" x2="270" y2="118.66666666666666" fill="rgb(0, 0, 0)" stroke="rgb(60, 60, 60)" stroke-width="1px" opacity="0.25"></line><line x1="0" y1="106.80000000000001" x2="270" y2="106.80000000000001" fill="rgb(0, 0, 0)" stroke="rgb(60, 60, 60)" stroke-width="1px" opacity="0.25"></line><line x1="0" y1="94.93333333333334" x2="270" y2="94.93333333333334" fill="rgb(0, 0, 0)" stroke="rgb(60, 60, 60)" stroke-width="1px" opacity="0.25"></line><line x1="0" y1="83.06666666666666" x2="270" y2="83.06666666666666" fill="rgb(0, 0, 0)" stroke="rgb(60, 60, 60)" stroke-width="1px" opacity="0.25"></line><line x1="0" y1="71.19999999999999" x2="270" y2="71.19999999999999" fill="rgb(0, 0, 0)" stroke="rgb(60, 60, 60)" stroke-width="1px" opacity="0.25"></line><line x1="0" y1="59.3333333333333" x2="270" y2="59.3333333333333" fill="rgb(0, 0, 0)" stroke="rgb(60, 60, 60)" stroke-width="1px" opacity="0.25"></line><line x1="0" y1="47.46666666666664" x2="270" y2="47.46666666666664" fill="rgb(0, 0, 0)" stroke="rgb(60, 60, 60)" stroke-width="1px" opacity="0.25"></line><line x1="0" y1="35.60000000000002" x2="270" y2="35.60000000000002" fill="rgb(0, 0, 0)" stroke="rgb(60, 60, 60)" stroke-width="1px" opacity="0.25"></line><line x1="0" y1="23.73333333333335" x2="270" y2="23.73333333333335" fill="rgb(0, 0, 0)" stroke="rgb(60, 60, 60)" stroke-width="1px" opacity="0.25"></line><line x1="0" y1="11.866666666666674" x2="270" y2="11.866666666666674" fill="rgb(0, 0, 0)" stroke="rgb(60, 60, 60)" stroke-width="1px" opacity="0.25"></line><line x1="0" y1="0" x2="270" y2="0" fill="rgb(0, 0, 0)" stroke="rgb(60, 60, 60)" stroke-width="1px" opacity="0.25"></line></g></g></g><g><g><line x1="0" y1="462.8" x2="270" y2="462.8" fill="rgb(0, 0, 0)" stroke="rgb(153, 153, 153)" stroke-width="1.5px"></line></g></g><g><g><line x1="22.5" y1="0" x2="22.5" y2="178" fill="rgb(0, 0, 0)" stroke="rgb(153, 153, 153)" stroke-width="1.5px"></line></g></g><g><g><g><g><g><path stroke="rgb(238, 51, 119)" stroke-width="2px" d="M24.75,34.438971567153914L27,34.42501880278189L29.25,34.513446455747925L31.5,34.600484769411565L33.75,34.72659786170536L36,34.76044099690225L38.25,34.76333445073894L40.5,34.7478782969668L42.75,34.68402318625806L45,34.66569378375033L47.25,34.7030749309485L49.5,37.483132380587534L51.75,47.49913177311825L54,65.5336813021093L56.25,81.74944061779057L58.5,94.43008995714779L60.75,104.158491940402L63,111.549044597809L65.25,117.07036922706587L67.5,121.38153672796764L69.75,124.62270278891489L72,126.87542032945852L74.25,128.9862892890324L76.5,130.76155169281046L78.75,132.4466260060941L81,133.6819731032555L83.25,134.47235568330382L85.5,135.66041852376458L87.75,136.27608038544543L90,137.41279225898137L92.25,138.01938476593187L94.5,138.4172821856168L96.75,139.2223713625443L99,139.95697910202074L101.25,140.2118984334533L103.5,140.52944070783144L105.75,140.69877334075787L108,141.13045609259532L110.25,141.64926013742598L112.5,142.0691939832104L114.75,142.61583667409556L117,142.93604189537757L119.25,142.99043438982227L121.5,143.3760079624005L123.75,144.0417013845588L126,144.37538195860952L128.25,144.70776856987476L130.5,145.15265425195577L132.75,144.43651532738608L135,144.70136466508836L137.25,145.20834075661193L139.5,145.8258905795335L141.75,145.9037892842564L144,146.2644408391483L146.25,146.71199785669086L148.5,146.78859507759077L150.75,146.89472767662807L153,147.31301632812708L155.25,147.56993975137325L157.5,147.87724376774622L159.75,147.9633987163909L162,147.95824176880166L164.25,147.96711879578697L166.5,148.4919365454165L168.75,148.6004699545173L171,148.71912440838824L173.25,148.91834875175803L175.5,149.0469899540908L177.75,149.43820194517178L180,149.33353602080305L182.25,149.74877972437199L184.5,149.89653328001452L186.75,150.09798342867663L189,149.93664628714703L191.25,150.09125679125617L193.5,150.20277560903764L195.75,150.26966921699523L198,150.1351886078466L200.25,150.3904540740301L202.5,150.48809848166601L204.75,150.7019304899599L207,150.52671479711287L209.25,150.68964644310483L211.5,150.59001332464388L213.75,150.91162301188254L216,151.1118387358519L218.25,151.32863955281965L220.5,151.51595013806897L222.75,151.73185992242702L225,151.56827064674187L227.25,151.68577542814268L229.5,151.77904478776054L231.75,152.04078895609138L234,152.123488497499L236.25,151.57048142180645L238.5,151.9235551084626L240.75,151.89738118522655L243,152.24303187771613L245.25,152.30568930135556L247.5,152.2934185097201" style="fill: none;" fill="none"></path></g><g><path stroke="rgb(51, 187, 238)" stroke-width="2px" d="M24.75,34.0785094976425L27,34.21386512666939L29.25,34.22658867195352L31.5,34.3310374676598L33.75,34.4268400430488L36,34.518753750125654L38.25,34.495436192558685L40.5,34.498722294769095L42.75,34.51993215418685L45,34.53501107939641L47.25,34.478708298384106L49.5,34.91963370140604L51.75,42.13107845885287L54,56.10371535359093L56.25,73.41354866368533L58.5,87.8858634954455L60.75,99.03711970433916L63,107.44153195940554L65.25,113.73869571106621L67.5,118.57052618707641L69.75,122.32991796581143L72,125.28207562449265L74.25,127.62631392841695L76.5,129.6034069694586L78.75,131.2714590025207L81,132.62944319901234L83.25,133.74383071827333L85.5,134.8372545338906L87.75,135.7373387405037L90,136.48281799597018L92.25,137.21425781043348L94.5,137.9811890055678L96.75,138.60149116596935L99,139.15027852725572L101.25,139.72442112402612L103.5,140.18434825757572L105.75,140.57988387046322L108,141.10023471448162L110.25,141.51849728081436L112.5,141.96037505399923L114.75,142.23291961492157L117,142.57144330363502L119.25,142.94354234718713L121.5,143.30195957696748L123.75,143.6092517782152L126,143.8999886073195L128.25,144.22655506994693L130.5,144.47053887407355L132.75,144.78649751640015L135,145.0410478244046L137.25,145.2297623266678L139.5,145.43372101962038L141.75,145.64946095096784L144,145.92536196598073L146.25,146.09490770909392L148.5,146.2682236115925L150.75,146.49482507313053L153,146.78423651857037L155.25,147.03867569368796L157.5,147.3044731855495L159.75,147.448169860846L162,147.64820263719932L164.25,147.86795279464943L166.5,148.0262297011325L168.75,148.20984811804152L171,148.32977118345968L173.25,148.56600625188872L175.5,148.67904825253322L177.75,148.86085620985253L180,148.88833527167134L182.25,149.1032492534289L184.5,149.24621119117552L186.75,149.28992118368038L189,149.44632729965144L191.25,149.55750886764744L193.5,149.77820769965624L195.75,149.9213161978323L198,150.06511870025787L200.25,150.04318200865902L202.5,150.2347592662941L204.75,150.342455709249L207,150.41591493066366L209.25,150.66405779307814L211.5,150.6348432424807L213.75,150.7746375944104L216,150.9200677235456L218.25,150.9617132472713L220.5,151.11337950514073L222.75,151.15847494137077L225,151.22282504120543L227.25,151.21563687888226L229.5,151.32866645356478L231.75,151.41721717735405L234,151.55220088215833L236.25,151.60257349045372L238.5,151.60334649978856L240.75,151.69124247133004L243,151.84218983272277L245.25,151.99303861232337L247.5,152.01762673241936" style="fill: none;" fill="none"></path></g></g></g></g><g opacity="0.2"><g><g><g><path stroke="rgb(238, 51, 119)" stroke-width="2px" d="M24.75,34.438971567153914L27,34.416647144158674L29.25,34.59833700259526L31.5,34.70284182627995L33.75,34.89125111500422L36,34.80725823640822L38.25,34.76747213602064L40.5,34.72534307638804L42.75,34.58984930117924L45,34.63847675720851L47.25,34.7588076074918L49.5,41.63808960517247L51.75,62.49042688608169L54,92.55017403562864L56.25,106.05401857495309L58.5,113.4421205898126L60.75,118.74697818160058L63,122.63299712340037L65.25,125.35151505271594L67.5,127.84789392153422L69.75,129.484274127086L72,130.2544225136439L74.25,132.1525510529677L76.5,133.424424268802L78.75,134.9742254992326L81,135.53498848080636L83.25,135.65792753100396L85.5,137.44251096049945L87.75,137.1995726108551L90,139.11785944104196L92.25,138.92927332520486L94.5,139.0141282359759L96.75,140.43000503182412L99,141.05889065861703L101.25,140.59427741964657L103.5,141.0057541112105L105.75,140.95277228752772L108,141.7779802163442L110.25,142.42746620178224L112.5,142.69909475048382L114.75,143.43580070932705L117,143.41634972691537L119.25,143.07202313145L121.5,143.95436832110087L123.75,145.04024151762326L126,144.8759028196335L128.25,145.20634848674138L130.5,145.81998277505238L132.75,143.36230694055558L135,145.0986386716366L137.25,145.96880489389102L139.5,146.75221531391145L141.75,146.02063734134038L144,146.80541817148526L146.25,147.38333338300387L148.5,146.90349090894063L150.75,147.05392657518388L153,147.9404493053754L155.25,147.95532488624255L157.5,148.33819979230563L159.75,148.09263113935788L162,147.95050634741784L164.25,147.98043433626492L166.5,149.27916316986085L168.75,148.76327006816865L171,148.8971060891946L173.25,149.21718526681263L175.5,149.23995175758998L177.75,150.02501993179322L180,149.17653713425L182.25,150.37164527972539L184.5,150.11816361347834L186.75,150.4001586516698L189,149.69464057485263L191.25,150.32317254741986L193.5,150.37005383570988L195.75,150.37000962893168L198,149.93346769412358L200.25,150.77335227330525L202.5,150.63456509311993L204.75,151.0226785024007L207,150.26389125784237L209.25,150.93404391209285L211.5,150.4405636469523L213.75,151.3940375427405L216,151.41216232180597L218.25,151.65384077827136L220.5,151.79691601594288L222.75,152.05572459896405L225,151.32288673321406L227.25,151.86203260024388L229.5,151.91894882718722L231.75,152.43340520858766L234,152.24753780961038L236.25,150.7409708082676L238.5,152.45316563844682L240.75,151.85812030037243L243,152.7615079164505L245.25,152.39967543681462L247.5,152.2750123222669" style="fill: none;" fill="none"></path></g><g><path stroke="rgb(51, 187, 238)" stroke-width="2px" d="M24.75,34.0785094976425L27,34.295078504085524L29.25,34.23880327542622L31.5,34.45386925141017L33.75,34.55191988547642L36,34.64590349594752L38.25,34.46209171215693L40.5,34.50351346333821L42.75,34.5512125770251L45,34.55740152597426L47.25,34.39476478894551L49.5,35.578622309366864L51.75,52.924698976675685L54,77.0352968454361L56.25,99.3579515695572L58.5,109.58412874539694L60.75,115.75928517977397L63,120.04601646264393L65.25,123.18348202904065L67.5,125.81783025264741L69.75,127.96879945993425L72,129.7102149705092L74.25,131.14262510140736L76.5,132.56902311046917L78.75,133.77352519631387L81,134.6664137025674L83.25,135.4154091457526L85.5,136.47738857865335L87.75,137.08746422131856L90,137.6010364671548L92.25,138.31141728957493L94.5,139.13158564567567L96.75,139.53194433252017L99,139.97345952987672L101.25,140.58563499450685L103.5,140.87423894604046L105.75,141.17318728367488L108,141.88076097567875L110.25,142.14589112798373L112.5,142.62319171229998L114.75,142.6417364557584L117,143.079228836298L119.25,143.50169091224672L121.5,143.83958542148272L123.75,144.0701900800069L126,144.33609385093052L128.25,144.71640476385753L130.5,144.8365145802498L132.75,145.2604354798794L135,145.4228732864062L137.25,145.51283408006032L139.5,145.7396590590477L141.75,145.97307084798814L144,146.33921348849933L146.25,146.34922632376353L148.5,146.5281974653403L150.75,146.83472726543744L153,147.21835368673007L155.25,147.42033445636432L157.5,147.70316942334176L159.75,147.66371487379075L162,147.9482518017292L164.25,148.19757803082467L166.5,148.26364506085713L168.75,148.48527574340503L171,148.50965578158696L173.25,148.92035885453225L175.5,148.8486112535L177.75,149.13356814583142L180,148.9295538643996L182.25,149.42562022606532L184.5,149.4606540977955L186.75,149.35548617243768L189,149.68093647360803L191.25,149.72428121964137L193.5,150.10925594766934L195.75,150.13597894509633L198,150.2808224538962L200.25,150.0102769712607L202.5,150.52212515274684L204.75,150.50400037368138L207,150.5261037627856L209.25,151.0362720866998L211.5,150.59102141658465L213.75,150.98432912230493L216,151.1382129172484L218.25,151.0241815328598L220.5,151.3408788919449L222.75,151.22611809571583L225,151.31935019095738L227.25,151.2048546353976L229.5,151.49821081558864L231.75,151.550043263038L234,151.75467643936474L236.25,151.6781324028969L238.5,151.60450601379077L240.75,151.82308642864228L243,152.0686108748118L245.25,152.2193117817243L247.5,152.05450891256334" style="fill: none;" fill="none"></path></g></g></g></g></g></g><g transform="translate(60, 178)" clip-path="url(#clip_1)"><clipPath id="clip_1"><rect width="270" height="22"></rect></clipPath><g><g><line x1="0" y1="0" x2="0" y2="5" style="visibility: inherit;" fill="rgb(0, 0, 0)" stroke="rgb(204, 204, 204)" stroke-width="1px"></line><line x1="22.5" y1="0" x2="22.5" y2="5" style="visibility: inherit;" fill="rgb(0, 0, 0)" stroke="rgb(204, 204, 204)" stroke-width="1px"></line><line x1="45" y1="0" x2="45" y2="5" style="visibility: inherit;" fill="rgb(0, 0, 0)" stroke="rgb(204, 204, 204)" stroke-width="1px"></line><line x1="67.5" y1="0" x2="67.5" y2="5" style="visibility: inherit;" fill="rgb(0, 0, 0)" stroke="rgb(204, 204, 204)" stroke-width="1px"></line><line x1="90" y1="0" x2="90" y2="5" style="visibility: inherit;" fill="rgb(0, 0, 0)" stroke="rgb(204, 204, 204)" stroke-width="1px"></line><line x1="112.5" y1="0" x2="112.5" y2="5" style="visibility: inherit;" fill="rgb(0, 0, 0)" stroke="rgb(204, 204, 204)" stroke-width="1px"></line><line x1="135" y1="0" x2="135" y2="5" style="visibility: inherit;" fill="rgb(0, 0, 0)" stroke="rgb(204, 204, 204)" stroke-width="1px"></line><line x1="157.5" y1="0" x2="157.5" y2="5" style="visibility: inherit;" fill="rgb(0, 0, 0)" stroke="rgb(204, 204, 204)" stroke-width="1px"></line><line x1="180" y1="0" x2="180" y2="5" style="visibility: inherit;" fill="rgb(0, 0, 0)" stroke="rgb(204, 204, 204)" stroke-width="1px"></line><line x1="202.5" y1="0" x2="202.5" y2="5" style="visibility: inherit;" fill="rgb(0, 0, 0)" stroke="rgb(204, 204, 204)" stroke-width="1px"></line><line x1="225" y1="0" x2="225" y2="5" style="visibility: inherit;" fill="rgb(0, 0, 0)" stroke="rgb(204, 204, 204)" stroke-width="1px"></line><line x1="247.5" y1="0" x2="247.5" y2="5" style="visibility: inherit;" fill="rgb(0, 0, 0)" stroke="rgb(204, 204, 204)" stroke-width="1px"></line><line x1="270" y1="0" x2="270" y2="5" style="visibility: inherit;" fill="rgb(0, 0, 0)" stroke="rgb(204, 204, 204)" stroke-width="1px"></line></g><g transform="translate(0, 8)"><text x="0" y="0" dx="0em" dy="0.95em" style="text-anchor: middle; visibility: hidden; font-family: &quot;Helvetica Neue&quot;, sans-serif; font-size: 12px; font-weight: 200;" fill="rgb(50, 49, 63)" stroke="none" stroke-width="1px">-10</text><text x="22.5" y="0" dx="0em" dy="0.95em" style="text-anchor: middle; visibility: inherit; font-family: &quot;Helvetica Neue&quot;, sans-serif; font-size: 12px; font-weight: 200;" fill="rgb(50, 49, 63)" stroke="none" stroke-width="1px">0</text><text x="45" y="0" dx="0em" dy="0.95em" style="text-anchor: middle; visibility: inherit; font-family: &quot;Helvetica Neue&quot;, sans-serif; font-size: 12px; font-weight: 200;" fill="rgb(50, 49, 63)" stroke="none" stroke-width="1px">10</text><text x="67.5" y="0" dx="0em" dy="0.95em" style="text-anchor: middle; visibility: inherit; font-family: &quot;Helvetica Neue&quot;, sans-serif; font-size: 12px; font-weight: 200;" fill="rgb(50, 49, 63)" stroke="none" stroke-width="1px">20</text><text x="90" y="0" dx="0em" dy="0.95em" style="text-anchor: middle; visibility: inherit; font-family: &quot;Helvetica Neue&quot;, sans-serif; font-size: 12px; font-weight: 200;" fill="rgb(50, 49, 63)" stroke="none" stroke-width="1px">30</text><text x="112.5" y="0" dx="0em" dy="0.95em" style="text-anchor: middle; visibility: inherit; font-family: &quot;Helvetica Neue&quot;, sans-serif; font-size: 12px; font-weight: 200;" fill="rgb(50, 49, 63)" stroke="none" stroke-width="1px">40</text><text x="135" y="0" dx="0em" dy="0.95em" style="text-anchor: middle; visibility: inherit; font-family: &quot;Helvetica Neue&quot;, sans-serif; font-size: 12px; font-weight: 200;" fill="rgb(50, 49, 63)" stroke="none" stroke-width="1px">50</text><text x="157.5" y="0" dx="0em" dy="0.95em" style="text-anchor: middle; visibility: inherit; font-family: &quot;Helvetica Neue&quot;, sans-serif; font-size: 12px; font-weight: 200;" fill="rgb(50, 49, 63)" stroke="none" stroke-width="1px">60</text><text x="180" y="0" dx="0em" dy="0.95em" style="text-anchor: middle; visibility: inherit; font-family: &quot;Helvetica Neue&quot;, sans-serif; font-size: 12px; font-weight: 200;" fill="rgb(50, 49, 63)" stroke="none" stroke-width="1px">70</text><text x="202.5" y="0" dx="0em" dy="0.95em" style="text-anchor: middle; visibility: inherit; font-family: &quot;Helvetica Neue&quot;, sans-serif; font-size: 12px; font-weight: 200;" fill="rgb(50, 49, 63)" stroke="none" stroke-width="1px">80</text><text x="225" y="0" dx="0em" dy="0.95em" style="text-anchor: middle; visibility: inherit; font-family: &quot;Helvetica Neue&quot;, sans-serif; font-size: 12px; font-weight: 200;" fill="rgb(50, 49, 63)" stroke="none" stroke-width="1px">90</text><text x="247.5" y="0" dx="0em" dy="0.95em" style="text-anchor: middle; visibility: inherit; font-family: &quot;Helvetica Neue&quot;, sans-serif; font-size: 12px; font-weight: 200;" fill="rgb(50, 49, 63)" stroke="none" stroke-width="1px">100</text><text x="270" y="0" dx="0em" dy="0.95em" style="text-anchor: middle; visibility: hidden; font-family: &quot;Helvetica Neue&quot;, sans-serif; font-size: 12px; font-weight: 200;" fill="rgb(50, 49, 63)" stroke="none" stroke-width="1px">110</text></g><line x1="0" y1="0" x2="270" y2="0" fill="rgb(0, 0, 0)" stroke="rgb(204, 204, 204)" stroke-width="1px"></line></g></g></g></g></svg>