<svg viewBox="0 0 330 200" xmlns="http://www.w3.org/2000/svg"><g><g><g><g><g><line x1="60" y1="178" x2="55" y2="178" style="visibility: inherit;" fill="rgb(0, 0, 0)" stroke="rgb(204, 204, 204)" stroke-width="1px"></line><line x1="60" y1="155.75" x2="55" y2="155.75" style="visibility: inherit;" fill="rgb(0, 0, 0)" stroke="rgb(204, 204, 204)" stroke-width="1px"></line><line x1="60" y1="133.5" x2="55" y2="133.5" style="visibility: inherit;" fill="rgb(0, 0, 0)" stroke="rgb(204, 204, 204)" stroke-width="1px"></line><line x1="60" y1="111.25" x2="55" y2="111.25" style="visibility: inherit;" fill="rgb(0, 0, 0)" stroke="rgb(204, 204, 204)" stroke-width="1px"></line><line x1="60" y1="89" x2="55" y2="89" style="visibility: inherit;" fill="rgb(0, 0, 0)" stroke="rgb(204, 204, 204)" stroke-width="1px"></line><line x1="60" y1="66.75" x2="55" y2="66.75" style="visibility: inherit;" fill="rgb(0, 0, 0)" stroke="rgb(204, 204, 204)" stroke-width="1px"></line><line x1="60" y1="44.5" x2="55" y2="44.5" style="visibility: inherit;" fill="rgb(0, 0, 0)" stroke="rgb(204, 204, 204)" stroke-width="1px"></line><line x1="60" y1="22.25000000000003" x2="55" y2="22.25000000000003" style="visibility: inherit;" fill="rgb(0, 0, 0)" stroke="rgb(204, 204, 204)" stroke-width="1px"></line><line x1="60" y1="0" x2="55" y2="0" style="visibility: inherit;" fill="rgb(0, 0, 0)" stroke="rgb(204, 204, 204)" stroke-width="1px"></line></g><g transform="translate(50, 0)"><text x="0" y="178" dx="0em" dy="0.3em" style="text-anchor: end; visibility: hidden; font-family: &quot;Helvetica Neue&quot;, sans-serif; font-size: 12px; font-weight: 200;" fill="rgb(50, 49, 63)" stroke="none" stroke-width="1px">-0.01</text><text x="0" y="155.75" dx="0em" dy="0.3em" style="text-anchor: end; visibility: inherit; font-family: &quot;Helvetica Neue&quot;, sans-serif; font-size: 12px; font-weight: 200;" fill="rgb(50, 49, 63)" stroke="none" stroke-width="1px">0</text><text x="0" y="133.5" dx="0em" dy="0.3em" style="text-anchor: end; visibility: hidden; font-family: &quot;Helvetica Neue&quot;, sans-serif; font-size: 12px; font-weight: 200;" fill="rgb(50, 49, 63)" stroke="none" stroke-width="1px">0.01</text><text x="0" y="111.25" dx="0em" dy="0.3em" style="text-anchor: end; visibility: inherit; font-family: &quot;Helvetica Neue&quot;, sans-serif; font-size: 12px; font-weight: 200;" fill="rgb(50, 49, 63)" stroke="none" stroke-width="1px">0.02</text><text x="0" y="89" dx="0em" dy="0.3em" style="text-anchor: end; visibility: hidden; font-family: &quot;Helvetica Neue&quot;, sans-serif; font-size: 12px; font-weight: 200;" fill="rgb(50, 49, 63)" stroke="none" stroke-width="1px">0.03</text><text x="0" y="66.75" dx="0em" dy="0.3em" style="text-anchor: end; visibility: inherit; font-family: &quot;Helvetica Neue&quot;, sans-serif; font-size: 12px; font-weight: 200;" fill="rgb(50, 49, 63)" stroke="none" stroke-width="1px">0.04</text><text x="0" y="44.5" dx="0em" dy="0.3em" style="text-anchor: end; visibility: hidden; font-family: &quot;Helvetica Neue&quot;, sans-serif; font-size: 12px; font-weight: 200;" fill="rgb(50, 49, 63)" stroke="none" stroke-width="1px">0.05</text><text x="0" y="22.25000000000003" dx="0em" dy="0.3em" style="text-anchor: end; visibility: inherit; font-family: &quot;Helvetica Neue&quot;, sans-serif; font-size: 12px; font-weight: 200;" fill="rgb(50, 49, 63)" stroke="none" stroke-width="1px">0.06</text><text x="0" y="0" dx="0em" dy="0.3em" style="text-anchor: end; visibility: hidden; font-family: &quot;Helvetica Neue&quot;, sans-serif; font-size: 12px; font-weight: 200;" fill="rgb(50, 49, 63)" stroke="none" stroke-width="1px">0.07</text></g><line x1="60" y1="0" x2="60" y2="178" fill="rgb(0, 0, 0)" stroke="rgb(204, 204, 204)" stroke-width="1px"></line></g></g><g transform="translate(60, 0)" clip-path="url(#clip_0)"><clipPath id="clip_0"><rect width="270" height="178"></rect></clipPath><g><g><g><line x1="0" y1="0" x2="0" y2="178" fill="rgb(0, 0, 0)" stroke="rgb(60, 60, 60)" stroke-width="1px" opacity="0.25"></line><line x1="22.5" y1="0" x2="22.5" y2="178" fill="rgb(0, 0, 0)" stroke="rgb(60, 60, 60)" stroke-width="1px" opacity="0.25"></line><line x1="45" y1="0" x2="45" y2="178" fill="rgb(0, 0, 0)" stroke="rgb(60, 60, 60)" stroke-width="1px" opacity="0.25"></line><line x1="67.5" y1="0" x2="67.5" y2="178" fill="rgb(0, 0, 0)" stroke="rgb(60, 60, 60)" stroke-width="1px" opacity="0.25"></line><line x1="90" y1="0" x2="90" y2="178" fill="rgb(0, 0, 0)" stroke="rgb(60, 60, 60)" stroke-width="1px" opacity="0.25"></line><line x1="112.5" y1="0" x2="112.5" y2="178" fill="rgb(0, 0, 0)" stroke="rgb(60, 60, 60)" stroke-width="1px" opacity="0.25"></line><line x1="135" y1="0" x2="135" y2="178" fill="rgb(0, 0, 0)" stroke="rgb(60, 60, 60)" stroke-width="1px" opacity="0.25"></line><line x1="157.5" y1="0" x2="157.5" y2="178" fill="rgb(0, 0, 0)" stroke="rgb(60, 60, 60)" stroke-width="1px" opacity="0.25"></line><line x1="180" y1="0" x2="180" y2="178" fill="rgb(0, 0, 0)" stroke="rgb(60, 60, 60)" stroke-width="1px" opacity="0.25"></line><line x1="202.5" y1="0" x2="202.5" y2="178" fill="rgb(0, 0, 0)" stroke="rgb(60, 60, 60)" stroke-width="1px" opacity="0.25"></line><line x1="225" y1="0" x2="225" y2="178" fill="rgb(0, 0, 0)" stroke="rgb(60, 60, 60)" stroke-width="1px" opacity="0.25"></line><line x1="247.5" y1="0" x2="247.5" y2="178" fill="rgb(0, 0, 0)" stroke="rgb(60, 60, 60)" stroke-width="1px" opacity="0.25"></line><line x1="270" y1="0" x2="270" y2="178" fill="rgb(0, 0, 0)" stroke="rgb(60, 60, 60)" stroke-width="1px" opacity="0.25"></line></g><g><line x1="0" y1="178" x2="270" y2="178" fill="rgb(0, 0, 0)" stroke="rgb(60, 60, 60)" stroke-width="1px" opacity="0.25"></line><line x1="0" y1="155.75" x2="270" y2="155.75" fill="rgb(0, 0, 0)" stroke="rgb(60, 60, 60)" stroke-width="1px" opacity="0.25"></line><line x1="0" y1="133.5" x2="270" y2="133.5" fill="rgb(0, 0, 0)" stroke="rgb(60, 60, 60)" stroke-width="1px" opacity="0.25"></line><line x1="0" y1="111.25" x2="270" y2="111.25" fill="rgb(0, 0, 0)" stroke="rgb(60, 60, 60)" stroke-width="1px" opacity="0.25"></line><line x1="0" y1="89" x2="270" y2="89" fill="rgb(0, 0, 0)" stroke="rgb(60, 60, 60)" stroke-width="1px" opacity="0.25"></line><line x1="0" y1="66.75" x2="270" y2="66.75" fill="rgb(0, 0, 0)" stroke="rgb(60, 60, 60)" stroke-width="1px" opacity="0.25"></line><line x1="0" y1="44.5" x2="270" y2="44.5" fill="rgb(0, 0, 0)" stroke="rgb(60, 60, 60)" stroke-width="1px" opacity="0.25"></line><line x1="0" y1="22.25000000000003" x2="270" y2="22.25000000000003" fill="rgb(0, 0, 0)" stroke="rgb(60, 60, 60)" stroke-width="1px" opacity="0.25"></line><line x1="0" y1="0" x2="270" y2="0" fill="rgb(0, 0, 0)" stroke="rgb(60, 60, 60)" stroke-width="1px" opacity="0.25"></line></g></g></g><g><g><line x1="0" y1="155.75" x2="270" y2="155.75" fill="rgb(0, 0, 0)" stroke="rgb(153, 153, 153)" stroke-width="1.5px"></line></g></g><g><g><line x1="22.5" y1="0" x2="22.5" y2="178" fill="rgb(0, 0, 0)" stroke="rgb(153, 153, 153)" stroke-width="1.5px"></line></g></g><g><g><g><g><g><path style="fill: none;" stroke="rgb(187, 187, 187)" stroke-width="2px" d="M24.75,41.796914104372235L27,41.88641210831699L29.25,41.900314829939475L31.5,41.91867965354362L33.75,41.91891540754986L36,41.9033354793022L38.25,41.874416309645056L40.5,41.864895843363485L42.75,41.83712153547418L45,41.78074580474188L47.25,41.74256722954701L49.5,41.71091043296869L51.75,41.70191008847456L54,41.715838757150465L56.25,41.73077334939805L58.5,41.69878810856386L60.75,41.72099723764316L63,41.73161789514262L65.25,41.73315197778416L67.5,41.773196796704696L69.75,41.740960655335954L72,41.71101297223922L74.25,41.74096071996419L76.5,41.71323797994509L78.75,41.724113271122945L81,41.725260662299064L83.25,41.76510197411446L85.5,41.79284941166179L87.75,41.81263765086402L90,41.8879959579391L92.25,42.77467048879211L94.5,47.09347999770819L96.75,53.729304598819965L99,60.55024038846811L101.25,65.87893600442484L103.5,70.2782837199654L105.75,73.65105732069465L108,76.20732473360616L110.25,78.2671800973836L112.5,79.89119014497071L114.75,81.04538955992925L117,82.0270779015763L119.25,82.84995028889952L121.5,83.63965578400929L123.75,84.38152467034325L126,84.83512044147736L128.25,85.31199065267494L130.5,85.7608826893338L132.75,86.17967937069315L135,86.39677283050104L137.25,86.6895451799436L139.5,87.08626347887055L141.75,87.25362273965825L144,87.53665649690987L146.25,87.64680423169595L148.5,87.83520363392992L150.75,88.14657035468564L153,88.27836786805717L155.25,88.3174696339615L157.5,88.55555681204486L159.75,88.52032156029755L162,88.5177837266887L164.25,88.66031489174753L166.5,88.80836407855863L168.75,88.95108552137442L171,88.97413982441681L173.25,89.19664387175833L175.5,89.23817078259228L177.75,89.18371863208196L180,89.22222301761497L182.25,89.31418875768894L184.5,89.4350749465234L186.75,89.44702403321307L189,89.60256580009724L191.25,89.60249962058464L193.5,89.58907023234248L195.75,89.59795650489973L198,89.64857645495444L200.25,89.56788386800116L202.5,89.71596191911831L204.75,89.90265437492094L207,89.99793481992698L209.25,89.88702504808913L211.5,90.02648498177652L213.75,90.05542189887241L216,90.16912277571008L218.25,90.18952040914682L220.5,90.18839251723281L222.75,90.26213899836773L225,90.25243527716897L227.25,90.27601828814448L229.5,90.33039018446743L231.75,90.30432219317281L234,90.4100323200865L236.25,90.55906316448113L238.5,90.58206209202922L240.75,90.5675635846574L243,90.58508020488138L245.25,90.57531418560573L247.5,90.49101461937205" fill="none"></path></g><g><path stroke="rgb(0, 153, 136)" stroke-width="2px" d="M24.75,127.2738798642531L27,127.27462973899674L29.25,127.27636268945905L31.5,127.27777288206647L33.75,127.28027082443118L36,127.29060313704127L38.25,127.29435836305929L40.5,127.29263643820815L42.75,127.29367424143928L45,127.29560861581615L47.25,127.29702959772409L49.5,127.29952612926634L51.75,127.30377686636416L54,127.30338722662368L56.25,127.30807616720138L58.5,127.3136581799881L60.75,127.31866358546661L63,127.32210232009362L65.25,127.32532998062614L67.5,127.33029942323316L69.75,127.3324802596773L72,127.33690120537034L74.25,127.3398405292833L76.5,127.34679953500171L78.75,127.34941247956971L81,127.35356302697872L83.25,127.35741851285967L85.5,127.35709099782781L87.75,127.35948141529289L90,127.36460085357133L92.25,127.41682327609995L94.5,128.04983699596823L96.75,129.4432044401902L99,131.1943723383189L101.25,132.74887698306017L103.5,133.9659749456914L105.75,134.8958298067133L108,135.6100250091775L110.25,136.16806412130487L112.5,136.60902861499062L114.75,136.96302076937798L117,137.23929513266296L119.25,137.4825622452491L121.5,137.67202446915175L123.75,137.84116528517256L126,137.98765448533166L128.25,138.1161803893207L130.5,138.22623177737742L132.75,138.33009546173207L135,138.4295962697877L137.25,138.50404662246225L139.5,138.57432913619132L141.75,138.63271728247622L144,138.6855718565895L146.25,138.7418085875609L148.5,138.79759378351264L150.75,138.84047472826387L153,138.8786832830414L155.25,138.91009528844683L157.5,138.9544777082451L159.75,138.98757364475267L162,139.0097363138484L164.25,139.02795661635173L166.5,139.05886390687957L168.75,139.0911411168467L171,139.12014645452297L173.25,139.13108648800846L175.5,139.15649502877295L177.75,139.17991412466853L180,139.19531457967216L182.25,139.20389548094812L184.5,139.21682386209363L186.75,139.23722168086346L189,139.2489725779571L191.25,139.27174484244452L193.5,139.28657691783587L195.75,139.29872660458463L198,139.30192093492525L200.25,139.31309236029372L202.5,139.32173893229418L204.75,139.33289230392128L207,139.34860872623028L209.25,139.35680230943382L211.5,139.36890813924683L213.75,139.38433731980064L216,139.3825027948957L218.25,139.39292222820768L220.5,139.3999161476302L222.75,139.41543205928252L225,139.4182506697711L227.25,139.43361830807248L229.5,139.44128308875275L231.75,139.45203512624897L234,139.46182257903962L236.25,139.45901836532116L238.5,139.46692262952928L240.75,139.46642834259066L243,139.48070260081732L245.25,139.47982334461238L247.5,139.49033146048444" style="fill: none;" fill="none"></path></g></g></g></g><g opacity="0.2"><g><g><g><path style="fill: none;" stroke="rgb(187, 187, 187)" stroke-width="2px" d="M24.75,41.79691410437226L27,41.94011091068387L29.25,41.91366144269705L31.5,41.94027668610215L33.75,41.919223207980394L36,41.881782829761505L38.25,41.833061434328556L40.5,41.85101491212845L42.75,41.79615982621908L45,41.697034414857626L47.25,41.68564564362168L49.5,41.663597512990236L51.75,41.68843895941973L54,41.7367044724524L56.25,41.75315768271685L58.5,41.65083280578256L60.75,41.75430153310299L63,41.747546184808016L65.25,41.735452868044376L67.5,41.833260364830494L69.75,41.69260821118951L72,41.666092433035374L74.25,41.785881750285625L76.5,41.67165419831872L78.75,41.74042613059282L81,41.72698174417019L83.25,41.82486383989453L85.5,41.83447052538395L87.75,41.84231999143958L90,42.00103337690234L92.25,44.10468199104071L94.5,53.571693401783705L96.75,63.68304070830345L99,70.78164358437061L101.25,73.87197919934988L103.5,76.87730517983437L105.75,78.71021766960621L108,80.04172582924366L110.25,81.35696313157678L112.5,82.32720521092415L114.75,82.77668868005276L117,83.49961041286588L119.25,84.08425886929035L121.5,84.8242140263319L123.75,85.49432799965143L126,85.51551409810781L128.25,86.02729596942663L130.5,86.43422074429691L132.75,86.80787439271808L135,86.72241302020848L137.25,87.12870370410383L139.5,87.68134092725813L141.75,87.50466163083911L144,87.96120713278651L146.25,87.81202583387494L148.5,88.11780273728073L150.75,88.61362043581903L153,88.47606413811445L155.25,88.37612228281796L157.5,88.91268757916987L159.75,88.46746868267655L162,88.51397697627544L164.25,88.87411163933575L166.5,89.03043785877526L168.75,89.16516768559813L171,89.00872127898037L173.25,89.5303999427706L175.5,89.30046114884317L177.75,89.10204040631652L180,89.27997959591448L182.25,89.45213736779988L184.5,89.61640422977507L186.75,89.46494766324759L189,89.83587845042348L191.25,89.60240035131574L193.5,89.56892614997923L195.75,89.61128591373563L198,89.72450638003647L200.25,89.44684498757124L202.5,89.93807899579406L204.75,90.18269305862486L207,90.14085548743606L209.25,89.72066039033234L211.5,90.23567488230765L213.75,90.09882727451622L216,90.33967409096658L218.25,90.22011685930192L220.5,90.18670067936182L222.75,90.37275872007012L225,90.2378796953708L227.25,90.31139280460775L229.5,90.41194802895188L231.75,90.26522020623088L234,90.56859751045704L236.25,90.78260943107307L238.5,90.61656048335135L240.75,90.5458158235997L243,90.61135513521731L245.25,90.56066515669227L247.5,90.36456527002156" fill="none"></path></g><g><path stroke="rgb(0, 153, 136)" stroke-width="2px" d="M24.75,127.2738798642531L27,127.27507966384292L29.25,127.27802632190287L31.5,127.27943126857281L33.75,127.28353213798255L36,127.30489644501358L38.25,127.29972839634866L40.5,127.2901258552447L42.75,127.2952047996223L45,127.29848093632609L47.25,127.29914818238467L49.5,127.30325734056532L51.75,127.31013909261674L54,127.30280353035778L56.25,127.31510406639427L58.5,127.32202726230025L60.75,127.32616957556456L63,127.32725954893976L65.25,127.33017097972333L67.5,127.33775313291699L69.75,127.33575139474124L72,127.34353247843683L74.25,127.3442494571209L76.5,127.35723796114326L78.75,127.35333187785L81,127.35978883039206L83.25,127.36320173181593L85.5,127.35659972578287L87.75,127.36306703928858L90,127.37228000815958L92.25,127.49515689257532L94.5,128.99935744982213L96.75,131.53325544018298L99,133.82112406007946L101.25,135.0806338833645L103.5,135.79162185825408L105.75,136.29061208385974L108,136.6813178062439L110.25,137.0051227863878L112.5,137.27047535404563L114.75,137.4940090002492L117,137.65370667725801L119.25,137.84746291395277L121.5,137.95621780492365L123.75,138.0948765091598L126,138.2073882855475L128.25,138.30896924529225L130.5,138.39130885945633L132.75,138.4858909882605L135,138.57884748186916L137.25,138.61572215147316L139.5,138.67975290678442L141.75,138.72029950190336L144,138.76485371775925L146.25,138.82616368401796L148.5,138.8812715774402L150.75,138.90479614539072L153,138.93599611520767L155.25,138.95721329655498L157.5,139.02105133794248L159.75,139.03721754951403L162,139.04298031749204L164.25,139.05528707010671L166.5,139.1052248426713L168.75,139.13955693179742L171,139.16365446103737L173.25,139.14749653823674L175.5,139.19460783991963L177.75,139.21504276851192L180,139.2184152621776L182.25,139.21676683286205L184.5,139.23621643381193L186.75,139.26781840901822L189,139.26659892359748L191.25,139.30590323917568L193.5,139.3088250309229L195.75,139.31695113470778L198,139.30671243043616L200.25,139.32984949834645L202.5,139.33470879029483L204.75,139.34962236136198L207,139.37218335969374L209.25,139.36909268423915L211.5,139.38706688396633L213.75,139.40748109063134L216,139.3797510075383L218.25,139.40855137817562L220.5,139.410407026764L222.75,139.43870592676103L225,139.422478585504L227.25,139.45666976552457L229.5,139.45278025977314L231.75,139.4681631824933L234,139.4765037582256L236.25,139.45481204474345L238.5,139.4787790258415L240.75,139.46568691218272L243,139.50211398815736L245.25,139.47850446030498L247.5,139.50609363429248" style="fill: none;" fill="none"></path></g></g></g></g></g></g><g transform="translate(60, 178)" clip-path="url(#clip_1)"><clipPath id="clip_1"><rect width="270" height="22"></rect></clipPath><g><g><line x1="0" y1="0" x2="0" y2="5" style="visibility: inherit;" fill="rgb(0, 0, 0)" stroke="rgb(204, 204, 204)" stroke-width="1px"></line><line x1="22.5" y1="0" x2="22.5" y2="5" style="visibility: inherit;" fill="rgb(0, 0, 0)" stroke="rgb(204, 204, 204)" stroke-width="1px"></line><line x1="45" y1="0" x2="45" y2="5" style="visibility: inherit;" fill="rgb(0, 0, 0)" stroke="rgb(204, 204, 204)" stroke-width="1px"></line><line x1="67.5" y1="0" x2="67.5" y2="5" style="visibility: inherit;" fill="rgb(0, 0, 0)" stroke="rgb(204, 204, 204)" stroke-width="1px"></line><line x1="90" y1="0" x2="90" y2="5" style="visibility: inherit;" fill="rgb(0, 0, 0)" stroke="rgb(204, 204, 204)" stroke-width="1px"></line><line x1="112.5" y1="0" x2="112.5" y2="5" style="visibility: inherit;" fill="rgb(0, 0, 0)" stroke="rgb(204, 204, 204)" stroke-width="1px"></line><line x1="135" y1="0" x2="135" y2="5" style="visibility: inherit;" fill="rgb(0, 0, 0)" stroke="rgb(204, 204, 204)" stroke-width="1px"></line><line x1="157.5" y1="0" x2="157.5" y2="5" style="visibility: inherit;" fill="rgb(0, 0, 0)" stroke="rgb(204, 204, 204)" stroke-width="1px"></line><line x1="180" y1="0" x2="180" y2="5" style="visibility: inherit;" fill="rgb(0, 0, 0)" stroke="rgb(204, 204, 204)" stroke-width="1px"></line><line x1="202.5" y1="0" x2="202.5" y2="5" style="visibility: inherit;" fill="rgb(0, 0, 0)" stroke="rgb(204, 204, 204)" stroke-width="1px"></line><line x1="225" y1="0" x2="225" y2="5" style="visibility: inherit;" fill="rgb(0, 0, 0)" stroke="rgb(204, 204, 204)" stroke-width="1px"></line><line x1="247.5" y1="0" x2="247.5" y2="5" style="visibility: inherit;" fill="rgb(0, 0, 0)" stroke="rgb(204, 204, 204)" stroke-width="1px"></line><line x1="270" y1="0" x2="270" y2="5" style="visibility: inherit;" fill="rgb(0, 0, 0)" stroke="rgb(204, 204, 204)" stroke-width="1px"></line></g><g transform="translate(0, 8)"><text x="0" y="0" dx="0em" dy="0.95em" style="text-anchor: middle; visibility: hidden; font-family: &quot;Helvetica Neue&quot;, sans-serif; font-size: 12px; font-weight: 200;" fill="rgb(50, 49, 63)" stroke="none" stroke-width="1px">-10</text><text x="22.5" y="0" dx="0em" dy="0.95em" style="text-anchor: middle; visibility: inherit; font-family: &quot;Helvetica Neue&quot;, sans-serif; font-size: 12px; font-weight: 200;" fill="rgb(50, 49, 63)" stroke="none" stroke-width="1px">0</text><text x="45" y="0" dx="0em" dy="0.95em" style="text-anchor: middle; visibility: inherit; font-family: &quot;Helvetica Neue&quot;, sans-serif; font-size: 12px; font-weight: 200;" fill="rgb(50, 49, 63)" stroke="none" stroke-width="1px">10</text><text x="67.5" y="0" dx="0em" dy="0.95em" style="text-anchor: middle; visibility: inherit; font-family: &quot;Helvetica Neue&quot;, sans-serif; font-size: 12px; font-weight: 200;" fill="rgb(50, 49, 63)" stroke="none" stroke-width="1px">20</text><text x="90" y="0" dx="0em" dy="0.95em" style="text-anchor: middle; visibility: inherit; font-family: &quot;Helvetica Neue&quot;, sans-serif; font-size: 12px; font-weight: 200;" fill="rgb(50, 49, 63)" stroke="none" stroke-width="1px">30</text><text x="112.5" y="0" dx="0em" dy="0.95em" style="text-anchor: middle; visibility: inherit; font-family: &quot;Helvetica Neue&quot;, sans-serif; font-size: 12px; font-weight: 200;" fill="rgb(50, 49, 63)" stroke="none" stroke-width="1px">40</text><text x="135" y="0" dx="0em" dy="0.95em" style="text-anchor: middle; visibility: inherit; font-family: &quot;Helvetica Neue&quot;, sans-serif; font-size: 12px; font-weight: 200;" fill="rgb(50, 49, 63)" stroke="none" stroke-width="1px">50</text><text x="157.5" y="0" dx="0em" dy="0.95em" style="text-anchor: middle; visibility: inherit; font-family: &quot;Helvetica Neue&quot;, sans-serif; font-size: 12px; font-weight: 200;" fill="rgb(50, 49, 63)" stroke="none" stroke-width="1px">60</text><text x="180" y="0" dx="0em" dy="0.95em" style="text-anchor: middle; visibility: inherit; font-family: &quot;Helvetica Neue&quot;, sans-serif; font-size: 12px; font-weight: 200;" fill="rgb(50, 49, 63)" stroke="none" stroke-width="1px">70</text><text x="202.5" y="0" dx="0em" dy="0.95em" style="text-anchor: middle; visibility: inherit; font-family: &quot;Helvetica Neue&quot;, sans-serif; font-size: 12px; font-weight: 200;" fill="rgb(50, 49, 63)" stroke="none" stroke-width="1px">80</text><text x="225" y="0" dx="0em" dy="0.95em" style="text-anchor: middle; visibility: inherit; font-family: &quot;Helvetica Neue&quot;, sans-serif; font-size: 12px; font-weight: 200;" fill="rgb(50, 49, 63)" stroke="none" stroke-width="1px">90</text><text x="247.5" y="0" dx="0em" dy="0.95em" style="text-anchor: middle; visibility: inherit; font-family: &quot;Helvetica Neue&quot;, sans-serif; font-size: 12px; font-weight: 200;" fill="rgb(50, 49, 63)" stroke="none" stroke-width="1px">100</text><text x="270" y="0" dx="0em" dy="0.95em" style="text-anchor: middle; visibility: hidden; font-family: &quot;Helvetica Neue&quot;, sans-serif; font-size: 12px; font-weight: 200;" fill="rgb(50, 49, 63)" stroke="none" stroke-width="1px">110</text></g><line x1="0" y1="0" x2="270" y2="0" fill="rgb(0, 0, 0)" stroke="rgb(204, 204, 204)" stroke-width="1px"></line></g></g></g></g></svg>