<svg viewBox="0 0 330 200" xmlns="http://www.w3.org/2000/svg"><g><g><g><g><g><line x1="40" y1="178" x2="35" y2="178" style="visibility: inherit;" fill="rgb(0, 0, 0)" stroke="rgb(204, 204, 204)" stroke-width="1px"></line><line x1="40" y1="163.16666666666669" x2="35" y2="163.16666666666669" style="visibility: inherit;" fill="rgb(0, 0, 0)" stroke="rgb(204, 204, 204)" stroke-width="1px"></line><line x1="40" y1="148.33333333333334" x2="35" y2="148.33333333333334" style="visibility: inherit;" fill="rgb(0, 0, 0)" stroke="rgb(204, 204, 204)" stroke-width="1px"></line><line x1="40" y1="133.5" x2="35" y2="133.5" style="visibility: inherit;" fill="rgb(0, 0, 0)" stroke="rgb(204, 204, 204)" stroke-width="1px"></line><line x1="40" y1="118.66666666666669" x2="35" y2="118.66666666666669" style="visibility: inherit;" fill="rgb(0, 0, 0)" stroke="rgb(204, 204, 204)" stroke-width="1px"></line><line x1="40" y1="103.83333333333333" x2="35" y2="103.83333333333333" style="visibility: inherit;" fill="rgb(0, 0, 0)" stroke="rgb(204, 204, 204)" stroke-width="1px"></line><line x1="40" y1="89.00000000000001" x2="35" y2="89.00000000000001" style="visibility: inherit;" fill="rgb(0, 0, 0)" stroke="rgb(204, 204, 204)" stroke-width="1px"></line><line x1="40" y1="74.16666666666666" x2="35" y2="74.16666666666666" style="visibility: inherit;" fill="rgb(0, 0, 0)" stroke="rgb(204, 204, 204)" stroke-width="1px"></line><line x1="40" y1="59.333333333333314" x2="35" y2="59.333333333333314" style="visibility: inherit;" fill="rgb(0, 0, 0)" stroke="rgb(204, 204, 204)" stroke-width="1px"></line><line x1="40" y1="44.49999999999997" x2="35" y2="44.49999999999997" style="visibility: inherit;" fill="rgb(0, 0, 0)" stroke="rgb(204, 204, 204)" stroke-width="1px"></line><line x1="40" y1="29.666666666666686" x2="35" y2="29.666666666666686" style="visibility: inherit;" fill="rgb(0, 0, 0)" stroke="rgb(204, 204, 204)" stroke-width="1px"></line><line x1="40" y1="14.833333333333343" x2="35" y2="14.833333333333343" style="visibility: inherit;" fill="rgb(0, 0, 0)" stroke="rgb(204, 204, 204)" stroke-width="1px"></line><line x1="40" y1="0" x2="35" y2="0" style="visibility: inherit;" fill="rgb(0, 0, 0)" stroke="rgb(204, 204, 204)" stroke-width="1px"></line></g><g transform="translate(30, 0)"><text x="0" y="178" dx="0em" dy="0.3em" style="text-anchor: end; visibility: hidden; font-family: &quot;Helvetica Neue&quot;, sans-serif; font-size: 12px; font-weight: 200;" fill="rgb(50, 49, 63)" stroke="none" stroke-width="1px">1.3</text><text x="0" y="163.16666666666669" dx="0em" dy="0.3em" style="text-anchor: end; visibility: inherit; font-family: &quot;Helvetica Neue&quot;, sans-serif; font-size: 12px; font-weight: 200;" fill="rgb(50, 49, 63)" stroke="none" stroke-width="1px">1.4</text><text x="0" y="148.33333333333334" dx="0em" dy="0.3em" style="text-anchor: end; visibility: hidden; font-family: &quot;Helvetica Neue&quot;, sans-serif; font-size: 12px; font-weight: 200;" fill="rgb(50, 49, 63)" stroke="none" stroke-width="1px">1.5</text><text x="0" y="133.5" dx="0em" dy="0.3em" style="text-anchor: end; visibility: inherit; font-family: &quot;Helvetica Neue&quot;, sans-serif; font-size: 12px; font-weight: 200;" fill="rgb(50, 49, 63)" stroke="none" stroke-width="1px">1.6</text><text x="0" y="118.66666666666669" dx="0em" dy="0.3em" style="text-anchor: end; visibility: hidden; font-family: &quot;Helvetica Neue&quot;, sans-serif; font-size: 12px; font-weight: 200;" fill="rgb(50, 49, 63)" stroke="none" stroke-width="1px">1.7</text><text x="0" y="103.83333333333333" dx="0em" dy="0.3em" style="text-anchor: end; visibility: inherit; font-family: &quot;Helvetica Neue&quot;, sans-serif; font-size: 12px; font-weight: 200;" fill="rgb(50, 49, 63)" stroke="none" stroke-width="1px">1.8</text><text x="0" y="89.00000000000001" dx="0em" dy="0.3em" style="text-anchor: end; visibility: hidden; font-family: &quot;Helvetica Neue&quot;, sans-serif; font-size: 12px; font-weight: 200;" fill="rgb(50, 49, 63)" stroke="none" stroke-width="1px">1.9</text><text x="0" y="74.16666666666666" dx="0em" dy="0.3em" style="text-anchor: end; visibility: inherit; font-family: &quot;Helvetica Neue&quot;, sans-serif; font-size: 12px; font-weight: 200;" fill="rgb(50, 49, 63)" stroke="none" stroke-width="1px">2</text><text x="0" y="59.333333333333314" dx="0em" dy="0.3em" style="text-anchor: end; visibility: hidden; font-family: &quot;Helvetica Neue&quot;, sans-serif; font-size: 12px; font-weight: 200;" fill="rgb(50, 49, 63)" stroke="none" stroke-width="1px">2.1</text><text x="0" y="44.49999999999997" dx="0em" dy="0.3em" style="text-anchor: end; visibility: inherit; font-family: &quot;Helvetica Neue&quot;, sans-serif; font-size: 12px; font-weight: 200;" fill="rgb(50, 49, 63)" stroke="none" stroke-width="1px">2.2</text><text x="0" y="29.666666666666686" dx="0em" dy="0.3em" style="text-anchor: end; visibility: hidden; font-family: &quot;Helvetica Neue&quot;, sans-serif; font-size: 12px; font-weight: 200;" fill="rgb(50, 49, 63)" stroke="none" stroke-width="1px">2.3</text><text x="0" y="14.833333333333343" dx="0em" dy="0.3em" style="text-anchor: end; visibility: inherit; font-family: &quot;Helvetica Neue&quot;, sans-serif; font-size: 12px; font-weight: 200;" fill="rgb(50, 49, 63)" stroke="none" stroke-width="1px">2.4</text><text x="0" y="0" dx="0em" dy="0.3em" style="text-anchor: end; visibility: hidden; font-family: &quot;Helvetica Neue&quot;, sans-serif; font-size: 12px; font-weight: 200;" fill="rgb(50, 49, 63)" stroke="none" stroke-width="1px">2.5</text></g><line x1="40" y1="0" x2="40" y2="178" fill="rgb(0, 0, 0)" stroke="rgb(204, 204, 204)" stroke-width="1px"></line></g></g><g transform="translate(40, 0)" clip-path="url(#clip_0)"><clipPath id="clip_0"><rect width="290" height="178"></rect></clipPath><g><g><g><line x1="0" y1="0" x2="0" y2="178" fill="rgb(0, 0, 0)" stroke="rgb(60, 60, 60)" stroke-width="1px" opacity="0.25"></line><line x1="36.25" y1="0" x2="36.25" y2="178" fill="rgb(0, 0, 0)" stroke="rgb(60, 60, 60)" stroke-width="1px" opacity="0.25"></line><line x1="72.5" y1="0" x2="72.5" y2="178" fill="rgb(0, 0, 0)" stroke="rgb(60, 60, 60)" stroke-width="1px" opacity="0.25"></line><line x1="108.75" y1="0" x2="108.75" y2="178" fill="rgb(0, 0, 0)" stroke="rgb(60, 60, 60)" stroke-width="1px" opacity="0.25"></line><line x1="145" y1="0" x2="145" y2="178" fill="rgb(0, 0, 0)" stroke="rgb(60, 60, 60)" stroke-width="1px" opacity="0.25"></line><line x1="181.25" y1="0" x2="181.25" y2="178" fill="rgb(0, 0, 0)" stroke="rgb(60, 60, 60)" stroke-width="1px" opacity="0.25"></line><line x1="217.5" y1="0" x2="217.5" y2="178" fill="rgb(0, 0, 0)" stroke="rgb(60, 60, 60)" stroke-width="1px" opacity="0.25"></line><line x1="253.75" y1="0" x2="253.75" y2="178" fill="rgb(0, 0, 0)" stroke="rgb(60, 60, 60)" stroke-width="1px" opacity="0.25"></line><line x1="290" y1="0" x2="290" y2="178" fill="rgb(0, 0, 0)" stroke="rgb(60, 60, 60)" stroke-width="1px" opacity="0.25"></line></g><g><line x1="0" y1="178" x2="290" y2="178" fill="rgb(0, 0, 0)" stroke="rgb(60, 60, 60)" stroke-width="1px" opacity="0.25"></line><line x1="0" y1="163.16666666666669" x2="290" y2="163.16666666666669" fill="rgb(0, 0, 0)" stroke="rgb(60, 60, 60)" stroke-width="1px" opacity="0.25"></line><line x1="0" y1="148.33333333333334" x2="290" y2="148.33333333333334" fill="rgb(0, 0, 0)" stroke="rgb(60, 60, 60)" stroke-width="1px" opacity="0.25"></line><line x1="0" y1="133.5" x2="290" y2="133.5" fill="rgb(0, 0, 0)" stroke="rgb(60, 60, 60)" stroke-width="1px" opacity="0.25"></line><line x1="0" y1="118.66666666666669" x2="290" y2="118.66666666666669" fill="rgb(0, 0, 0)" stroke="rgb(60, 60, 60)" stroke-width="1px" opacity="0.25"></line><line x1="0" y1="103.83333333333333" x2="290" y2="103.83333333333333" fill="rgb(0, 0, 0)" stroke="rgb(60, 60, 60)" stroke-width="1px" opacity="0.25"></line><line x1="0" y1="89.00000000000001" x2="290" y2="89.00000000000001" fill="rgb(0, 0, 0)" stroke="rgb(60, 60, 60)" stroke-width="1px" opacity="0.25"></line><line x1="0" y1="74.16666666666666" x2="290" y2="74.16666666666666" fill="rgb(0, 0, 0)" stroke="rgb(60, 60, 60)" stroke-width="1px" opacity="0.25"></line><line x1="0" y1="59.333333333333314" x2="290" y2="59.333333333333314" fill="rgb(0, 0, 0)" stroke="rgb(60, 60, 60)" stroke-width="1px" opacity="0.25"></line><line x1="0" y1="44.49999999999997" x2="290" y2="44.49999999999997" fill="rgb(0, 0, 0)" stroke="rgb(60, 60, 60)" stroke-width="1px" opacity="0.25"></line><line x1="0" y1="29.666666666666686" x2="290" y2="29.666666666666686" fill="rgb(0, 0, 0)" stroke="rgb(60, 60, 60)" stroke-width="1px" opacity="0.25"></line><line x1="0" y1="14.833333333333343" x2="290" y2="14.833333333333343" fill="rgb(0, 0, 0)" stroke="rgb(60, 60, 60)" stroke-width="1px" opacity="0.25"></line><line x1="0" y1="0" x2="290" y2="0" fill="rgb(0, 0, 0)" stroke="rgb(60, 60, 60)" stroke-width="1px" opacity="0.25"></line></g></g></g><g><g><line x1="0" y1="370.83333333333337" x2="290" y2="370.83333333333337" fill="rgb(0, 0, 0)" stroke="rgb(153, 153, 153)" stroke-width="1.5px"></line></g></g><g><g><line x1="36.25" y1="0" x2="36.25" y2="178" fill="rgb(0, 0, 0)" stroke="rgb(153, 153, 153)" stroke-width="1.5px"></line></g></g><g><g><g><g><g><path stroke="rgb(238, 51, 119)" stroke-width="2px" d="M36.975,27.525226672490447L37.7,27.585613131523132L38.425000000000004,27.62717652483056L39.24425,27.679123469427537L39.96925,27.637944324077807L40.694250000000004,27.63656096857713L41.5135,27.63012666418527L42.2385,27.690553045928624L42.9635,27.604328912238856L43.78275,27.612815427907094L44.50775,27.6239935754337L45.23275,27.64292340611962L46.052,27.624579916428587L46.777,27.659274656176564L47.502,27.639271501295525L48.32125,27.629284952236446L49.04625,27.601109877983617L49.77125,27.64703740357581L50.5905,27.6296882568557L51.3155,27.587689895047504L52.0405,27.58614477420673L52.85975,27.566105997488535L53.58475,27.55320583085529L54.30975,27.607001922924354L55.129,27.666906961680326L55.854,27.621834627721086L56.579,27.545067441531415L57.39825,27.61827360440759L58.12325,27.597266333605063L58.84825,27.599953988175827L59.6675,27.575198117974622L60.3925,27.62954766234165L61.1175,27.638080605360443L61.936749999999996,27.676981423514576L62.66175,27.709417900534305L63.38675,27.628654177801337L64.206,27.638280115077748L64.931,27.719285004568775L65.65599999999999,27.636088080955574L66.47525,27.655457862891637L67.20025,27.70013932907858L67.92524999999999,27.64515505941617L68.7445,27.638179302483195L69.46950000000001,27.66658662176789L70.19449999999999,27.662708829342876L71.01375,27.65137104421757L71.73875000000001,27.642007916548863L72.46375,27.682435820130763L73.283,27.672713464276853L74.008,27.6870666339658L74.73299999999999,27.629488610902854L75.55225,27.607899687893763L76.27725000000001,27.562098929608368L77.00225,27.657025275225266L77.8215,27.645004362421133L78.5465,27.652051153117554L79.27149999999999,27.650677344600837L80.09075,27.609027215679816L80.81575000000001,27.653551412924287L81.54075,27.654208687923955L82.36,27.679514456579653L83.085,27.674907427304817L83.80999999999999,27.600323109591272L84.62925,27.619753687837317L85.35425000000001,27.664386754786136L86.07925,27.660327946477253L86.89850000000001,27.624762333631423L87.62349999999999,27.672201639731696L88.34849999999999,27.6559208907604L89.16775,27.657738153810442L89.89275,27.66974935412918L90.61775,27.628675199432223L91.43700000000001,27.56495898776234L92.162,27.57522232818397L92.88699999999999,27.586062714384724L93.70625,27.57321498687668L94.43125,27.670371901366735L95.15625,27.606966557924096L95.97550000000001,27.656275945598367L96.7005,27.631031027055514L97.42550000000001,27.6507260902425L98.24475,27.69299983006914L98.96975,28.181396478546844L99.69475,29.293002538363055L100.51400000000001,31.45955911426543L101.239,34.07300729244233L101.96400000000001,38.727657111620545L102.78325,45.43808705337983L103.50825,51.638483882316805L104.23325,57.319649783990116L105.05250000000001,62.74253745569072L105.7775,67.52832138355542L106.50250000000001,71.80308463463763L107.32175,75.48543335371959L108.04675,79.36962168240795L108.77175,82.9030683089748L109.59100000000001,86.30954645769529L110.316,89.3687604826494L111.04100000000001,91.79550681283894L111.86025,94.38445763053987L112.58525,96.67931371686356L113.31025,98.98386240258314L114.12950000000001,101.64815672390361L114.8545,103.84782525789359L115.57950000000001,106.091045853843L116.39874999999999,108.10372252306325L117.12375,110.35453775946884L117.84875,112.1226288840647L118.668,113.65738022121641L119.393,115.2094472316475L120.11800000000001,116.7010808508141L120.93724999999999,118.26615797602393L121.66225,119.21011297180209L122.38725,120.56149225398275L123.2065,121.96681257663789L123.9315,122.81411423233324L124.65650000000001,123.99107853937451L125.47574999999999,125.08845528186342L126.20075,126.01547463866657L126.92575,126.84727484464202L127.745,127.94579180764887L128.47,128.92687586558503L129.195,129.30754225023173L130.01425,130.2861700091814L130.73925,131.11994268302448L131.46425,131.5070864467084L132.2835,132.29365497280716L133.0085,132.83201235204672L133.7335,133.42187303902546L134.55275,133.91082878074153L135.27775,134.35389698641163L136.00275,134.72596149303513L136.822,135.15236040348609L137.547,135.5328345719663L138.272,136.08788143140202L139.09125,136.55183234140554L139.81625,136.89021093641884L140.54125,137.22882205046318L141.3605,137.5621617662734L142.0855,137.85138548381087L142.8105,138.08799748202338L143.62975,138.46985541530555L144.35475,138.56640642532568L145.07975000000002,138.91315936435578L145.899,139.23745727175069L146.62400000000002,139.47408550361948L147.349,139.7229367497374L148.16825,140.01024337626353L148.89325,140.38321295589319L149.61825,140.44311133549678L150.4375,140.80838025128486L151.1625,140.90763159900297L151.88750000000002,140.95439427083363L152.70675,141.21574342043576L153.43175,141.33875771239227L154.15675000000002,141.5723826321452L154.976,141.61575534934735L155.70100000000002,142.05340420600737L156.426,142.13852982956345L157.24525,142.30425283057397L157.97025,142.5907767896428L158.69525,142.6512830109144L159.5145,142.98796649679014L160.2395,143.2089112355578L160.96450000000002,143.0218029511532L161.78375,143.20645899529623L162.50875,143.41938796215476L163.23375000000001,143.44151589814751L164.053,143.61083197719216L164.77800000000002,143.76136029636677L165.503,143.96042596226425L166.32225,144.0658535813818L167.04725,144.17951295309445L167.77224999999999,144.33375264922682L168.5915,144.4775904757971L169.3165,144.50741459190016L170.0415,144.6333150620808L170.86075,144.69677451584042L171.58575,144.71653089920662L172.31075,144.80677572488776L173.13,144.85008665482195L173.85500000000002,145.08866891400012L174.57999999999998,145.2959711460431L175.39925,145.34701874503452L176.12425,145.4847125847079L176.84924999999998,145.6170880380633L177.6685,145.63153995573697L178.3935,145.70655663907633L179.1185,145.81323687295182L179.93775,145.9278882983927L180.66275,145.82521343888467L181.38775,146.0632243831652L182.207,146.1820107547262L182.93200000000002,146.30304880029868L183.65699999999998,146.21973840646092L184.47625000000002,146.27391041270184L185.20125,146.40736067862088L185.92624999999998,146.48433990023995L186.7455,146.62021414484062L187.4705,146.69617924717352L188.1955,146.6294023610788L189.01475,146.77337788845924L189.73975000000002,146.73783737404642L190.46475,146.80851267566382L191.284,146.82786667420527L192.00900000000001,146.92052954876857L192.73399999999998,146.95382583803598L193.55325000000002,147.1893346428871L194.27824999999999,147.11745008548098L195.00325,147.13039476505915L195.8225,147.25120360949833L196.54749999999999,147.31583071926752L197.2725,147.18987484681318L198.09175,147.31002064490943L198.81675,147.39292286998804L199.54175,147.4728592028227L200.361,147.6345491284136L201.086,147.5956325455906L201.81099999999998,147.7528725896916L202.63025000000002,147.7019142409945L203.35524999999998,147.59088996852148L204.08025,147.85127117517416L204.8995,147.87137838770644L205.62449999999998,147.97417624336302L206.3495,147.96907796586646L207.16875,148.01231233750838L207.89375,148.05222230240736L208.61875,148.0973238771262L209.438,148.1444865281444L210.163,148.20426641792426L210.88799999999998,148.18893229300002L211.70725000000002,148.05897304614913L212.43224999999998,148.3309312812519L213.15725,148.29420670779737L213.97650000000002,148.3150631482136L214.70149999999998,148.4012290415008L215.4265,148.40470428726113L216.24575,148.5305754867854L216.97075,148.43734148309602L217.69575,148.52290520965641L218.515,148.44748669802894L219.24,148.52341167493515L219.96499999999997,148.67468098221534L220.78425000000001,148.7446406250297L221.50924999999998,148.8062866587499L222.23425,148.72141917898608L223.0535,148.5801895480614L223.77849999999998,148.62312801805703L224.5035,148.79099644101206L225.32274999999998,148.80670609201914L226.04775,148.7717907158092L226.77275,148.97012832925054L227.592,148.92251731851894L228.317,149.04636861025807L229.04199999999997,148.9906760919463L229.86125,148.97147040774652L230.58624999999998,149.07890920565663L231.31125,149.1372401201296L232.1305,149.16924675406426L232.8555,149.16971413354918L233.5805,149.15214209592847L234.39974999999998,149.18962511720167L235.12475,149.33153688888893L235.84975,149.29346374659426L236.669,149.29923048807393L237.394,149.33065750912752L238.11900000000003,149.27922848095056L238.93825,149.28326966303322L239.66324999999998,149.28725045087577L240.38825,149.33845027980792L241.2075,149.37610887307477L241.9325,149.41972523620856L242.6575,149.42719381863554L243.47674999999998,149.46898548889962L244.20175,149.47101638171358L244.92675,149.4032511241433L245.746,149.4084538495857L246.471,149.57397350527754L247.19600000000003,149.55506576413657L248.01525,149.5905803043529L248.74024999999997,149.59669604294805L249.46525,149.60365447040385L250.2845,149.8202413278976L251.0095,149.8940331513579L251.7345,149.74011334428562L252.55374999999998,149.83308334737643L253.27875,149.88685659322914L254.00375,149.63014259986343L254.823,149.56799357167242L255.548,149.7190038106721L256.273,149.77041091969895L257.09225,149.84614097943674L257.81725,149.7584989301608L258.54225,149.77312922272563L259.3615,149.87561869498182L260.0865,149.91443606938574L260.81149999999997,149.94854831333353L261.63075,150.0630876837297L262.35575,150.03274568427344L263.08074999999997,149.95477999354642" style="fill: none;" fill="none"></path></g></g></g></g><g opacity="0.2"><g><g><g><path stroke="rgb(238, 51, 119)" stroke-width="2px" d="M36.975,27.525226672490447L37.7,27.62184500694275L38.425000000000004,27.66707738240561L39.24425,27.74021307627359L39.96925,27.58418083190918L40.694250000000004,27.634647289911896L41.5135,27.620925505956023L42.2385,27.778655290603638L42.9635,27.47716506322226L43.78275,27.62541691462198L44.50775,27.64065941174826L45.23275,27.671215136845916L46.052,27.597124576568604L46.777,27.711248795191437L47.502,27.60929028193155L48.32125,27.614312171936035L49.04625,27.55885918935141L49.77125,27.715917030970246L50.5905,27.60366717974344L51.3155,27.524696191151946L52.0405,27.583827177683503L52.85975,27.536048491795867L53.58475,27.53385583559671L54.30975,27.687695423761994L55.129,27.75676409403482L55.854,27.55422631899515L56.579,27.429916858673096L57.39825,27.72808273633322L58.12325,27.565755446751922L58.84825,27.60398546854654L59.6675,27.53806432088217L60.3925,27.711071968078613L61.1175,27.650880018870026L61.936749999999996,27.735332647959382L62.66175,27.7580726146698L63.38675,27.507508595784515L64.206,27.652719020843506L64.931,27.840792338053376L65.65599999999999,27.511292695999146L66.47525,27.68451253573099L67.20025,27.76716152826944L67.92524999999999,27.562678654988616L68.7445,27.627715667088836L69.46950000000001,27.709197600682586L70.19449999999999,27.65689214070639L71.01375,27.634364366531372L71.73875000000001,27.627963225046784L72.46375,27.743077675501496L73.283,27.658129930496216L74.008,27.708596388498933L74.73299999999999,27.543121576309204L75.55225,27.57551630338034L76.27725000000001,27.49339779218039L77.00225,27.7994147936503L77.8215,27.626972993214935L78.5465,27.6626213391622L79.27149999999999,27.648616631825774L80.09075,27.546552022298187L80.81575000000001,27.720337708791106L81.54075,27.655194600423187L82.36,27.7174731095632L83.085,27.667996883392334L83.80999999999999,27.488446633021027L84.62925,27.6488995552063L85.35425000000001,27.73133635520935L86.07925,27.654239734013885L86.89850000000001,27.57141391436258L87.62349999999999,27.74336059888205L88.34849999999999,27.631499767303467L89.16775,27.66046404838562L89.89275,27.687766154607147L90.61775,27.567063967386872L91.43700000000001,27.46938467025757L92.162,27.590617338816315L92.88699999999999,27.602323293685913L93.70625,27.553943395614624L94.43125,27.816107273101807L95.15625,27.511858542760223L95.97550000000001,27.730240027109772L96.7005,27.59316364924112L97.42550000000001,27.68026868502298L98.24475,27.756410439809173L98.96975,28.913991451263428L99.69475,30.96041162808737L100.51400000000001,34.7093939781189L101.239,37.99317955970764L101.96400000000001,45.70963184038797L102.78325,55.50373196601868L103.50825,60.93907912572226L104.23325,65.84139863650003L105.05250000000001,70.87686896324158L105.7775,74.70699727535248L106.50250000000001,78.21522951126099L107.32175,81.00895643234253L108.04675,85.19590417544046L108.77175,88.20323824882507L109.59100000000001,91.41926368077597L110.316,93.95758152008057L111.04100000000001,95.43562630812328L111.86025,98.26788385709128L112.58525,100.12159784634909L113.31025,102.44068543116252L114.12950000000001,105.64459820588431L114.8545,107.14732805887859L115.57950000000001,109.45587674776714L116.39874999999999,111.12273752689362L117.12375,113.73076061407725L117.84875,114.77476557095846L118.668,115.95950722694397L119.393,117.53754774729411L120.11800000000001,118.9385312795639L120.93724999999999,120.61377366383871L121.66225,120.62604546546936L122.38725,122.58856117725372L123.2065,124.07479306062064L123.9315,124.08506671587627L124.65650000000001,125.75652499993643L125.47574999999999,126.73452039559683L126.20075,127.40600367387137L126.92575,128.09497515360516L127.745,129.59356725215912L128.47,130.39850195248923L129.195,129.87854182720184L130.01425,131.7541116476059L130.73925,132.37060169378918L131.46425,132.0878020922343L132.2835,133.47350776195526L133.0085,133.63954842090607L133.7335,134.30666406949362L134.55275,134.64426239331564L135.27775,135.0184992949168L136.00275,135.2840582529704L136.822,135.7919587691625L137.547,136.1035458246867L138.272,136.92045172055563L139.09125,137.24775870641074L139.81625,137.3977788289388L140.54125,137.73673872152966L141.3605,138.0621713399887L142.0855,138.2852210601171L142.8105,138.44291547934216L143.62975,139.0426423152288L144.35475,138.71123294035596L145.07975000000002,139.4332887729009L145.899,139.72390413284302L146.62400000000002,139.82902785142264L147.349,140.0962136189143L148.16825,140.44120331605276L148.89325,140.94266732533774L149.61825,140.53295890490216L150.4375,141.35628362496695L151.1625,141.05650862058005L151.88750000000002,141.0245382785797L152.70675,141.607767144839L153.43175,141.52327915032706L154.15675000000002,141.92282001177472L154.976,141.68081442515057L155.70100000000002,142.70987749099731L156.426,142.26621826489767L157.24525,142.55283733208975L157.97025,143.02056272824606L158.69525,142.74204234282178L159.5145,143.49299172560376L160.2395,143.54032834370932L160.96450000000002,142.74114052454632L161.78375,143.48344306151074L162.50875,143.73878141244253L163.23375000000001,143.47470780213675L164.053,143.8648060957591L164.77800000000002,143.9871527751287L165.503,144.25902446111044L166.32225,144.2239950100581L167.04725,144.35000201066336L167.77224999999999,144.5651121934255L168.5915,144.69334721565247L169.3165,144.5521507660548L170.0415,144.8221657673518L170.86075,144.7919636964798L171.58575,144.7461654742559L172.31075,144.94214296340942L173.13,144.91505304972333L173.85500000000002,145.44654230276745L174.57999999999998,145.60692449410757L175.39925,145.42359014352164L176.12425,145.69125334421796L176.84924999999998,145.81565121809643L177.6685,145.65321783224744L178.3935,145.8190816640854L179.1185,145.97325722376507L179.93775,146.09986543655396L180.66275,145.67120114962262L181.38775,146.420240799586L182.207,146.3601903120677L182.93200000000002,146.48460586865744L183.65699999999998,146.09477281570435L184.47625000000002,146.3551684220632L185.20125,146.6075360774994L185.92624999999998,146.59980873266858L186.7455,146.82402551174164L187.4705,146.8101269006729L188.1955,146.52923703193665L189.01475,146.98934117952984L189.73975000000002,146.68452660242718L190.46475,146.9145256280899L191.284,146.85689767201742L192.00900000000001,147.05952386061352L192.73399999999998,147.00377027193707L193.55325000000002,147.5425978501638L194.27824999999999,147.00962324937186L195.00325,147.1498117844264L195.8225,147.43241687615713L196.54749999999999,147.41277138392132L197.2725,147.0009410381317L198.09175,147.49023934205374L198.81675,147.51727620760602L199.54175,147.5927637020747L200.361,147.87708401679993L201.086,147.5372576713562L201.81099999999998,147.9887326558431L202.63025000000002,147.6254767179489L203.35524999999998,147.42435355981192L204.08025,148.2418429851532L204.8995,147.90153920650482L205.62449999999998,148.12837302684784L206.3495,147.96143054962158L207.16875,148.07716389497122L207.89375,148.11208724975586L208.61875,148.1649762392044L209.438,148.21523050467175L210.163,148.293936252594L210.88799999999998,148.1659311056137L211.70725000000002,147.8640341758728L212.43224999999998,148.73886863390607L213.15725,148.23911984761557L213.97650000000002,148.3463478088379L214.70149999999998,148.53047788143158L215.4265,148.4099171559016L216.24575,148.71938228607178L216.97075,148.29749047756195L217.69575,148.65125079949698L218.515,148.33435893058777L219.24,148.6372991402944L219.96499999999997,148.9015849431356L220.78425000000001,148.84958008925122L221.50924999999998,148.89875570933026L222.23425,148.59411795934042L223.0535,148.3683451016744L223.77849999999998,148.68753572305044L224.5035,149.04279907544455L225.32274999999998,148.83027056852978L226.04775,148.71941765149435L226.77275,149.26763474941254L227.592,148.85110080242157L228.317,149.23214554786682L229.04199999999997,148.90713731447858L229.86125,148.94266188144684L230.58624999999998,149.2400674025218L231.31125,149.2247364918391L232.1305,149.21725670496625L232.8555,149.1704152027766L233.5805,149.12578403949738L234.39974999999998,149.24584964911145L235.12475,149.5444045464198L235.84975,149.23635403315228L236.669,149.3078806002935L237.394,149.37779804070792L238.11900000000003,149.20208493868512L238.93825,149.28933143615723L239.66324999999998,149.2932216326396L240.38825,149.41525002320608L241.2075,149.43259676297507L241.9325,149.48514978090924L242.6575,149.438396692276L243.47674999999998,149.53167299429577L244.20175,149.47406272093457L244.92675,149.3016032377879L245.746,149.41625793774924L246.471,149.8222529888153L247.19600000000003,149.52670415242514L248.01525,149.64385211467743L248.74024999999997,149.60586965084076L249.46525,149.61409211158752L250.2845,150.1451216141383L251.0095,150.00472088654837L251.7345,149.50923363367718L252.55374999999998,149.97253835201263L253.27875,149.96751646200818L254.00375,149.24507160981497L254.823,149.4747700293859L255.548,149.94551916917166L256.273,149.84752158323926L257.09225,149.9597360690435L257.81725,149.62703585624695L258.54225,149.79507466157278L259.3615,150.0293529033661L260.0865,149.97266213099164L260.81149999999997,149.9997166792552L261.63075,150.23489673932394L262.35575,149.9872326850891L263.08074999999997,149.83783145745596" style="fill: none;" fill="none"></path></g></g></g></g></g></g><g transform="translate(40, 178)" clip-path="url(#clip_1)"><clipPath id="clip_1"><rect width="290" height="22"></rect></clipPath><g><g><line x1="0" y1="0" x2="0" y2="5" style="visibility: inherit;" fill="rgb(0, 0, 0)" stroke="rgb(204, 204, 204)" stroke-width="1px"></line><line x1="36.25" y1="0" x2="36.25" y2="5" style="visibility: inherit;" fill="rgb(0, 0, 0)" stroke="rgb(204, 204, 204)" stroke-width="1px"></line><line x1="72.5" y1="0" x2="72.5" y2="5" style="visibility: inherit;" fill="rgb(0, 0, 0)" stroke="rgb(204, 204, 204)" stroke-width="1px"></line><line x1="108.75" y1="0" x2="108.75" y2="5" style="visibility: inherit;" fill="rgb(0, 0, 0)" stroke="rgb(204, 204, 204)" stroke-width="1px"></line><line x1="145" y1="0" x2="145" y2="5" style="visibility: inherit;" fill="rgb(0, 0, 0)" stroke="rgb(204, 204, 204)" stroke-width="1px"></line><line x1="181.25" y1="0" x2="181.25" y2="5" style="visibility: inherit;" fill="rgb(0, 0, 0)" stroke="rgb(204, 204, 204)" stroke-width="1px"></line><line x1="217.5" y1="0" x2="217.5" y2="5" style="visibility: inherit;" fill="rgb(0, 0, 0)" stroke="rgb(204, 204, 204)" stroke-width="1px"></line><line x1="253.75" y1="0" x2="253.75" y2="5" style="visibility: inherit;" fill="rgb(0, 0, 0)" stroke="rgb(204, 204, 204)" stroke-width="1px"></line><line x1="290" y1="0" x2="290" y2="5" style="visibility: inherit;" fill="rgb(0, 0, 0)" stroke="rgb(204, 204, 204)" stroke-width="1px"></line></g><g transform="translate(0, 8)"><text x="0" y="0" dx="0em" dy="0.95em" style="text-anchor: middle; visibility: hidden; font-family: &quot;Helvetica Neue&quot;, sans-serif; font-size: 12px; font-weight: 200;" fill="rgb(50, 49, 63)" stroke="none" stroke-width="1px">-5k</text><text x="36.25" y="0" dx="0em" dy="0.95em" style="text-anchor: middle; visibility: inherit; font-family: &quot;Helvetica Neue&quot;, sans-serif; font-size: 12px; font-weight: 200;" fill="rgb(50, 49, 63)" stroke="none" stroke-width="1px">0</text><text x="72.5" y="0" dx="0em" dy="0.95em" style="text-anchor: middle; visibility: inherit; font-family: &quot;Helvetica Neue&quot;, sans-serif; font-size: 12px; font-weight: 200;" fill="rgb(50, 49, 63)" stroke="none" stroke-width="1px">5k</text><text x="108.75" y="0" dx="0em" dy="0.95em" style="text-anchor: middle; visibility: inherit; font-family: &quot;Helvetica Neue&quot;, sans-serif; font-size: 12px; font-weight: 200;" fill="rgb(50, 49, 63)" stroke="none" stroke-width="1px">10k</text><text x="145" y="0" dx="0em" dy="0.95em" style="text-anchor: middle; visibility: inherit; font-family: &quot;Helvetica Neue&quot;, sans-serif; font-size: 12px; font-weight: 200;" fill="rgb(50, 49, 63)" stroke="none" stroke-width="1px">15k</text><text x="181.25" y="0" dx="0em" dy="0.95em" style="text-anchor: middle; visibility: inherit; font-family: &quot;Helvetica Neue&quot;, sans-serif; font-size: 12px; font-weight: 200;" fill="rgb(50, 49, 63)" stroke="none" stroke-width="1px">20k</text><text x="217.5" y="0" dx="0em" dy="0.95em" style="text-anchor: middle; visibility: inherit; font-family: &quot;Helvetica Neue&quot;, sans-serif; font-size: 12px; font-weight: 200;" fill="rgb(50, 49, 63)" stroke="none" stroke-width="1px">25k</text><text x="253.75" y="0" dx="0em" dy="0.95em" style="text-anchor: middle; visibility: inherit; font-family: &quot;Helvetica Neue&quot;, sans-serif; font-size: 12px; font-weight: 200;" fill="rgb(50, 49, 63)" stroke="none" stroke-width="1px">30k</text><text x="290" y="0" dx="0em" dy="0.95em" style="text-anchor: middle; visibility: hidden; font-family: &quot;Helvetica Neue&quot;, sans-serif; font-size: 12px; font-weight: 200;" fill="rgb(50, 49, 63)" stroke="none" stroke-width="1px">35k</text></g><line x1="0" y1="0" x2="290" y2="0" fill="rgb(0, 0, 0)" stroke="rgb(204, 204, 204)" stroke-width="1px"></line></g></g></g></g></svg>