<svg viewBox="0 0 330 200" xmlns="http://www.w3.org/2000/svg"><g><g><g><g><g><line x1="50" y1="178" x2="45" y2="178" style="visibility: inherit;" fill="rgb(0, 0, 0)" stroke="rgb(204, 204, 204)" stroke-width="1px"></line><line x1="50" y1="158.22222222222211" x2="45" y2="158.22222222222211" style="visibility: inherit;" fill="rgb(0, 0, 0)" stroke="rgb(204, 204, 204)" stroke-width="1px"></line><line x1="50" y1="138.44444444444443" x2="45" y2="138.44444444444443" style="visibility: inherit;" fill="rgb(0, 0, 0)" stroke="rgb(204, 204, 204)" stroke-width="1px"></line><line x1="50" y1="118.66666666666654" x2="45" y2="118.66666666666654" style="visibility: inherit;" fill="rgb(0, 0, 0)" stroke="rgb(204, 204, 204)" stroke-width="1px"></line><line x1="50" y1="98.88888888888886" x2="45" y2="98.88888888888886" style="visibility: inherit;" fill="rgb(0, 0, 0)" stroke="rgb(204, 204, 204)" stroke-width="1px"></line><line x1="50" y1="79.11111111111114" x2="45" y2="79.11111111111114" style="visibility: inherit;" fill="rgb(0, 0, 0)" stroke="rgb(204, 204, 204)" stroke-width="1px"></line><line x1="50" y1="59.333333333333286" x2="45" y2="59.333333333333286" style="visibility: inherit;" fill="rgb(0, 0, 0)" stroke="rgb(204, 204, 204)" stroke-width="1px"></line><line x1="50" y1="39.55555555555557" x2="45" y2="39.55555555555557" style="visibility: inherit;" fill="rgb(0, 0, 0)" stroke="rgb(204, 204, 204)" stroke-width="1px"></line><line x1="50" y1="19.777777777777715" x2="45" y2="19.777777777777715" style="visibility: inherit;" fill="rgb(0, 0, 0)" stroke="rgb(204, 204, 204)" stroke-width="1px"></line><line x1="50" y1="0" x2="45" y2="0" style="visibility: inherit;" fill="rgb(0, 0, 0)" stroke="rgb(204, 204, 204)" stroke-width="1px"></line></g><g transform="translate(40, 0)"><text x="0" y="178" dx="0em" dy="0.3em" style="text-anchor: end; visibility: hidden; font-family: &quot;Helvetica Neue&quot;, sans-serif; font-size: 12px; font-weight: 200;" fill="rgb(50, 49, 63)" stroke="none" stroke-width="1px">3.05</text><text x="0" y="158.22222222222211" dx="0em" dy="0.3em" style="text-anchor: end; visibility: inherit; font-family: &quot;Helvetica Neue&quot;, sans-serif; font-size: 12px; font-weight: 200;" fill="rgb(50, 49, 63)" stroke="none" stroke-width="1px">3.1</text><text x="0" y="138.44444444444443" dx="0em" dy="0.3em" style="text-anchor: end; visibility: hidden; font-family: &quot;Helvetica Neue&quot;, sans-serif; font-size: 12px; font-weight: 200;" fill="rgb(50, 49, 63)" stroke="none" stroke-width="1px">3.15</text><text x="0" y="118.66666666666654" dx="0em" dy="0.3em" style="text-anchor: end; visibility: inherit; font-family: &quot;Helvetica Neue&quot;, sans-serif; font-size: 12px; font-weight: 200;" fill="rgb(50, 49, 63)" stroke="none" stroke-width="1px">3.2</text><text x="0" y="98.88888888888886" dx="0em" dy="0.3em" style="text-anchor: end; visibility: hidden; font-family: &quot;Helvetica Neue&quot;, sans-serif; font-size: 12px; font-weight: 200;" fill="rgb(50, 49, 63)" stroke="none" stroke-width="1px">3.25</text><text x="0" y="79.11111111111114" dx="0em" dy="0.3em" style="text-anchor: end; visibility: inherit; font-family: &quot;Helvetica Neue&quot;, sans-serif; font-size: 12px; font-weight: 200;" fill="rgb(50, 49, 63)" stroke="none" stroke-width="1px">3.3</text><text x="0" y="59.333333333333286" dx="0em" dy="0.3em" style="text-anchor: end; visibility: hidden; font-family: &quot;Helvetica Neue&quot;, sans-serif; font-size: 12px; font-weight: 200;" fill="rgb(50, 49, 63)" stroke="none" stroke-width="1px">3.35</text><text x="0" y="39.55555555555557" dx="0em" dy="0.3em" style="text-anchor: end; visibility: inherit; font-family: &quot;Helvetica Neue&quot;, sans-serif; font-size: 12px; font-weight: 200;" fill="rgb(50, 49, 63)" stroke="none" stroke-width="1px">3.4</text><text x="0" y="19.777777777777715" dx="0em" dy="0.3em" style="text-anchor: end; visibility: hidden; font-family: &quot;Helvetica Neue&quot;, sans-serif; font-size: 12px; font-weight: 200;" fill="rgb(50, 49, 63)" stroke="none" stroke-width="1px">3.45</text><text x="0" y="0" dx="0em" dy="0.3em" style="text-anchor: end; visibility: hidden; font-family: &quot;Helvetica Neue&quot;, sans-serif; font-size: 12px; font-weight: 200;" fill="rgb(50, 49, 63)" stroke="none" stroke-width="1px">3.5</text></g><line x1="50" y1="0" x2="50" y2="178" fill="rgb(0, 0, 0)" stroke="rgb(204, 204, 204)" stroke-width="1px"></line></g></g><g transform="translate(50, 0)" clip-path="url(#clip_0)"><clipPath id="clip_0"><rect width="280" height="178"></rect></clipPath><g><g><g><line x1="0" y1="0" x2="0" y2="178" fill="rgb(0, 0, 0)" stroke="rgb(60, 60, 60)" stroke-width="1px" opacity="0.25"></line><line x1="35" y1="0" x2="35" y2="178" fill="rgb(0, 0, 0)" stroke="rgb(60, 60, 60)" stroke-width="1px" opacity="0.25"></line><line x1="70" y1="0" x2="70" y2="178" fill="rgb(0, 0, 0)" stroke="rgb(60, 60, 60)" stroke-width="1px" opacity="0.25"></line><line x1="105" y1="0" x2="105" y2="178" fill="rgb(0, 0, 0)" stroke="rgb(60, 60, 60)" stroke-width="1px" opacity="0.25"></line><line x1="140" y1="0" x2="140" y2="178" fill="rgb(0, 0, 0)" stroke="rgb(60, 60, 60)" stroke-width="1px" opacity="0.25"></line><line x1="175" y1="0" x2="175" y2="178" fill="rgb(0, 0, 0)" stroke="rgb(60, 60, 60)" stroke-width="1px" opacity="0.25"></line><line x1="210" y1="0" x2="210" y2="178" fill="rgb(0, 0, 0)" stroke="rgb(60, 60, 60)" stroke-width="1px" opacity="0.25"></line><line x1="245" y1="0" x2="245" y2="178" fill="rgb(0, 0, 0)" stroke="rgb(60, 60, 60)" stroke-width="1px" opacity="0.25"></line><line x1="280" y1="0" x2="280" y2="178" fill="rgb(0, 0, 0)" stroke="rgb(60, 60, 60)" stroke-width="1px" opacity="0.25"></line></g><g><line x1="0" y1="178" x2="280" y2="178" fill="rgb(0, 0, 0)" stroke="rgb(60, 60, 60)" stroke-width="1px" opacity="0.25"></line><line x1="0" y1="158.22222222222211" x2="280" y2="158.22222222222211" fill="rgb(0, 0, 0)" stroke="rgb(60, 60, 60)" stroke-width="1px" opacity="0.25"></line><line x1="0" y1="138.44444444444443" x2="280" y2="138.44444444444443" fill="rgb(0, 0, 0)" stroke="rgb(60, 60, 60)" stroke-width="1px" opacity="0.25"></line><line x1="0" y1="118.66666666666654" x2="280" y2="118.66666666666654" fill="rgb(0, 0, 0)" stroke="rgb(60, 60, 60)" stroke-width="1px" opacity="0.25"></line><line x1="0" y1="98.88888888888886" x2="280" y2="98.88888888888886" fill="rgb(0, 0, 0)" stroke="rgb(60, 60, 60)" stroke-width="1px" opacity="0.25"></line><line x1="0" y1="79.11111111111114" x2="280" y2="79.11111111111114" fill="rgb(0, 0, 0)" stroke="rgb(60, 60, 60)" stroke-width="1px" opacity="0.25"></line><line x1="0" y1="59.333333333333286" x2="280" y2="59.333333333333286" fill="rgb(0, 0, 0)" stroke="rgb(60, 60, 60)" stroke-width="1px" opacity="0.25"></line><line x1="0" y1="39.55555555555557" x2="280" y2="39.55555555555557" fill="rgb(0, 0, 0)" stroke="rgb(60, 60, 60)" stroke-width="1px" opacity="0.25"></line><line x1="0" y1="19.777777777777715" x2="280" y2="19.777777777777715" fill="rgb(0, 0, 0)" stroke="rgb(60, 60, 60)" stroke-width="1px" opacity="0.25"></line><line x1="0" y1="0" x2="280" y2="0" fill="rgb(0, 0, 0)" stroke="rgb(60, 60, 60)" stroke-width="1px" opacity="0.25"></line></g></g></g><g><g><line x1="0" y1="1384.444444444444" x2="280" y2="1384.444444444444" fill="rgb(0, 0, 0)" stroke="rgb(153, 153, 153)" stroke-width="1.5px"></line></g></g><g><g><line x1="35" y1="0" x2="35" y2="178" fill="rgb(0, 0, 0)" stroke="rgb(153, 153, 153)" stroke-width="1.5px"></line></g></g><g><g><g><g><g><path stroke="rgb(255, 112, 67)" stroke-width="2px" d="M35.7,38.27434645758734L36.4,38.31560611724851L37.1,38.29455527048259L37.891,38.320243494962426L38.591,38.32941932937064L39.291000000000004,38.329855799461455L40.082,38.30402426502948L40.782000000000004,38.28807522455929L41.482,38.27711659738594L42.272999999999996,38.299987845356554L42.973,38.28151608187537L43.673,38.32707070806089L44.464,38.34780530277524L45.164,38.33557619988514L45.864,38.31760195105517L46.655,38.29142743695991L47.355,38.29923293597409L48.055,38.31112123697213L48.846,38.31991336311805L49.546,38.321642193221436L50.246,38.30095045853622L51.037,38.32203427740279L51.737,38.28379550385205L52.437,38.34010907820672L53.227999999999994,38.32878007535973L53.928,38.36374225646634L54.628,38.34627963098288L55.419,38.305849893518825L56.119,38.32595446934371L56.818999999999996,38.42945806690145L57.61,40.9120266369961L58.309999999999995,44.64005753323937L59.01,48.396400845827884L59.800999999999995,51.44850335196887L60.501,54.677859000968L61.201,60.403778736143266L61.992000000000004,78.58774922677873L62.69199999999999,95.70894096791419L63.391999999999996,108.88173379819317L64.183,116.55096030259548L64.883,122.37913880830209L65.583,127.04391590102247L66.37400000000001,129.3891993914156L67.074,131.81459187037694L67.774,132.0246626980671L68.565,132.3655760714171L69.265,132.5582413134305L69.965,133.99622433927885L70.756,133.75904577435398L71.45599999999999,133.45143593493316L72.15599999999999,131.2560769811426L72.947,131.18146109618323L73.647,129.6027187190677L74.34700000000001,130.13855765356027L75.13799999999999,132.17280371377373L75.838,130.26595402459594L76.538,130.05982952535314L77.32900000000001,130.38147622676797L78.029,131.26389194130172L78.729,130.53784057656466L79.52,133.2239486154159L80.22,131.9132412565163L80.91999999999999,129.9822597360061L81.711,130.17676132188245L82.411,130.97591119037338L83.111,131.78027259855548L83.902,132.7824876625948L84.60199999999999,132.46789941043662L85.30199999999999,132.5858354036405L86.093,133.60435260123376L86.793,133.07467812635957L87.493,132.3153997984502L88.284,132.6156531820214L88.98400000000001,133.70263123145142L89.684,132.86079399630353L90.475,134.69026222202785L91.175,134.41682100916077L91.875,132.41420698537934L92.66600000000001,134.42280041599972L93.36600000000001,132.04441121341267L94.066,133.56540159390588L94.857,135.9058912621975L95.557,133.82834132673574L96.257,133.21378675133653L97.048,133.52705024565313L97.748,133.89547573590633L98.44800000000001,134.78166503613477L99.239,134.31126400242078L99.939,133.33359771284034L100.639,135.77141115388156L101.43,136.33791111832704L102.13000000000001,135.3723271729765L102.83000000000001,134.92885547465718L103.621,134.08078020034867L104.321,134.78850557205908L105.021,136.42295889336563L105.812,135.56296909551378L106.512,135.72516142150096L107.212,135.22924307278996L108.003,134.81867360381932L108.703,134.79787844139858L109.40299999999999,136.05071014792833L110.194,136.2286028330061L110.894,136.2049296271854L111.59400000000001,135.50737143191017L112.38499999999999,135.6495906549632L113.085,136.90052879347695L113.785,135.05027134713103L114.57600000000001,133.71121300291304L115.276,135.04977204884537L115.976,136.80202111030235L116.767,135.15035829267333L117.467,136.65681958986173L118.167,136.00891821062282L118.958,135.90675990600153L119.658,137.09474140231399L120.358,135.16917546882985L121.14899999999999,134.0217577633942L121.84899999999999,136.32143071597926L122.54899999999999,135.8184359747536L123.34,134.55085187822795L124.04,135.22887250253345L124.74000000000001,136.69676072347093L125.53099999999999,135.4411203480637L126.231,136.28240546486035L126.931,137.06674255802318L127.722,136.71573531685058L128.422,135.15637863246616L129.122,137.09164474878853L129.913,134.38014918583454L130.613,136.33807969501314L131.313,136.54780521107804L132.10399999999998,136.57808786433122L132.804,135.8315344202589L133.504,136.91900867841403L134.29500000000002,136.6530484938594L134.995,135.49184816980204L135.695,136.8068641034328L136.486,138.44777482395745L137.186,137.8072093584857L137.886,134.94238649426896L138.677,135.2010894825531L139.377,135.11744849611824L140.077,135.932368155695L140.868,136.0560470056132L141.568,137.26515430267884L142.268,135.21687558128176L143.059,134.72886582050313L143.75900000000001,134.95007516178975L144.459,137.66717381682756L145.25,135.18429290364904L145.95,137.21767718261913L146.65,137.04165062109482L147.441,139.82309802850003L148.141,136.09080824608228L148.841,135.09890014608135L149.632,137.68351229834215L150.33200000000002,136.60633633883054L151.032,135.13793086552704L151.82299999999998,135.8579321304273L152.523,136.6671263402952L153.22299999999998,136.39414414456337L154.014,136.34763599913498L154.714,136.92254652800196L155.41400000000002,136.47979643079861L156.205,136.29917427910635L156.905,134.97785187106612L157.60500000000002,136.6991155856659L158.396,136.16847693671318L159.096,135.3251011224229L159.796,137.16730196916228L160.587,136.73069005329648L161.287,137.12435068426743L161.987,137.58907370808654L162.77800000000002,136.1426407478825L163.478,136.5091568194706L164.178,137.75754953534013L164.969,138.54378015862267L165.66899999999998,137.38818097087884L166.369,136.69851832373826L167.16,135.69446711742546L167.86,136.80081816582745L168.56,136.53437671967325L169.351,136.38741315813306L170.051,137.2475187465236L170.75099999999998,136.93861524503887L171.542,136.15638025745616L172.242,136.2342508059765L172.942,138.06689868237055L173.733,136.5102518192856L174.433,137.00370646402138L175.133,137.92341782779425L175.92399999999998,138.30926292947805L176.624,136.3301198643492L177.32399999999998,137.16338597839675L178.115,136.92499106986673L178.815,137.80149681884066L179.515,137.92308389588345L180.306,137.74789347582208L181.006,135.61025765803012L181.70600000000002,138.13982351978535L182.49699999999999,137.26686047132756L183.197,136.60950508352346L183.897,139.3118202816949L184.688,136.8223704045584L185.388,138.0887123631778L186.088,139.39003288869108L186.87900000000002,137.32401242594995L187.579,138.62637241460843L188.27900000000002,138.07133380439663L189.07,138.02391236013906L189.76999999999998,139.0442753267822L190.47,138.01044487882223L191.261,136.18553430196783L191.961,137.16222839435886L192.661,137.67053522794015L193.452,137.76411897815404L194.15200000000002,137.35933045671655L194.85199999999998,137.96733998003023L195.643,139.32169850977363L196.343,138.58751492156512L197.043,137.93322786230874L197.834,139.66027987059704L198.534,139.1438275632003L199.234,136.96130518456732L200.025,137.45759738754157L200.72500000000002,137.84741711579306L201.42499999999998,138.19323344208323L202.21599999999998,140.30238330933622L202.916,137.7597622508198L203.61599999999999,136.59361547834027L204.407,135.46965551340395L205.107,135.45056780687588L205.80700000000002,138.16295059826933L206.598,138.83911642151585L207.29799999999997,140.84205042948824L207.998,137.02018556639518L208.789,138.7512556439006L209.489,139.49169644732123L210.189,135.92591810303892L210.98,140.1412497313167L211.68,136.59853573085277L212.38,135.72301371824247L213.17100000000002,135.7589073283033L213.87099999999998,135.599447977033L214.571,137.9627914974015L215.362,138.44899888661365L216.06199999999998,138.76954378183797L216.762,138.52858299246424L217.553,138.08007136191202L218.25300000000001,139.04741500274838L218.953,137.450857804953L219.74400000000003,139.58139055441816L220.444,137.3051362973049L221.14399999999998,135.99400681703844L221.935,135.66294894089032L222.635,136.7331689922197L223.335,137.82760120069736L224.126,139.40534588345017L224.82600000000002,137.13292819250512L225.526,137.42959652867583L226.31699999999998,137.51506272338483L227.017,137.20687885446281L227.71699999999998,137.71701697128776L228.508,138.27595789734508L229.208,138.1537033157454L229.90800000000002,137.8170054841847L230.699,137.99949852095236L231.399,138.7337268903491L232.09900000000002,136.75994667498105L232.89,137.65550490074054L233.59,136.63925096900886L234.29,137.85122339566854L235.081,138.14112047471113L235.781,139.52849823968776L236.481,137.34522572400465L237.27200000000002,137.86796442745845L237.972,138.47939393832175L238.67200000000003,137.6111213347811L239.463,138.18801365848037L240.16299999999998,139.10754043724853L240.863,137.5159798660547L241.654,138.149149042951L242.354,137.05615143002962L243.054,138.41058006564575L243.845,137.95189274424843L244.54500000000002,138.58229923094038L245.24499999999998,138.10038059989782L246.036,140.28997774280543L246.736,137.18982950728275L247.436,136.95300403100268L248.227,136.91189353052647L248.927,136.3615178660915L249.627,139.25220540078L250.418,139.41978824019677L251.11800000000002,139.37159569192073L251.81799999999998,138.60013831996463L252.60899999999998,137.723667637568L253.309,137.79524396158274L254.009,138.9329900693053L35.7,98.66568486664283L36.4,74.54087464475784L37.1,60.1005806102868L37.891,51.426784794666034L38.591,46.16916681728361L39.291000000000004,43.030288847694294L40.082,41.132891343148884L40.782000000000004,39.95986074176159L41.482,39.308326621651986L42.272999999999996,38.86493329327669L42.973,38.650351628391235L43.673,38.514850191444594L44.464,38.39714652098118L45.164,38.38959737100336L45.864,38.35900120689021L46.655,38.30835251992397L47.355,38.34892049158219L48.055,38.65177105037469L48.846,45.031314128977016L49.546,49.93912827366438L50.246,54.576905715826115L51.037,57.98739802408663L51.737,61.05681979928809L52.437,64.4527030245923L53.227999999999994,63.37773626584587L53.928,63.01911239481575L54.628,61.820420955227064L55.419,61.56252209421375L56.119,60.9518611806549L56.818999999999996,60.41348494027241L57.61,60.31227112638119L58.309999999999995,60.49474377595348L59.01,59.91751573646516L59.800999999999995,60.84829505250194L60.501,59.877127954488316L61.201,59.104378630196265L61.992000000000004,58.544572809356836L62.69199999999999,59.544125396090436L63.391999999999996,59.95290252782888L64.183,58.917431247871406L64.883,60.333536327797134L65.583,59.70154849345565L66.37400000000001,59.513951506148246L67.074,58.93113693219911L67.774,59.674136006568745L68.565,59.45110457960854L69.265,58.825149933773076L69.965,60.22901431736018L70.756,59.42924564689386L71.45599999999999,60.117405328810236L72.15599999999999,59.94895017563907L72.947,59.43790224378397L73.647,59.24180221866635L74.34700000000001,59.35225389454067L75.13799999999999,59.43274651532688L75.838,59.15462395289725L76.538,59.32344843722218L77.32900000000001,59.332359213293486L78.029,59.51315589798472L78.729,59.4170614431149L79.52,59.14796669714063L80.22,59.960256679118714L80.91999999999999,59.55974165395574L81.711,59.07332702091071L82.411,58.77378272513329L83.111,59.59251161912948L83.902,59.3216288146038L84.60199999999999,59.78485020339447L85.30199999999999,58.871072034742824L86.093,60.06731069792353L86.793,58.61050479304873L87.493,58.79048059664089L88.284,59.685068522915145L88.98400000000001,59.59844676357001L89.684,58.71407539931499L90.475,59.65337157354631L91.175,59.044288450448335L91.875,58.71203491990549L92.66600000000001,58.71163452277109L93.36600000000001,59.07489424380053L94.066,59.2911902592524L94.857,59.236464101298L95.557,59.11501680374215L96.257,59.96029137971699L97.048,59.82589906760333L97.748,58.840550155622765L98.44800000000001,59.68745921324684L99.239,60.807020934713464L99.939,59.62236563699997L100.639,59.34919834338169L101.43,58.32117451682548L102.13000000000001,58.23470952848196L102.83000000000001,60.23745784802996L103.621,59.51760440852489L104.321,58.70857434012906L105.021,59.66225550495638L105.812,59.367813304601455L106.512,59.66457310781517L107.212,59.37391925599235L108.003,59.371355744676094L108.703,59.223980066000536L109.40299999999999,59.20707768939417L110.194,59.077014473201416L110.894,58.38371249861815L111.59400000000001,58.831288917492245L112.38499999999999,59.1126606287344L113.085,58.983885982275325L113.785,59.24986383966362L114.57600000000001,59.62982900597366L115.276,59.64738855687722L115.976,59.09332238922612L116.767,58.965907831728984L117.467,59.019566129158804L118.167,59.41454432769598L118.958,58.511840423793146L119.658,58.939890814334404L120.358,59.02161033766747L121.14899999999999,58.6450875642271L121.84899999999999,59.2113593656576L122.54899999999999,59.50879710878789L123.34,58.95735515600616L124.04,59.10002827711595L124.74000000000001,59.882453574478106L125.53099999999999,59.993086460143545L126.231,60.55326179836807L126.931,59.13109249907842L127.722,60.76057561459993L128.422,59.347902426458546L129.122,58.625237478417404L129.913,58.589541951975534L130.613,57.64390825969984L131.313,59.487789708831045L132.10399999999998,58.85549782025301L132.804,59.37423466627271L133.504,59.457855483466005L134.29500000000002,59.75707599488649L134.995,59.365442581116966L135.695,59.678089028216604L136.486,59.329442782571334L137.186,59.427622995796014L137.886,59.621202652864895L138.677,59.3515938485276L139.377,59.3823296340407L140.077,59.63921893046228L140.868,58.65773578196999L141.568,59.34079396551988L142.268,59.66816614100347L143.059,59.00872735862009L143.75900000000001,59.27846215708824L144.459,59.93768233914771L145.25,60.11755138618173L145.95,59.71134444729613L146.65,59.11973769526044L147.441,59.830225372011796L148.141,59.34893749642755L148.841,59.10878986941135L149.632,58.8245976351612L150.33200000000002,58.89890532656642L151.032,59.11373437025627L151.82299999999998,59.833074030085655L152.523,58.86598007885874L153.22299999999998,59.42186855811153L154.014,58.99475270631869L154.714,59.88726528956279L155.41400000000002,58.9248255704934L156.205,58.54529493607322L156.905,59.07554715342988L157.60500000000002,59.743316335949004L158.396,59.801074708253395L159.096,59.01766620760172L159.796,58.60348904408691L160.587,59.17304627001222L161.287,59.594564998877985L161.987,59.449987748106054L162.77800000000002,59.47437370151668L163.478,59.615981286746475L164.178,59.72859688294206L164.969,59.73592242216425L165.66899999999998,59.34765781663394L166.369,59.829363512544404L167.16,58.50681763145255L167.86,58.97222369993814L168.56,59.90090853026554L169.351,59.91136056480096L170.051,60.08067109894462L170.75099999999998,59.05761812025004L171.542,59.40093499093804L172.242,59.445092939685495L172.942,59.5192697293332L173.733,59.48444408722021L174.433,58.497497388340264L175.133,59.903485174811834L175.92399999999998,59.249847316909694L176.624,59.16838992022949L177.32399999999998,59.49659576379669L178.115,58.8613472999934L178.815,59.118322475726245L179.515,59.46810194490838L180.306,59.77529526932132L181.006,60.62391536146258L181.70600000000002,59.31226798586624L182.49699999999999,59.07988483258963L183.197,59.04574016129966L183.897,58.869230544940606L184.688,59.42238535929948L185.388,58.73330207536165L186.088,59.31917520816184L186.87900000000002,60.00364332205427L187.579,59.70788337075541L188.27900000000002,59.066470779017905L189.07,59.95225098751169L189.76999999999998,59.566594682269255L190.47,59.250022100024424L191.261,58.696427698898106L191.961,59.78171719469688L192.661,60.122920036463455L193.452,60.71660480508103L194.15200000000002,60.28319537274052L194.85199999999998,59.61396705884928L195.643,59.280520297429746L196.343,60.54852280060963L197.043,59.9382021542156L197.834,60.21975341533212L198.534,59.50271903663952L199.234,59.74272503635012L200.025,59.13566136865255L200.72500000000002,59.0935031444336L201.42499999999998,60.54306893106663L202.21599999999998,60.193785864119675L202.916,60.440137620902476L203.61599999999999,59.76754631765857L204.407,58.86038791836202L205.107,60.553677310750246L205.80700000000002,59.22674357042369L206.598,59.59068235576868L207.29799999999997,59.233315409147906L207.998,58.80149691557344L208.789,59.4620954217507L209.489,59.92379096480167L210.189,58.73949016861614L210.98,59.01785893678172L211.68,58.51850132873031L212.38,59.30504848332758L213.17100000000002,58.57904145978807L213.87099999999998,58.96666883678327L214.571,59.57274184840253L215.362,58.7844725423098L216.06199999999998,59.265038197288106L216.762,58.607206359535L217.553,58.65756459602159L218.25300000000001,59.15588570178612L218.953,59.44193933597498L219.74400000000003,60.0725109628317L220.444,59.248127786737484L221.14399999999998,58.933097643043936L221.935,58.94227681567111L222.635,58.59699705050299L223.335,59.643783337045505L224.126,58.77971720003549L224.82600000000002,58.60176637552263L225.526,59.59036204088973L226.31699999999998,59.42619013509706L227.017,60.049896074330874L227.71699999999998,58.48820697578897L228.508,58.30180810677868L229.208,58.6804070347486L229.90800000000002,58.848416543440365L230.699,59.15420966863141L231.399,58.96652779160297L232.09900000000002,59.07810715212116L232.89,59.29643763857625L233.59,58.486621382380704L234.29,58.908161217828976L235.081,58.89958846924979L235.781,58.805946386671465L236.481,58.1246136354968L237.27200000000002,58.11473595134461L237.972,58.371286791754144L238.67200000000003,58.62639069687857L239.463,57.62116472004762L240.16299999999998,56.4515788030029L240.863,59.17512403622332L241.654,57.76774938918197L242.354,59.60279763019963L243.054,59.084976714513004L243.845,59.64251943528325L244.54500000000002,60.21688864820335L245.24499999999998,61.774421569862724L246.036,62.09197973770763L246.736,62.73443758492064L247.436,63.515778687291245L248.227,64.0377352211366L248.927,63.839836346847605L249.627,64.19474848440531L250.418,64.5717158814147L251.11800000000002,63.5856262187087L251.81799999999998,64.84938395062638L252.60899999999998,63.363980735908655L253.309,64.70160919892373L254.009,64.75115740710375" style="fill: none;" fill="none"></path></g></g></g></g><g opacity="0.2"><g><g><g><path stroke="rgb(255, 112, 67)" stroke-width="2px" d="M35.7,38.27434645758734L36.4,38.34036191304523L37.1,38.27434645758734L37.891,38.35045284695093L38.591,38.341399298773865L39.291000000000004,38.330459594726534L40.082,38.26708475748697L40.782000000000004,38.26482137044269L41.482,38.260954750908724L42.272999999999996,38.33394898308646L42.973,38.253975974188904L43.673,38.39515474107529L44.464,38.37883949279782L45.164,38.31725650363498L45.864,38.29066170586478L46.655,38.25218412611218L47.355,38.3109378814697L48.055,38.328950670030366L48.846,38.333100212944856L49.546,38.3242352803548L50.246,38.2699139912923L51.037,38.35365931193033L51.737,38.22643809848361L52.437,38.42457877265082L53.227999999999994,38.3117866516113L53.928,38.41618537902829L54.628,38.32008573744031L55.419,38.245205349392336L56.119,38.356111314561616L56.818999999999996,38.58471340603296L57.61,44.63587866889105L58.309999999999995,50.23210313585068L59.01,54.03091536627872L59.800999999999995,56.026656892564546L60.501,59.52189233567978L61.201,68.99265819125702L61.992000000000004,105.86370468139644L62.69199999999999,121.39072842068137L63.391999999999996,128.64092297024192L64.183,128.05480003356928L64.883,131.12140655517572L65.583,134.04108153449158L66.37400000000001,132.9071246253119L67.074,135.4526805877685L67.774,132.339768939548L68.565,132.87694613138828L69.265,132.84723917643223L69.965,136.1531988779703L70.756,133.40327792697477L71.45599999999999,132.99002117580832L72.15599999999999,127.9630385504828L72.947,131.0695372687445L73.647,127.23460515340165L74.34700000000001,130.9423160552978L75.13799999999999,135.22417280409067L75.838,127.40567949083112L76.538,129.7506427764892L77.32900000000001,130.86394627888993L78.029,132.58751551310215L78.729,129.44876352945957L79.52,137.25311067369245L80.22,129.94718021816672L80.91999999999999,127.08578745524085L81.711,130.46851370069712L82.411,132.17463599310975L83.111,132.98681471082895L83.902,134.28581025865338L84.60199999999999,131.99601703219938L85.30199999999999,132.76273939344614L86.093,135.13212839762366L86.793,132.2801664140489L87.493,131.1764823065863L88.284,133.06603325737842L88.98400000000001,135.3330983055962L89.684,131.59803814358176L90.475,137.43446456061463L91.175,134.00665918986L91.875,129.41028594970697L92.66600000000001,137.43569056193027L93.36600000000001,128.4768274095323L94.066,135.84688716464566L94.857,139.41662576463483L95.557,130.71201642354325L96.257,132.2919548882378L97.048,133.9969454871283L97.748,134.4481139712863L98.44800000000001,136.11094898647727L99.239,133.60566245184998L99.939,131.86709827846946L100.639,139.42813131544318L101.43,137.1876610649956L102.13000000000001,133.92395125495057L102.83000000000001,134.26364792717823L103.621,132.8086672888861L104.321,135.85009362962506L105.021,138.87463887532547L105.812,134.27298439873584L106.512,135.96844991048172L107.212,134.48536554972327L108.003,134.20281940036344L108.703,134.76668569776743L109.40299999999999,137.92995770772293L110.194,136.49544186062278L110.894,136.16941981845426L111.59400000000001,134.46103413899735L112.38499999999999,135.86291948954258L113.085,138.77693600124778L113.785,132.27488517761225L114.57600000000001,131.7026254865858L115.276,137.05761061774353L115.976,139.43039470248746L116.767,132.67286406622986L117.467,138.91651153564447L118.167,135.03706614176429L118.958,135.7535224490695L119.658,138.87671364678272L120.358,132.28082656860346L121.14899999999999,132.30063120524082L121.84899999999999,139.77094014485672L122.54899999999999,135.06394386291498L123.34,132.64947573343906L124.04,136.24590343899192L124.74000000000001,138.89859305487732L125.53099999999999,133.55765978495276L126.231,137.54433314005527L126.931,138.2432481977674L127.722,136.18922445509165L128.422,132.81734360588916L129.122,139.99454392327198L129.913,130.31290584140348L130.613,139.27497545878086L131.313,136.86239348517518L132.10399999999998,136.6235118442111L132.804,134.71170425415033L133.504,138.55022006564664L134.29500000000002,136.2541082170274L134.995,133.75004768371576L135.695,138.77938800387906L136.486,140.90914090474442L137.186,136.84636116027826L137.886,130.64515219794373L138.677,135.58914396497934L139.377,134.99198701646588L140.077,137.15474764506016L140.868,136.2415652804904L141.568,139.0788152482774L142.268,132.14445749918613L143.059,133.9968511793348L143.75900000000001,135.28188917371958L144.459,141.74282179938416L145.25,131.45997153388123L145.95,140.26775360107416L146.65,136.77761077880854L147.441,143.9952691396077L148.141,130.49237357245545L148.841,133.61103799608014L149.632,141.56043052673334L150.33200000000002,134.9905723995632L151.032,132.93532265557178L151.82299999999998,136.93793402777771L152.523,137.88091765509705L153.22299999999998,135.98467085096567L154.014,136.27787378099225L154.714,137.78491232130256L155.41400000000002,135.81567128499344L156.205,136.02824105156787L156.905,132.99586825900602L157.60500000000002,139.2810111575656L158.396,135.3725189632839L159.096,134.06003740098737L159.796,139.9306032392713L160.587,136.07577217949756L161.287,137.7148416307237L161.987,138.28615824381504L162.77800000000002,133.97299130757645L163.478,137.0589309268527L164.178,139.63013860914435L164.969,139.72312609354648L165.66899999999998,135.6547821892632L166.369,135.6640243530273L167.16,134.1883903079562L167.86,138.4603447384304L168.56,136.1347145504421L169.351,136.16696781582297L170.051,138.53767712910965L170.75099999999998,136.47525999281137L171.542,134.9830277760823L172.242,136.351056628757L172.942,140.81587049696174L173.733,134.17528152465815L174.433,137.74388843112516L175.133,139.3029848734537L175.92399999999998,138.88803058200406L176.624,133.36140526665577L177.32399999999998,138.41328514946827L178.115,136.56739870707187L178.815,139.11625544230137L179.515,138.10546451144742L180.306,137.4851078457302L181.006,132.40380393134217L181.70600000000002,141.93417231241855L182.49699999999999,135.9574158986409L183.197,135.62347200181745L183.897,143.3652930789523L184.688,133.08819558885358L185.388,139.98822530110672L186.088,141.34201367696122L186.87900000000002,134.2249817318386L187.579,140.5799123975965L188.27900000000002,137.2387758890787L189.07,137.95278019375266L189.76999999999998,140.5748197767469L190.47,136.459699206882L191.261,133.44816843668613L191.961,138.62726953294538L192.661,138.4329954783121L193.452,137.9044946034749L194.15200000000002,136.7521476745605L194.85199999999998,138.87935426500104L195.643,141.35323630438904L196.343,137.48623953925232L197.043,136.9517972734239L197.834,142.25085788302945L198.534,138.36914910210498L199.234,133.6875216166178L200.025,138.202035692003L200.72500000000002,138.4321467081705L201.42499999999998,138.7119579315185L202.21599999999998,143.46610811021588L202.916,133.9458306630452L203.61599999999999,134.84439531962073L204.407,133.7837155659993L205.107,135.42193624708383L205.80700000000002,142.23152478535965L206.598,139.85336515638556L207.29799999999997,143.84645144144687L207.998,131.2873882717556L208.789,141.3478607601589L209.489,140.6023576524522L210.189,130.5772505866156L210.98,146.46424717373313L211.68,131.28446473015674L212.38,134.4097306993272L213.17100000000002,135.8127477433946L213.87099999999998,135.36025895012745L214.571,141.50780677795404L215.362,139.1783099704318L216.06199999999998,139.2503611246744L216.762,138.1671418084038L217.553,137.40730391608338L218.25300000000001,140.49843046400275L218.953,135.05602200826004L219.74400000000003,142.77718967861594L220.444,133.89075491163462L221.14399999999998,134.02731259663895L221.935,135.16636212666825L222.635,138.3384990692138L223.335,139.46924951341413L224.126,141.77196290757917L224.82600000000002,133.7243016560872L225.526,137.8745990329318L226.31699999999998,137.6432620154486L227.017,136.7446030510796L227.71699999999998,138.482224146525L228.508,139.11436928643116L229.208,137.97032144334577L229.90800000000002,137.31195873684348L230.699,138.273238076104L231.399,139.8350694444444L232.09900000000002,133.79927635192865L232.89,138.99884223937983L233.59,135.11487007141108L234.29,139.66918203565803L235.081,138.5759660932752L235.781,141.60956488715271L236.481,134.0703169504801L237.27200000000002,138.65207248263883L237.972,139.39653820461692L238.67200000000003,136.30871242947043L239.463,139.05335214402936L240.16299999999998,140.48683060540088L240.863,135.12863900926374L241.654,139.0989028082953L242.354,135.4166550106472L243.054,140.44222301907004L243.845,137.26386176215271L244.54500000000002,139.52790896097812L245.24499999999998,137.3775026533338L246.036,143.5743734571668L246.736,132.53960715399842L247.436,136.59776581658252L248.227,136.85022777981223L248.927,135.53595436943897L249.627,143.588236702813L250.418,139.67116249932178L251.11800000000002,139.29930686950678L251.81799999999998,137.44295226203064L252.60899999999998,136.40896161397293L253.309,137.90260844760465L254.009,140.63960923088916L35.7,38.26472706264917L36.4,38.35365931193033L37.1,38.44013955858017L37.891,38.4160910712348L38.591,38.28273985120984L39.291000000000004,38.32197189331052L40.082,38.28679508633081L40.782000000000004,38.20031483968097L41.482,38.33102544148761L42.272999999999996,38.19984330071341L42.973,38.32847913106281L43.673,38.31159803602429L44.464,38.22059101528589L45.164,38.378273646036774L45.864,38.31310696072046L46.655,38.23237948947482L47.355,38.40977244906955L48.055,39.106046888563355L48.846,54.6006287468804L49.546,57.30084949069551L50.246,61.53357187906899L51.037,63.1031364864773L51.737,65.66095246209036L52.437,69.54652786254881L53.227999999999994,61.76528612772621L53.928,62.48117658827037L54.628,60.02238379584415L55.419,61.17567380269365L56.119,60.03586981031627L56.818999999999996,59.605920579698335L57.61,60.16045040554468L58.309999999999995,60.76845275031192L59.01,59.051673677232515L59.800999999999995,62.24446402655704L60.501,58.42037730746797L61.201,57.94525464375812L61.992000000000004,57.704864078097856L62.69199999999999,61.04345427619083L63.391999999999996,60.56606822543672L64.183,57.36422432793509L64.883,62.45769394768607L65.583,58.753566741943345L66.37400000000001,59.23255602518715L67.074,58.05691507127548L67.774,60.78863461812334L68.565,59.11655743916826L69.265,57.88621796502005L69.965,62.33481089274086L70.756,58.22959264119464L71.45599999999999,61.149644851684556L72.15599999999999,59.69626744588213L72.947,58.6713303460015L73.647,58.94765218098955L74.34700000000001,59.5179314083523L75.13799999999999,59.55348544650606L75.838,58.737440109252915L76.538,59.576685163709826L77.32900000000001,59.34572537740068L78.029,59.784350925021684L78.729,59.27291976080997L79.52,58.74432457817923L80.22,61.17869165208603L80.91999999999999,58.95896911621092L81.711,58.343705071343294L82.411,58.324466281467L83.111,60.820604960123674L83.902,58.91530460781519L84.60199999999999,60.47968228658037L85.30199999999999,57.50040478176538L86.093,61.861668692694735L86.793,56.42529593573673L87.493,59.060444302029055L88.284,61.02695041232637L88.98400000000001,59.468514124552385L89.684,57.387518352932375L90.475,61.0623158348931L91.175,58.1306637658013L91.875,58.21365462409122L92.66600000000001,58.711033927069735L93.36600000000001,59.619783825344484L94.066,59.61563428242998L94.857,59.154374864366304L95.557,58.932845857408296L96.257,61.228203243679445L97.048,59.62431059943302L97.748,57.36252678765189L98.44800000000001,60.9578227996826L99.239,62.486363516913485L99.939,57.84538269042967L100.639,58.93944740295409L101.43,56.779138776991076L102.13000000000001,58.10501204596622L102.83000000000001,63.241580327351855L103.621,58.437824249267564L104.321,57.49502923753525L105.021,61.09277725219725L105.812,58.92615000406899L106.512,60.10971281263561L107.212,58.937938478257905L108.003,59.3675104777018L108.703,59.00291654798717L109.40299999999999,59.181724124484575L110.194,58.8819196489122L110.894,57.34375953674315L111.59400000000001,59.50265354580347L112.38499999999999,59.53471819559731L113.085,58.79072401258678L113.785,59.64883062574596L114.57600000000001,60.199776755438876L115.276,59.67372788323294L115.976,58.262223137749544L116.767,58.774785995483384L117.467,59.100053575303804L118.167,60.00701162550182L118.958,57.157784567938876L119.658,59.58196640014647L120.358,59.144189622667085L121.14899999999999,58.08030340406627L121.84899999999999,60.060767067803255L122.54899999999999,59.9549537234836L123.34,58.13019222683374L124.04,59.3140379587809L124.74000000000001,61.05609152052135L125.53099999999999,60.159035788642L126.231,61.39352480570473L126.931,56.997838550143754L127.722,63.20480028788246L128.422,57.2288926442464L129.122,57.541240056355775L129.913,58.53599866231279L130.613,56.22545772128633L131.313,62.253611882527636L132.10399999999998,57.90705998738605L132.804,60.15233993530272L133.504,59.58328670925562L134.29500000000002,60.20590676201712L134.995,58.777992460462755L135.695,60.147058698866076L136.486,58.806473414103166L137.186,59.574893315633105L137.886,59.9115721384684L138.677,58.947180642022005L139.377,59.42843331231009L140.077,60.024552875094926L140.868,57.1855110592312L141.568,60.36538124084471L142.268,60.159224404229036L143.059,58.019569185045015L143.75900000000001,59.68306435479056L144.459,60.92651261223685L145.25,60.38735495673282L145.95,59.10203403896753L146.65,58.232327567206454L147.441,60.89595688713919L148.141,58.62700568305118L148.841,58.74856842888724L149.632,58.39830928378633L150.33200000000002,59.01036686367456L151.032,59.435977935791L151.82299999999998,60.91208351982962L152.523,57.415339152018205L153.22299999999998,60.255701276991076L154.014,58.354078928629534L154.714,61.2260341644287L155.41400000000002,57.48116599188907L156.205,57.97599898444278L156.905,59.87092547946504L157.60500000000002,60.74497010972763L158.396,59.887712266710054L159.096,57.84255345662433L159.796,57.982223298814546L160.587,60.027382108900255L161.287,60.22684309217662L161.987,59.23312187194823L162.77800000000002,59.51095263163246L163.478,59.82839266459145L164.178,59.897520277235216L164.969,59.7469107309977L165.66899999999998,58.76526090833873L166.369,60.55192205641002L167.16,56.52299880981444L167.86,59.670332802666536L168.56,61.29393577575682L169.351,59.92703861660425L170.051,60.33463690016002L170.75099999999998,57.5230386522081L171.542,59.915910296969926L172.242,59.511329862806505L172.942,59.63053491380478L173.733,59.43220562405054L174.433,57.01707734002005L175.133,62.01246685451929L175.92399999999998,58.2693905300564L176.624,59.04620382520885L177.32399999999998,59.98890452914766L178.115,57.90847460428871L178.815,59.503785239325595L179.515,59.992771148681626L180.306,60.23608525594072L181.006,61.896845499674455L181.70600000000002,57.34479692247177L182.49699999999999,58.73131010267467L183.197,58.99452315436466L183.897,58.604466120401995L184.688,60.25211758083765L185.388,57.69967714945473L186.088,60.19798490736217L186.87900000000002,61.03034549289278L187.579,59.26424344380693L188.27900000000002,58.10435189141165L189.07,61.280921300252245L189.76999999999998,58.9881102244059L190.47,58.775163226657426L191.261,57.866036097208635L191.961,61.40965143839516L192.661,60.63472429911293L193.452,61.6071319580078L194.15200000000002,59.633081224229585L194.85199999999998,58.61012458801268L195.643,58.78035015530054L196.343,62.4505265553792L197.043,59.022721184624544L197.834,60.64208030700682L198.534,58.427167468600786L199.234,60.10273403591577L200.025,58.225065867106096L200.72500000000002,59.030265808105455L201.42499999999998,62.717417611016145L202.21599999999998,59.66986126369898L202.916,60.80966525607637L203.61599999999999,58.758659362792955L204.407,57.4996503194173L205.107,63.09361139933266L205.80700000000002,57.23634295993379L206.598,60.13659053378633L207.29799999999997,58.69726498921709L207.998,58.153769175211565L208.789,60.452993181016694L209.489,60.61633427937822L210.189,56.96303897433809L210.98,59.435412089029924L211.68,57.76946491665308L212.38,60.4848692152235L213.17100000000002,57.49003092447914L213.87099999999998,59.54810990227591L214.571,60.48185136583115L215.362,57.60206858317055L216.06199999999998,59.98588667975528L216.762,57.62045860290526L217.553,58.733101950751376L218.25300000000001,59.90336736043291L218.953,59.87101978725855L219.74400000000003,61.01836840311684L220.444,58.011553022596544L221.14399999999998,58.46055242750377L221.935,58.95604557461206L222.635,58.07907740275063L223.335,61.21396276685924L224.126,57.48361799452037L224.82600000000002,58.334840138753236L225.526,61.073255538940415L226.31699999999998,59.179932276407854L227.017,60.9854549831814L227.71699999999998,56.145673327975786L228.508,58.02220980326332L229.208,59.248305426703524L229.90800000000002,59.10043080647783L230.699,59.61289935641817L231.399,58.68500497606064L232.09900000000002,59.245476192898195L232.89,59.62393336825899L233.59,57.27189699808754L234.29,59.5404709710015L235.081,58.88672934638126L235.781,58.665483262803804L236.481,57.102614508734774L237.27200000000002,58.09991942511661L237.972,58.75611305236815L238.67200000000003,59.009046554565415L239.463,56.11332575480141L240.16299999999998,54.697199927435946L240.863,63.26044188605411L241.654,55.65668741861977L242.354,62.35536999172632L243.054,58.30824534098305L243.845,60.47883351643877L244.54500000000002,61.07844246758353L245.24499999999998,64.11072095235185L246.036,62.56831698947481L246.736,63.69812435573999L247.436,64.68779034084741L248.227,64.82067002190482L248.927,63.54298803541393L249.627,64.72711669074161L250.418,65.1371669769287L251.11800000000002,62.10649172465004L251.81799999999998,66.74502054850258L252.60899999999998,61.135875913831896L253.309,66.70805189344615L254.009,64.82547971937389" style="fill: none;" fill="none"></path></g></g></g></g></g></g><g transform="translate(50, 178)" clip-path="url(#clip_1)"><clipPath id="clip_1"><rect width="280" height="22"></rect></clipPath><g><g><line x1="0" y1="0" x2="0" y2="5" style="visibility: inherit;" fill="rgb(0, 0, 0)" stroke="rgb(204, 204, 204)" stroke-width="1px"></line><line x1="35" y1="0" x2="35" y2="5" style="visibility: inherit;" fill="rgb(0, 0, 0)" stroke="rgb(204, 204, 204)" stroke-width="1px"></line><line x1="70" y1="0" x2="70" y2="5" style="visibility: inherit;" fill="rgb(0, 0, 0)" stroke="rgb(204, 204, 204)" stroke-width="1px"></line><line x1="105" y1="0" x2="105" y2="5" style="visibility: inherit;" fill="rgb(0, 0, 0)" stroke="rgb(204, 204, 204)" stroke-width="1px"></line><line x1="140" y1="0" x2="140" y2="5" style="visibility: inherit;" fill="rgb(0, 0, 0)" stroke="rgb(204, 204, 204)" stroke-width="1px"></line><line x1="175" y1="0" x2="175" y2="5" style="visibility: inherit;" fill="rgb(0, 0, 0)" stroke="rgb(204, 204, 204)" stroke-width="1px"></line><line x1="210" y1="0" x2="210" y2="5" style="visibility: inherit;" fill="rgb(0, 0, 0)" stroke="rgb(204, 204, 204)" stroke-width="1px"></line><line x1="245" y1="0" x2="245" y2="5" style="visibility: inherit;" fill="rgb(0, 0, 0)" stroke="rgb(204, 204, 204)" stroke-width="1px"></line><line x1="280" y1="0" x2="280" y2="5" style="visibility: inherit;" fill="rgb(0, 0, 0)" stroke="rgb(204, 204, 204)" stroke-width="1px"></line></g><g transform="translate(0, 8)"><text x="0" y="0" dx="0em" dy="0.95em" style="text-anchor: middle; visibility: hidden; font-family: &quot;Helvetica Neue&quot;, sans-serif; font-size: 12px; font-weight: 200;" fill="rgb(50, 49, 63)" stroke="none" stroke-width="1px">-5k</text><text x="35" y="0" dx="0em" dy="0.95em" style="text-anchor: middle; visibility: inherit; font-family: &quot;Helvetica Neue&quot;, sans-serif; font-size: 12px; font-weight: 200;" fill="rgb(50, 49, 63)" stroke="none" stroke-width="1px">0</text><text x="70" y="0" dx="0em" dy="0.95em" style="text-anchor: middle; visibility: inherit; font-family: &quot;Helvetica Neue&quot;, sans-serif; font-size: 12px; font-weight: 200;" fill="rgb(50, 49, 63)" stroke="none" stroke-width="1px">5k</text><text x="105" y="0" dx="0em" dy="0.95em" style="text-anchor: middle; visibility: inherit; font-family: &quot;Helvetica Neue&quot;, sans-serif; font-size: 12px; font-weight: 200;" fill="rgb(50, 49, 63)" stroke="none" stroke-width="1px">10k</text><text x="140" y="0" dx="0em" dy="0.95em" style="text-anchor: middle; visibility: inherit; font-family: &quot;Helvetica Neue&quot;, sans-serif; font-size: 12px; font-weight: 200;" fill="rgb(50, 49, 63)" stroke="none" stroke-width="1px">15k</text><text x="175" y="0" dx="0em" dy="0.95em" style="text-anchor: middle; visibility: inherit; font-family: &quot;Helvetica Neue&quot;, sans-serif; font-size: 12px; font-weight: 200;" fill="rgb(50, 49, 63)" stroke="none" stroke-width="1px">20k</text><text x="210" y="0" dx="0em" dy="0.95em" style="text-anchor: middle; visibility: inherit; font-family: &quot;Helvetica Neue&quot;, sans-serif; font-size: 12px; font-weight: 200;" fill="rgb(50, 49, 63)" stroke="none" stroke-width="1px">25k</text><text x="245" y="0" dx="0em" dy="0.95em" style="text-anchor: middle; visibility: inherit; font-family: &quot;Helvetica Neue&quot;, sans-serif; font-size: 12px; font-weight: 200;" fill="rgb(50, 49, 63)" stroke="none" stroke-width="1px">30k</text><text x="280" y="0" dx="0em" dy="0.95em" style="text-anchor: middle; visibility: hidden; font-family: &quot;Helvetica Neue&quot;, sans-serif; font-size: 12px; font-weight: 200;" fill="rgb(50, 49, 63)" stroke="none" stroke-width="1px">35k</text></g><line x1="0" y1="0" x2="280" y2="0" fill="rgb(0, 0, 0)" stroke="rgb(204, 204, 204)" stroke-width="1px"></line></g></g></g></g></svg>