<svg viewBox="0 0 330 200" xmlns="http://www.w3.org/2000/svg"><g><g><g><g><g><line x1="40" y1="178" x2="35" y2="178" style="visibility: inherit;" fill="rgb(0, 0, 0)" stroke="rgb(204, 204, 204)" stroke-width="1px"></line><line x1="40" y1="160.2" x2="35" y2="160.2" style="visibility: inherit;" fill="rgb(0, 0, 0)" stroke="rgb(204, 204, 204)" stroke-width="1px"></line><line x1="40" y1="142.4" x2="35" y2="142.4" style="visibility: inherit;" fill="rgb(0, 0, 0)" stroke="rgb(204, 204, 204)" stroke-width="1px"></line><line x1="40" y1="124.6" x2="35" y2="124.6" style="visibility: inherit;" fill="rgb(0, 0, 0)" stroke="rgb(204, 204, 204)" stroke-width="1px"></line><line x1="40" y1="106.80000000000001" x2="35" y2="106.80000000000001" style="visibility: inherit;" fill="rgb(0, 0, 0)" stroke="rgb(204, 204, 204)" stroke-width="1px"></line><line x1="40" y1="89" x2="35" y2="89" style="visibility: inherit;" fill="rgb(0, 0, 0)" stroke="rgb(204, 204, 204)" stroke-width="1px"></line><line x1="40" y1="71.20000000000002" x2="35" y2="71.20000000000002" style="visibility: inherit;" fill="rgb(0, 0, 0)" stroke="rgb(204, 204, 204)" stroke-width="1px"></line><line x1="40" y1="53.400000000000006" x2="35" y2="53.400000000000006" style="visibility: inherit;" fill="rgb(0, 0, 0)" stroke="rgb(204, 204, 204)" stroke-width="1px"></line><line x1="40" y1="35.599999999999994" x2="35" y2="35.599999999999994" style="visibility: inherit;" fill="rgb(0, 0, 0)" stroke="rgb(204, 204, 204)" stroke-width="1px"></line><line x1="40" y1="17.80000000000001" x2="35" y2="17.80000000000001" style="visibility: inherit;" fill="rgb(0, 0, 0)" stroke="rgb(204, 204, 204)" stroke-width="1px"></line><line x1="40" y1="0" x2="35" y2="0" style="visibility: inherit;" fill="rgb(0, 0, 0)" stroke="rgb(204, 204, 204)" stroke-width="1px"></line></g><g transform="translate(30, 0)"><text x="0" y="178" dx="0em" dy="0.3em" style="text-anchor: end; visibility: hidden; font-family: &quot;Helvetica Neue&quot;, sans-serif; font-size: 12px; font-weight: 200;" fill="rgb(50, 49, 63)" stroke="none" stroke-width="1px">0.8</text><text x="0" y="160.2" dx="0em" dy="0.3em" style="text-anchor: end; visibility: inherit; font-family: &quot;Helvetica Neue&quot;, sans-serif; font-size: 12px; font-weight: 200;" fill="rgb(50, 49, 63)" stroke="none" stroke-width="1px">0.9</text><text x="0" y="142.4" dx="0em" dy="0.3em" style="text-anchor: end; visibility: hidden; font-family: &quot;Helvetica Neue&quot;, sans-serif; font-size: 12px; font-weight: 200;" fill="rgb(50, 49, 63)" stroke="none" stroke-width="1px">1</text><text x="0" y="124.6" dx="0em" dy="0.3em" style="text-anchor: end; visibility: inherit; font-family: &quot;Helvetica Neue&quot;, sans-serif; font-size: 12px; font-weight: 200;" fill="rgb(50, 49, 63)" stroke="none" stroke-width="1px">1.1</text><text x="0" y="106.80000000000001" dx="0em" dy="0.3em" style="text-anchor: end; visibility: hidden; font-family: &quot;Helvetica Neue&quot;, sans-serif; font-size: 12px; font-weight: 200;" fill="rgb(50, 49, 63)" stroke="none" stroke-width="1px">1.2</text><text x="0" y="89" dx="0em" dy="0.3em" style="text-anchor: end; visibility: inherit; font-family: &quot;Helvetica Neue&quot;, sans-serif; font-size: 12px; font-weight: 200;" fill="rgb(50, 49, 63)" stroke="none" stroke-width="1px">1.3</text><text x="0" y="71.20000000000002" dx="0em" dy="0.3em" style="text-anchor: end; visibility: hidden; font-family: &quot;Helvetica Neue&quot;, sans-serif; font-size: 12px; font-weight: 200;" fill="rgb(50, 49, 63)" stroke="none" stroke-width="1px">1.4</text><text x="0" y="53.400000000000006" dx="0em" dy="0.3em" style="text-anchor: end; visibility: inherit; font-family: &quot;Helvetica Neue&quot;, sans-serif; font-size: 12px; font-weight: 200;" fill="rgb(50, 49, 63)" stroke="none" stroke-width="1px">1.5</text><text x="0" y="35.599999999999994" dx="0em" dy="0.3em" style="text-anchor: end; visibility: hidden; font-family: &quot;Helvetica Neue&quot;, sans-serif; font-size: 12px; font-weight: 200;" fill="rgb(50, 49, 63)" stroke="none" stroke-width="1px">1.6</text><text x="0" y="17.80000000000001" dx="0em" dy="0.3em" style="text-anchor: end; visibility: inherit; font-family: &quot;Helvetica Neue&quot;, sans-serif; font-size: 12px; font-weight: 200;" fill="rgb(50, 49, 63)" stroke="none" stroke-width="1px">1.7</text><text x="0" y="0" dx="0em" dy="0.3em" style="text-anchor: end; visibility: hidden; font-family: &quot;Helvetica Neue&quot;, sans-serif; font-size: 12px; font-weight: 200;" fill="rgb(50, 49, 63)" stroke="none" stroke-width="1px">1.8</text></g><line x1="40" y1="0" x2="40" y2="178" fill="rgb(0, 0, 0)" stroke="rgb(204, 204, 204)" stroke-width="1px"></line></g></g><g transform="translate(40, 0)" clip-path="url(#clip_0)"><clipPath id="clip_0"><rect width="290" height="178"></rect></clipPath><g><g><g><line x1="0" y1="0" x2="0" y2="178" fill="rgb(0, 0, 0)" stroke="rgb(60, 60, 60)" stroke-width="1px" opacity="0.25"></line><line x1="36.25" y1="0" x2="36.25" y2="178" fill="rgb(0, 0, 0)" stroke="rgb(60, 60, 60)" stroke-width="1px" opacity="0.25"></line><line x1="72.5" y1="0" x2="72.5" y2="178" fill="rgb(0, 0, 0)" stroke="rgb(60, 60, 60)" stroke-width="1px" opacity="0.25"></line><line x1="108.75" y1="0" x2="108.75" y2="178" fill="rgb(0, 0, 0)" stroke="rgb(60, 60, 60)" stroke-width="1px" opacity="0.25"></line><line x1="145" y1="0" x2="145" y2="178" fill="rgb(0, 0, 0)" stroke="rgb(60, 60, 60)" stroke-width="1px" opacity="0.25"></line><line x1="181.25" y1="0" x2="181.25" y2="178" fill="rgb(0, 0, 0)" stroke="rgb(60, 60, 60)" stroke-width="1px" opacity="0.25"></line><line x1="217.5" y1="0" x2="217.5" y2="178" fill="rgb(0, 0, 0)" stroke="rgb(60, 60, 60)" stroke-width="1px" opacity="0.25"></line><line x1="253.75" y1="0" x2="253.75" y2="178" fill="rgb(0, 0, 0)" stroke="rgb(60, 60, 60)" stroke-width="1px" opacity="0.25"></line><line x1="290" y1="0" x2="290" y2="178" fill="rgb(0, 0, 0)" stroke="rgb(60, 60, 60)" stroke-width="1px" opacity="0.25"></line></g><g><line x1="0" y1="178" x2="290" y2="178" fill="rgb(0, 0, 0)" stroke="rgb(60, 60, 60)" stroke-width="1px" opacity="0.25"></line><line x1="0" y1="160.2" x2="290" y2="160.2" fill="rgb(0, 0, 0)" stroke="rgb(60, 60, 60)" stroke-width="1px" opacity="0.25"></line><line x1="0" y1="142.4" x2="290" y2="142.4" fill="rgb(0, 0, 0)" stroke="rgb(60, 60, 60)" stroke-width="1px" opacity="0.25"></line><line x1="0" y1="124.6" x2="290" y2="124.6" fill="rgb(0, 0, 0)" stroke="rgb(60, 60, 60)" stroke-width="1px" opacity="0.25"></line><line x1="0" y1="106.80000000000001" x2="290" y2="106.80000000000001" fill="rgb(0, 0, 0)" stroke="rgb(60, 60, 60)" stroke-width="1px" opacity="0.25"></line><line x1="0" y1="89" x2="290" y2="89" fill="rgb(0, 0, 0)" stroke="rgb(60, 60, 60)" stroke-width="1px" opacity="0.25"></line><line x1="0" y1="71.20000000000002" x2="290" y2="71.20000000000002" fill="rgb(0, 0, 0)" stroke="rgb(60, 60, 60)" stroke-width="1px" opacity="0.25"></line><line x1="0" y1="53.400000000000006" x2="290" y2="53.400000000000006" fill="rgb(0, 0, 0)" stroke="rgb(60, 60, 60)" stroke-width="1px" opacity="0.25"></line><line x1="0" y1="35.599999999999994" x2="290" y2="35.599999999999994" fill="rgb(0, 0, 0)" stroke="rgb(60, 60, 60)" stroke-width="1px" opacity="0.25"></line><line x1="0" y1="17.80000000000001" x2="290" y2="17.80000000000001" fill="rgb(0, 0, 0)" stroke="rgb(60, 60, 60)" stroke-width="1px" opacity="0.25"></line><line x1="0" y1="0" x2="290" y2="0" fill="rgb(0, 0, 0)" stroke="rgb(60, 60, 60)" stroke-width="1px" opacity="0.25"></line></g></g></g><g><g><line x1="0" y1="320.4" x2="290" y2="320.4" fill="rgb(0, 0, 0)" stroke="rgb(153, 153, 153)" stroke-width="1.5px"></line></g></g><g><g><line x1="36.25" y1="0" x2="36.25" y2="178" fill="rgb(0, 0, 0)" stroke="rgb(153, 153, 153)" stroke-width="1.5px"></line></g></g><g><g><g><g><g><path stroke="rgb(0, 153, 136)" stroke-width="2px" d="M36.975,29.286652469634987L37.7,29.15339555740357L38.425000000000004,29.109051647964776L39.24425,29.179221417272828L39.96925,29.08232762408207L40.694250000000004,29.044518180033066L41.5135,29.06519647179718L42.2385,29.022201833375533L42.9635,28.993390839940446L43.78275,28.9928831262132L44.50775,29.055226303352327L45.23275,29.05949152108235L46.052,29.042709928623935L46.777,29.01370409903828L47.502,29.031818928403908L48.32125,28.975873803525246L49.04625,29.035884114080886L49.77125,28.9924223557438L50.5905,29.088918003219362L51.3155,29.220954410977555L52.0405,28.834621018228688L52.85975,28.79635703390531L53.58475,28.87102527831314L54.30975,28.999846001998975L55.129,28.920480095133797L55.854,29.09990709560236L56.579,29.103962110480154L57.39825,29.2602772379212L58.12325,29.161378384407243L58.84825,29.010066342743755L59.6675,29.05881696894258L60.3925,29.020055383663987L61.1175,29.161111854030025L61.936749999999996,29.010373277227643L62.66175,29.150787128693025L63.38675,29.19480373290054L64.206,29.38327786697485L64.931,29.14673694864615L65.65599999999999,29.256515184263833L66.47525,29.24623895597307L67.20025,29.331231132288536L67.92524999999999,29.248417825146248L68.7445,29.233054105422696L69.46950000000001,29.373448586477394L70.19449999999999,29.227354521744303L71.01375,29.403725010878674L71.73875000000001,29.315577863884755L72.46375,29.29815967990885L73.283,29.371601210320563L74.008,29.381732298305423L74.73299999999999,29.37838960252452L75.55225,29.5169912467141L76.27725000000001,29.507661750897086L77.00225,29.24972469030851L77.8215,29.336165952796023L78.5465,29.259229841300396L79.27149999999999,29.41915805248533L80.09075,29.393715385843024L80.81575000000001,29.407817232757083L81.54075,29.33783500441865L82.36,29.257048384242978L83.085,29.37291528695451L83.80999999999999,29.353178760490522L84.62925,29.409459136177105L85.35425000000001,29.397079728990235L86.07925,29.533993934958858L86.89850000000001,29.483140177351032L87.62349999999999,29.486391999019247L88.34849999999999,29.3454441509802L89.16775,29.089491775164504L89.89275,29.352573124485872L90.61775,29.4686200046049L91.43700000000001,29.532748102158678L92.162,29.467717441922673L92.88699999999999,29.440861921910198L93.70625,29.499262140633903L94.43125,29.48307899382246L95.15625,29.47092464772777L95.97550000000001,29.561520700501887L96.7005,29.732533300428116L97.42550000000001,29.438323843782257L98.24475,29.547731855097453L98.96975,29.560642572988883L99.69475,29.534675853699298L100.51400000000001,29.498979969769636L101.239,29.596848595112505L101.96400000000001,29.692788341027466L102.78325,29.905278202522965L103.50825,30.34986415662118L104.23325,31.43759713624567L105.05250000000001,34.38157679828794L105.7775,37.640060065941725L106.50250000000001,41.204494604323344L107.32175,44.62784532597905L108.04675,49.16130855972315L108.77175,56.783458452789446L109.59100000000001,65.14018373332524L110.316,71.58853010083502L111.04100000000001,76.68402775135797L111.86025,80.76423865322568L112.58525,85.65628847696959L113.31025,89.45083872567761L114.12950000000001,92.79439655358286L114.8545,96.3672760547083L115.57950000000001,99.25534970646389L116.39874999999999,101.74032307079608L117.12375,104.16520038849818L117.84875,106.13115430597487L118.668,107.90972920849337L119.393,109.31863144752035L120.11800000000001,110.58303607294947L120.93724999999999,111.54162363046402L121.66225,112.58702877422569L122.38725,113.84433091199634L123.2065,114.91106809446951L123.9315,115.74036068242634L124.65650000000001,116.01425983978416L125.47574999999999,116.84808375878994L126.20075,118.09998104598444L126.92575,118.73141736523107L127.745,119.70121839246629L128.47,120.15312683702396L129.195,120.67069533896975L130.01425,120.99858530183158L130.73925,121.60078526389316L131.46425,121.91728168995212L132.2835,122.6859134666385L133.0085,123.16893138839377L133.7335,123.78102016421302L134.55275,124.12303100569335L135.27775,124.27058904256396L136.00275,125.42380415490851L136.822,125.7615499299263L137.547,125.97382244834274L138.272,126.38918215613944L139.09125,126.56170311082232L139.81625,127.43671379154222L140.54125,127.97502891579447L141.3605,128.20947428917395L142.0855,128.86442831740086L142.8105,128.9420317005235L143.62975,129.40617166466225L144.35475,129.22465617720314L145.07975000000002,129.8712287000658L145.899,129.74324728321088L146.62400000000002,130.35603324694068L147.349,130.9711637599625L148.16825,131.12938210149753L148.89325,131.43799098956674L149.61825,131.8944656981712L150.4375,132.11222984157115L151.1625,132.16043879605598L151.88750000000002,132.3629461504058L152.70675,132.80633815151668L153.43175,133.0444827653302L154.15675000000002,133.3890288315614L154.976,134.0244872452259L155.70100000000002,134.08825435885433L156.426,134.0968670859852L157.24525,134.50376611798515L157.97025,134.558426090774L158.69525,135.00859630387845L159.5145,135.16476801563397L160.2395,135.463101036126L160.96450000000002,135.85187438891805L161.78375,136.3076265178113L162.50875,136.41951439869337L163.23375000000001,136.69627637679537L164.053,137.08887880215144L164.77800000000002,137.1237994835919L165.503,136.83125864065565L166.32225,136.91138370154422L167.04725,137.53063011716677L167.77224999999999,137.68623386711403L168.5915,137.64571960264757L169.3165,138.32997284587807L170.0415,138.22727348718996L170.86075,138.3447528595564L171.58575,139.04736204593408L172.31075,138.96149032860419L173.13,139.43363301247012L173.85500000000002,139.22348610096964L174.57999999999998,139.05090232571237L175.39925,139.1787692396657L176.12425,139.47132314734557L176.84924999999998,139.98791679795323L177.6685,140.02315155658565L178.3935,140.51649719234373L179.1185,140.46927041623633L179.93775,140.65282981642267L180.66275,140.7473820367347L181.38775,140.3984776305491L182.207,140.80504504009096L182.93200000000002,141.1845765159369L183.65699999999998,141.4442091587687L184.47625000000002,141.46795406124022L185.20125,141.50556764472145L185.92624999999998,141.7763755981244L186.7455,142.38925175810562L187.4705,141.5911492260975L188.1955,142.01080002264277L189.01475,142.21783485100323L189.73975000000002,142.30501117518935L190.46475,142.4753299701893L191.284,142.77994443825983L192.00900000000001,142.60589863927424L192.73399999999998,142.9434130410627L193.55325000000002,142.70872442604752L194.27824999999999,142.96337872911485L195.00325,142.9671187863886L195.8225,143.07375306046842L196.54749999999999,143.42633244846368L197.2725,143.45473670395677L198.09175,143.69579091687478L198.81675,143.93165350329565L199.54175,144.2734511016112L200.361,144.07324616183647L201.086,144.38501139682418L201.81099999999998,144.55468772531682L202.63025000000002,144.59048466850004L203.35524999999998,144.80877989869524L204.08025,144.45310194457295L204.8995,144.31566009977297L205.62449999999998,144.602346346729L206.3495,144.60605970737518L207.16875,144.95865155051462L207.89375,145.10414687627738L208.61875,145.3058116044652L209.438,145.10841129815884L210.163,144.96003074763004L210.88799999999998,145.41142709802259L211.70725000000002,145.36891170353096L212.43224999999998,145.62083571917057L213.15725,145.60930211166286L213.97650000000002,145.7654773737177L214.70149999999998,145.92978747517972L215.4265,146.1668928231663L216.24575,146.41881713425317L216.97075,146.44342433664323L217.69575,146.22695820840073L218.515,146.5826684171669L219.24,146.49759481517748L219.96499999999997,146.46050443511174L220.78425000000001,146.6015238753615L221.50924999999998,146.59963313053L222.23425,146.7133882099983L223.0535,147.06972233144023L223.77849999999998,146.6838582115625L224.5035,147.13295578463402L225.32274999999998,147.01550245942786L226.04775,147.38562704480955L226.77275,147.3310876068906L227.592,147.12897913083054L228.317,147.4187097670115L229.04199999999997,147.30085555800662L229.86125,147.69249783568898L230.58624999999998,147.73537681229902L231.31125,147.85232576923366L232.1305,147.7558942961502L232.8555,147.8616401009445L233.5805,147.7394403345993L234.39974999999998,147.86199116036957L235.12475,148.07261925295393L235.84975,148.1459819254601L236.669,148.1666923008754L237.394,148.37665704503024L238.11900000000003,148.40845635661103L238.93825,148.43604486422907L239.66324999999998,148.11136690877183L240.38825,148.34521027625982L241.2075,148.46223453176847L241.9325,148.65284712965985L242.6575,148.5167256442052L243.47674999999998,148.32853634401215L244.20175,148.2309982350114L244.92675,148.6475999194767L245.746,148.72978878011622L246.471,148.71013952249476L247.19600000000003,149.0897178802144L248.01525,149.10301463086913L248.74024999999997,148.81968628096288L249.46525,148.96845338539902L250.2845,149.02439093230143L251.0095,149.3927508427976L251.7345,149.5133869882988L252.55374999999998,149.77962353209062L253.27875,149.68760325896386L254.00375,149.71912267200736L254.823,149.73114230628363L255.548,149.6557305574152L256.273,149.67141247270902L257.09225,149.64358607577324L257.81725,149.56137367038156L258.54225,149.59063385455744L259.3615,149.68247432785594L260.0865,149.9075830273471L260.81149999999997,150.05250671223652L261.63075,150.13393118569763L262.35575,150.2611655485005L263.08074999999997,150.0272170216662" style="fill: none;" fill="none"></path></g></g></g></g><g opacity="0.2"><g><g><g><path stroke="rgb(0, 153, 136)" stroke-width="2px" d="M36.975,29.286652469635015L37.7,29.073441410064703L38.425000000000004,29.06648149490357L39.24425,29.26174106597901L39.96925,28.955823087692266L40.694250000000004,28.992214107513433L41.5135,29.094766759872442L42.2385,28.959515237808233L42.9635,28.950900220870977L43.78275,28.992129230499273L44.50775,29.14817562103272L45.23275,29.06586613655091L46.052,29.01759233474732L46.777,28.970252180099493L47.502,29.058969879150396L48.32125,28.89199557304383L49.04625,29.12587418556214L49.77125,28.927240753173834L50.5905,29.233646774291998L51.3155,29.41899695396424L52.0405,28.255142116546637L52.85975,28.738962316513067L53.58475,28.983026170730597L54.30975,29.193075561523443L55.129,28.801431798934942L55.854,29.369046831130987L56.579,29.11004462242127L57.39825,29.49474968910218L58.12325,29.01303019523621L58.84825,28.78309836387635L59.6675,29.13194289207459L60.3925,28.961913013458258L61.1175,29.372696542739874L61.936749999999996,28.78426542282105L62.66175,29.361407899856573L63.38675,29.260828638076788L64.206,29.665989065170294L64.931,28.791925573349005L65.65599999999999,29.421182537078863L66.47525,29.230824613571173L67.20025,29.458719396591192L67.92524999999999,29.124197864532476L68.7445,29.210008525848394L69.46950000000001,29.584040307998663L70.19449999999999,29.008213424682623L71.01375,29.668280744552618L71.73875000000001,29.183357143402105L72.46375,29.27203240394593L73.283,29.481763505935675L74.008,29.3969289302826L74.73299999999999,29.373375558853155L75.55225,29.724893712997442L76.27725000000001,29.493667507171637L77.00225,28.862819099426275L77.8215,29.465827846527105L78.5465,29.143825674057013L79.27149999999999,29.6590503692627L80.09075,29.355551385879522L80.81575000000001,29.428970003128057L81.54075,29.232861661911016L82.36,29.135868453979498L83.085,29.546715641021734L83.80999999999999,29.323573970794683L84.62925,29.493879699707037L85.35425000000001,29.378510618209845L86.07925,29.73936524391175L86.89850000000001,29.406859540939337L87.62349999999999,29.491269731521612L88.34849999999999,29.134022378921514L89.16775,28.705563211441046L89.89275,29.747195148468023L90.61775,29.64269032478333L91.43700000000001,29.628940248489386L92.162,29.37017145156861L92.88699999999999,29.400578641891485L93.70625,29.586862468719488L94.43125,29.458804273605352L95.15625,29.45269312858582L95.97550000000001,29.69741477966309L96.7005,29.98905220031739L97.42550000000001,28.997009658813482L98.24475,29.711843872070318L98.96975,29.580008649826055L99.69475,29.49572577476502L100.51400000000001,29.445436143875128L101.239,29.743651533126837L101.96400000000001,29.836697959899908L102.78325,30.22401299476624L103.50825,31.01674308776856L104.23325,33.06919660568238L105.05250000000001,38.797546291351324L105.7775,42.52778496742249L106.50250000000001,46.55114641189576L107.32175,49.76287140846253L108.04675,55.96150341033936L108.77175,68.21668329238892L109.59100000000001,77.67527165412903L110.316,81.26104965209962L111.04100000000001,84.32727422714234L111.86025,86.88455500602723L112.58525,92.99436321258545L113.31025,95.14266409873963L114.12950000000001,97.80973329544068L114.8545,101.72659530639649L115.57950000000001,103.5874601840973L116.39874999999999,105.46778311729432L117.12375,107.80251636505128L117.84875,109.08008518218995L118.668,110.57759156227112L119.393,111.4319848060608L120.11800000000001,112.47964301109315L120.93724999999999,112.97950496673585L121.66225,114.15513648986817L122.38725,115.73028411865235L123.2065,116.51117386817933L123.9315,116.98429956436158L124.65650000000001,116.42510857582093L125.47574999999999,118.09881963729859L126.20075,119.97782697677613L126.92575,119.67857184410096L127.745,121.1559199333191L128.47,120.83098950386048L129.195,121.44704809188843L130.01425,121.49042024612427L130.73925,122.50408520698548L131.46425,122.39202632904053L132.2835,123.8388611316681L133.0085,123.89345827102662L133.7335,124.6991533279419L134.55275,124.63604726791382L135.27775,124.49192609786988L136.00275,127.1536268234253L136.822,126.26816859245301L137.547,126.29223122596741L138.272,127.01222171783448L139.09125,126.82048454284669L139.81625,128.74922981262208L140.54125,128.78250160217286L141.3605,128.56114234924317L142.0855,129.84685935974122L142.8105,129.05843677520753L143.62975,130.10238161087037L144.35475,128.9523829460144L145.07975000000002,130.84108748435975L145.899,129.55127515792847L146.62400000000002,131.2752121925354L147.349,131.89385952949524L148.16825,131.36670961380005L148.89325,131.90090432167054L149.61825,132.5791777610779L150.4375,132.43887605667115L151.1625,132.2327522277832L151.88750000000002,132.66670718193055L152.70675,133.471426153183L153.43175,133.40169968605042L154.15675000000002,133.9058479309082L154.976,134.97767486572266L155.70100000000002,134.18390502929688L156.426,134.10978617668152L157.24525,135.1141146659851L157.97025,134.64041604995728L158.69525,135.68385162353516L159.5145,135.39902558326722L160.2395,135.91060056686402L160.96450000000002,136.43503441810608L161.78375,136.99125471115113L162.50875,136.58734622001649L163.23375000000001,137.11141934394837L164.053,137.67778244018555L164.77800000000002,137.17618050575257L165.503,136.39244737625123L166.32225,137.0315712928772L167.04725,138.4594997406006L167.77224999999999,137.91963949203492L168.5915,137.58494820594788L169.3165,139.35635271072388L170.0415,138.07322444915772L170.86075,138.52097191810608L171.58575,140.1012758255005L172.31075,138.83268275260926L173.13,140.14184703826905L173.85500000000002,138.90826573371888L174.57999999999998,138.79202666282654L175.39925,139.3705696105957L176.12425,139.91015400886536L176.84924999999998,140.76280727386475L177.6685,140.0760036945343L178.3935,141.25651564598084L179.1185,140.3984302520752L179.93775,140.92816891670228L180.66275,140.88921036720276L181.38775,139.87512102127076L182.207,141.4148961544037L182.93200000000002,141.75387372970582L183.65699999999998,141.83365812301636L184.47625000000002,141.50357141494752L185.20125,141.56198801994324L185.92624999999998,142.18258752822877L186.7455,143.3085659980774L187.4705,140.39399542808533L188.1955,142.64027621746064L189.01475,142.528387093544L189.73975000000002,142.4357756614685L190.46475,142.73080816268921L191.284,143.2368661403656L192.00900000000001,142.3448299407959L192.73399999999998,143.44968464374543L193.55325000000002,142.3566915035248L194.27824999999999,143.34536018371583L195.00325,142.9727288722992L195.8225,143.23370447158814L196.54749999999999,143.95520153045655L197.2725,143.49734308719636L198.09175,144.05737223625184L198.81675,144.28544738292695L199.54175,144.78614749908448L200.361,143.77293875217438L201.086,144.85265924930573L201.81099999999998,144.80920221805573L202.63025000000002,144.64418008327485L203.35524999999998,145.13622274398804L204.08025,143.9195850133896L204.8995,144.10949733257294L205.62449999999998,145.0323757171631L206.3495,144.61162974834443L207.16875,145.4875393152237L207.89375,145.32238986492158L208.61875,145.60830869674683L209.438,144.81231083869935L210.163,144.73745992183686L210.88799999999998,146.08852162361146L211.70725000000002,145.30513861179352L212.43224999999998,145.99872174263L213.15725,145.5920017004013L213.97650000000002,145.99974026679993L214.70149999999998,146.17625262737275L215.4265,146.52255084514618L216.24575,146.7967036008835L216.97075,146.48033514022828L217.69575,145.902259016037L218.515,147.11623373031617L219.24,146.3699844121933L219.96499999999997,146.40486886501313L220.78425000000001,146.8130530357361L221.50924999999998,146.59679701328278L222.23425,146.88402082920075L223.0535,147.60422351360322L223.77849999999998,146.10506203174592L224.5035,147.80660214424134L225.32274999999998,146.83932247161866L226.04775,147.94081392288209L226.77275,147.2492784500122L227.592,146.82581641674042L228.317,147.85330572128296L229.04199999999997,147.1240742444992L229.86125,148.27996125221253L230.58624999999998,147.79969527721406L231.31125,148.02774920463563L232.1305,147.61124708652497L232.8555,148.020258808136L233.5805,147.5561406850815L234.39974999999998,148.04581739902497L235.12475,148.38856139183045L235.84975,148.25602593421937L236.669,148.19775786399842L237.394,148.69160416126252L238.11900000000003,148.45615532398224L238.93825,148.47742762565613L239.66324999999998,147.62434997558594L240.38825,148.69597532749177L241.2075,148.63777091503144L241.9325,148.9387660264969L242.6575,148.31254341602326L243.47674999999998,148.04625239372254L244.20175,148.08469107151032L244.92675,149.27250244617463L245.746,148.85307207107545L246.471,148.68066563606263L247.19600000000003,149.65908541679383L248.01525,149.1229597568512L248.74024999999997,148.39469375610352L249.46525,149.19160404205323L250.2845,149.10829725265503L251.0095,149.94529070854188L251.7345,149.6943412065506L252.55374999999998,150.17897834777833L253.27875,149.5495728492737L254.00375,149.76640179157258L254.823,149.74917175769806L255.548,149.54261293411255L256.273,149.69493534564972L257.09225,149.60184648036957L257.81725,149.438055062294L258.54225,149.63452413082123L259.3615,149.82023503780366L260.0865,150.24524607658387L260.81149999999997,150.26989223957062L261.63075,150.2560678958893L262.35575,150.45201709270478L263.08074999999997,149.6762942314148" style="fill: none;" fill="none"></path></g></g></g></g></g></g><g transform="translate(40, 178)" clip-path="url(#clip_1)"><clipPath id="clip_1"><rect width="290" height="22"></rect></clipPath><g><g><line x1="0" y1="0" x2="0" y2="5" style="visibility: inherit;" fill="rgb(0, 0, 0)" stroke="rgb(204, 204, 204)" stroke-width="1px"></line><line x1="36.25" y1="0" x2="36.25" y2="5" style="visibility: inherit;" fill="rgb(0, 0, 0)" stroke="rgb(204, 204, 204)" stroke-width="1px"></line><line x1="72.5" y1="0" x2="72.5" y2="5" style="visibility: inherit;" fill="rgb(0, 0, 0)" stroke="rgb(204, 204, 204)" stroke-width="1px"></line><line x1="108.75" y1="0" x2="108.75" y2="5" style="visibility: inherit;" fill="rgb(0, 0, 0)" stroke="rgb(204, 204, 204)" stroke-width="1px"></line><line x1="145" y1="0" x2="145" y2="5" style="visibility: inherit;" fill="rgb(0, 0, 0)" stroke="rgb(204, 204, 204)" stroke-width="1px"></line><line x1="181.25" y1="0" x2="181.25" y2="5" style="visibility: inherit;" fill="rgb(0, 0, 0)" stroke="rgb(204, 204, 204)" stroke-width="1px"></line><line x1="217.5" y1="0" x2="217.5" y2="5" style="visibility: inherit;" fill="rgb(0, 0, 0)" stroke="rgb(204, 204, 204)" stroke-width="1px"></line><line x1="253.75" y1="0" x2="253.75" y2="5" style="visibility: inherit;" fill="rgb(0, 0, 0)" stroke="rgb(204, 204, 204)" stroke-width="1px"></line><line x1="290" y1="0" x2="290" y2="5" style="visibility: inherit;" fill="rgb(0, 0, 0)" stroke="rgb(204, 204, 204)" stroke-width="1px"></line></g><g transform="translate(0, 8)"><text x="0" y="0" dx="0em" dy="0.95em" style="text-anchor: middle; visibility: hidden; font-family: &quot;Helvetica Neue&quot;, sans-serif; font-size: 12px; font-weight: 200;" fill="rgb(50, 49, 63)" stroke="none" stroke-width="1px">-5k</text><text x="36.25" y="0" dx="0em" dy="0.95em" style="text-anchor: middle; visibility: inherit; font-family: &quot;Helvetica Neue&quot;, sans-serif; font-size: 12px; font-weight: 200;" fill="rgb(50, 49, 63)" stroke="none" stroke-width="1px">0</text><text x="72.5" y="0" dx="0em" dy="0.95em" style="text-anchor: middle; visibility: inherit; font-family: &quot;Helvetica Neue&quot;, sans-serif; font-size: 12px; font-weight: 200;" fill="rgb(50, 49, 63)" stroke="none" stroke-width="1px">5k</text><text x="108.75" y="0" dx="0em" dy="0.95em" style="text-anchor: middle; visibility: inherit; font-family: &quot;Helvetica Neue&quot;, sans-serif; font-size: 12px; font-weight: 200;" fill="rgb(50, 49, 63)" stroke="none" stroke-width="1px">10k</text><text x="145" y="0" dx="0em" dy="0.95em" style="text-anchor: middle; visibility: inherit; font-family: &quot;Helvetica Neue&quot;, sans-serif; font-size: 12px; font-weight: 200;" fill="rgb(50, 49, 63)" stroke="none" stroke-width="1px">15k</text><text x="181.25" y="0" dx="0em" dy="0.95em" style="text-anchor: middle; visibility: inherit; font-family: &quot;Helvetica Neue&quot;, sans-serif; font-size: 12px; font-weight: 200;" fill="rgb(50, 49, 63)" stroke="none" stroke-width="1px">20k</text><text x="217.5" y="0" dx="0em" dy="0.95em" style="text-anchor: middle; visibility: inherit; font-family: &quot;Helvetica Neue&quot;, sans-serif; font-size: 12px; font-weight: 200;" fill="rgb(50, 49, 63)" stroke="none" stroke-width="1px">25k</text><text x="253.75" y="0" dx="0em" dy="0.95em" style="text-anchor: middle; visibility: inherit; font-family: &quot;Helvetica Neue&quot;, sans-serif; font-size: 12px; font-weight: 200;" fill="rgb(50, 49, 63)" stroke="none" stroke-width="1px">30k</text><text x="290" y="0" dx="0em" dy="0.95em" style="text-anchor: middle; visibility: hidden; font-family: &quot;Helvetica Neue&quot;, sans-serif; font-size: 12px; font-weight: 200;" fill="rgb(50, 49, 63)" stroke="none" stroke-width="1px">35k</text></g><line x1="0" y1="0" x2="290" y2="0" fill="rgb(0, 0, 0)" stroke="rgb(204, 204, 204)" stroke-width="1px"></line></g></g></g></g></svg>