<svg viewBox="0 0 330 200" xmlns="http://www.w3.org/2000/svg"><g><g><g><g><g><line x1="60" y1="158.22222222222226" x2="55" y2="158.22222222222226" style="visibility: inherit;" fill="rgb(0, 0, 0)" stroke="rgb(204, 204, 204)" stroke-width="1px"></line><line x1="60" y1="138.44444444444446" x2="55" y2="138.44444444444446" style="visibility: inherit;" fill="rgb(0, 0, 0)" stroke="rgb(204, 204, 204)" stroke-width="1px"></line><line x1="60" y1="118.66666666666667" x2="55" y2="118.66666666666667" style="visibility: inherit;" fill="rgb(0, 0, 0)" stroke="rgb(204, 204, 204)" stroke-width="1px"></line><line x1="60" y1="98.88888888888893" x2="55" y2="98.88888888888893" style="visibility: inherit;" fill="rgb(0, 0, 0)" stroke="rgb(204, 204, 204)" stroke-width="1px"></line><line x1="60" y1="79.11111111111113" x2="55" y2="79.11111111111113" style="visibility: inherit;" fill="rgb(0, 0, 0)" stroke="rgb(204, 204, 204)" stroke-width="1px"></line><line x1="60" y1="59.33333333333334" x2="55" y2="59.33333333333334" style="visibility: inherit;" fill="rgb(0, 0, 0)" stroke="rgb(204, 204, 204)" stroke-width="1px"></line><line x1="60" y1="39.5555555555556" x2="55" y2="39.5555555555556" style="visibility: inherit;" fill="rgb(0, 0, 0)" stroke="rgb(204, 204, 204)" stroke-width="1px"></line><line x1="60" y1="19.7777777777778" x2="55" y2="19.7777777777778" style="visibility: inherit;" fill="rgb(0, 0, 0)" stroke="rgb(204, 204, 204)" stroke-width="1px"></line><line x1="60" y1="0" x2="55" y2="0" style="visibility: inherit;" fill="rgb(0, 0, 0)" stroke="rgb(204, 204, 204)" stroke-width="1px"></line></g><g transform="translate(50, 0)"><text x="0" y="158.22222222222226" dx="0em" dy="0.3em" style="text-anchor: end; visibility: inherit; font-family: &quot;Helvetica Neue&quot;, sans-serif; font-size: 12px; font-weight: 200;" fill="rgb(50, 49, 63)" stroke="none" stroke-width="1px">0.075</text><text x="0" y="138.44444444444446" dx="0em" dy="0.3em" style="text-anchor: end; visibility: hidden; font-family: &quot;Helvetica Neue&quot;, sans-serif; font-size: 12px; font-weight: 200;" fill="rgb(50, 49, 63)" stroke="none" stroke-width="1px">0.08</text><text x="0" y="118.66666666666667" dx="0em" dy="0.3em" style="text-anchor: end; visibility: inherit; font-family: &quot;Helvetica Neue&quot;, sans-serif; font-size: 12px; font-weight: 200;" fill="rgb(50, 49, 63)" stroke="none" stroke-width="1px">0.085</text><text x="0" y="98.88888888888893" dx="0em" dy="0.3em" style="text-anchor: end; visibility: hidden; font-family: &quot;Helvetica Neue&quot;, sans-serif; font-size: 12px; font-weight: 200;" fill="rgb(50, 49, 63)" stroke="none" stroke-width="1px">0.09</text><text x="0" y="79.11111111111113" dx="0em" dy="0.3em" style="text-anchor: end; visibility: inherit; font-family: &quot;Helvetica Neue&quot;, sans-serif; font-size: 12px; font-weight: 200;" fill="rgb(50, 49, 63)" stroke="none" stroke-width="1px">0.095</text><text x="0" y="59.33333333333334" dx="0em" dy="0.3em" style="text-anchor: end; visibility: hidden; font-family: &quot;Helvetica Neue&quot;, sans-serif; font-size: 12px; font-weight: 200;" fill="rgb(50, 49, 63)" stroke="none" stroke-width="1px">0.1</text><text x="0" y="39.5555555555556" dx="0em" dy="0.3em" style="text-anchor: end; visibility: inherit; font-family: &quot;Helvetica Neue&quot;, sans-serif; font-size: 12px; font-weight: 200;" fill="rgb(50, 49, 63)" stroke="none" stroke-width="1px">0.105</text><text x="0" y="19.7777777777778" dx="0em" dy="0.3em" style="text-anchor: end; visibility: hidden; font-family: &quot;Helvetica Neue&quot;, sans-serif; font-size: 12px; font-weight: 200;" fill="rgb(50, 49, 63)" stroke="none" stroke-width="1px">0.11</text><text x="0" y="0" dx="0em" dy="0.3em" style="text-anchor: end; visibility: hidden; font-family: &quot;Helvetica Neue&quot;, sans-serif; font-size: 12px; font-weight: 200;" fill="rgb(50, 49, 63)" stroke="none" stroke-width="1px">0.115</text></g><line x1="60" y1="0" x2="60" y2="178" fill="rgb(0, 0, 0)" stroke="rgb(204, 204, 204)" stroke-width="1px"></line></g></g><g transform="translate(60, 0)" clip-path="url(#clip_0)"><clipPath id="clip_0"><rect width="270" height="178"></rect></clipPath><g><g><g><line x1="0" y1="0" x2="0" y2="178" fill="rgb(0, 0, 0)" stroke="rgb(60, 60, 60)" stroke-width="1px" opacity="0.25"></line><line x1="22.5" y1="0" x2="22.5" y2="178" fill="rgb(0, 0, 0)" stroke="rgb(60, 60, 60)" stroke-width="1px" opacity="0.25"></line><line x1="45" y1="0" x2="45" y2="178" fill="rgb(0, 0, 0)" stroke="rgb(60, 60, 60)" stroke-width="1px" opacity="0.25"></line><line x1="67.5" y1="0" x2="67.5" y2="178" fill="rgb(0, 0, 0)" stroke="rgb(60, 60, 60)" stroke-width="1px" opacity="0.25"></line><line x1="90" y1="0" x2="90" y2="178" fill="rgb(0, 0, 0)" stroke="rgb(60, 60, 60)" stroke-width="1px" opacity="0.25"></line><line x1="112.5" y1="0" x2="112.5" y2="178" fill="rgb(0, 0, 0)" stroke="rgb(60, 60, 60)" stroke-width="1px" opacity="0.25"></line><line x1="135" y1="0" x2="135" y2="178" fill="rgb(0, 0, 0)" stroke="rgb(60, 60, 60)" stroke-width="1px" opacity="0.25"></line><line x1="157.5" y1="0" x2="157.5" y2="178" fill="rgb(0, 0, 0)" stroke="rgb(60, 60, 60)" stroke-width="1px" opacity="0.25"></line><line x1="180" y1="0" x2="180" y2="178" fill="rgb(0, 0, 0)" stroke="rgb(60, 60, 60)" stroke-width="1px" opacity="0.25"></line><line x1="202.5" y1="0" x2="202.5" y2="178" fill="rgb(0, 0, 0)" stroke="rgb(60, 60, 60)" stroke-width="1px" opacity="0.25"></line><line x1="225" y1="0" x2="225" y2="178" fill="rgb(0, 0, 0)" stroke="rgb(60, 60, 60)" stroke-width="1px" opacity="0.25"></line><line x1="247.5" y1="0" x2="247.5" y2="178" fill="rgb(0, 0, 0)" stroke="rgb(60, 60, 60)" stroke-width="1px" opacity="0.25"></line><line x1="270" y1="0" x2="270" y2="178" fill="rgb(0, 0, 0)" stroke="rgb(60, 60, 60)" stroke-width="1px" opacity="0.25"></line></g><g><line x1="0" y1="158.22222222222226" x2="270" y2="158.22222222222226" fill="rgb(0, 0, 0)" stroke="rgb(60, 60, 60)" stroke-width="1px" opacity="0.25"></line><line x1="0" y1="138.44444444444446" x2="270" y2="138.44444444444446" fill="rgb(0, 0, 0)" stroke="rgb(60, 60, 60)" stroke-width="1px" opacity="0.25"></line><line x1="0" y1="118.66666666666667" x2="270" y2="118.66666666666667" fill="rgb(0, 0, 0)" stroke="rgb(60, 60, 60)" stroke-width="1px" opacity="0.25"></line><line x1="0" y1="98.88888888888893" x2="270" y2="98.88888888888893" fill="rgb(0, 0, 0)" stroke="rgb(60, 60, 60)" stroke-width="1px" opacity="0.25"></line><line x1="0" y1="79.11111111111113" x2="270" y2="79.11111111111113" fill="rgb(0, 0, 0)" stroke="rgb(60, 60, 60)" stroke-width="1px" opacity="0.25"></line><line x1="0" y1="59.33333333333334" x2="270" y2="59.33333333333334" fill="rgb(0, 0, 0)" stroke="rgb(60, 60, 60)" stroke-width="1px" opacity="0.25"></line><line x1="0" y1="39.5555555555556" x2="270" y2="39.5555555555556" fill="rgb(0, 0, 0)" stroke="rgb(60, 60, 60)" stroke-width="1px" opacity="0.25"></line><line x1="0" y1="19.7777777777778" x2="270" y2="19.7777777777778" fill="rgb(0, 0, 0)" stroke="rgb(60, 60, 60)" stroke-width="1px" opacity="0.25"></line><line x1="0" y1="0" x2="270" y2="0" fill="rgb(0, 0, 0)" stroke="rgb(60, 60, 60)" stroke-width="1px" opacity="0.25"></line></g></g></g><g><g><line x1="0" y1="454.8888888888889" x2="270" y2="454.8888888888889" fill="rgb(0, 0, 0)" stroke="rgb(153, 153, 153)" stroke-width="1.5px"></line></g></g><g><g><line x1="22.5" y1="0" x2="22.5" y2="178" fill="rgb(0, 0, 0)" stroke="rgb(153, 153, 153)" stroke-width="1.5px"></line></g></g><g><g><g><g><g><path stroke="rgb(238, 51, 119)" stroke-width="2px" d="M24.75,33.899222837554106L27,34.37776121166013L29.25,35.966731752668124L31.5,36.68716989574477L33.75,35.98855758029515L36,36.75131501349364L38.25,37.19703504439761L40.5,37.44532648974595L42.75,37.58262616900228L45,37.672096950860976L47.25,35.46865188136553L49.5,34.553997203972216L51.75,34.091621771601865L54,33.56165200206806L56.25,33.21197426845592L58.5,32.63548891900922L60.75,33.586523808195295L63,33.82434896364566L65.25,32.36915680370936L67.5,33.17977791407739L69.75,33.74424375534113L72,34.248981756786804L74.25,34.63144028926919L76.5,33.53365466618578L78.75,32.45955960996224L81,31.787083279642502L83.25,31.19651493875341L85.5,32.58767118916563L87.75,31.82532026347613L90,31.21726494287026L92.25,32.52532264211257L94.5,33.187002950960874L96.75,34.26938123616367L99,33.531905934619004L101.25,33.53490721447227L103.5,33.70490593381348L105.75,34.25082373957494L108,35.96875422576926L110.25,36.28985815412403L112.5,37.245541292050405L114.75,36.32014098746001L117,35.47497507083921L119.25,36.57076614553023L121.5,36.15007872911201L123.75,35.44175882847841L126,35.192804173219315L128.25,34.5925693962279L130.5,34.76668218030082L132.75,35.00344010809178L135,34.372076650172005L137.25,34.24720588640221L139.5,35.74697602182576L141.75,35.91502141390234L144,34.713623059394706L146.25,35.46357302887125L148.5,37.12795625607632L150.75,36.62453417667015L153,34.28791995723637L155.25,34.78414332794901L157.5,34.468334422740554L159.75,34.43133299324904L162,34.23824641371169L164.25,33.64801447615332L166.5,33.72477941064548L168.75,33.52992911281629L171,31.922802546475964L173.25,32.543828827122326L175.5,32.452992521247296L177.75,31.70312401074102L180,31.268433613089286L182.25,30.93937589741867L184.5,32.304845387507925L186.75,32.60311188783416L189,32.8971744500104L191.25,33.13589049645617L193.5,32.62062774460526L195.75,31.57647051629033L198,30.993145571781213L200.25,30.68532976572365L202.5,30.53541628094638L204.75,31.608259707125796L207,31.215817823999146L209.25,31.12894641127437L211.5,31.081621472634396L213.75,31.02730365470896L216,32.03984372011999L218.25,32.585973385790794L220.5,32.826475418566275L222.75,32.8700205493389L225,32.784829066036565L227.25,32.62468257828198L229.5,32.4221447637033L231.75,32.27829470484235L234,32.29371920177604L236.25,32.32576102054347L238.5,32.433175687211104L240.75,32.57621824462922L243,32.728212484702425L245.25,32.860586169088236L247.5,32.97310062676797" style="fill: none;" fill="none"></path></g><g><path stroke="rgb(51, 187, 238)" stroke-width="2px" d="M24.75,33.9050876034631L27,34.07975963585909L29.25,32.29845389838661L31.5,32.13099104024815L33.75,32.15875021573419L36,31.477339801339554L38.25,31.501607871427893L40.5,31.52022269826483L42.75,31.62989888255268L45,31.69199228094746L47.25,32.28337914567919L49.5,32.811271658880656L51.75,32.83093409569801L54,33.12368959396352L56.25,33.480363932458005L58.5,33.83439493593443L60.75,38.12238492527476L63,42.41900097358106L65.25,63.48722641184996L67.5,74.90319187645632L69.75,80.77348512980217L72,81.35663800031574L74.25,81.14636745846207L76.5,70.89914014681155L78.75,62.07937037343828L81,69.30585632575867L83.25,72.3407272993368L85.5,75.72863178937588L87.75,77.3768919245477L90,78.89181408613499L92.25,78.30846402322534L94.5,77.0155528519592L96.75,75.75586574954217L99,74.08163705316629L101.25,59.28678927262345L103.5,49.7913395199993L105.75,45.52909249147763L108,43.40110409974906L110.25,40.884246101652195L112.5,41.31028209823174L114.75,40.361050901896846L117,40.799674286178174L119.25,42.47440021639957L121.5,41.99250877468259L123.75,44.61146081919628L126,46.452410873499105L128.25,44.48977317210239L130.5,40.884990869656946L132.75,40.155045891345395L135,41.954932113560545L137.25,61.017497490647685L139.5,78.03917799777301L141.75,89.27318605151983L144,96.06574309356726L146.25,101.18241178220792L148.5,103.53357541629867L150.75,102.79938429502815L153,103.8228095009418L155.25,105.74130644738972L157.5,106.17265932365444L159.75,105.59323980373648L162,108.39681228112022L164.25,108.57530051933234L166.5,108.48464180774063L168.75,107.8237885261371L171,110.16236760764086L173.25,108.57589905986454L175.5,108.00042391205058L177.75,107.68107346657783L180,107.83197731685296L182.25,109.22791631632708L184.5,108.06084968018727L186.75,115.51311763943153L189,129.4472163196327L191.25,137.86609920583362L193.5,142.9569910569322L195.75,146.0419757964213L198,147.91766349354054L200.25,149.06376488401364L202.5,149.7692498912711L204.75,150.20821956629683L207,150.48542925153586L209.25,150.66383824872287L211.5,150.78144611990842L213.75,150.86130016028056L216,150.9174409394877L218.25,150.95846962643168L220.5,150.9896530187213L222.75,151.0142690796637L225,151.0343435296142L227.25,151.05116253163095L229.5,151.06555672591995L231.75,151.07808343897574L234,151.08910064364326L236.25,151.0988820660006L238.5,151.10760373016873L240.75,151.1154301929912L243,151.1224719770483L245.25,151.1288071843623L247.5,151.13451804156935" style="fill: none;" fill="none"></path></g></g></g></g><g opacity="0.2"><g><g><g><path stroke="rgb(238, 51, 119)" stroke-width="2px" d="M24.75,33.899222837554106L27,34.66488423612384L29.25,37.492143472035764L31.5,37.53440515200299L33.75,35.07644934124417L36,37.80648313628305L38.25,37.83442182011075L40.5,37.80733780066174L42.75,37.78511652681564L45,37.80495063463849L47.25,32.183469361729095L49.5,33.186992698245604L51.75,33.39956835905713L54,32.76773561371701L56.25,32.687868701087126L58.5,31.771167476971982L60.75,35.0126736958822L63,34.18102631304001L65.25,30.18659024768408L67.5,34.39563548564914L69.75,34.59091156058844L72,35.006072150336394L74.25,35.20512053701614L76.5,31.88698923587802L78.75,30.84842465983499L81,30.778371651967404L83.25,30.310663938522367L85.5,34.6744034290314L87.75,30.681794577174742L90,30.305182298024533L92.25,34.487408757209806L94.5,34.17952328258093L96.75,35.8929485347536L99,32.42569303512576L101.25,33.539409134123076L103.5,33.95990400844153L105.75,35.069700439771054L108,38.54564993911322L110.25,36.771514044867644L112.5,38.679065995746214L114.75,34.93204053243005L117,34.207226196924864L119.25,38.214452756775785L121.5,35.51904760466684L123.75,34.37927897771203L126,34.819372190369535L128.25,33.69221723079684L130.5,35.02785135640042L132.75,35.35857699977029L135,33.425031463305174L137.25,34.05989974074896L139.5,37.99663122495019L141.75,36.16708950201672L144,32.91152552763623L146.25,36.58849798308481L148.5,39.62453109688229L150.75,35.86940105756128L153,30.782998628086517L155.25,35.52847838401797L157.5,33.994621064927856L159.75,34.37583084901178L162,33.94861654440564L164.25,32.762666569815764L166.5,33.83992681238388L168.75,33.23765366607245L171,29.512112696965573L173.25,33.475368248091826L175.5,32.31673806243475L177.75,30.578321244981566L180,30.616398016611754L182.25,30.44578932391275L184.5,34.35304962264169L186.75,33.050511638323485L189,33.33826829327481L191.25,33.493964566124845L193.5,31.847733616828947L195.75,30.01023467381799L198,30.118158155017454L200.25,30.223606056637237L202.5,30.310546053780484L204.75,33.217524846394895L207,30.62715499930914L209.25,30.998639292187164L211.5,31.010634064674406L213.75,30.94582692782086L216,33.55865381823648L218.25,33.405167884296844L220.5,33.18722846772937L222.75,32.93533824549783L225,32.65704184108313L227.25,32.38446284665005L229.5,32.118338041835386L231.75,32.06251961655087L234,32.316855947176634L236.25,32.37382374869455L238.5,32.594297687212645L240.75,32.790782080756316L243,32.956203844812194L245.25,33.05914669566687L247.5,33.141872313287536" style="fill: none;" fill="none"></path></g><g><path stroke="rgb(51, 187, 238)" stroke-width="2px" d="M24.75,33.9050876034631L27,34.18456285529669L29.25,30.588400390413085L31.5,31.93405471907724L33.75,32.19499259524878L36,30.534703890482604L38.25,31.53631159994339L40.5,31.54736329449551L42.75,31.79164995087521L45,31.784193740950712L47.25,33.165095607439696L49.5,33.600237660937864L51.75,32.86036354965634L54,33.5622493028641L56.25,34.01495618290372L58.5,34.36519175105627L60.75,44.55255537562903L63,48.862834135691344L65.25,95.08635503715942L67.5,92.0260966089037L69.75,89.57860306898755L72,82.23134811719261L74.25,80.83096579710644L76.5,55.528420567512526L78.75,48.84977840052713L81,80.14555443657773L83.25,76.89302599430086L85.5,80.81048332320321L87.75,79.84928060902493L90,81.16419649124147L92.25,77.433439122306L94.5,75.07618635230597L96.75,73.86633524629806L99,71.57029412852395L101.25,37.0945182376438L103.5,35.54816513591345L105.75,39.13572201463913L108,40.20912153191037L110.25,37.108959118525206L112.5,41.94933609167737L114.75,38.93720410929788L117,41.45760936207242L119.25,44.986489110522825L121.5,41.26967161231573L123.75,48.53988888528613L126,49.213835954666166L128.25,41.545816620190976L130.5,35.47781741619113L132.75,39.06012842390274L135,44.65476144684689L137.25,89.61134555604725L139.5,103.57169875833726L141.75,106.12419813209112L144,106.25457865662048L146.25,108.857414815161L148.5,107.06032086743251L150.75,101.69809761312275L153,105.35794730981193L155.25,108.61905186706122L157.5,106.81968863805137L159.75,104.72411052385968L162,112.6021709971958L164.25,108.84303287665051L166.5,108.34865374035309L168.75,106.83250860373181L171,113.67023622989656L173.25,106.19619623819989L175.5,107.13721119032968L177.75,107.2020477983687L180,108.05833309226568L182.25,111.32182481553822L184.5,106.3102497259776L186.75,126.69151957829796L189,150.34836433993448L191.25,150.49442353513507L193.5,150.59332883358005L195.75,150.66945290565494L198,150.73119503921936L200.25,150.7829169697232L202.5,150.82747740215729L204.75,150.86667407883542L207,150.90124377939438L209.25,150.93145174450348L211.5,150.95785792668664L213.75,150.98108122083877L216,151.00165210829843L218.25,151.02001265684765L220.5,151.03642810715573L222.75,151.05119317107733L225,151.06445520453985L227.25,151.07639103465613L229.5,151.0871480173535L231.75,151.09687350855936L234,151.10562645064462L236.25,151.11355419953668L238.5,151.12068622642096L240.75,151.12716988722485L243,151.13303465313385L245.25,151.13830999533337L247.5,151.14308432737988" style="fill: none;" fill="none"></path></g></g></g></g></g></g><g transform="translate(60, 178)" clip-path="url(#clip_1)"><clipPath id="clip_1"><rect width="270" height="22"></rect></clipPath><g><g><line x1="0" y1="0" x2="0" y2="5" style="visibility: inherit;" fill="rgb(0, 0, 0)" stroke="rgb(204, 204, 204)" stroke-width="1px"></line><line x1="22.5" y1="0" x2="22.5" y2="5" style="visibility: inherit;" fill="rgb(0, 0, 0)" stroke="rgb(204, 204, 204)" stroke-width="1px"></line><line x1="45" y1="0" x2="45" y2="5" style="visibility: inherit;" fill="rgb(0, 0, 0)" stroke="rgb(204, 204, 204)" stroke-width="1px"></line><line x1="67.5" y1="0" x2="67.5" y2="5" style="visibility: inherit;" fill="rgb(0, 0, 0)" stroke="rgb(204, 204, 204)" stroke-width="1px"></line><line x1="90" y1="0" x2="90" y2="5" style="visibility: inherit;" fill="rgb(0, 0, 0)" stroke="rgb(204, 204, 204)" stroke-width="1px"></line><line x1="112.5" y1="0" x2="112.5" y2="5" style="visibility: inherit;" fill="rgb(0, 0, 0)" stroke="rgb(204, 204, 204)" stroke-width="1px"></line><line x1="135" y1="0" x2="135" y2="5" style="visibility: inherit;" fill="rgb(0, 0, 0)" stroke="rgb(204, 204, 204)" stroke-width="1px"></line><line x1="157.5" y1="0" x2="157.5" y2="5" style="visibility: inherit;" fill="rgb(0, 0, 0)" stroke="rgb(204, 204, 204)" stroke-width="1px"></line><line x1="180" y1="0" x2="180" y2="5" style="visibility: inherit;" fill="rgb(0, 0, 0)" stroke="rgb(204, 204, 204)" stroke-width="1px"></line><line x1="202.5" y1="0" x2="202.5" y2="5" style="visibility: inherit;" fill="rgb(0, 0, 0)" stroke="rgb(204, 204, 204)" stroke-width="1px"></line><line x1="225" y1="0" x2="225" y2="5" style="visibility: inherit;" fill="rgb(0, 0, 0)" stroke="rgb(204, 204, 204)" stroke-width="1px"></line><line x1="247.5" y1="0" x2="247.5" y2="5" style="visibility: inherit;" fill="rgb(0, 0, 0)" stroke="rgb(204, 204, 204)" stroke-width="1px"></line><line x1="270" y1="0" x2="270" y2="5" style="visibility: inherit;" fill="rgb(0, 0, 0)" stroke="rgb(204, 204, 204)" stroke-width="1px"></line></g><g transform="translate(0, 8)"><text x="0" y="0" dx="0em" dy="0.95em" style="text-anchor: middle; visibility: hidden; font-family: &quot;Helvetica Neue&quot;, sans-serif; font-size: 12px; font-weight: 200;" fill="rgb(50, 49, 63)" stroke="none" stroke-width="1px">-10</text><text x="22.5" y="0" dx="0em" dy="0.95em" style="text-anchor: middle; visibility: inherit; font-family: &quot;Helvetica Neue&quot;, sans-serif; font-size: 12px; font-weight: 200;" fill="rgb(50, 49, 63)" stroke="none" stroke-width="1px">0</text><text x="45" y="0" dx="0em" dy="0.95em" style="text-anchor: middle; visibility: inherit; font-family: &quot;Helvetica Neue&quot;, sans-serif; font-size: 12px; font-weight: 200;" fill="rgb(50, 49, 63)" stroke="none" stroke-width="1px">10</text><text x="67.5" y="0" dx="0em" dy="0.95em" style="text-anchor: middle; visibility: inherit; font-family: &quot;Helvetica Neue&quot;, sans-serif; font-size: 12px; font-weight: 200;" fill="rgb(50, 49, 63)" stroke="none" stroke-width="1px">20</text><text x="90" y="0" dx="0em" dy="0.95em" style="text-anchor: middle; visibility: inherit; font-family: &quot;Helvetica Neue&quot;, sans-serif; font-size: 12px; font-weight: 200;" fill="rgb(50, 49, 63)" stroke="none" stroke-width="1px">30</text><text x="112.5" y="0" dx="0em" dy="0.95em" style="text-anchor: middle; visibility: inherit; font-family: &quot;Helvetica Neue&quot;, sans-serif; font-size: 12px; font-weight: 200;" fill="rgb(50, 49, 63)" stroke="none" stroke-width="1px">40</text><text x="135" y="0" dx="0em" dy="0.95em" style="text-anchor: middle; visibility: inherit; font-family: &quot;Helvetica Neue&quot;, sans-serif; font-size: 12px; font-weight: 200;" fill="rgb(50, 49, 63)" stroke="none" stroke-width="1px">50</text><text x="157.5" y="0" dx="0em" dy="0.95em" style="text-anchor: middle; visibility: inherit; font-family: &quot;Helvetica Neue&quot;, sans-serif; font-size: 12px; font-weight: 200;" fill="rgb(50, 49, 63)" stroke="none" stroke-width="1px">60</text><text x="180" y="0" dx="0em" dy="0.95em" style="text-anchor: middle; visibility: inherit; font-family: &quot;Helvetica Neue&quot;, sans-serif; font-size: 12px; font-weight: 200;" fill="rgb(50, 49, 63)" stroke="none" stroke-width="1px">70</text><text x="202.5" y="0" dx="0em" dy="0.95em" style="text-anchor: middle; visibility: inherit; font-family: &quot;Helvetica Neue&quot;, sans-serif; font-size: 12px; font-weight: 200;" fill="rgb(50, 49, 63)" stroke="none" stroke-width="1px">80</text><text x="225" y="0" dx="0em" dy="0.95em" style="text-anchor: middle; visibility: inherit; font-family: &quot;Helvetica Neue&quot;, sans-serif; font-size: 12px; font-weight: 200;" fill="rgb(50, 49, 63)" stroke="none" stroke-width="1px">90</text><text x="247.5" y="0" dx="0em" dy="0.95em" style="text-anchor: middle; visibility: inherit; font-family: &quot;Helvetica Neue&quot;, sans-serif; font-size: 12px; font-weight: 200;" fill="rgb(50, 49, 63)" stroke="none" stroke-width="1px">100</text><text x="270" y="0" dx="0em" dy="0.95em" style="text-anchor: middle; visibility: hidden; font-family: &quot;Helvetica Neue&quot;, sans-serif; font-size: 12px; font-weight: 200;" fill="rgb(50, 49, 63)" stroke="none" stroke-width="1px">110</text></g><line x1="0" y1="0" x2="270" y2="0" fill="rgb(0, 0, 0)" stroke="rgb(204, 204, 204)" stroke-width="1px"></line></g></g></g></g></svg>