<svg viewBox="0 0 330 200" xmlns="http://www.w3.org/2000/svg"><g><g><g><g><g><line x1="60" y1="178" x2="55" y2="178" style="visibility: inherit;" fill="rgb(0, 0, 0)" stroke="rgb(204, 204, 204)" stroke-width="1px"></line><line x1="60" y1="161.8181818181818" x2="55" y2="161.8181818181818" style="visibility: inherit;" fill="rgb(0, 0, 0)" stroke="rgb(204, 204, 204)" stroke-width="1px"></line><line x1="60" y1="145.63636363636363" x2="55" y2="145.63636363636363" style="visibility: inherit;" fill="rgb(0, 0, 0)" stroke="rgb(204, 204, 204)" stroke-width="1px"></line><line x1="60" y1="129.45454545454547" x2="55" y2="129.45454545454547" style="visibility: inherit;" fill="rgb(0, 0, 0)" stroke="rgb(204, 204, 204)" stroke-width="1px"></line><line x1="60" y1="113.27272727272727" x2="55" y2="113.27272727272727" style="visibility: inherit;" fill="rgb(0, 0, 0)" stroke="rgb(204, 204, 204)" stroke-width="1px"></line><line x1="60" y1="97.0909090909091" x2="55" y2="97.0909090909091" style="visibility: inherit;" fill="rgb(0, 0, 0)" stroke="rgb(204, 204, 204)" stroke-width="1px"></line><line x1="60" y1="80.90909090909092" x2="55" y2="80.90909090909092" style="visibility: inherit;" fill="rgb(0, 0, 0)" stroke="rgb(204, 204, 204)" stroke-width="1px"></line><line x1="60" y1="64.72727272727273" x2="55" y2="64.72727272727273" style="visibility: inherit;" fill="rgb(0, 0, 0)" stroke="rgb(204, 204, 204)" stroke-width="1px"></line><line x1="60" y1="48.54545454545453" x2="55" y2="48.54545454545453" style="visibility: inherit;" fill="rgb(0, 0, 0)" stroke="rgb(204, 204, 204)" stroke-width="1px"></line><line x1="60" y1="32.363636363636346" x2="55" y2="32.363636363636346" style="visibility: inherit;" fill="rgb(0, 0, 0)" stroke="rgb(204, 204, 204)" stroke-width="1px"></line><line x1="60" y1="16.181818181818187" x2="55" y2="16.181818181818187" style="visibility: inherit;" fill="rgb(0, 0, 0)" stroke="rgb(204, 204, 204)" stroke-width="1px"></line><line x1="60" y1="0" x2="55" y2="0" style="visibility: inherit;" fill="rgb(0, 0, 0)" stroke="rgb(204, 204, 204)" stroke-width="1px"></line></g><g transform="translate(50, 0)"><text x="0" y="178" dx="0em" dy="0.3em" style="text-anchor: end; visibility: hidden; font-family: &quot;Helvetica Neue&quot;, sans-serif; font-size: 12px; font-weight: 200;" fill="rgb(50, 49, 63)" stroke="none" stroke-width="1px">0.102</text><text x="0" y="161.8181818181818" dx="0em" dy="0.3em" style="text-anchor: end; visibility: inherit; font-family: &quot;Helvetica Neue&quot;, sans-serif; font-size: 12px; font-weight: 200;" fill="rgb(50, 49, 63)" stroke="none" stroke-width="1px">0.102</text><text x="0" y="145.63636363636363" dx="0em" dy="0.3em" style="text-anchor: end; visibility: hidden; font-family: &quot;Helvetica Neue&quot;, sans-serif; font-size: 12px; font-weight: 200;" fill="rgb(50, 49, 63)" stroke="none" stroke-width="1px">0.103</text><text x="0" y="129.45454545454547" dx="0em" dy="0.3em" style="text-anchor: end; visibility: inherit; font-family: &quot;Helvetica Neue&quot;, sans-serif; font-size: 12px; font-weight: 200;" fill="rgb(50, 49, 63)" stroke="none" stroke-width="1px">0.103</text><text x="0" y="113.27272727272727" dx="0em" dy="0.3em" style="text-anchor: end; visibility: hidden; font-family: &quot;Helvetica Neue&quot;, sans-serif; font-size: 12px; font-weight: 200;" fill="rgb(50, 49, 63)" stroke="none" stroke-width="1px">0.104</text><text x="0" y="97.0909090909091" dx="0em" dy="0.3em" style="text-anchor: end; visibility: inherit; font-family: &quot;Helvetica Neue&quot;, sans-serif; font-size: 12px; font-weight: 200;" fill="rgb(50, 49, 63)" stroke="none" stroke-width="1px">0.104</text><text x="0" y="80.90909090909092" dx="0em" dy="0.3em" style="text-anchor: end; visibility: hidden; font-family: &quot;Helvetica Neue&quot;, sans-serif; font-size: 12px; font-weight: 200;" fill="rgb(50, 49, 63)" stroke="none" stroke-width="1px">0.105</text><text x="0" y="64.72727272727273" dx="0em" dy="0.3em" style="text-anchor: end; visibility: inherit; font-family: &quot;Helvetica Neue&quot;, sans-serif; font-size: 12px; font-weight: 200;" fill="rgb(50, 49, 63)" stroke="none" stroke-width="1px">0.105</text><text x="0" y="48.54545454545453" dx="0em" dy="0.3em" style="text-anchor: end; visibility: hidden; font-family: &quot;Helvetica Neue&quot;, sans-serif; font-size: 12px; font-weight: 200;" fill="rgb(50, 49, 63)" stroke="none" stroke-width="1px">0.106</text><text x="0" y="32.363636363636346" dx="0em" dy="0.3em" style="text-anchor: end; visibility: inherit; font-family: &quot;Helvetica Neue&quot;, sans-serif; font-size: 12px; font-weight: 200;" fill="rgb(50, 49, 63)" stroke="none" stroke-width="1px">0.106</text><text x="0" y="16.181818181818187" dx="0em" dy="0.3em" style="text-anchor: end; visibility: hidden; font-family: &quot;Helvetica Neue&quot;, sans-serif; font-size: 12px; font-weight: 200;" fill="rgb(50, 49, 63)" stroke="none" stroke-width="1px">0.107</text><text x="0" y="0" dx="0em" dy="0.3em" style="text-anchor: end; visibility: hidden; font-family: &quot;Helvetica Neue&quot;, sans-serif; font-size: 12px; font-weight: 200;" fill="rgb(50, 49, 63)" stroke="none" stroke-width="1px">0.107</text></g><line x1="60" y1="0" x2="60" y2="178" fill="rgb(0, 0, 0)" stroke="rgb(204, 204, 204)" stroke-width="1px"></line></g></g><g transform="translate(60, 0)" clip-path="url(#clip_0)"><clipPath id="clip_0"><rect width="270" height="178"></rect></clipPath><g><g><g><line x1="0" y1="0" x2="0" y2="178" fill="rgb(0, 0, 0)" stroke="rgb(60, 60, 60)" stroke-width="1px" opacity="0.25"></line><line x1="22.5" y1="0" x2="22.5" y2="178" fill="rgb(0, 0, 0)" stroke="rgb(60, 60, 60)" stroke-width="1px" opacity="0.25"></line><line x1="45" y1="0" x2="45" y2="178" fill="rgb(0, 0, 0)" stroke="rgb(60, 60, 60)" stroke-width="1px" opacity="0.25"></line><line x1="67.5" y1="0" x2="67.5" y2="178" fill="rgb(0, 0, 0)" stroke="rgb(60, 60, 60)" stroke-width="1px" opacity="0.25"></line><line x1="90" y1="0" x2="90" y2="178" fill="rgb(0, 0, 0)" stroke="rgb(60, 60, 60)" stroke-width="1px" opacity="0.25"></line><line x1="112.5" y1="0" x2="112.5" y2="178" fill="rgb(0, 0, 0)" stroke="rgb(60, 60, 60)" stroke-width="1px" opacity="0.25"></line><line x1="135" y1="0" x2="135" y2="178" fill="rgb(0, 0, 0)" stroke="rgb(60, 60, 60)" stroke-width="1px" opacity="0.25"></line><line x1="157.5" y1="0" x2="157.5" y2="178" fill="rgb(0, 0, 0)" stroke="rgb(60, 60, 60)" stroke-width="1px" opacity="0.25"></line><line x1="180" y1="0" x2="180" y2="178" fill="rgb(0, 0, 0)" stroke="rgb(60, 60, 60)" stroke-width="1px" opacity="0.25"></line><line x1="202.5" y1="0" x2="202.5" y2="178" fill="rgb(0, 0, 0)" stroke="rgb(60, 60, 60)" stroke-width="1px" opacity="0.25"></line><line x1="225" y1="0" x2="225" y2="178" fill="rgb(0, 0, 0)" stroke="rgb(60, 60, 60)" stroke-width="1px" opacity="0.25"></line><line x1="247.5" y1="0" x2="247.5" y2="178" fill="rgb(0, 0, 0)" stroke="rgb(60, 60, 60)" stroke-width="1px" opacity="0.25"></line><line x1="270" y1="0" x2="270" y2="178" fill="rgb(0, 0, 0)" stroke="rgb(60, 60, 60)" stroke-width="1px" opacity="0.25"></line></g><g><line x1="0" y1="178" x2="270" y2="178" fill="rgb(0, 0, 0)" stroke="rgb(60, 60, 60)" stroke-width="1px" opacity="0.25"></line><line x1="0" y1="161.8181818181818" x2="270" y2="161.8181818181818" fill="rgb(0, 0, 0)" stroke="rgb(60, 60, 60)" stroke-width="1px" opacity="0.25"></line><line x1="0" y1="145.63636363636363" x2="270" y2="145.63636363636363" fill="rgb(0, 0, 0)" stroke="rgb(60, 60, 60)" stroke-width="1px" opacity="0.25"></line><line x1="0" y1="129.45454545454547" x2="270" y2="129.45454545454547" fill="rgb(0, 0, 0)" stroke="rgb(60, 60, 60)" stroke-width="1px" opacity="0.25"></line><line x1="0" y1="113.27272727272727" x2="270" y2="113.27272727272727" fill="rgb(0, 0, 0)" stroke="rgb(60, 60, 60)" stroke-width="1px" opacity="0.25"></line><line x1="0" y1="97.0909090909091" x2="270" y2="97.0909090909091" fill="rgb(0, 0, 0)" stroke="rgb(60, 60, 60)" stroke-width="1px" opacity="0.25"></line><line x1="0" y1="80.90909090909092" x2="270" y2="80.90909090909092" fill="rgb(0, 0, 0)" stroke="rgb(60, 60, 60)" stroke-width="1px" opacity="0.25"></line><line x1="0" y1="64.72727272727273" x2="270" y2="64.72727272727273" fill="rgb(0, 0, 0)" stroke="rgb(60, 60, 60)" stroke-width="1px" opacity="0.25"></line><line x1="0" y1="48.54545454545453" x2="270" y2="48.54545454545453" fill="rgb(0, 0, 0)" stroke="rgb(60, 60, 60)" stroke-width="1px" opacity="0.25"></line><line x1="0" y1="32.363636363636346" x2="270" y2="32.363636363636346" fill="rgb(0, 0, 0)" stroke="rgb(60, 60, 60)" stroke-width="1px" opacity="0.25"></line><line x1="0" y1="16.181818181818187" x2="270" y2="16.181818181818187" fill="rgb(0, 0, 0)" stroke="rgb(60, 60, 60)" stroke-width="1px" opacity="0.25"></line><line x1="0" y1="0" x2="270" y2="0" fill="rgb(0, 0, 0)" stroke="rgb(60, 60, 60)" stroke-width="1px" opacity="0.25"></line></g></g></g><g><g><line x1="0" y1="3479.0909090909063" x2="270" y2="3479.0909090909063" fill="rgb(0, 0, 0)" stroke="rgb(153, 153, 153)" stroke-width="1.5px"></line></g></g><g><g><line x1="22.5" y1="0" x2="22.5" y2="178" fill="rgb(0, 0, 0)" stroke="rgb(153, 153, 153)" stroke-width="1.5px"></line></g></g><g><g><g><g><g><path stroke="rgb(238, 51, 119)" stroke-width="2px" d="M24.75,37.170046134428475L27,37.106297950852905L29.25,36.85463610296986L31.5,36.64864255145278L33.75,36.56428052156096L36,36.56794466762881L38.25,36.756184061162884L40.5,36.88512117558602L42.75,36.87241924086527L45,42.6234008127806L47.25,62.160628989330704L49.5,78.97767539024667L51.75,98.93279955585918L54,108.08903500396104L56.25,108.41272306781718L58.5,109.6571020114618L60.75,109.6767186625222L63,106.62160711457237L65.25,104.19861466467599L67.5,103.07044823412576L69.75,102.19266261684538L72,101.86450265487046L74.25,102.18941429768876L76.5,102.66676995373446L78.75,102.88200074686469L81,104.12717701993294L83.25,105.20568792341003L85.5,106.45435996631294L87.75,106.52020603437293L90,106.88494701765944L92.25,108.02306761200764L94.5,108.56242054572371L96.75,108.3294126510852L99,108.82637844817357L101.25,109.9728458177358L103.5,109.94419060788277L105.75,111.47561719555736L108,111.97066677663626L110.25,112.28390031775601L112.5,112.34915457589462L114.75,113.28636381194806L117,114.18703999607314L119.25,113.52103469101904L121.5,114.57253909704201L123.75,116.31870641648914L126,116.01801969664088L128.25,118.35691176695545L130.5,118.18838257749788L132.75,119.54878937699166L135,119.43080759399209L137.25,117.67115884470294L139.5,120.94959503300568L141.75,121.8439270283771L144,120.76361910584716L146.25,121.93932564524927L148.5,122.22509060455906L150.75,126.53777626194278L153,126.04522010272956L155.25,125.97075244862849L157.5,126.85065260359872L159.75,127.8765699967045L162,128.80317539923456L164.25,130.55590454041024L166.5,130.0287331105851L168.75,131.45115517799113L171,133.05278000802568L173.25,132.76722021172165L175.5,129.14698402446325L177.75,127.66446805215993L180,130.93537892991216L182.25,131.23636145322587L184.5,130.24420140451684L186.75,131.36072042905778L189,132.8828742268729L191.25,135.61706781275407L193.5,136.18360038169942L195.75,134.27755838700648L198,134.37796015455157L200.25,132.3511911782634L202.5,132.86691023481498L204.75,133.90956332970663L207,138.3774797469805L209.25,137.27869473725426L211.5,137.9334742324618L213.75,136.1552264878302L216,137.8376179417731L218.25,138.90434479869708L220.5,140.3146398163551L222.75,139.51564951952918L225,141.06828822134952L227.25,140.9978404195899L229.5,138.72185949883527L231.75,139.60840535620048L234,141.25096789113553L236.25,142.29408675011214L238.5,139.66868616740157L240.75,142.97686411771048L243,143.1633426992249L245.25,142.07296623278577L247.5,140.36809794923292" style="fill: none;" fill="none"></path></g><g><path stroke="rgb(51, 187, 238)" stroke-width="2px" d="M24.75,37.48857606541017L27,37.32943166385988L29.25,37.11229354640744L31.5,36.827340473863785L33.75,36.60324518074876L36,36.51114114832919L38.25,36.501277355959076L40.5,36.57588176504774L42.75,36.62616743147777L45,37.49189703075274L47.25,49.99733043484406L49.5,69.33138130391531L51.75,88.30102007814564L54,105.2109509451316L56.25,108.50440868587602L58.5,109.47920424783652L60.75,109.89856029213335L63,108.04129921742268L65.25,104.9963793832608L67.5,103.48196294125528L69.75,102.71735324292722L72,102.35138538886572L74.25,101.9275226050881L76.5,101.57038966144495L78.75,101.91012797307643L81,102.555042214452L83.25,103.54268844750493L85.5,104.19276046255955L87.75,105.0259001737395L90,105.69264433461765L92.25,106.25530740141768L94.5,107.01102097289979L96.75,107.56794116882146L99,107.7779606325897L101.25,108.45769838276104L103.5,108.99681104523022L105.75,109.65178125219049L108,110.33604585526786L110.25,110.86495017981399L112.5,111.39564272330182L114.75,112.03842347490635L117,112.37866343271122L119.25,112.91286325108469L121.5,113.41085326255728L123.75,114.01597612961359L126,114.53086396378066L128.25,115.17824375823662L130.5,115.71800349309889L132.75,116.56308136188176L135,117.32774911135239L137.25,118.20273648387527L139.5,118.69532132016126L141.75,119.4935756285266L144,120.77857049461053L146.25,121.38820463620263L148.5,122.4893287074726L150.75,123.93010007128848L153,124.56983170435822L155.25,125.5954566526338L157.5,127.02005679069401L159.75,128.42680681902877L162,129.26506976688253L164.25,129.8209792182918L166.5,131.02615395387133L168.75,130.9381046030748L171,131.9761375268592L173.25,132.69058587596254L175.5,133.35719987853025L177.75,133.39962385792114L180,133.94803639416463L182.25,134.41809550079935L184.5,135.10580451200548L186.75,135.04929151318865L189,135.90726752064808L191.25,136.97385016831697L193.5,137.90479288387436L195.75,138.2987163959686L198,138.54741625073925L200.25,138.82269781985977L202.5,138.85794705897567L204.75,138.43156325505566L207,138.60127545733343L209.25,138.8824054711136L211.5,138.8777607584204L213.75,138.51299275564173L216,138.71485188098228L218.25,138.65406048265712L220.5,138.12192317119735L222.75,137.68853907096738L225,139.28799037900393L227.25,139.66345653340767L229.5,140.4739053679923L231.75,141.18992131389018L234,142.04632723104135L236.25,142.86485997193688L238.5,141.40081830506406L240.75,141.03319860834085L243,140.93319073087534L245.25,141.5823913283959L247.5,142.1166848667422" style="fill: none;" fill="none"></path></g></g></g></g><g opacity="0.2"><g><g><g><path stroke="rgb(238, 51, 119)" stroke-width="2px" d="M24.75,37.170046134428475L27,37.06804904070759L29.25,36.61304072900245L31.5,36.40639413486818L33.75,36.45413745533327L36,36.57301350073371L38.25,37.025369405746375L40.5,37.07311272621146L42.75,36.853686354376975L45,51.16293820467851L47.25,91.28927003253577L49.5,104.11172736774776L51.75,128.80032886158318L54,121.80545015768556L56.25,108.89787468043225L58.5,111.52279279448754L60.75,109.70613533800284L63,102.03971548513918L65.25,100.5644951083442L67.5,101.37830170718092L69.75,100.87603233077294L72,101.3722735101525L74.25,102.67677534710262L76.5,103.3827977830712L78.75,103.20484540679223L81,105.99493611942623L83.25,106.82345151901231L85.5,108.32736611366258L87.75,106.6189750758083L90,107.43205829100161L92.25,109.73024812611652L94.5,109.37144983898494L96.75,107.97990083694444L99,109.57182710820963L101.25,111.69254682280786L103.5,109.90120779384252L105.75,113.77275705337509L108,112.71324114365996L110.25,112.75375062769095L112.5,112.44703596288493L114.75,114.69217766414974L117,115.53805427117766L119.25,112.52202673391847L121.5,116.14979570562174L123.75,118.93795739520664L126,115.56698961691407L128.25,121.86524987220749L130.5,117.93558879332093L132.75,121.58939957618698L135,119.25383491949586L137.25,115.03168572079036L139.5,125.86724931543507L141.75,123.1854250214315L144,119.14315722205407L146.25,123.70288545435109L148.5,122.65373804352484L150.75,133.00680474801482L153,125.30638586391086L155.25,125.85905096747642L157.5,128.17050283605386L159.75,129.4154460863632L162,130.1930835030294L164.25,133.1849982521749L166.5,129.2379759658465L168.75,133.5847882790997L171,135.45521725307793L173.25,132.33888051726584L175.5,123.71662974357588L177.75,125.44069409370405L180,135.84174524654026L182.25,131.68783523819647L184.5,128.75596133145402L186.75,133.0354989658701L189,135.1661049235949L191.25,139.7183581915767L193.5,137.03339923511834L195.75,131.41849539496667L198,134.52856280586917L200.25,129.31103771383096L202.5,133.64048881964231L204.75,135.47354297204433L207,145.07935437289132L209.25,135.6305172226644L211.5,138.91564347527225L213.75,133.48785487088273L216,140.3612051226874L218.25,140.50443508408267L220.5,142.43008234284122L222.75,138.3171640742907L225,143.39724627408097L227.25,140.89216871695066L229.5,135.30788811770336L231.75,140.9382241422478L234,143.71481169353814L236.25,143.85876503857682L238.5,135.73058529333616L240.75,147.93913104317386L243,143.44306057149697L245.25,140.43740153312666L247.5,137.8107955239034" style="fill: none;" fill="none"></path></g><g><path stroke="rgb(51, 187, 238)" stroke-width="2px" d="M24.75,37.48857606541017L27,37.2339450229297L29.25,36.90384095365343L31.5,36.49223566055289L33.75,36.31066636605689L36,36.38372811404133L38.25,36.48717197504902L40.5,36.68465570970008L42.75,36.70032902197394L45,38.777404590086434L47.25,68.64205718040455L49.5,98.22724255648512L51.75,116.69353907758524L54,130.54271893067778L56.25,113.44072396104971L58.5,110.94071008942329L60.75,110.5274169011548L63,105.25587916374192L65.25,100.42946349490758L67.5,101.2104767019097L69.75,101.57048062844696L72,101.80244565010057L74.25,101.2917367978528L76.5,101.03469447656097L78.75,102.41973302581079L81,103.52241082624941L83.25,105.02415526996944L85.5,105.16786748712698L87.75,106.27560897306948L90,106.69276020743615L92.25,107.09930181503282L94.5,108.14459117976088L96.75,108.40332139622066L99,108.09298981319759L101.25,109.477304978804L103.5,109.8054800250312L105.75,110.63423655249841L108,111.36244275353157L110.25,111.65830666368643L112.5,112.19168153676105L114.75,113.00259460102413L117,112.8890233690087L119.25,113.71416297825886L121.5,114.15783827955057L123.75,114.92366043004107L126,115.3031957149504L128.25,116.14931344985946L130.5,116.52764309536312L132.75,117.83069816502642L135,118.47475073554284L137.25,119.51521754264816L139.5,119.43419857458619L141.75,120.69095709107123L144,122.70606279373153L146.25,122.30265584858965L148.5,124.14101481437666L150.75,126.09125711701117L153,125.52942915396241L155.25,127.13389407504673L157.5,129.15695699778453L159.75,130.5369318615305L162,130.52246418866227L164.25,130.65484339540637L166.5,132.83391605723972L168.75,130.80603057687915L171,133.53318691253645L173.25,133.76225839961643L175.5,134.3571208823809L177.75,133.46325982700677L180,134.77065519853056L182.25,135.12318416075254L184.5,136.13736802881397L186.75,134.96452201496453L189,137.19423153183658L191.25,138.57372413982029L193.5,139.30120695721L195.75,138.88960166410948L198,138.920466032895L200.25,139.2356201735408L202.5,138.91082091764952L204.75,137.79198754917473L207,138.85584376075033L209.25,139.30410049178366L211.5,138.87079368938083L213.75,137.9658407514744L216,139.01764056899313L218.25,138.5628733851691L220.5,137.32371720400707L222.75,137.0384629206222L225,141.68716734105874L227.25,140.22665576501308L229.5,141.68957861987008L231.75,142.26394523273797L234,143.33093610676835L236.25,144.0926590832795L238.5,139.20475580475528L240.75,140.48176906325583L243,140.78317891467685L245.25,142.55619222467578L247.5,142.91812517426212" style="fill: none;" fill="none"></path></g></g></g></g></g></g><g transform="translate(60, 178)" clip-path="url(#clip_1)"><clipPath id="clip_1"><rect width="270" height="22"></rect></clipPath><g><g><line x1="0" y1="0" x2="0" y2="5" style="visibility: inherit;" fill="rgb(0, 0, 0)" stroke="rgb(204, 204, 204)" stroke-width="1px"></line><line x1="22.5" y1="0" x2="22.5" y2="5" style="visibility: inherit;" fill="rgb(0, 0, 0)" stroke="rgb(204, 204, 204)" stroke-width="1px"></line><line x1="45" y1="0" x2="45" y2="5" style="visibility: inherit;" fill="rgb(0, 0, 0)" stroke="rgb(204, 204, 204)" stroke-width="1px"></line><line x1="67.5" y1="0" x2="67.5" y2="5" style="visibility: inherit;" fill="rgb(0, 0, 0)" stroke="rgb(204, 204, 204)" stroke-width="1px"></line><line x1="90" y1="0" x2="90" y2="5" style="visibility: inherit;" fill="rgb(0, 0, 0)" stroke="rgb(204, 204, 204)" stroke-width="1px"></line><line x1="112.5" y1="0" x2="112.5" y2="5" style="visibility: inherit;" fill="rgb(0, 0, 0)" stroke="rgb(204, 204, 204)" stroke-width="1px"></line><line x1="135" y1="0" x2="135" y2="5" style="visibility: inherit;" fill="rgb(0, 0, 0)" stroke="rgb(204, 204, 204)" stroke-width="1px"></line><line x1="157.5" y1="0" x2="157.5" y2="5" style="visibility: inherit;" fill="rgb(0, 0, 0)" stroke="rgb(204, 204, 204)" stroke-width="1px"></line><line x1="180" y1="0" x2="180" y2="5" style="visibility: inherit;" fill="rgb(0, 0, 0)" stroke="rgb(204, 204, 204)" stroke-width="1px"></line><line x1="202.5" y1="0" x2="202.5" y2="5" style="visibility: inherit;" fill="rgb(0, 0, 0)" stroke="rgb(204, 204, 204)" stroke-width="1px"></line><line x1="225" y1="0" x2="225" y2="5" style="visibility: inherit;" fill="rgb(0, 0, 0)" stroke="rgb(204, 204, 204)" stroke-width="1px"></line><line x1="247.5" y1="0" x2="247.5" y2="5" style="visibility: inherit;" fill="rgb(0, 0, 0)" stroke="rgb(204, 204, 204)" stroke-width="1px"></line><line x1="270" y1="0" x2="270" y2="5" style="visibility: inherit;" fill="rgb(0, 0, 0)" stroke="rgb(204, 204, 204)" stroke-width="1px"></line></g><g transform="translate(0, 8)"><text x="0" y="0" dx="0em" dy="0.95em" style="text-anchor: middle; visibility: hidden; font-family: &quot;Helvetica Neue&quot;, sans-serif; font-size: 12px; font-weight: 200;" fill="rgb(50, 49, 63)" stroke="none" stroke-width="1px">-10</text><text x="22.5" y="0" dx="0em" dy="0.95em" style="text-anchor: middle; visibility: inherit; font-family: &quot;Helvetica Neue&quot;, sans-serif; font-size: 12px; font-weight: 200;" fill="rgb(50, 49, 63)" stroke="none" stroke-width="1px">0</text><text x="45" y="0" dx="0em" dy="0.95em" style="text-anchor: middle; visibility: inherit; font-family: &quot;Helvetica Neue&quot;, sans-serif; font-size: 12px; font-weight: 200;" fill="rgb(50, 49, 63)" stroke="none" stroke-width="1px">10</text><text x="67.5" y="0" dx="0em" dy="0.95em" style="text-anchor: middle; visibility: inherit; font-family: &quot;Helvetica Neue&quot;, sans-serif; font-size: 12px; font-weight: 200;" fill="rgb(50, 49, 63)" stroke="none" stroke-width="1px">20</text><text x="90" y="0" dx="0em" dy="0.95em" style="text-anchor: middle; visibility: inherit; font-family: &quot;Helvetica Neue&quot;, sans-serif; font-size: 12px; font-weight: 200;" fill="rgb(50, 49, 63)" stroke="none" stroke-width="1px">30</text><text x="112.5" y="0" dx="0em" dy="0.95em" style="text-anchor: middle; visibility: inherit; font-family: &quot;Helvetica Neue&quot;, sans-serif; font-size: 12px; font-weight: 200;" fill="rgb(50, 49, 63)" stroke="none" stroke-width="1px">40</text><text x="135" y="0" dx="0em" dy="0.95em" style="text-anchor: middle; visibility: inherit; font-family: &quot;Helvetica Neue&quot;, sans-serif; font-size: 12px; font-weight: 200;" fill="rgb(50, 49, 63)" stroke="none" stroke-width="1px">50</text><text x="157.5" y="0" dx="0em" dy="0.95em" style="text-anchor: middle; visibility: inherit; font-family: &quot;Helvetica Neue&quot;, sans-serif; font-size: 12px; font-weight: 200;" fill="rgb(50, 49, 63)" stroke="none" stroke-width="1px">60</text><text x="180" y="0" dx="0em" dy="0.95em" style="text-anchor: middle; visibility: inherit; font-family: &quot;Helvetica Neue&quot;, sans-serif; font-size: 12px; font-weight: 200;" fill="rgb(50, 49, 63)" stroke="none" stroke-width="1px">70</text><text x="202.5" y="0" dx="0em" dy="0.95em" style="text-anchor: middle; visibility: inherit; font-family: &quot;Helvetica Neue&quot;, sans-serif; font-size: 12px; font-weight: 200;" fill="rgb(50, 49, 63)" stroke="none" stroke-width="1px">80</text><text x="225" y="0" dx="0em" dy="0.95em" style="text-anchor: middle; visibility: inherit; font-family: &quot;Helvetica Neue&quot;, sans-serif; font-size: 12px; font-weight: 200;" fill="rgb(50, 49, 63)" stroke="none" stroke-width="1px">90</text><text x="247.5" y="0" dx="0em" dy="0.95em" style="text-anchor: middle; visibility: inherit; font-family: &quot;Helvetica Neue&quot;, sans-serif; font-size: 12px; font-weight: 200;" fill="rgb(50, 49, 63)" stroke="none" stroke-width="1px">100</text><text x="270" y="0" dx="0em" dy="0.95em" style="text-anchor: middle; visibility: hidden; font-family: &quot;Helvetica Neue&quot;, sans-serif; font-size: 12px; font-weight: 200;" fill="rgb(50, 49, 63)" stroke="none" stroke-width="1px">110</text></g><line x1="0" y1="0" x2="270" y2="0" fill="rgb(0, 0, 0)" stroke="rgb(204, 204, 204)" stroke-width="1px"></line></g></g></g></g></svg>