<svg viewBox="0 0 330 200" xmlns="http://www.w3.org/2000/svg"><g><g><g><g><g><line x1="60" y1="178" x2="55" y2="178" style="visibility: inherit;" fill="rgb(0, 0, 0)" stroke="rgb(204, 204, 204)" stroke-width="1px"></line><line x1="60" y1="166.13333333333335" x2="55" y2="166.13333333333335" style="visibility: inherit;" fill="rgb(0, 0, 0)" stroke="rgb(204, 204, 204)" stroke-width="1px"></line><line x1="60" y1="154.26666666666665" x2="55" y2="154.26666666666665" style="visibility: inherit;" fill="rgb(0, 0, 0)" stroke="rgb(204, 204, 204)" stroke-width="1px"></line><line x1="60" y1="142.4" x2="55" y2="142.4" style="visibility: inherit;" fill="rgb(0, 0, 0)" stroke="rgb(204, 204, 204)" stroke-width="1px"></line><line x1="60" y1="130.53333333333333" x2="55" y2="130.53333333333333" style="visibility: inherit;" fill="rgb(0, 0, 0)" stroke="rgb(204, 204, 204)" stroke-width="1px"></line><line x1="60" y1="118.66666666666666" x2="55" y2="118.66666666666666" style="visibility: inherit;" fill="rgb(0, 0, 0)" stroke="rgb(204, 204, 204)" stroke-width="1px"></line><line x1="60" y1="106.80000000000001" x2="55" y2="106.80000000000001" style="visibility: inherit;" fill="rgb(0, 0, 0)" stroke="rgb(204, 204, 204)" stroke-width="1px"></line><line x1="60" y1="94.93333333333334" x2="55" y2="94.93333333333334" style="visibility: inherit;" fill="rgb(0, 0, 0)" stroke="rgb(204, 204, 204)" stroke-width="1px"></line><line x1="60" y1="83.06666666666666" x2="55" y2="83.06666666666666" style="visibility: inherit;" fill="rgb(0, 0, 0)" stroke="rgb(204, 204, 204)" stroke-width="1px"></line><line x1="60" y1="71.19999999999999" x2="55" y2="71.19999999999999" style="visibility: inherit;" fill="rgb(0, 0, 0)" stroke="rgb(204, 204, 204)" stroke-width="1px"></line><line x1="60" y1="59.33333333333334" x2="55" y2="59.33333333333334" style="visibility: inherit;" fill="rgb(0, 0, 0)" stroke="rgb(204, 204, 204)" stroke-width="1px"></line><line x1="60" y1="47.46666666666667" x2="55" y2="47.46666666666667" style="visibility: inherit;" fill="rgb(0, 0, 0)" stroke="rgb(204, 204, 204)" stroke-width="1px"></line><line x1="60" y1="35.599999999999994" x2="55" y2="35.599999999999994" style="visibility: inherit;" fill="rgb(0, 0, 0)" stroke="rgb(204, 204, 204)" stroke-width="1px"></line><line x1="60" y1="23.73333333333332" x2="55" y2="23.73333333333332" style="visibility: inherit;" fill="rgb(0, 0, 0)" stroke="rgb(204, 204, 204)" stroke-width="1px"></line><line x1="60" y1="11.866666666666674" x2="55" y2="11.866666666666674" style="visibility: inherit;" fill="rgb(0, 0, 0)" stroke="rgb(204, 204, 204)" stroke-width="1px"></line><line x1="60" y1="0" x2="55" y2="0" style="visibility: inherit;" fill="rgb(0, 0, 0)" stroke="rgb(204, 204, 204)" stroke-width="1px"></line></g><g transform="translate(50, 0)"><text x="0" y="178" dx="0em" dy="0.3em" style="text-anchor: end; visibility: hidden; font-family: &quot;Helvetica Neue&quot;, sans-serif; font-size: 12px; font-weight: 200;" fill="rgb(50, 49, 63)" stroke="none" stroke-width="1px">0.024</text><text x="0" y="166.13333333333335" dx="0em" dy="0.3em" style="text-anchor: end; visibility: inherit; font-family: &quot;Helvetica Neue&quot;, sans-serif; font-size: 12px; font-weight: 200;" fill="rgb(50, 49, 63)" stroke="none" stroke-width="1px">0.026</text><text x="0" y="154.26666666666665" dx="0em" dy="0.3em" style="text-anchor: end; visibility: hidden; font-family: &quot;Helvetica Neue&quot;, sans-serif; font-size: 12px; font-weight: 200;" fill="rgb(50, 49, 63)" stroke="none" stroke-width="1px">0.028</text><text x="0" y="142.4" dx="0em" dy="0.3em" style="text-anchor: end; visibility: inherit; font-family: &quot;Helvetica Neue&quot;, sans-serif; font-size: 12px; font-weight: 200;" fill="rgb(50, 49, 63)" stroke="none" stroke-width="1px">0.03</text><text x="0" y="130.53333333333333" dx="0em" dy="0.3em" style="text-anchor: end; visibility: hidden; font-family: &quot;Helvetica Neue&quot;, sans-serif; font-size: 12px; font-weight: 200;" fill="rgb(50, 49, 63)" stroke="none" stroke-width="1px">0.032</text><text x="0" y="118.66666666666666" dx="0em" dy="0.3em" style="text-anchor: end; visibility: inherit; font-family: &quot;Helvetica Neue&quot;, sans-serif; font-size: 12px; font-weight: 200;" fill="rgb(50, 49, 63)" stroke="none" stroke-width="1px">0.034</text><text x="0" y="106.80000000000001" dx="0em" dy="0.3em" style="text-anchor: end; visibility: hidden; font-family: &quot;Helvetica Neue&quot;, sans-serif; font-size: 12px; font-weight: 200;" fill="rgb(50, 49, 63)" stroke="none" stroke-width="1px">0.036</text><text x="0" y="94.93333333333334" dx="0em" dy="0.3em" style="text-anchor: end; visibility: inherit; font-family: &quot;Helvetica Neue&quot;, sans-serif; font-size: 12px; font-weight: 200;" fill="rgb(50, 49, 63)" stroke="none" stroke-width="1px">0.038</text><text x="0" y="83.06666666666666" dx="0em" dy="0.3em" style="text-anchor: end; visibility: hidden; font-family: &quot;Helvetica Neue&quot;, sans-serif; font-size: 12px; font-weight: 200;" fill="rgb(50, 49, 63)" stroke="none" stroke-width="1px">0.04</text><text x="0" y="71.19999999999999" dx="0em" dy="0.3em" style="text-anchor: end; visibility: inherit; font-family: &quot;Helvetica Neue&quot;, sans-serif; font-size: 12px; font-weight: 200;" fill="rgb(50, 49, 63)" stroke="none" stroke-width="1px">0.042</text><text x="0" y="59.33333333333334" dx="0em" dy="0.3em" style="text-anchor: end; visibility: hidden; font-family: &quot;Helvetica Neue&quot;, sans-serif; font-size: 12px; font-weight: 200;" fill="rgb(50, 49, 63)" stroke="none" stroke-width="1px">0.044</text><text x="0" y="47.46666666666667" dx="0em" dy="0.3em" style="text-anchor: end; visibility: inherit; font-family: &quot;Helvetica Neue&quot;, sans-serif; font-size: 12px; font-weight: 200;" fill="rgb(50, 49, 63)" stroke="none" stroke-width="1px">0.046</text><text x="0" y="35.599999999999994" dx="0em" dy="0.3em" style="text-anchor: end; visibility: hidden; font-family: &quot;Helvetica Neue&quot;, sans-serif; font-size: 12px; font-weight: 200;" fill="rgb(50, 49, 63)" stroke="none" stroke-width="1px">0.048</text><text x="0" y="23.73333333333332" dx="0em" dy="0.3em" style="text-anchor: end; visibility: inherit; font-family: &quot;Helvetica Neue&quot;, sans-serif; font-size: 12px; font-weight: 200;" fill="rgb(50, 49, 63)" stroke="none" stroke-width="1px">0.05</text><text x="0" y="11.866666666666674" dx="0em" dy="0.3em" style="text-anchor: end; visibility: hidden; font-family: &quot;Helvetica Neue&quot;, sans-serif; font-size: 12px; font-weight: 200;" fill="rgb(50, 49, 63)" stroke="none" stroke-width="1px">0.052</text><text x="0" y="0" dx="0em" dy="0.3em" style="text-anchor: end; visibility: hidden; font-family: &quot;Helvetica Neue&quot;, sans-serif; font-size: 12px; font-weight: 200;" fill="rgb(50, 49, 63)" stroke="none" stroke-width="1px">0.054</text></g><line x1="60" y1="0" x2="60" y2="178" fill="rgb(0, 0, 0)" stroke="rgb(204, 204, 204)" stroke-width="1px"></line></g></g><g transform="translate(60, 0)" clip-path="url(#clip_0)"><clipPath id="clip_0"><rect width="270" height="178"></rect></clipPath><g><g><g><line x1="0" y1="0" x2="0" y2="178" fill="rgb(0, 0, 0)" stroke="rgb(60, 60, 60)" stroke-width="1px" opacity="0.25"></line><line x1="22.5" y1="0" x2="22.5" y2="178" fill="rgb(0, 0, 0)" stroke="rgb(60, 60, 60)" stroke-width="1px" opacity="0.25"></line><line x1="45" y1="0" x2="45" y2="178" fill="rgb(0, 0, 0)" stroke="rgb(60, 60, 60)" stroke-width="1px" opacity="0.25"></line><line x1="67.5" y1="0" x2="67.5" y2="178" fill="rgb(0, 0, 0)" stroke="rgb(60, 60, 60)" stroke-width="1px" opacity="0.25"></line><line x1="90" y1="0" x2="90" y2="178" fill="rgb(0, 0, 0)" stroke="rgb(60, 60, 60)" stroke-width="1px" opacity="0.25"></line><line x1="112.5" y1="0" x2="112.5" y2="178" fill="rgb(0, 0, 0)" stroke="rgb(60, 60, 60)" stroke-width="1px" opacity="0.25"></line><line x1="135" y1="0" x2="135" y2="178" fill="rgb(0, 0, 0)" stroke="rgb(60, 60, 60)" stroke-width="1px" opacity="0.25"></line><line x1="157.5" y1="0" x2="157.5" y2="178" fill="rgb(0, 0, 0)" stroke="rgb(60, 60, 60)" stroke-width="1px" opacity="0.25"></line><line x1="180" y1="0" x2="180" y2="178" fill="rgb(0, 0, 0)" stroke="rgb(60, 60, 60)" stroke-width="1px" opacity="0.25"></line><line x1="202.5" y1="0" x2="202.5" y2="178" fill="rgb(0, 0, 0)" stroke="rgb(60, 60, 60)" stroke-width="1px" opacity="0.25"></line><line x1="225" y1="0" x2="225" y2="178" fill="rgb(0, 0, 0)" stroke="rgb(60, 60, 60)" stroke-width="1px" opacity="0.25"></line><line x1="247.5" y1="0" x2="247.5" y2="178" fill="rgb(0, 0, 0)" stroke="rgb(60, 60, 60)" stroke-width="1px" opacity="0.25"></line><line x1="270" y1="0" x2="270" y2="178" fill="rgb(0, 0, 0)" stroke="rgb(60, 60, 60)" stroke-width="1px" opacity="0.25"></line></g><g><line x1="0" y1="178" x2="270" y2="178" fill="rgb(0, 0, 0)" stroke="rgb(60, 60, 60)" stroke-width="1px" opacity="0.25"></line><line x1="0" y1="166.13333333333335" x2="270" y2="166.13333333333335" fill="rgb(0, 0, 0)" stroke="rgb(60, 60, 60)" stroke-width="1px" opacity="0.25"></line><line x1="0" y1="154.26666666666665" x2="270" y2="154.26666666666665" fill="rgb(0, 0, 0)" stroke="rgb(60, 60, 60)" stroke-width="1px" opacity="0.25"></line><line x1="0" y1="142.4" x2="270" y2="142.4" fill="rgb(0, 0, 0)" stroke="rgb(60, 60, 60)" stroke-width="1px" opacity="0.25"></line><line x1="0" y1="130.53333333333333" x2="270" y2="130.53333333333333" fill="rgb(0, 0, 0)" stroke="rgb(60, 60, 60)" stroke-width="1px" opacity="0.25"></line><line x1="0" y1="118.66666666666666" x2="270" y2="118.66666666666666" fill="rgb(0, 0, 0)" stroke="rgb(60, 60, 60)" stroke-width="1px" opacity="0.25"></line><line x1="0" y1="106.80000000000001" x2="270" y2="106.80000000000001" fill="rgb(0, 0, 0)" stroke="rgb(60, 60, 60)" stroke-width="1px" opacity="0.25"></line><line x1="0" y1="94.93333333333334" x2="270" y2="94.93333333333334" fill="rgb(0, 0, 0)" stroke="rgb(60, 60, 60)" stroke-width="1px" opacity="0.25"></line><line x1="0" y1="83.06666666666666" x2="270" y2="83.06666666666666" fill="rgb(0, 0, 0)" stroke="rgb(60, 60, 60)" stroke-width="1px" opacity="0.25"></line><line x1="0" y1="71.19999999999999" x2="270" y2="71.19999999999999" fill="rgb(0, 0, 0)" stroke="rgb(60, 60, 60)" stroke-width="1px" opacity="0.25"></line><line x1="0" y1="59.33333333333334" x2="270" y2="59.33333333333334" fill="rgb(0, 0, 0)" stroke="rgb(60, 60, 60)" stroke-width="1px" opacity="0.25"></line><line x1="0" y1="47.46666666666667" x2="270" y2="47.46666666666667" fill="rgb(0, 0, 0)" stroke="rgb(60, 60, 60)" stroke-width="1px" opacity="0.25"></line><line x1="0" y1="35.599999999999994" x2="270" y2="35.599999999999994" fill="rgb(0, 0, 0)" stroke="rgb(60, 60, 60)" stroke-width="1px" opacity="0.25"></line><line x1="0" y1="23.73333333333332" x2="270" y2="23.73333333333332" fill="rgb(0, 0, 0)" stroke="rgb(60, 60, 60)" stroke-width="1px" opacity="0.25"></line><line x1="0" y1="11.866666666666674" x2="270" y2="11.866666666666674" fill="rgb(0, 0, 0)" stroke="rgb(60, 60, 60)" stroke-width="1px" opacity="0.25"></line><line x1="0" y1="0" x2="270" y2="0" fill="rgb(0, 0, 0)" stroke="rgb(60, 60, 60)" stroke-width="1px" opacity="0.25"></line></g></g></g><g><g><line x1="0" y1="320.4" x2="270" y2="320.4" fill="rgb(0, 0, 0)" stroke="rgb(153, 153, 153)" stroke-width="1.5px"></line></g></g><g><g><line x1="22.5" y1="0" x2="22.5" y2="178" fill="rgb(0, 0, 0)" stroke="rgb(153, 153, 153)" stroke-width="1.5px"></line></g></g><g><g><g><g><g><path stroke="rgb(238, 51, 119)" stroke-width="2px" d="M24.75,17.131311827898003L27,17.528924168646313L29.25,17.739033234078875L31.5,18.624321813048738L33.75,27.376599968227055L36,41.19522809860018L38.25,58.0744015729485L40.5,73.43503309579016L42.75,84.73344815536365L45,93.71894462140574L47.25,100.45068141784115L49.5,105.95361805445782L51.75,110.5350507408436L54,113.92086208059726L56.25,116.93707525693449L58.5,119.36897107815406L60.75,121.03378746279807L63,123.13486953079274L65.25,124.72899571513383L67.5,126.4742284795101L69.75,127.73171197250804L72,129.35033220521555L74.25,130.04332178183432L76.5,131.1072395129745L78.75,131.41453026340005L81,131.74241728411008L83.25,132.9716525485225L85.5,133.69382661643718L87.75,133.662481997761L90,134.34426883055443L92.25,134.9932996783886L94.5,135.47751073404783L96.75,135.60609464443593L99,136.00548146436614L101.25,136.59612863604332L103.5,136.61997842779977L105.75,136.99774759401947L108,137.35764390159216L110.25,137.63403445461518L112.5,138.23602170177776L114.75,138.25291397788578L117,138.636791129407L119.25,138.81291106874664L121.5,139.2595101265981L123.75,139.42606363271662L126,139.67552958435374L128.25,139.2538895950948L130.5,139.69752043325119L132.75,139.73336835963622L135,139.7114041697764L137.25,139.55522556971138L139.5,140.3114069827656L141.75,140.4492539796192L144,140.9542385852119L146.25,141.4444229508908L148.5,141.37495050224487L150.75,141.57597550745504L153,141.65206986424744L155.25,141.99409756078776L157.5,142.114357592351L159.75,141.94186888000573L162,141.9643472877813L164.25,142.4156052156889L166.5,142.61636295981828L168.75,142.9066777308839L171,143.05109332839993L173.25,143.1836337433677L175.5,142.6672506220989L177.75,143.02923557844872L180,143.01542403273055L182.25,142.99272127492586L184.5,142.52470698839443L186.75,142.90492237102598L189,143.22780882969468L191.25,143.62647448731443L193.5,143.879696271934L195.75,143.46979213642155L198,143.342907350185L200.25,143.2831020416354L202.5,143.3884816162706L204.75,143.39017352578566L207,143.52540929149106L209.25,143.9089516379268L211.5,143.77627201703177L213.75,143.76944628413708L216,144.125879224079L218.25,144.17471508499213L220.5,143.96213479389485L222.75,144.2744838485106L225,144.344665746827L227.25,144.5800027133658L229.5,144.6671621069293L231.75,144.72113317996147L234,144.97355064163537L236.25,144.82356836007L238.5,144.75883874419904L240.75,144.5824781083479L243,144.67521647116035L245.25,144.76507995585894L247.5,144.7112263420838" style="fill: none;" fill="none"></path></g><g><path stroke="rgb(51, 187, 238)" stroke-width="2px" d="M24.75,16.71674066185946L27,17.187653366724618L29.25,17.65689929561549L31.5,18.036876546540356L33.75,22.055736915110543L36,33.5288394677718L38.25,50.280252772553L40.5,67.09500231950149L42.75,80.6494728793325L45,91.02638225462073L47.25,99.0108930355498L49.5,105.0233415298148L51.75,109.75502157123437L54,113.60690794110813L56.25,116.67373419219604L58.5,119.23648414165805L60.75,121.38545522913975L63,123.16382926914468L65.25,124.86181062591885L67.5,126.31855883270266L69.75,127.4684653826368L72,128.70835041035596L74.25,129.6958434125129L76.5,130.6306024041217L78.75,131.3336508914147L81,132.1375762231198L83.25,132.74393068426565L85.5,133.4221594461811L87.75,133.9842534440972L90,134.48778028125372L92.25,134.86823957503768L94.5,135.36674675502704L96.75,135.8338589062327L99,136.13974843206432L101.25,136.39282824662732L103.5,136.8011019729013L105.75,137.12518307741982L108,137.51599382770036L110.25,137.8364270953243L112.5,138.2216319598681L114.75,138.49667873312794L117,138.83423259033967L119.25,139.05792226861942L121.5,139.28714970396575L123.75,139.4802231406171L126,139.62019968282058L128.25,139.9158078761065L130.5,140.24925808457272L132.75,140.27430915404037L135,140.56694510083835L137.25,140.75188082318462L139.5,141.00279649572224L141.75,141.0492610399524L144,141.2852785403294L146.25,141.44724184124254L148.5,141.75804907748267L150.75,142.07344922583803L153,142.26647341506586L155.25,142.37908735786024L157.5,142.4891472787508L159.75,142.59380227272803L162,142.74022123145122L164.25,142.95452167507247L166.5,143.11002828985193L168.75,143.31322146799016L171,143.29383482900766L173.25,143.4188017902822L175.5,143.68861892132264L177.75,143.78684701864898L180,143.84479806589076L182.25,143.85147528668438L184.5,144.04294930350898L186.75,144.11299035778907L189,144.17181356607637L191.25,144.24766278937713L193.5,144.40742916231508L195.75,144.5588126995076L198,144.56353243855096L200.25,144.628642791117L202.5,144.68297802384978L204.75,144.7574916099088L207,144.82381687608822L209.25,144.89991022138275L211.5,145.04289629214094L213.75,145.05400058281276L216,145.08437567304682L218.25,145.28823825091786L220.5,145.4349800426006L222.75,145.3376881999715L225,145.3769437640673L227.25,145.49496698755618L229.5,145.588246806335L231.75,145.7125539560347L234,145.67894215618944L236.25,145.7429049958907L238.5,145.8387294079933L240.75,145.89544159528057L243,145.84707189375027L245.25,146.04019797468504L247.5,146.05731126005045" style="fill: none;" fill="none"></path></g></g></g></g><g opacity="0.2"><g><g><g><path stroke="rgb(238, 51, 119)" stroke-width="2px" d="M24.75,17.131311827898003L27,17.7674915730953L29.25,17.940737936894095L31.5,19.665421181917168L33.75,38.803574327627814L36,60.31136550903321L38.25,82.21188970804215L40.5,95.83098131815592L42.75,101.39641576409339L45,107.061359667778L47.25,110.48723025520643L49.5,114.17807627121607L51.75,117.3922405978044L54,118.99294593334199L56.25,121.45784957607589L58.5,123.01509964863459L60.75,123.53030754526458L63,126.28595916827521L65.25,127.11994214256606L67.5,129.09191810488701L69.75,129.61786824862162L72,131.77820929288865L74.25,131.08279246489207L76.5,132.7031035065651L78.75,131.87546420494715L81,132.23424641688666L83.25,134.8155022998651L85.5,134.77708660960198L87.75,133.61546509861947L90,135.3669487029314L92.25,135.96684573491416L94.5,136.2038272211949L96.75,135.79897049466769L99,136.6045616656542L101.25,137.4820993681749L103.5,136.65575311481953L105.75,137.5644013375044L108,137.89748835961024L110.25,138.04862028261027L112.5,139.13900257050992L114.75,138.27825239201388L117,139.21260685622693L119.25,139.07709097762904L121.5,139.92940871318183L123.75,139.6758938918511L126,140.04972851177058L128.25,138.6214296112458L130.5,140.36296669046084L132.75,139.7871402492126L135,139.6784578849872L137.25,139.32095766961575L139.5,141.44567910234133L141.75,140.65602447489897L144,141.71171549359957L146.25,142.1796994994084L148.5,141.2707418292761L150.75,141.87751301527024L153,141.766211399436L155.25,142.50713910559813L157.5,142.2947476396958L159.75,141.68313581148783L162,141.99806489944459L164.25,143.0924921075503L166.5,142.9174995760123L168.75,143.34214988748232L171,143.2677167246739L173.25,143.3824443658193L175.5,141.89267594019572L177.75,143.57221301297346L180,142.9947067141533L182.25,142.95866713821889L184.5,141.82268555859724L186.75,143.47524544497332L189,143.71213851769767L191.25,144.22447297374407L193.5,144.25952894886336L195.75,142.85493593315283L198,143.1525801708301L200.25,143.19339407881102L202.5,143.54655097822348L204.75,143.3927113900582L207,143.72826294004918L209.25,144.48426515758038L211.5,143.57725258568922L213.75,143.75920768479506L216,144.66052863399187L218.25,144.24796887636185L220.5,143.64326435724894L222.75,144.74300743043423L225,144.44993859430156L227.25,144.933008163174L229.5,144.79790119727454L231.75,144.80208978950978L234,145.35217683414618L236.25,144.59859493772188L238.5,144.66174432039261L240.75,144.3179371545712L243,144.81432401537896L245.25,144.89987518290678L247.5,144.63044592142106" style="fill: none;" fill="none"></path></g><g><path stroke="rgb(51, 187, 238)" stroke-width="2px" d="M24.75,16.71674066185949L27,17.47020098964373L29.25,18.107375387350714L31.5,18.483729793628044L33.75,27.302761012315727L36,49.400270615021384L38.25,74.23504182100297L40.5,91.61106858054796L42.75,100.63968413472175L45,106.43488331039747L47.25,110.91524028182029L49.5,114.00929479201636L51.75,116.83709187706313L54,119.37719124952952L56.25,121.27036862969399L58.5,123.07880161603293L60.75,124.6080024878184L63,125.830938800176L65.25,127.40852399071059L67.5,128.50354799032212L69.75,129.19326214392981L72,130.56813715298972L74.25,131.17706341942153L76.5,132.0327298184236L78.75,132.38821862538657L81,133.3434607923031L83.25,133.6534608244896L85.5,134.43950154781342L87.75,134.82739392320315L90,135.2430702586969L92.25,135.43892838954926L94.5,136.1145074258248L96.75,136.53452707727752L99,136.5985826989015L101.25,136.7724479575952L103.5,137.41351255178452L105.75,137.61130472918353L108,138.1022099494934L110.25,138.31707699497542L112.5,138.79943925539652L114.75,138.90924889246622L117,139.34056337575117L119.25,139.39345678587756L121.5,139.63099085688592L123.75,139.769833295544L126,139.83016449610392L128.25,140.35922016600767L130.5,140.74943339725337L132.75,140.31188575824103L135,141.00589902102948L137.25,141.02928440670172L139.5,141.37917000452677L141.75,141.1189578562975L144,141.6393047908942L146.25,141.69018679261208L148.5,142.22425993184248L150.75,142.54654944837094L153,142.55600969890753L155.25,142.54800827205182L157.5,142.65423716008664L159.75,142.75078476369382L162,142.95984966953597L164.25,143.27597234050432L166.5,143.3432882120212L168.75,143.6180112351974L171,143.26475487053395L173.25,143.60625223219395L175.5,144.09334461788336L177.75,143.93418916463852L180,143.93172463675342L182.25,143.86149111787478L184.5,144.33016032874585L186.75,144.21805193920932L189,144.2600483785073L191.25,144.3614366243283L193.5,144.64707872172198L195.75,144.78588800529639L198,144.57061204711596L200.25,144.726308319966L202.5,144.76448087294898L204.75,144.86926198899747L207,144.92330477535725L209.25,145.01405023932458L211.5,145.25737539827824L213.75,145.07065701882044L216,145.12993830839793L218.25,145.59403211772442L220.5,145.6550927301248L222.75,145.19175043602786L225,145.43582711021105L227.25,145.67200182278953L229.5,145.72816653450332L231.75,145.8990146805843L234,145.62852445642153L236.25,145.83884925544263L238.5,145.98246602614722L240.75,145.9805098762115L243,145.77451734145484L245.25,146.32988709608713L247.5,146.0829811880986" style="fill: none;" fill="none"></path></g></g></g></g></g></g><g transform="translate(60, 178)" clip-path="url(#clip_1)"><clipPath id="clip_1"><rect width="270" height="22"></rect></clipPath><g><g><line x1="0" y1="0" x2="0" y2="5" style="visibility: inherit;" fill="rgb(0, 0, 0)" stroke="rgb(204, 204, 204)" stroke-width="1px"></line><line x1="22.5" y1="0" x2="22.5" y2="5" style="visibility: inherit;" fill="rgb(0, 0, 0)" stroke="rgb(204, 204, 204)" stroke-width="1px"></line><line x1="45" y1="0" x2="45" y2="5" style="visibility: inherit;" fill="rgb(0, 0, 0)" stroke="rgb(204, 204, 204)" stroke-width="1px"></line><line x1="67.5" y1="0" x2="67.5" y2="5" style="visibility: inherit;" fill="rgb(0, 0, 0)" stroke="rgb(204, 204, 204)" stroke-width="1px"></line><line x1="90" y1="0" x2="90" y2="5" style="visibility: inherit;" fill="rgb(0, 0, 0)" stroke="rgb(204, 204, 204)" stroke-width="1px"></line><line x1="112.5" y1="0" x2="112.5" y2="5" style="visibility: inherit;" fill="rgb(0, 0, 0)" stroke="rgb(204, 204, 204)" stroke-width="1px"></line><line x1="135" y1="0" x2="135" y2="5" style="visibility: inherit;" fill="rgb(0, 0, 0)" stroke="rgb(204, 204, 204)" stroke-width="1px"></line><line x1="157.5" y1="0" x2="157.5" y2="5" style="visibility: inherit;" fill="rgb(0, 0, 0)" stroke="rgb(204, 204, 204)" stroke-width="1px"></line><line x1="180" y1="0" x2="180" y2="5" style="visibility: inherit;" fill="rgb(0, 0, 0)" stroke="rgb(204, 204, 204)" stroke-width="1px"></line><line x1="202.5" y1="0" x2="202.5" y2="5" style="visibility: inherit;" fill="rgb(0, 0, 0)" stroke="rgb(204, 204, 204)" stroke-width="1px"></line><line x1="225" y1="0" x2="225" y2="5" style="visibility: inherit;" fill="rgb(0, 0, 0)" stroke="rgb(204, 204, 204)" stroke-width="1px"></line><line x1="247.5" y1="0" x2="247.5" y2="5" style="visibility: inherit;" fill="rgb(0, 0, 0)" stroke="rgb(204, 204, 204)" stroke-width="1px"></line><line x1="270" y1="0" x2="270" y2="5" style="visibility: inherit;" fill="rgb(0, 0, 0)" stroke="rgb(204, 204, 204)" stroke-width="1px"></line></g><g transform="translate(0, 8)"><text x="0" y="0" dx="0em" dy="0.95em" style="text-anchor: middle; visibility: hidden; font-family: &quot;Helvetica Neue&quot;, sans-serif; font-size: 12px; font-weight: 200;" fill="rgb(50, 49, 63)" stroke="none" stroke-width="1px">-10</text><text x="22.5" y="0" dx="0em" dy="0.95em" style="text-anchor: middle; visibility: inherit; font-family: &quot;Helvetica Neue&quot;, sans-serif; font-size: 12px; font-weight: 200;" fill="rgb(50, 49, 63)" stroke="none" stroke-width="1px">0</text><text x="45" y="0" dx="0em" dy="0.95em" style="text-anchor: middle; visibility: inherit; font-family: &quot;Helvetica Neue&quot;, sans-serif; font-size: 12px; font-weight: 200;" fill="rgb(50, 49, 63)" stroke="none" stroke-width="1px">10</text><text x="67.5" y="0" dx="0em" dy="0.95em" style="text-anchor: middle; visibility: inherit; font-family: &quot;Helvetica Neue&quot;, sans-serif; font-size: 12px; font-weight: 200;" fill="rgb(50, 49, 63)" stroke="none" stroke-width="1px">20</text><text x="90" y="0" dx="0em" dy="0.95em" style="text-anchor: middle; visibility: inherit; font-family: &quot;Helvetica Neue&quot;, sans-serif; font-size: 12px; font-weight: 200;" fill="rgb(50, 49, 63)" stroke="none" stroke-width="1px">30</text><text x="112.5" y="0" dx="0em" dy="0.95em" style="text-anchor: middle; visibility: inherit; font-family: &quot;Helvetica Neue&quot;, sans-serif; font-size: 12px; font-weight: 200;" fill="rgb(50, 49, 63)" stroke="none" stroke-width="1px">40</text><text x="135" y="0" dx="0em" dy="0.95em" style="text-anchor: middle; visibility: inherit; font-family: &quot;Helvetica Neue&quot;, sans-serif; font-size: 12px; font-weight: 200;" fill="rgb(50, 49, 63)" stroke="none" stroke-width="1px">50</text><text x="157.5" y="0" dx="0em" dy="0.95em" style="text-anchor: middle; visibility: inherit; font-family: &quot;Helvetica Neue&quot;, sans-serif; font-size: 12px; font-weight: 200;" fill="rgb(50, 49, 63)" stroke="none" stroke-width="1px">60</text><text x="180" y="0" dx="0em" dy="0.95em" style="text-anchor: middle; visibility: inherit; font-family: &quot;Helvetica Neue&quot;, sans-serif; font-size: 12px; font-weight: 200;" fill="rgb(50, 49, 63)" stroke="none" stroke-width="1px">70</text><text x="202.5" y="0" dx="0em" dy="0.95em" style="text-anchor: middle; visibility: inherit; font-family: &quot;Helvetica Neue&quot;, sans-serif; font-size: 12px; font-weight: 200;" fill="rgb(50, 49, 63)" stroke="none" stroke-width="1px">80</text><text x="225" y="0" dx="0em" dy="0.95em" style="text-anchor: middle; visibility: inherit; font-family: &quot;Helvetica Neue&quot;, sans-serif; font-size: 12px; font-weight: 200;" fill="rgb(50, 49, 63)" stroke="none" stroke-width="1px">90</text><text x="247.5" y="0" dx="0em" dy="0.95em" style="text-anchor: middle; visibility: inherit; font-family: &quot;Helvetica Neue&quot;, sans-serif; font-size: 12px; font-weight: 200;" fill="rgb(50, 49, 63)" stroke="none" stroke-width="1px">100</text><text x="270" y="0" dx="0em" dy="0.95em" style="text-anchor: middle; visibility: hidden; font-family: &quot;Helvetica Neue&quot;, sans-serif; font-size: 12px; font-weight: 200;" fill="rgb(50, 49, 63)" stroke="none" stroke-width="1px">110</text></g><line x1="0" y1="0" x2="270" y2="0" fill="rgb(0, 0, 0)" stroke="rgb(204, 204, 204)" stroke-width="1px"></line></g></g></g></g></svg>