<svg viewBox="0 0 330 200" xmlns="http://www.w3.org/2000/svg"><g><g><g><g><g><line x1="60" y1="178" x2="55" y2="178" style="visibility: inherit;" fill="rgb(0, 0, 0)" stroke="rgb(204, 204, 204)" stroke-width="1px"></line><line x1="60" y1="163.16666666666669" x2="55" y2="163.16666666666669" style="visibility: inherit;" fill="rgb(0, 0, 0)" stroke="rgb(204, 204, 204)" stroke-width="1px"></line><line x1="60" y1="148.33333333333334" x2="55" y2="148.33333333333334" style="visibility: inherit;" fill="rgb(0, 0, 0)" stroke="rgb(204, 204, 204)" stroke-width="1px"></line><line x1="60" y1="133.5" x2="55" y2="133.5" style="visibility: inherit;" fill="rgb(0, 0, 0)" stroke="rgb(204, 204, 204)" stroke-width="1px"></line><line x1="60" y1="118.66666666666667" x2="55" y2="118.66666666666667" style="visibility: inherit;" fill="rgb(0, 0, 0)" stroke="rgb(204, 204, 204)" stroke-width="1px"></line><line x1="60" y1="103.83333333333331" x2="55" y2="103.83333333333331" style="visibility: inherit;" fill="rgb(0, 0, 0)" stroke="rgb(204, 204, 204)" stroke-width="1px"></line><line x1="60" y1="89.00000000000003" x2="55" y2="89.00000000000003" style="visibility: inherit;" fill="rgb(0, 0, 0)" stroke="rgb(204, 204, 204)" stroke-width="1px"></line><line x1="60" y1="74.16666666666669" x2="55" y2="74.16666666666669" style="visibility: inherit;" fill="rgb(0, 0, 0)" stroke="rgb(204, 204, 204)" stroke-width="1px"></line><line x1="60" y1="59.33333333333334" x2="55" y2="59.33333333333334" style="visibility: inherit;" fill="rgb(0, 0, 0)" stroke="rgb(204, 204, 204)" stroke-width="1px"></line><line x1="60" y1="44.49999999999997" x2="55" y2="44.49999999999997" style="visibility: inherit;" fill="rgb(0, 0, 0)" stroke="rgb(204, 204, 204)" stroke-width="1px"></line><line x1="60" y1="29.666666666666686" x2="55" y2="29.666666666666686" style="visibility: inherit;" fill="rgb(0, 0, 0)" stroke="rgb(204, 204, 204)" stroke-width="1px"></line><line x1="60" y1="14.833333333333343" x2="55" y2="14.833333333333343" style="visibility: inherit;" fill="rgb(0, 0, 0)" stroke="rgb(204, 204, 204)" stroke-width="1px"></line><line x1="60" y1="0" x2="55" y2="0" style="visibility: inherit;" fill="rgb(0, 0, 0)" stroke="rgb(204, 204, 204)" stroke-width="1px"></line></g><g transform="translate(50, 0)"><text x="0" y="178" dx="0em" dy="0.3em" style="text-anchor: end; visibility: hidden; font-family: &quot;Helvetica Neue&quot;, sans-serif; font-size: 12px; font-weight: 200;" fill="rgb(50, 49, 63)" stroke="none" stroke-width="1px">0.024</text><text x="0" y="163.16666666666669" dx="0em" dy="0.3em" style="text-anchor: end; visibility: inherit; font-family: &quot;Helvetica Neue&quot;, sans-serif; font-size: 12px; font-weight: 200;" fill="rgb(50, 49, 63)" stroke="none" stroke-width="1px">0.026</text><text x="0" y="148.33333333333334" dx="0em" dy="0.3em" style="text-anchor: end; visibility: hidden; font-family: &quot;Helvetica Neue&quot;, sans-serif; font-size: 12px; font-weight: 200;" fill="rgb(50, 49, 63)" stroke="none" stroke-width="1px">0.028</text><text x="0" y="133.5" dx="0em" dy="0.3em" style="text-anchor: end; visibility: inherit; font-family: &quot;Helvetica Neue&quot;, sans-serif; font-size: 12px; font-weight: 200;" fill="rgb(50, 49, 63)" stroke="none" stroke-width="1px">0.03</text><text x="0" y="118.66666666666667" dx="0em" dy="0.3em" style="text-anchor: end; visibility: hidden; font-family: &quot;Helvetica Neue&quot;, sans-serif; font-size: 12px; font-weight: 200;" fill="rgb(50, 49, 63)" stroke="none" stroke-width="1px">0.032</text><text x="0" y="103.83333333333331" dx="0em" dy="0.3em" style="text-anchor: end; visibility: inherit; font-family: &quot;Helvetica Neue&quot;, sans-serif; font-size: 12px; font-weight: 200;" fill="rgb(50, 49, 63)" stroke="none" stroke-width="1px">0.034</text><text x="0" y="89.00000000000003" dx="0em" dy="0.3em" style="text-anchor: end; visibility: hidden; font-family: &quot;Helvetica Neue&quot;, sans-serif; font-size: 12px; font-weight: 200;" fill="rgb(50, 49, 63)" stroke="none" stroke-width="1px">0.036</text><text x="0" y="74.16666666666669" dx="0em" dy="0.3em" style="text-anchor: end; visibility: inherit; font-family: &quot;Helvetica Neue&quot;, sans-serif; font-size: 12px; font-weight: 200;" fill="rgb(50, 49, 63)" stroke="none" stroke-width="1px">0.038</text><text x="0" y="59.33333333333334" dx="0em" dy="0.3em" style="text-anchor: end; visibility: hidden; font-family: &quot;Helvetica Neue&quot;, sans-serif; font-size: 12px; font-weight: 200;" fill="rgb(50, 49, 63)" stroke="none" stroke-width="1px">0.04</text><text x="0" y="44.49999999999997" dx="0em" dy="0.3em" style="text-anchor: end; visibility: inherit; font-family: &quot;Helvetica Neue&quot;, sans-serif; font-size: 12px; font-weight: 200;" fill="rgb(50, 49, 63)" stroke="none" stroke-width="1px">0.042</text><text x="0" y="29.666666666666686" dx="0em" dy="0.3em" style="text-anchor: end; visibility: hidden; font-family: &quot;Helvetica Neue&quot;, sans-serif; font-size: 12px; font-weight: 200;" fill="rgb(50, 49, 63)" stroke="none" stroke-width="1px">0.044</text><text x="0" y="14.833333333333343" dx="0em" dy="0.3em" style="text-anchor: end; visibility: inherit; font-family: &quot;Helvetica Neue&quot;, sans-serif; font-size: 12px; font-weight: 200;" fill="rgb(50, 49, 63)" stroke="none" stroke-width="1px">0.046</text><text x="0" y="0" dx="0em" dy="0.3em" style="text-anchor: end; visibility: hidden; font-family: &quot;Helvetica Neue&quot;, sans-serif; font-size: 12px; font-weight: 200;" fill="rgb(50, 49, 63)" stroke="none" stroke-width="1px">0.048</text></g><line x1="60" y1="0" x2="60" y2="178" fill="rgb(0, 0, 0)" stroke="rgb(204, 204, 204)" stroke-width="1px"></line></g></g><g transform="translate(60, 0)" clip-path="url(#clip_0)"><clipPath id="clip_0"><rect width="270" height="178"></rect></clipPath><g><g><g><line x1="0" y1="0" x2="0" y2="178" fill="rgb(0, 0, 0)" stroke="rgb(60, 60, 60)" stroke-width="1px" opacity="0.25"></line><line x1="22.5" y1="0" x2="22.5" y2="178" fill="rgb(0, 0, 0)" stroke="rgb(60, 60, 60)" stroke-width="1px" opacity="0.25"></line><line x1="45" y1="0" x2="45" y2="178" fill="rgb(0, 0, 0)" stroke="rgb(60, 60, 60)" stroke-width="1px" opacity="0.25"></line><line x1="67.5" y1="0" x2="67.5" y2="178" fill="rgb(0, 0, 0)" stroke="rgb(60, 60, 60)" stroke-width="1px" opacity="0.25"></line><line x1="90" y1="0" x2="90" y2="178" fill="rgb(0, 0, 0)" stroke="rgb(60, 60, 60)" stroke-width="1px" opacity="0.25"></line><line x1="112.5" y1="0" x2="112.5" y2="178" fill="rgb(0, 0, 0)" stroke="rgb(60, 60, 60)" stroke-width="1px" opacity="0.25"></line><line x1="135" y1="0" x2="135" y2="178" fill="rgb(0, 0, 0)" stroke="rgb(60, 60, 60)" stroke-width="1px" opacity="0.25"></line><line x1="157.5" y1="0" x2="157.5" y2="178" fill="rgb(0, 0, 0)" stroke="rgb(60, 60, 60)" stroke-width="1px" opacity="0.25"></line><line x1="180" y1="0" x2="180" y2="178" fill="rgb(0, 0, 0)" stroke="rgb(60, 60, 60)" stroke-width="1px" opacity="0.25"></line><line x1="202.5" y1="0" x2="202.5" y2="178" fill="rgb(0, 0, 0)" stroke="rgb(60, 60, 60)" stroke-width="1px" opacity="0.25"></line><line x1="225" y1="0" x2="225" y2="178" fill="rgb(0, 0, 0)" stroke="rgb(60, 60, 60)" stroke-width="1px" opacity="0.25"></line><line x1="247.5" y1="0" x2="247.5" y2="178" fill="rgb(0, 0, 0)" stroke="rgb(60, 60, 60)" stroke-width="1px" opacity="0.25"></line><line x1="270" y1="0" x2="270" y2="178" fill="rgb(0, 0, 0)" stroke="rgb(60, 60, 60)" stroke-width="1px" opacity="0.25"></line></g><g><line x1="0" y1="178" x2="270" y2="178" fill="rgb(0, 0, 0)" stroke="rgb(60, 60, 60)" stroke-width="1px" opacity="0.25"></line><line x1="0" y1="163.16666666666669" x2="270" y2="163.16666666666669" fill="rgb(0, 0, 0)" stroke="rgb(60, 60, 60)" stroke-width="1px" opacity="0.25"></line><line x1="0" y1="148.33333333333334" x2="270" y2="148.33333333333334" fill="rgb(0, 0, 0)" stroke="rgb(60, 60, 60)" stroke-width="1px" opacity="0.25"></line><line x1="0" y1="133.5" x2="270" y2="133.5" fill="rgb(0, 0, 0)" stroke="rgb(60, 60, 60)" stroke-width="1px" opacity="0.25"></line><line x1="0" y1="118.66666666666667" x2="270" y2="118.66666666666667" fill="rgb(0, 0, 0)" stroke="rgb(60, 60, 60)" stroke-width="1px" opacity="0.25"></line><line x1="0" y1="103.83333333333331" x2="270" y2="103.83333333333331" fill="rgb(0, 0, 0)" stroke="rgb(60, 60, 60)" stroke-width="1px" opacity="0.25"></line><line x1="0" y1="89.00000000000003" x2="270" y2="89.00000000000003" fill="rgb(0, 0, 0)" stroke="rgb(60, 60, 60)" stroke-width="1px" opacity="0.25"></line><line x1="0" y1="74.16666666666669" x2="270" y2="74.16666666666669" fill="rgb(0, 0, 0)" stroke="rgb(60, 60, 60)" stroke-width="1px" opacity="0.25"></line><line x1="0" y1="59.33333333333334" x2="270" y2="59.33333333333334" fill="rgb(0, 0, 0)" stroke="rgb(60, 60, 60)" stroke-width="1px" opacity="0.25"></line><line x1="0" y1="44.49999999999997" x2="270" y2="44.49999999999997" fill="rgb(0, 0, 0)" stroke="rgb(60, 60, 60)" stroke-width="1px" opacity="0.25"></line><line x1="0" y1="29.666666666666686" x2="270" y2="29.666666666666686" fill="rgb(0, 0, 0)" stroke="rgb(60, 60, 60)" stroke-width="1px" opacity="0.25"></line><line x1="0" y1="14.833333333333343" x2="270" y2="14.833333333333343" fill="rgb(0, 0, 0)" stroke="rgb(60, 60, 60)" stroke-width="1px" opacity="0.25"></line><line x1="0" y1="0" x2="270" y2="0" fill="rgb(0, 0, 0)" stroke="rgb(60, 60, 60)" stroke-width="1px" opacity="0.25"></line></g></g></g><g><g><line x1="0" y1="356" x2="270" y2="356" fill="rgb(0, 0, 0)" stroke="rgb(153, 153, 153)" stroke-width="1.5px"></line></g></g><g><g><line x1="22.5" y1="0" x2="22.5" y2="178" fill="rgb(0, 0, 0)" stroke="rgb(153, 153, 153)" stroke-width="1.5px"></line></g></g><g><g><g><g><g><path style="fill: none;" stroke="rgb(238, 51, 119)" stroke-width="2px" d="M24.75,29.90397594620785L27,26.027473204148322L29.25,25.649860131091827L31.5,26.897550362746614L33.75,29.306758401787476L36,32.44666526429927L38.25,35.70583697240315L40.5,38.49742525813201L42.75,40.507893076644194L45,41.70915578395363L47.25,42.23088380236564L49.5,42.240226358013786L51.75,41.89177959523224L54,41.30567878056914L56.25,40.568283060482514L58.5,39.73055953382112L60.75,38.8225655894571L63,37.865254882123L65.25,36.88032416013834L67.5,35.894844218442245L69.75,34.91994447651251L72,33.99604733358302L74.25,33.10263711223334L76.5,36.50165839964603L78.75,38.53627546696845L81,39.761960017756536L83.25,40.50291736646341L85.5,40.95419967304781L87.75,41.232019863357436L90,41.40606129053177L92.25,41.5189738247536L94.5,41.59502115897041L96.75,41.649888772713695L99,41.6933526561877L101.25,41.72954328616419L103.5,41.76374607872452L105.75,41.794744760535195L108,41.825456626772876L110.25,41.858604603618744L112.5,41.893490539206255L114.75,41.92710944588487L117,41.96225583600011L119.25,42.002938324504896L121.5,42.04070931631611L123.75,42.0814082769096L126,42.12457132722449L128.25,42.16738930177161L130.5,42.20757990975153L132.75,42.256030105942955L135,42.30644104583766L137.25,42.355243404927364L139.5,42.405644608670144L141.75,42.46758159089114L144,42.543457866239834L146.25,42.60620217156119L148.5,42.65807228564242L150.75,42.72766530282709L153,42.7988075689519L155.25,42.87836138165261L157.5,42.99825018300379L159.75,43.08260556849103L162,43.15505694821829L164.25,43.17421404804003L166.5,43.282079084427465L168.75,43.56270401102975L171,43.967585230406144L173.25,44.41471612227127L175.5,44.91030591093795L177.75,45.3369867137867L180,45.74284512192793L182.25,46.07369065716341L184.5,46.38885966599665L186.75,46.598417757912586L189,46.89186207789032L191.25,47.12825987043689L193.5,47.294931703623405L195.75,47.50801574219241L198,47.704607705447955L200.25,47.86623918027115L202.5,48.02203518357135L204.75,48.21087785784161L207,48.37543017004185L209.25,48.556286699578635L211.5,48.70958208362586L213.75,48.905478397927595L216,49.13107965583916L218.25,49.30273417549523L220.5,49.528444903595386L222.75,49.80228276302606L225,49.99219225496171L227.25,50.108491961062626L229.5,50.37241690292005L231.75,51.10764822026516L234,51.5259984165058L236.25,51.75869587637736L238.5,51.88268725620364L240.75,51.94478154806289L243,51.970080189673055L245.25,51.97083691324866L247.5,51.96958898643297" fill="none"></path></g><g><path stroke="rgb(51, 187, 238)" stroke-width="2px" d="M24.75,58.24480330944061L27,112.21516653336586L29.25,129.37521653888484L31.5,137.05119504228549L33.75,141.0040338167384L36,143.18729595905637L38.25,144.44016103159936L40.5,145.17518210231574L42.75,145.61225461053408L45,145.87445281923326L47.25,146.03275548041034L49.5,146.12884733199013L51.75,146.18748607931627L54,146.22347745210453L56.25,146.2457231585566L58.5,146.259594517432L60.75,146.268334863336L63,146.27391523485596L65.25,146.2775338780477L67.5,146.27993701690534L69.75,146.28155014901017L72,146.2826782573052L74.25,146.28346563059753L76.5,146.22712654555363L78.75,146.2503612231236L81,146.26433514252938L83.25,146.27276368574056L85.5,146.27783738369837L87.75,146.2809037038762L90,146.2827655986538L92.25,146.28389378695297L94.5,146.28458727737987L96.75,146.28505863007604L99,146.2853580192217L101.25,146.28555423024565L103.5,146.2856774827052L105.75,146.28575696002744L108,146.28581017226776L110.25,146.2858420996118L112.5,146.2858723077128L114.75,146.2859014842679L117,146.28592451604823L119.25,146.28596043850555L121.5,146.28602067291084L123.75,146.28605681355407L126,146.28607849793994L128.25,146.28610256026604L130.5,146.28612804935625L132.75,146.28614334281033L135,146.28615251888283L137.25,146.28615802452632L139.5,146.2861668537597L141.75,146.28617215129975L144,146.28617532982378L146.25,146.2861772369382L148.5,146.28617838120678L150.75,146.28617906776796L153,146.28617947970466L155.25,146.28617972686672L157.5,146.28617987516395L159.75,146.2861799641423L162,146.2861800175293L164.25,146.28618004956147L166.5,146.28618006878077L168.75,146.28618008031236L171,146.28618008723132L173.25,146.2861800913827L175.5,146.28618009387355L177.75,146.28618009536802L180,146.2861800962647L182.25,146.28618009680272L184.5,146.2861800971255L186.75,146.28618009731923L189,146.28618009743545L191.25,146.2861800975052L193.5,146.28618009754703L195.75,146.28618009757213L198,146.28618009758716L200.25,146.28618009759623L202.5,146.28618009760163L204.75,146.28618009760487L207,146.28618009760683L209.25,146.28618009760802L211.5,146.28618009760874L213.75,146.28618009760913L216,146.28618009760942L218.25,146.28618009760956L220.5,146.28618009760964L222.75,146.2861800976097L225,146.2861800976097L227.25,146.2861800976097L229.5,146.2861800976097L231.75,146.2177203757067L234,146.24510426446793L236.25,146.26153459772465L238.5,146.2713927976787L240.75,146.27730771765113L243,146.28085666963457L245.25,146.28298604082465L247.5,146.2842636635387" style="fill: none;" fill="none"></path></g></g></g></g><g opacity="0.2"><g><g><g><path style="fill: none;" stroke="rgb(238, 51, 119)" stroke-width="2px" d="M24.75,29.90397594620785L27,23.701571558912605L29.25,25.28735158095759L31.5,28.36483407517275L33.75,32.45222041755915L36,36.79028682162365L38.25,40.36650466173887L40.5,42.56758777797222L42.75,43.472942595680564L45,43.49289090434712L47.25,43.00874379525584L49.5,42.25418934971094L51.75,41.37024719019732L54,40.427675791084766L56.25,39.463056261340796L58.5,38.47456507136425L60.75,37.460958905518055L63,36.42953188220662L65.25,35.4030781214436L67.5,34.416714382668346L69.75,33.45764832943678L72,32.61023202041787L74.25,31.762539419035136L76.5,41.600150066117465L78.75,41.58818660676479L81,41.60048161695403L83.25,41.61435149361691L85.5,41.631122440099716L87.75,41.64874989291033L90,41.66712333510321L92.25,41.68834258864325L94.5,41.70909214516482L96.75,41.73219018677872L99,41.75854847828549L101.25,41.78382922957343L103.5,41.8150502666831L105.75,41.84124278277159L108,41.87152442584437L110.25,41.908326568702876L112.5,41.94581944247088L114.75,41.977537805835425L117,42.01497542113066L119.25,42.06396205723286L121.5,42.09736580401659L123.75,42.14245671778917L126,42.18931590269011L128.25,42.23161626358828L130.5,42.26786582171917L132.75,42.3287054002285L135,42.38205745567879L137.25,42.428446943561255L139.5,42.48124641428393L141.75,42.560487064222514L144,42.65727227926254L146.25,42.700318629543005L148.5,42.7358774567644L150.75,42.83205482860407L153,42.90552096813917L155.25,42.997692100703716L157.5,43.17808338503045L159.75,43.20913864672184L162,43.26373401780924L164.25,43.20294969777268L166.5,43.44387663900852L168.75,43.983641400933266L171,44.57490705947083L173.25,45.08541246006888L175.5,45.65369059393805L177.75,45.977007918059826L180,46.35163273413977L182.25,46.56995896001658L184.5,46.8616131792466L186.75,46.91275489578646L189,47.33202855785689L191.25,47.48285655925673L193.5,47.544939453403174L195.75,47.82764180004597L198,47.9994956503312L200.25,48.10868639250597L202.5,48.25572918852171L204.75,48.49414186924696L207,48.62225863834223L209.25,48.82757149388394L211.5,48.93952515969676L213.75,49.199322869380325L216,49.46948154270649L218.25,49.56021595497927L220.5,49.86701099574566L222.75,50.213039552172035L225,50.277056492865086L227.25,50.28294152021408L229.5,50.768304315706104L231.75,52.210495196282864L234,52.15352371086678L236.25,52.1077420661847L238.5,52.06867432594299L240.75,52.037922985851765L243,52.00802815208834L245.25,51.971971998612105L247.5,51.967717096209526" fill="none"></path></g><g><path stroke="rgb(51, 187, 238)" stroke-width="2px" d="M24.75,58.24480330944061L27,144.59738446772099L29.25,145.84886454418302L31.5,146.0781457622846L33.75,146.16486012066406L36,146.20753347625336L38.25,146.23177813117704L40.5,146.24684987962246L42.75,146.25685166319212L45,146.26378660152358L47.25,146.2687736786902L49.5,146.27246218174696L51.75,146.27525273462138L54,146.27739400044084L56.25,146.27906556924185L58.5,146.2803917725881L60.75,146.28144168357056L63,146.28228437528014L65.25,146.28296129157147L67.5,146.28354150553545L69.75,146.28396975869936L72,146.28437038262686L74.25,146.28464667499065L76.5,146.14261858537793L78.75,146.28521307433647L81,146.2852959620456L83.25,146.28540647899112L85.5,146.2854479228457L87.75,146.28550318131846L90,146.2855584397912L92.25,146.2855860690276L94.5,146.28562751288217L96.75,146.28576565906405L99,146.28580710291862L101.25,146.2858485467732L103.5,146.2858623613914L105.75,146.2858761760096L108,146.28588999062777L110.25,146.28588999062777L112.5,146.28591761986416L114.75,146.28594524910054L117,146.28595906371874L119.25,146.28601432219148L121.5,146.28611102451882L123.75,146.28611102451882L126,146.28611102451882L128.25,146.2861386537552L130.5,146.2861662829916L132.75,146.2861662829916L135,146.2861662829916L137.25,146.2861662829916L139.5,146.28618009760976L141.75,146.28618009760976L144,146.28618009760976L146.25,146.28618009760976L148.5,146.28618009760976L150.75,146.28618009760976L153,146.28618009760976L155.25,146.28618009760976L157.5,146.28618009760976L159.75,146.28618009760976L162,146.28618009760976L164.25,146.28618009760976L166.5,146.28618009760976L168.75,146.28618009760976L171,146.28618009760976L173.25,146.28618009760976L175.5,146.28618009760976L177.75,146.28618009760976L180,146.28618009760976L182.25,146.28618009760976L184.5,146.28618009760976L186.75,146.28618009760976L189,146.28618009760976L191.25,146.28618009760976L193.5,146.28618009760976L195.75,146.28618009760976L198,146.28618009760976L200.25,146.28618009760976L202.5,146.28618009760976L204.75,146.28618009760976L207,146.28618009760976L209.25,146.28618009760976L211.5,146.28618009760976L213.75,146.28618009760976L216,146.28618009760976L218.25,146.28618009760976L220.5,146.28618009760976L222.75,146.28618009760976L225,146.28618009760976L227.25,146.28618009760976L229.5,146.28618009760976L231.75,146.11503079285225L234,146.28618009760976L236.25,146.28618009760976L238.5,146.28618009760976L240.75,146.28618009760976L243,146.28618009760976L245.25,146.28618009760976L247.5,146.28618009760976" style="fill: none;" fill="none"></path></g></g></g></g></g></g><g transform="translate(60, 178)" clip-path="url(#clip_1)"><clipPath id="clip_1"><rect width="270" height="22"></rect></clipPath><g><g><line x1="0" y1="0" x2="0" y2="5" style="visibility: inherit;" fill="rgb(0, 0, 0)" stroke="rgb(204, 204, 204)" stroke-width="1px"></line><line x1="22.5" y1="0" x2="22.5" y2="5" style="visibility: inherit;" fill="rgb(0, 0, 0)" stroke="rgb(204, 204, 204)" stroke-width="1px"></line><line x1="45" y1="0" x2="45" y2="5" style="visibility: inherit;" fill="rgb(0, 0, 0)" stroke="rgb(204, 204, 204)" stroke-width="1px"></line><line x1="67.5" y1="0" x2="67.5" y2="5" style="visibility: inherit;" fill="rgb(0, 0, 0)" stroke="rgb(204, 204, 204)" stroke-width="1px"></line><line x1="90" y1="0" x2="90" y2="5" style="visibility: inherit;" fill="rgb(0, 0, 0)" stroke="rgb(204, 204, 204)" stroke-width="1px"></line><line x1="112.5" y1="0" x2="112.5" y2="5" style="visibility: inherit;" fill="rgb(0, 0, 0)" stroke="rgb(204, 204, 204)" stroke-width="1px"></line><line x1="135" y1="0" x2="135" y2="5" style="visibility: inherit;" fill="rgb(0, 0, 0)" stroke="rgb(204, 204, 204)" stroke-width="1px"></line><line x1="157.5" y1="0" x2="157.5" y2="5" style="visibility: inherit;" fill="rgb(0, 0, 0)" stroke="rgb(204, 204, 204)" stroke-width="1px"></line><line x1="180" y1="0" x2="180" y2="5" style="visibility: inherit;" fill="rgb(0, 0, 0)" stroke="rgb(204, 204, 204)" stroke-width="1px"></line><line x1="202.5" y1="0" x2="202.5" y2="5" style="visibility: inherit;" fill="rgb(0, 0, 0)" stroke="rgb(204, 204, 204)" stroke-width="1px"></line><line x1="225" y1="0" x2="225" y2="5" style="visibility: inherit;" fill="rgb(0, 0, 0)" stroke="rgb(204, 204, 204)" stroke-width="1px"></line><line x1="247.5" y1="0" x2="247.5" y2="5" style="visibility: inherit;" fill="rgb(0, 0, 0)" stroke="rgb(204, 204, 204)" stroke-width="1px"></line><line x1="270" y1="0" x2="270" y2="5" style="visibility: inherit;" fill="rgb(0, 0, 0)" stroke="rgb(204, 204, 204)" stroke-width="1px"></line></g><g transform="translate(0, 8)"><text x="0" y="0" dx="0em" dy="0.95em" style="text-anchor: middle; visibility: hidden; font-family: &quot;Helvetica Neue&quot;, sans-serif; font-size: 12px; font-weight: 200;" fill="rgb(50, 49, 63)" stroke="none" stroke-width="1px">-10</text><text x="22.5" y="0" dx="0em" dy="0.95em" style="text-anchor: middle; visibility: inherit; font-family: &quot;Helvetica Neue&quot;, sans-serif; font-size: 12px; font-weight: 200;" fill="rgb(50, 49, 63)" stroke="none" stroke-width="1px">0</text><text x="45" y="0" dx="0em" dy="0.95em" style="text-anchor: middle; visibility: inherit; font-family: &quot;Helvetica Neue&quot;, sans-serif; font-size: 12px; font-weight: 200;" fill="rgb(50, 49, 63)" stroke="none" stroke-width="1px">10</text><text x="67.5" y="0" dx="0em" dy="0.95em" style="text-anchor: middle; visibility: inherit; font-family: &quot;Helvetica Neue&quot;, sans-serif; font-size: 12px; font-weight: 200;" fill="rgb(50, 49, 63)" stroke="none" stroke-width="1px">20</text><text x="90" y="0" dx="0em" dy="0.95em" style="text-anchor: middle; visibility: inherit; font-family: &quot;Helvetica Neue&quot;, sans-serif; font-size: 12px; font-weight: 200;" fill="rgb(50, 49, 63)" stroke="none" stroke-width="1px">30</text><text x="112.5" y="0" dx="0em" dy="0.95em" style="text-anchor: middle; visibility: inherit; font-family: &quot;Helvetica Neue&quot;, sans-serif; font-size: 12px; font-weight: 200;" fill="rgb(50, 49, 63)" stroke="none" stroke-width="1px">40</text><text x="135" y="0" dx="0em" dy="0.95em" style="text-anchor: middle; visibility: inherit; font-family: &quot;Helvetica Neue&quot;, sans-serif; font-size: 12px; font-weight: 200;" fill="rgb(50, 49, 63)" stroke="none" stroke-width="1px">50</text><text x="157.5" y="0" dx="0em" dy="0.95em" style="text-anchor: middle; visibility: inherit; font-family: &quot;Helvetica Neue&quot;, sans-serif; font-size: 12px; font-weight: 200;" fill="rgb(50, 49, 63)" stroke="none" stroke-width="1px">60</text><text x="180" y="0" dx="0em" dy="0.95em" style="text-anchor: middle; visibility: inherit; font-family: &quot;Helvetica Neue&quot;, sans-serif; font-size: 12px; font-weight: 200;" fill="rgb(50, 49, 63)" stroke="none" stroke-width="1px">70</text><text x="202.5" y="0" dx="0em" dy="0.95em" style="text-anchor: middle; visibility: inherit; font-family: &quot;Helvetica Neue&quot;, sans-serif; font-size: 12px; font-weight: 200;" fill="rgb(50, 49, 63)" stroke="none" stroke-width="1px">80</text><text x="225" y="0" dx="0em" dy="0.95em" style="text-anchor: middle; visibility: inherit; font-family: &quot;Helvetica Neue&quot;, sans-serif; font-size: 12px; font-weight: 200;" fill="rgb(50, 49, 63)" stroke="none" stroke-width="1px">90</text><text x="247.5" y="0" dx="0em" dy="0.95em" style="text-anchor: middle; visibility: inherit; font-family: &quot;Helvetica Neue&quot;, sans-serif; font-size: 12px; font-weight: 200;" fill="rgb(50, 49, 63)" stroke="none" stroke-width="1px">100</text><text x="270" y="0" dx="0em" dy="0.95em" style="text-anchor: middle; visibility: hidden; font-family: &quot;Helvetica Neue&quot;, sans-serif; font-size: 12px; font-weight: 200;" fill="rgb(50, 49, 63)" stroke="none" stroke-width="1px">110</text></g><line x1="0" y1="0" x2="270" y2="0" fill="rgb(0, 0, 0)" stroke="rgb(204, 204, 204)" stroke-width="1px"></line></g></g></g></g></svg>