<svg viewBox="0 0 330 200" xmlns="http://www.w3.org/2000/svg"><g><g><g><g><g><line x1="60" y1="178" x2="55" y2="178" style="visibility: inherit;" fill="rgb(0, 0, 0)" stroke="rgb(204, 204, 204)" stroke-width="1px"></line><line x1="60" y1="160.2" x2="55" y2="160.2" style="visibility: inherit;" fill="rgb(0, 0, 0)" stroke="rgb(204, 204, 204)" stroke-width="1px"></line><line x1="60" y1="142.4" x2="55" y2="142.4" style="visibility: inherit;" fill="rgb(0, 0, 0)" stroke="rgb(204, 204, 204)" stroke-width="1px"></line><line x1="60" y1="124.6" x2="55" y2="124.6" style="visibility: inherit;" fill="rgb(0, 0, 0)" stroke="rgb(204, 204, 204)" stroke-width="1px"></line><line x1="60" y1="106.8" x2="55" y2="106.8" style="visibility: inherit;" fill="rgb(0, 0, 0)" stroke="rgb(204, 204, 204)" stroke-width="1px"></line><line x1="60" y1="88.99999999999999" x2="55" y2="88.99999999999999" style="visibility: inherit;" fill="rgb(0, 0, 0)" stroke="rgb(204, 204, 204)" stroke-width="1px"></line><line x1="60" y1="71.19999999999999" x2="55" y2="71.19999999999999" style="visibility: inherit;" fill="rgb(0, 0, 0)" stroke="rgb(204, 204, 204)" stroke-width="1px"></line><line x1="60" y1="53.400000000000006" x2="55" y2="53.400000000000006" style="visibility: inherit;" fill="rgb(0, 0, 0)" stroke="rgb(204, 204, 204)" stroke-width="1px"></line><line x1="60" y1="35.599999999999994" x2="55" y2="35.599999999999994" style="visibility: inherit;" fill="rgb(0, 0, 0)" stroke="rgb(204, 204, 204)" stroke-width="1px"></line><line x1="60" y1="17.799999999999983" x2="55" y2="17.799999999999983" style="visibility: inherit;" fill="rgb(0, 0, 0)" stroke="rgb(204, 204, 204)" stroke-width="1px"></line><line x1="60" y1="0" x2="55" y2="0" style="visibility: inherit;" fill="rgb(0, 0, 0)" stroke="rgb(204, 204, 204)" stroke-width="1px"></line></g><g transform="translate(50, 0)"><text x="0" y="178" dx="0em" dy="0.3em" style="text-anchor: end; visibility: hidden; font-family: &quot;Helvetica Neue&quot;, sans-serif; font-size: 12px; font-weight: 200;" fill="rgb(50, 49, 63)" stroke="none" stroke-width="1px">-0.01</text><text x="0" y="160.2" dx="0em" dy="0.3em" style="text-anchor: end; visibility: inherit; font-family: &quot;Helvetica Neue&quot;, sans-serif; font-size: 12px; font-weight: 200;" fill="rgb(50, 49, 63)" stroke="none" stroke-width="1px">0</text><text x="0" y="142.4" dx="0em" dy="0.3em" style="text-anchor: end; visibility: hidden; font-family: &quot;Helvetica Neue&quot;, sans-serif; font-size: 12px; font-weight: 200;" fill="rgb(50, 49, 63)" stroke="none" stroke-width="1px">0.01</text><text x="0" y="124.6" dx="0em" dy="0.3em" style="text-anchor: end; visibility: inherit; font-family: &quot;Helvetica Neue&quot;, sans-serif; font-size: 12px; font-weight: 200;" fill="rgb(50, 49, 63)" stroke="none" stroke-width="1px">0.02</text><text x="0" y="106.8" dx="0em" dy="0.3em" style="text-anchor: end; visibility: hidden; font-family: &quot;Helvetica Neue&quot;, sans-serif; font-size: 12px; font-weight: 200;" fill="rgb(50, 49, 63)" stroke="none" stroke-width="1px">0.03</text><text x="0" y="88.99999999999999" dx="0em" dy="0.3em" style="text-anchor: end; visibility: inherit; font-family: &quot;Helvetica Neue&quot;, sans-serif; font-size: 12px; font-weight: 200;" fill="rgb(50, 49, 63)" stroke="none" stroke-width="1px">0.04</text><text x="0" y="71.19999999999999" dx="0em" dy="0.3em" style="text-anchor: end; visibility: hidden; font-family: &quot;Helvetica Neue&quot;, sans-serif; font-size: 12px; font-weight: 200;" fill="rgb(50, 49, 63)" stroke="none" stroke-width="1px">0.05</text><text x="0" y="53.400000000000006" dx="0em" dy="0.3em" style="text-anchor: end; visibility: inherit; font-family: &quot;Helvetica Neue&quot;, sans-serif; font-size: 12px; font-weight: 200;" fill="rgb(50, 49, 63)" stroke="none" stroke-width="1px">0.06</text><text x="0" y="35.599999999999994" dx="0em" dy="0.3em" style="text-anchor: end; visibility: hidden; font-family: &quot;Helvetica Neue&quot;, sans-serif; font-size: 12px; font-weight: 200;" fill="rgb(50, 49, 63)" stroke="none" stroke-width="1px">0.07</text><text x="0" y="17.799999999999983" dx="0em" dy="0.3em" style="text-anchor: end; visibility: inherit; font-family: &quot;Helvetica Neue&quot;, sans-serif; font-size: 12px; font-weight: 200;" fill="rgb(50, 49, 63)" stroke="none" stroke-width="1px">0.08</text><text x="0" y="0" dx="0em" dy="0.3em" style="text-anchor: end; visibility: hidden; font-family: &quot;Helvetica Neue&quot;, sans-serif; font-size: 12px; font-weight: 200;" fill="rgb(50, 49, 63)" stroke="none" stroke-width="1px">0.09</text></g><line x1="60" y1="0" x2="60" y2="178" fill="rgb(0, 0, 0)" stroke="rgb(204, 204, 204)" stroke-width="1px"></line></g></g><g transform="translate(60, 0)" clip-path="url(#clip_0)"><clipPath id="clip_0"><rect width="270" height="178"></rect></clipPath><g><g><g><line x1="0" y1="0" x2="0" y2="178" fill="rgb(0, 0, 0)" stroke="rgb(60, 60, 60)" stroke-width="1px" opacity="0.25"></line><line x1="22.5" y1="0" x2="22.5" y2="178" fill="rgb(0, 0, 0)" stroke="rgb(60, 60, 60)" stroke-width="1px" opacity="0.25"></line><line x1="45" y1="0" x2="45" y2="178" fill="rgb(0, 0, 0)" stroke="rgb(60, 60, 60)" stroke-width="1px" opacity="0.25"></line><line x1="67.5" y1="0" x2="67.5" y2="178" fill="rgb(0, 0, 0)" stroke="rgb(60, 60, 60)" stroke-width="1px" opacity="0.25"></line><line x1="90" y1="0" x2="90" y2="178" fill="rgb(0, 0, 0)" stroke="rgb(60, 60, 60)" stroke-width="1px" opacity="0.25"></line><line x1="112.5" y1="0" x2="112.5" y2="178" fill="rgb(0, 0, 0)" stroke="rgb(60, 60, 60)" stroke-width="1px" opacity="0.25"></line><line x1="135" y1="0" x2="135" y2="178" fill="rgb(0, 0, 0)" stroke="rgb(60, 60, 60)" stroke-width="1px" opacity="0.25"></line><line x1="157.5" y1="0" x2="157.5" y2="178" fill="rgb(0, 0, 0)" stroke="rgb(60, 60, 60)" stroke-width="1px" opacity="0.25"></line><line x1="180" y1="0" x2="180" y2="178" fill="rgb(0, 0, 0)" stroke="rgb(60, 60, 60)" stroke-width="1px" opacity="0.25"></line><line x1="202.5" y1="0" x2="202.5" y2="178" fill="rgb(0, 0, 0)" stroke="rgb(60, 60, 60)" stroke-width="1px" opacity="0.25"></line><line x1="225" y1="0" x2="225" y2="178" fill="rgb(0, 0, 0)" stroke="rgb(60, 60, 60)" stroke-width="1px" opacity="0.25"></line><line x1="247.5" y1="0" x2="247.5" y2="178" fill="rgb(0, 0, 0)" stroke="rgb(60, 60, 60)" stroke-width="1px" opacity="0.25"></line><line x1="270" y1="0" x2="270" y2="178" fill="rgb(0, 0, 0)" stroke="rgb(60, 60, 60)" stroke-width="1px" opacity="0.25"></line></g><g><line x1="0" y1="178" x2="270" y2="178" fill="rgb(0, 0, 0)" stroke="rgb(60, 60, 60)" stroke-width="1px" opacity="0.25"></line><line x1="0" y1="160.2" x2="270" y2="160.2" fill="rgb(0, 0, 0)" stroke="rgb(60, 60, 60)" stroke-width="1px" opacity="0.25"></line><line x1="0" y1="142.4" x2="270" y2="142.4" fill="rgb(0, 0, 0)" stroke="rgb(60, 60, 60)" stroke-width="1px" opacity="0.25"></line><line x1="0" y1="124.6" x2="270" y2="124.6" fill="rgb(0, 0, 0)" stroke="rgb(60, 60, 60)" stroke-width="1px" opacity="0.25"></line><line x1="0" y1="106.8" x2="270" y2="106.8" fill="rgb(0, 0, 0)" stroke="rgb(60, 60, 60)" stroke-width="1px" opacity="0.25"></line><line x1="0" y1="88.99999999999999" x2="270" y2="88.99999999999999" fill="rgb(0, 0, 0)" stroke="rgb(60, 60, 60)" stroke-width="1px" opacity="0.25"></line><line x1="0" y1="71.19999999999999" x2="270" y2="71.19999999999999" fill="rgb(0, 0, 0)" stroke="rgb(60, 60, 60)" stroke-width="1px" opacity="0.25"></line><line x1="0" y1="53.400000000000006" x2="270" y2="53.400000000000006" fill="rgb(0, 0, 0)" stroke="rgb(60, 60, 60)" stroke-width="1px" opacity="0.25"></line><line x1="0" y1="35.599999999999994" x2="270" y2="35.599999999999994" fill="rgb(0, 0, 0)" stroke="rgb(60, 60, 60)" stroke-width="1px" opacity="0.25"></line><line x1="0" y1="17.799999999999983" x2="270" y2="17.799999999999983" fill="rgb(0, 0, 0)" stroke="rgb(60, 60, 60)" stroke-width="1px" opacity="0.25"></line><line x1="0" y1="0" x2="270" y2="0" fill="rgb(0, 0, 0)" stroke="rgb(60, 60, 60)" stroke-width="1px" opacity="0.25"></line></g></g></g><g><g><line x1="0" y1="160.2" x2="270" y2="160.2" fill="rgb(0, 0, 0)" stroke="rgb(153, 153, 153)" stroke-width="1.5px"></line></g></g><g><g><line x1="22.5" y1="0" x2="22.5" y2="178" fill="rgb(0, 0, 0)" stroke="rgb(153, 153, 153)" stroke-width="1.5px"></line></g></g><g><g><g><g><g><path stroke="rgb(238, 51, 119)" stroke-width="2px" d="M24.75,31.551113915443437L27,31.543968994915502L29.25,31.546802401299374L31.5,31.545901009900575L33.75,31.541725389714173L36,31.52729084824165L38.25,31.510810756771576L40.5,31.507303657868732L42.75,31.501170139225792L45,31.493735160989303L47.25,31.502230036575014L49.5,31.51077347830801L51.75,31.52000954426461L54,31.521126391367062L56.25,31.529316395804273L58.5,31.526507251683853L60.75,31.520561786185198L63,31.534598309614893L65.25,31.534207479275864L67.5,31.54960685295916L69.75,31.557917754117113L72,31.55090983719313L74.25,31.539416274919034L76.5,31.526308229737936L78.75,31.524809236540506L81,31.52979289142894L83.25,31.51876244279464L85.5,31.546153360335524L87.75,31.764802156025212L90,32.937119591800666L92.25,35.09422522581295L94.5,37.218903976477804L96.75,39.17237184184714L99,41.093741499028795L101.25,42.63900274944865L103.5,44.18340635529228L105.75,45.58839944893029L108,46.80980885895971L110.25,47.89173244283967L112.5,48.841924141999925L114.75,49.578761488287654L117,50.23192120111959L119.25,50.99423623295968L121.5,51.48715689198177L123.75,51.84818766845642L126,52.244161874875545L128.25,52.731274210724635L130.5,53.28297616322887L132.75,53.78039076376662L135,54.181376262004676L137.25,54.515194351374035L139.5,54.778689404070505L141.75,54.89229231342104L144,55.26139081754978L146.25,55.32786183976353L148.5,55.49669650926133L150.75,55.920171889865145L153,56.20614435148465L155.25,56.33582510752814L157.5,56.740444546957846L159.75,56.94316221715215L162,57.22715193773034L164.25,57.2766331585927L166.5,57.34711590604084L168.75,57.35849971172868L171,57.489314093575814L173.25,57.669946904412456L175.5,57.81019525732492L177.75,58.20267328504261L180,58.274604747793276L182.25,58.3423196066029L184.5,58.389224116123145L186.75,58.608310927222036L189,58.74596699313513L191.25,58.868264508463085L193.5,58.83344604385921L195.75,58.82922003634586L198,58.96990908841977L200.25,59.248659053210545L202.5,59.356601218440616L204.75,59.4983897555223L207,59.66801099350158L209.25,59.75580820542636L211.5,59.57260004819669L213.75,59.63841831649087L216,59.728400491265916L218.25,59.62716299926545L220.5,59.929908969612754L222.75,60.165228001243975L225,60.24157603381103L227.25,60.23041646240965L229.5,60.16800426458606L231.75,60.17540383824877L234,60.192975647981L236.25,59.97042788608971L238.5,59.931431003475794L240.75,60.23307205204047L243,60.47832714774533L245.25,60.55072742735342L247.5,60.66354394456742" style="fill: none;" fill="none"></path></g><g><path stroke="rgb(51, 187, 238)" stroke-width="2px" d="M24.75,128.02324660569428L27,128.02215248793362L29.25,128.02299489771224L31.5,128.02087991781093L33.75,128.0214764440436L36,128.02471341544123L38.25,128.0253363875837L40.5,128.02494615577308L42.75,128.0270419811831L45,128.02833524473166L47.25,128.02769129259423L49.5,128.0274446458028L51.75,128.02757454077553L54,128.02676178875566L56.25,128.02681323719895L58.5,128.0248980014566L60.75,128.02440446123342L63,128.02373436324064L65.25,128.02328858062546L67.5,128.0244985729875L69.75,128.0256913739098L72,128.02603304345024L74.25,128.02747672600398L76.5,128.02918772377393L78.75,128.0282767286497L81,128.03053240568357L83.25,128.03231815217464L85.5,128.0357157609974L87.75,128.05249375437683L90,128.25840236408797L92.25,128.6123024215638L94.5,129.1731448214769L96.75,129.68271845160496L99,130.14723833567774L101.25,130.5762077731137L103.5,130.98641447503744L105.75,131.35780503132932L108,131.68994769624413L110.25,132.00108661107924L112.5,132.25171815877505L114.75,132.46650547894387L117,132.65588523553515L119.25,132.82501668879328L121.5,132.96733997138188L123.75,133.0891514848111L126,133.2170729226215L128.25,133.32930437722288L130.5,133.4310714888505L132.75,133.53405238049956L135,133.63527424578587L137.25,133.72087301459783L139.5,133.7984446850235L141.75,133.882545102943L144,133.94668845671958L146.25,134.019270493916L148.5,134.07887738635026L150.75,134.14423906499078L153,134.20535566803176L155.25,134.2392538648627L157.5,134.29762100081334L159.75,134.3392530691665L162,134.3929989869619L164.25,134.4325280571118L166.5,134.47755626077264L168.75,134.5181999223519L171,134.563619704371L173.25,134.59444038678723L175.5,134.632474402544L177.75,134.65956253436633L180,134.70164587603466L182.25,134.73706918690476L184.5,134.7764530362718L186.75,134.80321451199248L189,134.8284235267174L191.25,134.85575332184624L193.5,134.8777205898761L195.75,134.8953908121228L198,134.91214321348903L200.25,134.9322466125717L202.5,134.96927840862455L204.75,134.98436649086347L207,135.0056628494994L209.25,135.02738723245477L211.5,135.04361071817408L213.75,135.06356784810026L216,135.0883200952971L218.25,135.0935405549147L220.5,135.1249474860274L222.75,135.13178552580135L225,135.1481033455864L227.25,135.1690699530563L229.5,135.18385804610975L231.75,135.19459554384665L234,135.20683752972195L236.25,135.21860494630522L238.5,135.23183290491693L240.75,135.22648642736786L243,135.24989013718434L245.25,135.25160397676746L247.5,135.26246939383816" style="fill: none;" fill="none"></path></g></g></g></g><g opacity="0.2"><g><g><g><path stroke="rgb(238, 51, 119)" stroke-width="2px" d="M24.75,31.551113915443437L27,31.53968204259874L29.25,31.549522471427935L31.5,31.544840973615663L33.75,31.536273699998873L36,31.507322680950182L38.25,31.48724396228792L40.5,31.502190274000185L42.75,31.49212439060213L45,31.482695084810274L47.25,31.514895302057283L49.5,31.52354214787485L51.75,31.533833485841768L54,31.522799474000948L56.25,31.541591775417345L58.5,31.522295516729372L60.75,31.511646103858965L63,31.55564953088762L65.25,31.533621293306368L67.5,31.572704505920427L69.75,31.570383650064485L72,31.540398192405718L74.25,31.52217615842821L76.5,31.506646317243593L78.75,31.522560757398622L81,31.537268352508562L83.25,31.50221679806711L85.5,31.587239694595354L87.75,32.09277514815332L90,34.695595097541826L92.25,38.32988296151163L94.5,40.4059216797352L96.75,42.10257340669634L99,43.97579584717752L101.25,44.956894558668154L103.5,46.500011724233644L105.75,47.69588906764986L108,48.641922962665575L110.25,49.51461781263353L112.5,50.26721168756485L114.75,50.6840175062418L117,51.2116607695818L119.25,52.13770878016949L121.5,52.22653788030148L123.75,52.38973383307457L126,52.83812318444252L128.25,53.461942714452746L130.5,54.110529091954234L132.75,54.526512664556506L135,54.78285450935364L137.25,55.015921485424045L139.5,55.17393198311329L141.75,55.06269667744637L144,55.815038573741916L146.25,55.42756837308407L148.5,55.749948513507846L150.75,56.55538496077061L153,56.635103043913844L155.25,56.530346241593364L157.5,57.347373706102374L159.75,57.24723872244358L162,57.653136518597606L164.25,57.35085498988629L166.5,57.4528400272131L168.75,57.37557542026043L171,57.68553566634655L173.25,57.94089612066746L175.5,58.020567786693576L177.75,58.79139032661915L180,58.38250194191933L182.25,58.443891894817355L184.5,58.45958088040352L186.75,58.93694114387036L189,58.95245109200478L191.25,59.05171078145504L193.5,58.781218346953395L195.75,58.822881025075915L198,59.18094266653061L200.25,59.66678400039673L202.5,59.51851446628571L204.75,59.71107256114483L207,59.922442850470546L209.25,59.887504023313525L211.5,59.29778781235218L213.75,59.737145718932155L216,59.86337375342846L218.25,59.475306761264804L220.5,60.38402792513371L222.75,60.5182065486908L225,60.35609808266163L227.25,60.21367710530758L229.5,60.07438596785069L231.75,60.18650319874287L234,60.21933336257935L236.25,59.63660624325276L238.5,59.87293567955494L240.75,60.68553362488747L243,60.846209791302684L245.25,60.65932784676552L247.5,60.832768720388415" style="fill: none;" fill="none"></path></g><g><path stroke="rgb(51, 187, 238)" stroke-width="2px" d="M24.75,128.02324660569428L27,128.02149601727723L29.25,128.0238036110997L31.5,128.018392701447L33.75,128.02225526869296L36,128.02919131219386L38.25,128.02622724771498L40.5,128.02437719404696L42.75,128.0301329165697L45,128.03025559037923L47.25,128.02673120498656L49.5,128.0270760178566L51.75,128.027768959105L54,128.02554425299166L56.25,128.0268903493881L58.5,128.02202649861573L60.75,128.02366435974835L63,128.02272938638924L65.25,128.02261997461318L67.5,128.0263134509325L69.75,128.0274805098772L72,128.02654553651809L74.25,128.02964222133159L76.5,128.0317542001605L78.75,128.0269102424383L81,128.03391591161488L83.25,128.03499676734208L85.5,128.0408121690154L87.75,128.07766072899102L90,128.56726516485213L92.25,129.14315239042043L94.5,130.0144083097577L96.75,130.4470788359642L99,130.84401812851428L101.25,131.21966191083192L103.5,131.60172451734542L105.75,131.9148908600211L108,132.18816169053315L110.25,132.46779498159884L112.5,132.6276654794812L114.75,132.78868645876645L117,132.93995487019419L119.25,133.0787138685584L121.5,133.1808248952031L123.75,133.27186875492333L126,133.40895507931708L128.25,133.49765155911444L130.5,133.58372215628623L132.75,133.68852371796964L135,133.78710704371332L137.25,133.84927116781472L139.5,133.91480219066142L141.75,134.0086957298219L144,134.0429034873843L146.25,134.1281435497105L148.5,134.16828772500156L150.75,134.24228158295153L153,134.2970305725932L155.25,134.29010116010903L157.5,134.38517170473932L159.75,134.40170117169617L162,134.47361786365508L164.25,134.49182166233658L166.5,134.5450985662639L168.75,134.57916541472076L171,134.63174937739967L173.25,134.64067141041158L175.5,134.68952542617916L177.75,134.70019473209976L180,134.76477088853716L182.25,134.7902041532099L184.5,134.83552881032227L186.75,134.84335672557353L189,134.86623704880475L191.25,134.89674801453947L193.5,134.91067149192094L195.75,134.92189614549278L198,134.9372718155384L200.25,134.9624017111957L202.5,135.0248261027038L204.75,135.0069986142218L207,135.0376073874533L209.25,135.05997380688785L211.5,135.067945946753L213.75,135.09350354298948L216,135.12544846609234L218.25,135.10137124434112L220.5,135.17205788269638L222.75,135.14204258546232L225,135.17258007526397L227.25,135.20051986426114L229.5,135.20604018568991L231.75,135.210701790452L234,135.2252005085349L236.25,135.2362560711801L238.5,135.25167484283446L240.75,135.2184667110443L243,135.28499570190905L245.25,135.25417473614215L247.5,135.27876751944422" style="fill: none;" fill="none"></path></g></g></g></g></g></g><g transform="translate(60, 178)" clip-path="url(#clip_1)"><clipPath id="clip_1"><rect width="270" height="22"></rect></clipPath><g><g><line x1="0" y1="0" x2="0" y2="5" style="visibility: inherit;" fill="rgb(0, 0, 0)" stroke="rgb(204, 204, 204)" stroke-width="1px"></line><line x1="22.5" y1="0" x2="22.5" y2="5" style="visibility: inherit;" fill="rgb(0, 0, 0)" stroke="rgb(204, 204, 204)" stroke-width="1px"></line><line x1="45" y1="0" x2="45" y2="5" style="visibility: inherit;" fill="rgb(0, 0, 0)" stroke="rgb(204, 204, 204)" stroke-width="1px"></line><line x1="67.5" y1="0" x2="67.5" y2="5" style="visibility: inherit;" fill="rgb(0, 0, 0)" stroke="rgb(204, 204, 204)" stroke-width="1px"></line><line x1="90" y1="0" x2="90" y2="5" style="visibility: inherit;" fill="rgb(0, 0, 0)" stroke="rgb(204, 204, 204)" stroke-width="1px"></line><line x1="112.5" y1="0" x2="112.5" y2="5" style="visibility: inherit;" fill="rgb(0, 0, 0)" stroke="rgb(204, 204, 204)" stroke-width="1px"></line><line x1="135" y1="0" x2="135" y2="5" style="visibility: inherit;" fill="rgb(0, 0, 0)" stroke="rgb(204, 204, 204)" stroke-width="1px"></line><line x1="157.5" y1="0" x2="157.5" y2="5" style="visibility: inherit;" fill="rgb(0, 0, 0)" stroke="rgb(204, 204, 204)" stroke-width="1px"></line><line x1="180" y1="0" x2="180" y2="5" style="visibility: inherit;" fill="rgb(0, 0, 0)" stroke="rgb(204, 204, 204)" stroke-width="1px"></line><line x1="202.5" y1="0" x2="202.5" y2="5" style="visibility: inherit;" fill="rgb(0, 0, 0)" stroke="rgb(204, 204, 204)" stroke-width="1px"></line><line x1="225" y1="0" x2="225" y2="5" style="visibility: inherit;" fill="rgb(0, 0, 0)" stroke="rgb(204, 204, 204)" stroke-width="1px"></line><line x1="247.5" y1="0" x2="247.5" y2="5" style="visibility: inherit;" fill="rgb(0, 0, 0)" stroke="rgb(204, 204, 204)" stroke-width="1px"></line><line x1="270" y1="0" x2="270" y2="5" style="visibility: inherit;" fill="rgb(0, 0, 0)" stroke="rgb(204, 204, 204)" stroke-width="1px"></line></g><g transform="translate(0, 8)"><text x="0" y="0" dx="0em" dy="0.95em" style="text-anchor: middle; visibility: hidden; font-family: &quot;Helvetica Neue&quot;, sans-serif; font-size: 12px; font-weight: 200;" fill="rgb(50, 49, 63)" stroke="none" stroke-width="1px">-10</text><text x="22.5" y="0" dx="0em" dy="0.95em" style="text-anchor: middle; visibility: inherit; font-family: &quot;Helvetica Neue&quot;, sans-serif; font-size: 12px; font-weight: 200;" fill="rgb(50, 49, 63)" stroke="none" stroke-width="1px">0</text><text x="45" y="0" dx="0em" dy="0.95em" style="text-anchor: middle; visibility: inherit; font-family: &quot;Helvetica Neue&quot;, sans-serif; font-size: 12px; font-weight: 200;" fill="rgb(50, 49, 63)" stroke="none" stroke-width="1px">10</text><text x="67.5" y="0" dx="0em" dy="0.95em" style="text-anchor: middle; visibility: inherit; font-family: &quot;Helvetica Neue&quot;, sans-serif; font-size: 12px; font-weight: 200;" fill="rgb(50, 49, 63)" stroke="none" stroke-width="1px">20</text><text x="90" y="0" dx="0em" dy="0.95em" style="text-anchor: middle; visibility: inherit; font-family: &quot;Helvetica Neue&quot;, sans-serif; font-size: 12px; font-weight: 200;" fill="rgb(50, 49, 63)" stroke="none" stroke-width="1px">30</text><text x="112.5" y="0" dx="0em" dy="0.95em" style="text-anchor: middle; visibility: inherit; font-family: &quot;Helvetica Neue&quot;, sans-serif; font-size: 12px; font-weight: 200;" fill="rgb(50, 49, 63)" stroke="none" stroke-width="1px">40</text><text x="135" y="0" dx="0em" dy="0.95em" style="text-anchor: middle; visibility: inherit; font-family: &quot;Helvetica Neue&quot;, sans-serif; font-size: 12px; font-weight: 200;" fill="rgb(50, 49, 63)" stroke="none" stroke-width="1px">50</text><text x="157.5" y="0" dx="0em" dy="0.95em" style="text-anchor: middle; visibility: inherit; font-family: &quot;Helvetica Neue&quot;, sans-serif; font-size: 12px; font-weight: 200;" fill="rgb(50, 49, 63)" stroke="none" stroke-width="1px">60</text><text x="180" y="0" dx="0em" dy="0.95em" style="text-anchor: middle; visibility: inherit; font-family: &quot;Helvetica Neue&quot;, sans-serif; font-size: 12px; font-weight: 200;" fill="rgb(50, 49, 63)" stroke="none" stroke-width="1px">70</text><text x="202.5" y="0" dx="0em" dy="0.95em" style="text-anchor: middle; visibility: inherit; font-family: &quot;Helvetica Neue&quot;, sans-serif; font-size: 12px; font-weight: 200;" fill="rgb(50, 49, 63)" stroke="none" stroke-width="1px">80</text><text x="225" y="0" dx="0em" dy="0.95em" style="text-anchor: middle; visibility: inherit; font-family: &quot;Helvetica Neue&quot;, sans-serif; font-size: 12px; font-weight: 200;" fill="rgb(50, 49, 63)" stroke="none" stroke-width="1px">90</text><text x="247.5" y="0" dx="0em" dy="0.95em" style="text-anchor: middle; visibility: inherit; font-family: &quot;Helvetica Neue&quot;, sans-serif; font-size: 12px; font-weight: 200;" fill="rgb(50, 49, 63)" stroke="none" stroke-width="1px">100</text><text x="270" y="0" dx="0em" dy="0.95em" style="text-anchor: middle; visibility: hidden; font-family: &quot;Helvetica Neue&quot;, sans-serif; font-size: 12px; font-weight: 200;" fill="rgb(50, 49, 63)" stroke="none" stroke-width="1px">110</text></g><line x1="0" y1="0" x2="270" y2="0" fill="rgb(0, 0, 0)" stroke="rgb(204, 204, 204)" stroke-width="1px"></line></g></g></g></g></svg>