<svg viewBox="0 0 330 200" xmlns="http://www.w3.org/2000/svg"><g><g><g><g><g><line x1="60" y1="178" x2="55" y2="178" style="visibility: inherit;" fill="rgb(0, 0, 0)" stroke="rgb(204, 204, 204)" stroke-width="1px"></line><line x1="60" y1="155.75" x2="55" y2="155.75" style="visibility: inherit;" fill="rgb(0, 0, 0)" stroke="rgb(204, 204, 204)" stroke-width="1px"></line><line x1="60" y1="133.5" x2="55" y2="133.5" style="visibility: inherit;" fill="rgb(0, 0, 0)" stroke="rgb(204, 204, 204)" stroke-width="1px"></line><line x1="60" y1="111.25" x2="55" y2="111.25" style="visibility: inherit;" fill="rgb(0, 0, 0)" stroke="rgb(204, 204, 204)" stroke-width="1px"></line><line x1="60" y1="89" x2="55" y2="89" style="visibility: inherit;" fill="rgb(0, 0, 0)" stroke="rgb(204, 204, 204)" stroke-width="1px"></line><line x1="60" y1="66.75" x2="55" y2="66.75" style="visibility: inherit;" fill="rgb(0, 0, 0)" stroke="rgb(204, 204, 204)" stroke-width="1px"></line><line x1="60" y1="44.5" x2="55" y2="44.5" style="visibility: inherit;" fill="rgb(0, 0, 0)" stroke="rgb(204, 204, 204)" stroke-width="1px"></line><line x1="60" y1="22.25000000000003" x2="55" y2="22.25000000000003" style="visibility: inherit;" fill="rgb(0, 0, 0)" stroke="rgb(204, 204, 204)" stroke-width="1px"></line><line x1="60" y1="0" x2="55" y2="0" style="visibility: inherit;" fill="rgb(0, 0, 0)" stroke="rgb(204, 204, 204)" stroke-width="1px"></line></g><g transform="translate(50, 0)"><text x="0" y="178" dx="0em" dy="0.3em" style="text-anchor: end; visibility: hidden; font-family: &quot;Helvetica Neue&quot;, sans-serif; font-size: 12px; font-weight: 200;" fill="rgb(50, 49, 63)" stroke="none" stroke-width="1px">-0.02</text><text x="0" y="155.75" dx="0em" dy="0.3em" style="text-anchor: end; visibility: inherit; font-family: &quot;Helvetica Neue&quot;, sans-serif; font-size: 12px; font-weight: 200;" fill="rgb(50, 49, 63)" stroke="none" stroke-width="1px">0</text><text x="0" y="133.5" dx="0em" dy="0.3em" style="text-anchor: end; visibility: hidden; font-family: &quot;Helvetica Neue&quot;, sans-serif; font-size: 12px; font-weight: 200;" fill="rgb(50, 49, 63)" stroke="none" stroke-width="1px">0.02</text><text x="0" y="111.25" dx="0em" dy="0.3em" style="text-anchor: end; visibility: inherit; font-family: &quot;Helvetica Neue&quot;, sans-serif; font-size: 12px; font-weight: 200;" fill="rgb(50, 49, 63)" stroke="none" stroke-width="1px">0.04</text><text x="0" y="89" dx="0em" dy="0.3em" style="text-anchor: end; visibility: hidden; font-family: &quot;Helvetica Neue&quot;, sans-serif; font-size: 12px; font-weight: 200;" fill="rgb(50, 49, 63)" stroke="none" stroke-width="1px">0.06</text><text x="0" y="66.75" dx="0em" dy="0.3em" style="text-anchor: end; visibility: inherit; font-family: &quot;Helvetica Neue&quot;, sans-serif; font-size: 12px; font-weight: 200;" fill="rgb(50, 49, 63)" stroke="none" stroke-width="1px">0.08</text><text x="0" y="44.5" dx="0em" dy="0.3em" style="text-anchor: end; visibility: hidden; font-family: &quot;Helvetica Neue&quot;, sans-serif; font-size: 12px; font-weight: 200;" fill="rgb(50, 49, 63)" stroke="none" stroke-width="1px">0.1</text><text x="0" y="22.25000000000003" dx="0em" dy="0.3em" style="text-anchor: end; visibility: inherit; font-family: &quot;Helvetica Neue&quot;, sans-serif; font-size: 12px; font-weight: 200;" fill="rgb(50, 49, 63)" stroke="none" stroke-width="1px">0.12</text><text x="0" y="0" dx="0em" dy="0.3em" style="text-anchor: end; visibility: hidden; font-family: &quot;Helvetica Neue&quot;, sans-serif; font-size: 12px; font-weight: 200;" fill="rgb(50, 49, 63)" stroke="none" stroke-width="1px">0.14</text></g><line x1="60" y1="0" x2="60" y2="178" fill="rgb(0, 0, 0)" stroke="rgb(204, 204, 204)" stroke-width="1px"></line></g></g><g transform="translate(60, 0)" clip-path="url(#clip_0)"><clipPath id="clip_0"><rect width="270" height="178"></rect></clipPath><g><g><g><line x1="0" y1="0" x2="0" y2="178" fill="rgb(0, 0, 0)" stroke="rgb(60, 60, 60)" stroke-width="1px" opacity="0.25"></line><line x1="22.5" y1="0" x2="22.5" y2="178" fill="rgb(0, 0, 0)" stroke="rgb(60, 60, 60)" stroke-width="1px" opacity="0.25"></line><line x1="45" y1="0" x2="45" y2="178" fill="rgb(0, 0, 0)" stroke="rgb(60, 60, 60)" stroke-width="1px" opacity="0.25"></line><line x1="67.5" y1="0" x2="67.5" y2="178" fill="rgb(0, 0, 0)" stroke="rgb(60, 60, 60)" stroke-width="1px" opacity="0.25"></line><line x1="90" y1="0" x2="90" y2="178" fill="rgb(0, 0, 0)" stroke="rgb(60, 60, 60)" stroke-width="1px" opacity="0.25"></line><line x1="112.5" y1="0" x2="112.5" y2="178" fill="rgb(0, 0, 0)" stroke="rgb(60, 60, 60)" stroke-width="1px" opacity="0.25"></line><line x1="135" y1="0" x2="135" y2="178" fill="rgb(0, 0, 0)" stroke="rgb(60, 60, 60)" stroke-width="1px" opacity="0.25"></line><line x1="157.5" y1="0" x2="157.5" y2="178" fill="rgb(0, 0, 0)" stroke="rgb(60, 60, 60)" stroke-width="1px" opacity="0.25"></line><line x1="180" y1="0" x2="180" y2="178" fill="rgb(0, 0, 0)" stroke="rgb(60, 60, 60)" stroke-width="1px" opacity="0.25"></line><line x1="202.5" y1="0" x2="202.5" y2="178" fill="rgb(0, 0, 0)" stroke="rgb(60, 60, 60)" stroke-width="1px" opacity="0.25"></line><line x1="225" y1="0" x2="225" y2="178" fill="rgb(0, 0, 0)" stroke="rgb(60, 60, 60)" stroke-width="1px" opacity="0.25"></line><line x1="247.5" y1="0" x2="247.5" y2="178" fill="rgb(0, 0, 0)" stroke="rgb(60, 60, 60)" stroke-width="1px" opacity="0.25"></line><line x1="270" y1="0" x2="270" y2="178" fill="rgb(0, 0, 0)" stroke="rgb(60, 60, 60)" stroke-width="1px" opacity="0.25"></line></g><g><line x1="0" y1="178" x2="270" y2="178" fill="rgb(0, 0, 0)" stroke="rgb(60, 60, 60)" stroke-width="1px" opacity="0.25"></line><line x1="0" y1="155.75" x2="270" y2="155.75" fill="rgb(0, 0, 0)" stroke="rgb(60, 60, 60)" stroke-width="1px" opacity="0.25"></line><line x1="0" y1="133.5" x2="270" y2="133.5" fill="rgb(0, 0, 0)" stroke="rgb(60, 60, 60)" stroke-width="1px" opacity="0.25"></line><line x1="0" y1="111.25" x2="270" y2="111.25" fill="rgb(0, 0, 0)" stroke="rgb(60, 60, 60)" stroke-width="1px" opacity="0.25"></line><line x1="0" y1="89" x2="270" y2="89" fill="rgb(0, 0, 0)" stroke="rgb(60, 60, 60)" stroke-width="1px" opacity="0.25"></line><line x1="0" y1="66.75" x2="270" y2="66.75" fill="rgb(0, 0, 0)" stroke="rgb(60, 60, 60)" stroke-width="1px" opacity="0.25"></line><line x1="0" y1="44.5" x2="270" y2="44.5" fill="rgb(0, 0, 0)" stroke="rgb(60, 60, 60)" stroke-width="1px" opacity="0.25"></line><line x1="0" y1="22.25000000000003" x2="270" y2="22.25000000000003" fill="rgb(0, 0, 0)" stroke="rgb(60, 60, 60)" stroke-width="1px" opacity="0.25"></line><line x1="0" y1="0" x2="270" y2="0" fill="rgb(0, 0, 0)" stroke="rgb(60, 60, 60)" stroke-width="1px" opacity="0.25"></line></g></g></g><g><g><line x1="0" y1="155.75" x2="270" y2="155.75" fill="rgb(0, 0, 0)" stroke="rgb(153, 153, 153)" stroke-width="1.5px"></line></g></g><g><g><line x1="22.5" y1="0" x2="22.5" y2="178" fill="rgb(0, 0, 0)" stroke="rgb(153, 153, 153)" stroke-width="1.5px"></line></g></g><g><g><g><g><g><path style="fill: none;" stroke="rgb(238, 51, 119)" stroke-width="2px" d="M24.75,37.431724078953295L27,37.43353724759075L29.25,37.437949115068335L31.5,37.44057737001879L33.75,37.441083890217215L36,37.43824180394458L38.25,37.43880348590386L40.5,37.43924154099889L42.75,37.439888131525606L45,37.438777506425765L47.25,37.439423184178736L49.5,37.440593255295056L51.75,37.44184475991531L54,37.442544844125194L56.25,37.44130269230371L58.5,37.440919267495445L60.75,37.43873611681701L63,37.43845437492405L65.25,37.43782446435495L67.5,37.438723059972546L69.75,37.43721316719663L72,37.43816064630076L74.25,37.4396077424374L76.5,37.44111920447608L78.75,37.44285827208142L81,37.44666353266004L83.25,37.56339815077445L85.5,37.731558060004886L87.75,37.78809573668502L90,37.89964102837732L92.25,37.989557925667185L94.5,38.0236083736136L96.75,38.07272110488779L99,38.09986125521198L101.25,38.16604043116095L103.5,38.21427542360658L105.75,38.130654909045774L108,37.97759242914782L110.25,37.76452006240501L112.5,37.647107231995335L114.75,37.65620521062203L117,38.07136136673154L119.25,38.56116759870048L121.5,38.911574124418394L123.75,39.21106820951397L126,39.54514136108156L128.25,39.787745256387694L130.5,39.90500309864754L132.75,40.12249674976209L135,40.276775081935824L137.25,40.392195880403676L139.5,40.48336055427254L141.75,40.56126791715312L144,40.63124078649105L146.25,40.66754172675505L148.5,40.731992883579096L150.75,40.78578229582081L153,40.94245381704434L155.25,41.09875513196866L157.5,42.01547825235659L159.75,43.63223715513075L162,45.716890152628025L164.25,46.67243924667525L166.5,46.94561904627136L168.75,49.11329750840699L171,50.29297141805192L173.25,51.47702201649487L175.5,51.952505506246936L177.75,52.10687943677286L180,53.42579429674254L182.25,52.700947975087814L184.5,53.99924207327881L186.75,53.704451361883386L189,53.34995852088255L191.25,54.15828687951161L193.5,52.587201221318196L195.75,50.480982112009L198,50.533633456896936L200.25,52.25104090945197L202.5,53.18691713587209L204.75,53.835547907506026L207,53.6324273785082L209.25,50.734788248844595L211.5,52.56063818926073L213.75,53.62493264224803L216,54.4858207809727L218.25,54.82805075840953L220.5,54.684093307535676L222.75,54.27841548835087L225,51.475247354595965L227.25,52.772649029665644L229.5,53.83373380736914L231.75,53.250287541964084L234,53.82772661698962L236.25,54.73186188461247L238.5,55.10276548726476L240.75,55.056758102256765L243,55.28309508799239L245.25,55.65097623401118L247.5,53.629675277073574" fill="none"></path></g><g><path stroke="rgb(51, 187, 238)" stroke-width="2px" d="M24.75,126.17104853317142L27,126.17089700407814L29.25,126.1708791631331L31.5,126.17075225532136L33.75,126.17052305040468L36,126.17049400043055L38.25,126.1705235112795L40.5,126.1705971635138L42.75,126.17099055286215L45,126.17090380870101L47.25,126.17096440496191L49.5,126.17072068076266L51.75,126.17096735781922L54,126.17110603289936L56.25,126.17122731464696L58.5,126.17124615497475L60.75,126.1712359013164L63,126.17126290868352L65.25,126.17105695875068L67.5,126.17115637291303L69.75,126.1709714949781L72,126.17088129301283L74.25,126.17085701240447L76.5,126.17091289904877L78.75,126.17112961322387L81,126.1718042145126L83.25,126.17859879458695L85.5,126.22066880075117L87.75,126.25537076564517L90,126.27694538584107L92.25,126.29777692147695L94.5,126.31161862208499L96.75,126.32712078187316L99,126.34379908359719L101.25,126.35174298920978L103.5,126.36478318370173L105.75,126.36138761993209L108,126.33321993128007L110.25,126.28749097285242L112.5,126.25247600348126L114.75,126.2309879309293L117,126.28323488030006L119.25,126.38736923395521L121.5,126.48991196259504L123.75,126.57315335068762L126,126.64320259739097L128.25,126.7053556234361L130.5,126.76025444623781L132.75,126.8159248652731L135,126.85776094109896L137.25,126.89058854996328L139.5,126.91485471468673L141.75,126.93365411984331L144,126.95072678492909L146.25,126.96503436835974L148.5,126.97711097760421L150.75,126.99217325412286L153,127.01387751974495L155.25,127.04873850384553L157.5,127.13565360383213L159.75,127.48097649105503L162,127.84878753953049L164.25,128.23493046921712L166.5,128.64715311743151L168.75,128.98887011188168L171,129.32733377160372L173.25,129.5746060361966L175.5,129.7570146926048L177.75,129.85149782607274L180,129.94123586466503L182.25,129.98959400810654L184.5,130.01659969610188L186.75,129.99369254334098L189,129.99420991091924L191.25,130.01180904983875L193.5,130.01938208903016L195.75,130.0126755637833L198,130.02341726514152L200.25,129.90532598960368L202.5,129.933755780044L204.75,129.96376817436982L207,129.91339325092417L209.25,129.95984357219746L211.5,130.02049916943497L213.75,129.98335620998193L216,129.95761816122445L218.25,129.9751513781745L220.5,129.90622675464147L222.75,129.95970712405796L225,129.99452898235532L227.25,129.93756567213782L229.5,130.01207336574106L231.75,129.92748641767685L234,129.9969835928743L236.25,129.9180479549864L238.5,129.97161147578055L240.75,130.0038797219604L243,130.07450588889478L245.25,130.12970929092205L247.5,130.2193590920182" style="fill: none;" fill="none"></path></g></g></g></g><g opacity="0.2"><g><g><g><path style="fill: none;" stroke="rgb(238, 51, 119)" stroke-width="2px" d="M24.75,37.431724078953295L27,37.43462514877322L29.25,37.44218450784686L31.5,37.44366819784048L33.75,37.441745202988415L36,37.43431017547849L38.25,37.43960670009258L40.5,37.43988022953275L42.75,37.44084172695878L45,37.43712835758927L47.25,37.440385844558506L49.5,37.44234199449423L51.75,37.443717930465965L54,37.443593598902254L56.25,37.4394409246743L58.5,37.440344400703935L60.75,37.435462314635544L63,37.43803183361891L65.25,37.43687969446185L67.5,37.44007087126377L69.75,37.43494841083887L72,37.43958183377984L74.25,37.44177835807207L76.5,37.4433863796294L78.75,37.445466861128835L81,37.45237140730026L83.25,37.73849977925423L85.5,37.983797665685444L87.75,37.872902199626L90,38.066958904266386L92.25,38.1244332417846L94.5,38.074684038758306L96.75,38.14639019593599L99,38.14057147875431L101.25,38.26530919224027L103.5,38.286627911031275L105.75,38.005224138498335L108,37.74799871072176L110.25,37.44491151347759L112.5,37.47098798677328L114.75,37.669852178543834L117,38.69409560039642L119.25,39.29587694630027L121.5,39.437183912843466L123.75,39.660309337079525L126,40.046251088380814L128.25,40.151651099324226L130.5,40.080889862030745L132.75,40.4487372264266L135,40.50819258019328L137.25,40.56532707810402L139.5,40.62010756507516L141.75,40.6781289614737L144,40.73620009049773L146.25,40.721993137151L148.5,40.828669618815184L150.75,40.86646641418338L153,41.177461098879576L155.25,41.3332071043551L157.5,43.39056293293834L159.75,46.05737550929189L162,48.843869648873806L164.25,48.105762887746096L166.5,47.35538874566555L168.75,52.36481520161033L171,52.06248228251934L173.25,53.2530979141593L175.5,52.665730740875006L177.75,52.33844033256173L180,55.4041665866971L182.25,51.613678492605686L184.5,55.94668322056532L186.75,53.26226529479027L189,52.818219259381294L191.25,55.370779417455196L193.5,50.2305727340281L195.75,47.321653448045254L198,50.61261047422886L200.25,54.82715208828449L202.5,54.59073147550225L204.75,54.8084940649569L207,53.32774658501148L209.25,46.388329554349184L211.5,55.29941309988499L213.75,55.221374321728945L216,55.77715298905969L218.25,55.34139572456479L220.5,54.46815713122487L222.75,53.6698987595737L225,47.270495153963566L227.25,54.718751542270184L229.5,55.4253609739244L231.75,52.375118143856525L234,54.69388522952795L236.25,56.08806478604674L238.5,55.65912089124322L240.75,54.98774702474475L243,55.62260056659579L245.25,56.20279795303941L247.5,50.597723841667175" fill="none"></path></g><g><path stroke="rgb(51, 187, 238)" stroke-width="2px" d="M24.75,126.17104853317142L27,126.17080608662218L29.25,126.17086203582585L31.5,126.17060301173478L33.75,126.17022380046546L36,126.17045381385833L38.25,126.17056571226567L40.5,126.17070454917848L42.75,126.171570725739L45,126.17077500373125L47.25,126.1710547497496L49.5,126.17035642080009L51.75,126.17133656796068L54,126.17131377384067L56.25,126.17140909470618L58.5,126.17127440217882L60.75,126.17122052516788L63,126.17130341287702L65.25,126.17074806522578L67.5,126.17130548506975L69.75,126.17069418821484L72,126.17074599303305L74.25,126.17082059197128L76.5,126.1709967283532L78.75,126.1714546829462L81,126.17281611356884L83.25,126.188790647313L85.5,126.28377374541014L87.75,126.30742368102074L90,126.30930730421096L92.25,126.32902421802282L94.5,126.33238117024302L96.75,126.35037401970476L99,126.36881653498858L101.25,126.3636588472873L103.5,126.38434347510338L105.75,126.35629427433014L108,126.29096839856356L110.25,126.21889753546566L112.5,126.19995354954153L114.75,126.19875582214445L117,126.36160530429333L119.25,126.54357076436281L121.5,126.64372605551034L123.75,126.69801543280482L126,126.74827646743506L128.25,126.79858516249806L130.5,126.84260268043727L132.75,126.89943049382418L135,126.92051505483687L137.25,126.9398299632594L139.5,126.95125396177173L141.75,126.9618532275781L144,126.97633578255773L146.25,126.98649574350566L148.5,126.99522589147091L150.75,127.01476666890085L153,127.04643391817808L155.25,127.10102997999638L157.5,127.26602625381202L159.75,127.99896082188934L162,128.40050411224365L164.25,128.81414486374706L166.5,129.26548708975315L168.75,129.50144560355693L171,129.83502926118672L173.25,129.94551443308592L175.5,130.03062767721713L177.75,129.99322252627462L180,130.07584292255342L182.25,130.0621312232688L184.5,130.05710822809488L186.75,129.9593318141997L189,129.9949859622866L191.25,130.03820775821805L193.5,130.0307416478172L195.75,130.002615775913L198,130.03952981717885L200.25,129.72818907629699L202.5,129.9764004657045L204.75,130.00878676585853L207,129.83783086575568L209.25,130.02951905410737L211.5,130.11148256529123L213.75,129.92764177080244L216,129.91901108808815L218.25,130.00145120359957L220.5,129.8028398193419L222.75,130.03992767818272L225,130.04676176980138L227.25,129.85212070681155L229.5,130.12383490614593L231.75,129.80060599558055L234,130.1012293556705L236.25,129.79964449815452L238.5,130.05195675697178L240.75,130.05228209123015L243,130.18044513929635L245.25,130.21251439396292L247.5,130.3538337936625" style="fill: none;" fill="none"></path></g></g></g></g></g></g><g transform="translate(60, 178)" clip-path="url(#clip_1)"><clipPath id="clip_1"><rect width="270" height="22"></rect></clipPath><g><g><line x1="0" y1="0" x2="0" y2="5" style="visibility: inherit;" fill="rgb(0, 0, 0)" stroke="rgb(204, 204, 204)" stroke-width="1px"></line><line x1="22.5" y1="0" x2="22.5" y2="5" style="visibility: inherit;" fill="rgb(0, 0, 0)" stroke="rgb(204, 204, 204)" stroke-width="1px"></line><line x1="45" y1="0" x2="45" y2="5" style="visibility: inherit;" fill="rgb(0, 0, 0)" stroke="rgb(204, 204, 204)" stroke-width="1px"></line><line x1="67.5" y1="0" x2="67.5" y2="5" style="visibility: inherit;" fill="rgb(0, 0, 0)" stroke="rgb(204, 204, 204)" stroke-width="1px"></line><line x1="90" y1="0" x2="90" y2="5" style="visibility: inherit;" fill="rgb(0, 0, 0)" stroke="rgb(204, 204, 204)" stroke-width="1px"></line><line x1="112.5" y1="0" x2="112.5" y2="5" style="visibility: inherit;" fill="rgb(0, 0, 0)" stroke="rgb(204, 204, 204)" stroke-width="1px"></line><line x1="135" y1="0" x2="135" y2="5" style="visibility: inherit;" fill="rgb(0, 0, 0)" stroke="rgb(204, 204, 204)" stroke-width="1px"></line><line x1="157.5" y1="0" x2="157.5" y2="5" style="visibility: inherit;" fill="rgb(0, 0, 0)" stroke="rgb(204, 204, 204)" stroke-width="1px"></line><line x1="180" y1="0" x2="180" y2="5" style="visibility: inherit;" fill="rgb(0, 0, 0)" stroke="rgb(204, 204, 204)" stroke-width="1px"></line><line x1="202.5" y1="0" x2="202.5" y2="5" style="visibility: inherit;" fill="rgb(0, 0, 0)" stroke="rgb(204, 204, 204)" stroke-width="1px"></line><line x1="225" y1="0" x2="225" y2="5" style="visibility: inherit;" fill="rgb(0, 0, 0)" stroke="rgb(204, 204, 204)" stroke-width="1px"></line><line x1="247.5" y1="0" x2="247.5" y2="5" style="visibility: inherit;" fill="rgb(0, 0, 0)" stroke="rgb(204, 204, 204)" stroke-width="1px"></line><line x1="270" y1="0" x2="270" y2="5" style="visibility: inherit;" fill="rgb(0, 0, 0)" stroke="rgb(204, 204, 204)" stroke-width="1px"></line></g><g transform="translate(0, 8)"><text x="0" y="0" dx="0em" dy="0.95em" style="text-anchor: middle; visibility: hidden; font-family: &quot;Helvetica Neue&quot;, sans-serif; font-size: 12px; font-weight: 200;" fill="rgb(50, 49, 63)" stroke="none" stroke-width="1px">-10</text><text x="22.5" y="0" dx="0em" dy="0.95em" style="text-anchor: middle; visibility: inherit; font-family: &quot;Helvetica Neue&quot;, sans-serif; font-size: 12px; font-weight: 200;" fill="rgb(50, 49, 63)" stroke="none" stroke-width="1px">0</text><text x="45" y="0" dx="0em" dy="0.95em" style="text-anchor: middle; visibility: inherit; font-family: &quot;Helvetica Neue&quot;, sans-serif; font-size: 12px; font-weight: 200;" fill="rgb(50, 49, 63)" stroke="none" stroke-width="1px">10</text><text x="67.5" y="0" dx="0em" dy="0.95em" style="text-anchor: middle; visibility: inherit; font-family: &quot;Helvetica Neue&quot;, sans-serif; font-size: 12px; font-weight: 200;" fill="rgb(50, 49, 63)" stroke="none" stroke-width="1px">20</text><text x="90" y="0" dx="0em" dy="0.95em" style="text-anchor: middle; visibility: inherit; font-family: &quot;Helvetica Neue&quot;, sans-serif; font-size: 12px; font-weight: 200;" fill="rgb(50, 49, 63)" stroke="none" stroke-width="1px">30</text><text x="112.5" y="0" dx="0em" dy="0.95em" style="text-anchor: middle; visibility: inherit; font-family: &quot;Helvetica Neue&quot;, sans-serif; font-size: 12px; font-weight: 200;" fill="rgb(50, 49, 63)" stroke="none" stroke-width="1px">40</text><text x="135" y="0" dx="0em" dy="0.95em" style="text-anchor: middle; visibility: inherit; font-family: &quot;Helvetica Neue&quot;, sans-serif; font-size: 12px; font-weight: 200;" fill="rgb(50, 49, 63)" stroke="none" stroke-width="1px">50</text><text x="157.5" y="0" dx="0em" dy="0.95em" style="text-anchor: middle; visibility: inherit; font-family: &quot;Helvetica Neue&quot;, sans-serif; font-size: 12px; font-weight: 200;" fill="rgb(50, 49, 63)" stroke="none" stroke-width="1px">60</text><text x="180" y="0" dx="0em" dy="0.95em" style="text-anchor: middle; visibility: inherit; font-family: &quot;Helvetica Neue&quot;, sans-serif; font-size: 12px; font-weight: 200;" fill="rgb(50, 49, 63)" stroke="none" stroke-width="1px">70</text><text x="202.5" y="0" dx="0em" dy="0.95em" style="text-anchor: middle; visibility: inherit; font-family: &quot;Helvetica Neue&quot;, sans-serif; font-size: 12px; font-weight: 200;" fill="rgb(50, 49, 63)" stroke="none" stroke-width="1px">80</text><text x="225" y="0" dx="0em" dy="0.95em" style="text-anchor: middle; visibility: inherit; font-family: &quot;Helvetica Neue&quot;, sans-serif; font-size: 12px; font-weight: 200;" fill="rgb(50, 49, 63)" stroke="none" stroke-width="1px">90</text><text x="247.5" y="0" dx="0em" dy="0.95em" style="text-anchor: middle; visibility: inherit; font-family: &quot;Helvetica Neue&quot;, sans-serif; font-size: 12px; font-weight: 200;" fill="rgb(50, 49, 63)" stroke="none" stroke-width="1px">100</text><text x="270" y="0" dx="0em" dy="0.95em" style="text-anchor: middle; visibility: hidden; font-family: &quot;Helvetica Neue&quot;, sans-serif; font-size: 12px; font-weight: 200;" fill="rgb(50, 49, 63)" stroke="none" stroke-width="1px">110</text></g><line x1="0" y1="0" x2="270" y2="0" fill="rgb(0, 0, 0)" stroke="rgb(204, 204, 204)" stroke-width="1px"></line></g></g></g></g></svg>