<svg viewBox="0 0 330 200" xmlns="http://www.w3.org/2000/svg"><g><g><g><g><g><line x1="40" y1="178" x2="35" y2="178" style="visibility: inherit;" fill="rgb(0, 0, 0)" stroke="rgb(204, 204, 204)" stroke-width="1px"></line><line x1="40" y1="164.30769230769232" x2="35" y2="164.30769230769232" style="visibility: inherit;" fill="rgb(0, 0, 0)" stroke="rgb(204, 204, 204)" stroke-width="1px"></line><line x1="40" y1="150.6153846153846" x2="35" y2="150.6153846153846" style="visibility: inherit;" fill="rgb(0, 0, 0)" stroke="rgb(204, 204, 204)" stroke-width="1px"></line><line x1="40" y1="136.92307692307693" x2="35" y2="136.92307692307693" style="visibility: inherit;" fill="rgb(0, 0, 0)" stroke="rgb(204, 204, 204)" stroke-width="1px"></line><line x1="40" y1="123.23076923076924" x2="35" y2="123.23076923076924" style="visibility: inherit;" fill="rgb(0, 0, 0)" stroke="rgb(204, 204, 204)" stroke-width="1px"></line><line x1="40" y1="109.53846153846152" x2="35" y2="109.53846153846152" style="visibility: inherit;" fill="rgb(0, 0, 0)" stroke="rgb(204, 204, 204)" stroke-width="1px"></line><line x1="40" y1="95.84615384615383" x2="35" y2="95.84615384615383" style="visibility: inherit;" fill="rgb(0, 0, 0)" stroke="rgb(204, 204, 204)" stroke-width="1px"></line><line x1="40" y1="82.15384615384617" x2="35" y2="82.15384615384617" style="visibility: inherit;" fill="rgb(0, 0, 0)" stroke="rgb(204, 204, 204)" stroke-width="1px"></line><line x1="40" y1="68.46153846153848" x2="35" y2="68.46153846153848" style="visibility: inherit;" fill="rgb(0, 0, 0)" stroke="rgb(204, 204, 204)" stroke-width="1px"></line><line x1="40" y1="54.769230769230774" x2="35" y2="54.769230769230774" style="visibility: inherit;" fill="rgb(0, 0, 0)" stroke="rgb(204, 204, 204)" stroke-width="1px"></line><line x1="40" y1="41.07692307692304" x2="35" y2="41.07692307692304" style="visibility: inherit;" fill="rgb(0, 0, 0)" stroke="rgb(204, 204, 204)" stroke-width="1px"></line><line x1="40" y1="27.38461538461536" x2="35" y2="27.38461538461536" style="visibility: inherit;" fill="rgb(0, 0, 0)" stroke="rgb(204, 204, 204)" stroke-width="1px"></line><line x1="40" y1="13.692307692307708" x2="35" y2="13.692307692307708" style="visibility: inherit;" fill="rgb(0, 0, 0)" stroke="rgb(204, 204, 204)" stroke-width="1px"></line><line x1="40" y1="0" x2="35" y2="0" style="visibility: inherit;" fill="rgb(0, 0, 0)" stroke="rgb(204, 204, 204)" stroke-width="1px"></line></g><g transform="translate(30, 0)"><text x="0" y="178" dx="0em" dy="0.3em" style="text-anchor: end; visibility: hidden; font-family: &quot;Helvetica Neue&quot;, sans-serif; font-size: 12px; font-weight: 200;" fill="rgb(50, 49, 63)" stroke="none" stroke-width="1px">1.6</text><text x="0" y="164.30769230769232" dx="0em" dy="0.3em" style="text-anchor: end; visibility: inherit; font-family: &quot;Helvetica Neue&quot;, sans-serif; font-size: 12px; font-weight: 200;" fill="rgb(50, 49, 63)" stroke="none" stroke-width="1px">1.7</text><text x="0" y="150.6153846153846" dx="0em" dy="0.3em" style="text-anchor: end; visibility: hidden; font-family: &quot;Helvetica Neue&quot;, sans-serif; font-size: 12px; font-weight: 200;" fill="rgb(50, 49, 63)" stroke="none" stroke-width="1px">1.8</text><text x="0" y="136.92307692307693" dx="0em" dy="0.3em" style="text-anchor: end; visibility: inherit; font-family: &quot;Helvetica Neue&quot;, sans-serif; font-size: 12px; font-weight: 200;" fill="rgb(50, 49, 63)" stroke="none" stroke-width="1px">1.9</text><text x="0" y="123.23076923076924" dx="0em" dy="0.3em" style="text-anchor: end; visibility: hidden; font-family: &quot;Helvetica Neue&quot;, sans-serif; font-size: 12px; font-weight: 200;" fill="rgb(50, 49, 63)" stroke="none" stroke-width="1px">2</text><text x="0" y="109.53846153846152" dx="0em" dy="0.3em" style="text-anchor: end; visibility: inherit; font-family: &quot;Helvetica Neue&quot;, sans-serif; font-size: 12px; font-weight: 200;" fill="rgb(50, 49, 63)" stroke="none" stroke-width="1px">2.1</text><text x="0" y="95.84615384615383" dx="0em" dy="0.3em" style="text-anchor: end; visibility: hidden; font-family: &quot;Helvetica Neue&quot;, sans-serif; font-size: 12px; font-weight: 200;" fill="rgb(50, 49, 63)" stroke="none" stroke-width="1px">2.2</text><text x="0" y="82.15384615384617" dx="0em" dy="0.3em" style="text-anchor: end; visibility: inherit; font-family: &quot;Helvetica Neue&quot;, sans-serif; font-size: 12px; font-weight: 200;" fill="rgb(50, 49, 63)" stroke="none" stroke-width="1px">2.3</text><text x="0" y="68.46153846153848" dx="0em" dy="0.3em" style="text-anchor: end; visibility: hidden; font-family: &quot;Helvetica Neue&quot;, sans-serif; font-size: 12px; font-weight: 200;" fill="rgb(50, 49, 63)" stroke="none" stroke-width="1px">2.4</text><text x="0" y="54.769230769230774" dx="0em" dy="0.3em" style="text-anchor: end; visibility: inherit; font-family: &quot;Helvetica Neue&quot;, sans-serif; font-size: 12px; font-weight: 200;" fill="rgb(50, 49, 63)" stroke="none" stroke-width="1px">2.5</text><text x="0" y="41.07692307692304" dx="0em" dy="0.3em" style="text-anchor: end; visibility: hidden; font-family: &quot;Helvetica Neue&quot;, sans-serif; font-size: 12px; font-weight: 200;" fill="rgb(50, 49, 63)" stroke="none" stroke-width="1px">2.6</text><text x="0" y="27.38461538461536" dx="0em" dy="0.3em" style="text-anchor: end; visibility: inherit; font-family: &quot;Helvetica Neue&quot;, sans-serif; font-size: 12px; font-weight: 200;" fill="rgb(50, 49, 63)" stroke="none" stroke-width="1px">2.7</text><text x="0" y="13.692307692307708" dx="0em" dy="0.3em" style="text-anchor: end; visibility: hidden; font-family: &quot;Helvetica Neue&quot;, sans-serif; font-size: 12px; font-weight: 200;" fill="rgb(50, 49, 63)" stroke="none" stroke-width="1px">2.8</text><text x="0" y="0" dx="0em" dy="0.3em" style="text-anchor: end; visibility: hidden; font-family: &quot;Helvetica Neue&quot;, sans-serif; font-size: 12px; font-weight: 200;" fill="rgb(50, 49, 63)" stroke="none" stroke-width="1px">2.9</text></g><line x1="40" y1="0" x2="40" y2="178" fill="rgb(0, 0, 0)" stroke="rgb(204, 204, 204)" stroke-width="1px"></line></g></g><g transform="translate(40, 0)" clip-path="url(#clip_0)"><clipPath id="clip_0"><rect width="290" height="178"></rect></clipPath><g><g><g><line x1="0" y1="0" x2="0" y2="178" fill="rgb(0, 0, 0)" stroke="rgb(60, 60, 60)" stroke-width="1px" opacity="0.25"></line><line x1="36.25" y1="0" x2="36.25" y2="178" fill="rgb(0, 0, 0)" stroke="rgb(60, 60, 60)" stroke-width="1px" opacity="0.25"></line><line x1="72.5" y1="0" x2="72.5" y2="178" fill="rgb(0, 0, 0)" stroke="rgb(60, 60, 60)" stroke-width="1px" opacity="0.25"></line><line x1="108.75" y1="0" x2="108.75" y2="178" fill="rgb(0, 0, 0)" stroke="rgb(60, 60, 60)" stroke-width="1px" opacity="0.25"></line><line x1="145" y1="0" x2="145" y2="178" fill="rgb(0, 0, 0)" stroke="rgb(60, 60, 60)" stroke-width="1px" opacity="0.25"></line><line x1="181.25" y1="0" x2="181.25" y2="178" fill="rgb(0, 0, 0)" stroke="rgb(60, 60, 60)" stroke-width="1px" opacity="0.25"></line><line x1="217.5" y1="0" x2="217.5" y2="178" fill="rgb(0, 0, 0)" stroke="rgb(60, 60, 60)" stroke-width="1px" opacity="0.25"></line><line x1="253.75" y1="0" x2="253.75" y2="178" fill="rgb(0, 0, 0)" stroke="rgb(60, 60, 60)" stroke-width="1px" opacity="0.25"></line><line x1="290" y1="0" x2="290" y2="178" fill="rgb(0, 0, 0)" stroke="rgb(60, 60, 60)" stroke-width="1px" opacity="0.25"></line></g><g><line x1="0" y1="178" x2="290" y2="178" fill="rgb(0, 0, 0)" stroke="rgb(60, 60, 60)" stroke-width="1px" opacity="0.25"></line><line x1="0" y1="164.30769230769232" x2="290" y2="164.30769230769232" fill="rgb(0, 0, 0)" stroke="rgb(60, 60, 60)" stroke-width="1px" opacity="0.25"></line><line x1="0" y1="150.6153846153846" x2="290" y2="150.6153846153846" fill="rgb(0, 0, 0)" stroke="rgb(60, 60, 60)" stroke-width="1px" opacity="0.25"></line><line x1="0" y1="136.92307692307693" x2="290" y2="136.92307692307693" fill="rgb(0, 0, 0)" stroke="rgb(60, 60, 60)" stroke-width="1px" opacity="0.25"></line><line x1="0" y1="123.23076923076924" x2="290" y2="123.23076923076924" fill="rgb(0, 0, 0)" stroke="rgb(60, 60, 60)" stroke-width="1px" opacity="0.25"></line><line x1="0" y1="109.53846153846152" x2="290" y2="109.53846153846152" fill="rgb(0, 0, 0)" stroke="rgb(60, 60, 60)" stroke-width="1px" opacity="0.25"></line><line x1="0" y1="95.84615384615383" x2="290" y2="95.84615384615383" fill="rgb(0, 0, 0)" stroke="rgb(60, 60, 60)" stroke-width="1px" opacity="0.25"></line><line x1="0" y1="82.15384615384617" x2="290" y2="82.15384615384617" fill="rgb(0, 0, 0)" stroke="rgb(60, 60, 60)" stroke-width="1px" opacity="0.25"></line><line x1="0" y1="68.46153846153848" x2="290" y2="68.46153846153848" fill="rgb(0, 0, 0)" stroke="rgb(60, 60, 60)" stroke-width="1px" opacity="0.25"></line><line x1="0" y1="54.769230769230774" x2="290" y2="54.769230769230774" fill="rgb(0, 0, 0)" stroke="rgb(60, 60, 60)" stroke-width="1px" opacity="0.25"></line><line x1="0" y1="41.07692307692304" x2="290" y2="41.07692307692304" fill="rgb(0, 0, 0)" stroke="rgb(60, 60, 60)" stroke-width="1px" opacity="0.25"></line><line x1="0" y1="27.38461538461536" x2="290" y2="27.38461538461536" fill="rgb(0, 0, 0)" stroke="rgb(60, 60, 60)" stroke-width="1px" opacity="0.25"></line><line x1="0" y1="13.692307692307708" x2="290" y2="13.692307692307708" fill="rgb(0, 0, 0)" stroke="rgb(60, 60, 60)" stroke-width="1px" opacity="0.25"></line><line x1="0" y1="0" x2="290" y2="0" fill="rgb(0, 0, 0)" stroke="rgb(60, 60, 60)" stroke-width="1px" opacity="0.25"></line></g></g></g><g><g><line x1="0" y1="397.0769230769231" x2="290" y2="397.0769230769231" fill="rgb(0, 0, 0)" stroke="rgb(153, 153, 153)" stroke-width="1.5px"></line></g></g><g><g><line x1="36.25" y1="0" x2="36.25" y2="178" fill="rgb(0, 0, 0)" stroke="rgb(153, 153, 153)" stroke-width="1.5px"></line></g></g><g><g><g><g><g><path stroke="rgb(0, 119, 187)" stroke-width="2px" d="M36.975,25.46531105041504L37.7,25.45237546700696L38.425000000000004,25.451929929305095L39.24425,25.46727575166193L39.96925,25.438119754466413L40.694250000000004,25.41353270997294L41.5135,25.417161292366984L42.2385,25.447494602478542L42.9635,25.436292375980997L43.78275,25.436238725404735L44.50775,25.46256200191661L45.23275,25.469356642717656L46.052,25.474130003201964L46.777,25.446292723583667L47.502,25.452910757850958L48.32125,25.446299619871837L49.04625,25.406261823080484L49.77125,25.46322437869071L50.5905,25.458940049456686L51.3155,25.41846085267835L52.0405,25.44570228878527L52.85975,25.41584694818681L53.58475,25.41586277390485L54.30975,25.474072060738024L55.129,25.50326497706004L55.854,25.46907089690137L56.579,25.42733521087888L57.39825,25.447017511529538L58.12325,25.43438229509951L58.84825,25.42648777609938L59.6675,25.41673679231468L60.3925,25.43678022325244L61.1175,25.45230582554501L61.936749999999996,25.457155349573128L62.66175,25.44036053827506L63.38675,25.467133334208768L64.206,25.471379519547497L64.931,25.470923890221826L65.65599999999999,25.451638061413234L66.47525,25.472698511643216L67.20025,25.434617501261272L67.92524999999999,25.488484657887142L68.7445,25.461599969951777L69.46950000000001,25.435858467590435L70.19449999999999,25.46539838368608L71.01375,25.46296077797666L71.73875000000001,25.45509979348344L72.46375,25.465569659321574L73.283,25.466014651850486L74.008,25.454189937350407L74.73299999999999,25.44921050500335L75.55225,25.436115951908988L76.27725000000001,25.454649442455178L77.00225,25.465952348813346L77.8215,25.457351766061976L78.5465,25.452086952393728L79.27149999999999,25.46630826509238L80.09075,25.467972543565622L80.81575000000001,25.471217087024286L81.54075,25.45113496342435L82.36,25.449976063081323L83.085,25.464062381341506L83.80999999999999,25.45593050953096L84.62925,25.472727670060863L85.35425000000001,25.45492713172777L86.07925,25.46675880448359L86.89850000000001,25.487712348448554L87.62349999999999,25.48074970356845L88.34849999999999,25.479444877119647L89.16775,25.48291888996056L89.89275,25.491245022706437L90.61775,25.47037280003832L91.43700000000001,25.46317713132629L92.162,25.46572823924501L92.88699999999999,25.475132879309854L93.70625,25.483256683762647L94.43125,25.463085718255996L95.15625,25.438499688869427L95.97550000000001,25.418315942331134L96.7005,25.396098800722086L97.42550000000001,25.463388621206605L98.24475,25.46526752307514L98.96975,25.44571098874556L99.69475,25.45453036357671L100.51400000000001,25.39945484440426L101.239,25.456118007867076L101.96400000000001,25.441213687786245L102.78325,25.468115311717725L103.50825,25.467150303222837L104.23325,25.466336254086656L105.05250000000001,25.471632519569994L105.7775,25.489369951289063L106.50250000000001,25.420593641070923L107.32175,25.5716199950204L108.04675,26.294086416802628L108.77175,27.36577612634545L109.59100000000001,28.45585677265595L110.316,29.428507355595173L111.04100000000001,30.441066134924085L111.86025,31.994562254337495L112.58525,34.377377852010966L113.31025,36.97827860000987L114.12950000000001,39.771690324490976L114.8545,42.26659161779031L115.57950000000001,44.49697426013108L116.39874999999999,47.54675536507614L117.12375,50.365049502943705L117.84875,53.53843568297678L118.668,56.881341709046154L119.393,59.741209247182496L120.11800000000001,62.343324145909435L120.93724999999999,65.20500034809439L121.66225,67.89168025317754L122.38725,70.35023847745867L123.2065,73.46283382720728L123.9315,76.0403937895072L124.65650000000001,78.46885417601989L125.47574999999999,81.01183386909034L126.20075,83.49451208457208L126.92575,85.76109625948534L127.745,88.16900367126549L128.47,89.96045113417458L129.195,91.88523885771329L130.01425,93.76351175452247L130.73925,95.1028508400388L131.46425,96.63701033922837L132.2835,98.01589414721569L133.0085,99.83155850089324L133.7335,101.46958907462887L134.55275,103.08935064913241L135.27775,104.33127319488997L136.00275,105.875223889609L136.822,107.72014641168383L137.547,109.43210328186233L138.272,111.08081219166098L139.09125,113.04595344635365L139.81625,114.76657966551541L140.54125,116.20918559345174L141.3605,117.49226571186844L142.0855,118.55640197801497L142.8105,119.47014642362541L143.62975,120.46811068601869L144.35475,121.34650024410257L145.07975000000002,121.86635207775475L145.899,122.56747651987908L146.62400000000002,123.31996807851118L147.349,123.93921263867634L148.16825,124.62852585778889L148.89325,125.08495056540295L149.61825,125.4638635464984L150.4375,126.17981566067023L151.1625,126.59843779434668L151.88750000000002,126.86075607941186L152.70675,127.35888908829747L153.43175,127.76684891482681L154.15675000000002,128.23484482898454L154.976,128.63551483747767L155.70100000000002,129.06151022753636L156.426,129.37598599339435L157.24525,129.68815445051004L157.97025,129.94211662590058L158.69525,130.33214304178227L159.5145,130.80260666575822L160.2395,130.90409679998263L160.96450000000002,131.1119978690427L161.78375,131.45197356038673L162.50875,131.57285132032817L163.23375000000001,131.94764461072063L164.053,132.17195256186133L164.77800000000002,132.43976812877284L165.503,132.69888868934115L166.32225,132.99867806575875L167.04725,133.15116253203993L167.77224999999999,133.35636882378L168.5915,133.75739953018763L169.3165,133.8772183758791L170.0415,133.83678474855463L170.86075,134.05747310602504L171.58575,134.39908184440773L172.31075,134.49057304850632L173.13,134.75912933161095L173.85500000000002,134.93679453223166L174.57999999999998,135.03401800703992L175.39925,135.27453080931804L176.12425,135.30127076807094L176.84924999999998,135.37448920586115L177.6685,135.72451942660223L178.3935,135.94781101826135L179.1185,135.86555198618217L179.93775,136.10874151874037L180.66275,136.2337036737799L181.38775,136.304685218137L182.207,136.33309315438544L182.93200000000002,136.62006640816708L183.65699999999998,136.78153626964857L184.47625000000002,136.92284150994868L185.20125,136.9216507677856L185.92624999999998,137.18175685800082L186.7455,137.42015774486646L187.4705,137.43705797594163L188.1955,137.37575778466825L189.01475,137.53896750226878L189.73975000000002,137.6597448366415L190.46475,137.78681980237553L191.284,137.890577992406L192.00900000000001,137.90795255293685L192.73399999999998,138.0232722207551L193.55325000000002,138.1943556124448L194.27824999999999,138.31985715127095L195.00325,138.21497723150682L195.8225,138.41072177380306L196.54749999999999,138.5145490029086L197.2725,138.50281299702104L198.09175,138.49383880916608L198.81675,138.75477225088332L199.54175,138.93622739706694L200.361,139.1044752206827L201.086,139.007151209774L201.81099999999998,139.08142610536225L202.63025000000002,139.0744380501145L203.35524999999998,139.27866398973666L204.08025,139.3953038655264L204.8995,139.36232544382287L205.62449999999998,139.3616748929933L206.3495,139.43574129091732L207.16875,139.50372470759953L207.89375,139.610222624571L208.61875,139.68519456060125L209.438,139.76210453754575L210.163,139.82969176328956L210.88799999999998,139.79268609479672L211.70725000000002,139.85163817724032L212.43224999999998,139.9812359704264L213.15725,140.01384660380594L213.97650000000002,140.07307013644973L214.70149999999998,140.15208740329035L215.4265,140.21490620596535L216.24575,140.34526360002997L216.97075,140.2616371574686L217.69575,140.313241889912L218.515,140.39236917041336L219.24,140.50563828269046L219.96499999999997,140.5269369792719L220.78425000000001,140.57307286378574L221.50924999999998,140.66746772762392L222.23425,140.65617038959323L223.0535,140.9142866189676L223.77849999999998,140.8430178748652L224.5035,140.86407761405113L225.32274999999998,140.8881000354623L226.04775,140.9022066252578L226.77275,140.91697106518623L227.592,141.0123781675823L228.317,141.14524131963557L229.04199999999997,141.0437271986323L229.86125,141.21666795804376L230.58624999999998,141.19483401973687L231.31125,141.1403659058513L232.1305,141.14780574921335L232.8555,141.20497828102404L233.5805,141.2700333952408L234.39974999999998,141.34148295417893L235.12475,141.39187409879662L235.84975,141.34177595616515L236.669,141.42618351768292L237.394,141.47859088488767L238.11900000000003,141.53475410333436L238.93825,141.64004253134596L239.66324999999998,141.71827799366577L240.38825,141.68645993091815L241.2075,141.77810095174314L241.9325,141.94574347803302L242.6575,141.80355461730454L243.47674999999998,141.75855788259355L244.20175,141.86836200158982L244.92675,141.8379090619158L245.746,141.87905120802353L246.471,141.9499879394043L247.19600000000003,141.99443033054655L248.01525,142.07640293345884L248.74024999999997,142.10050207302135L249.46525,142.0189721827448L250.2845,142.13910314478153L251.0095,142.10687440060184L251.7345,142.15447247326097L252.55374999999998,142.16128321422815L253.27875,142.12807600458666L254.00375,142.1848804996026L254.823,142.21666498822873L255.548,142.2750337389606L256.273,142.3582977784481L257.09225,142.2565156878255L257.81725,142.3418723408804L258.54225,142.42827111958326L259.3615,142.46799256078336L260.0865,142.4910288873705L260.81149999999997,142.44095134966238L261.63075,142.61869681570374L262.35575,142.72391424409003L263.08074999999997,142.5979778875795" style="fill: none;" fill="none"></path></g></g></g></g><g opacity="0.2"><g><g><g><path stroke="rgb(0, 119, 187)" stroke-width="2px" d="M36.975,25.46531105041504L37.7,25.44461411696213L38.425000000000004,25.45150221311127L39.24425,25.485322438753542L39.96925,25.400053684528046L40.694250000000004,25.379519976102387L41.5135,25.422350223247804L42.2385,25.491720859821015L42.9635,25.419771267817566L43.78275,25.436159060551546L44.50775,25.501808166503906L45.23275,25.47951162778412L46.052,25.481274458078218L46.777,25.404591340285066L47.502,25.4628300300011L48.32125,25.43638757558969L49.04625,25.346222070547242L49.77125,25.548653749319215L50.5905,25.45251420828012L51.3155,25.357745757469758L52.0405,25.48656294896051L52.85975,25.371064919691804L53.58475,25.415886512169465L54.30975,25.561385301443238L55.129,25.54705414405234L55.854,25.41777992248535L56.579,25.364731788635254L57.39825,25.476540932288515L58.12325,25.415429482093202L58.84825,25.414646001962495L59.6675,25.402110319871156L60.3925,25.46684536567099L61.1175,25.475594227130586L61.936749999999996,25.464429635267976L62.66175,25.415168322049652L63.38675,25.507292527418855L64.206,25.477748797490023L64.931,25.470240446237398L65.65599999999999,25.42270931830771L66.47525,25.504289186917816L67.20025,25.37749598576471L67.92524999999999,25.56928539276123L68.7445,25.421272938068086L69.46950000000001,25.397246214059663L70.19449999999999,25.50970825782187L71.01375,25.459304369412934L71.73875000000001,25.443308316744265L72.46375,25.481274458078218L73.283,25.46668214064377L74.008,25.436452865600586L74.73299999999999,25.44174135648285L75.55225,25.416474122267488L76.27725000000001,25.482449678274293L77.00225,25.482906708350527L77.8215,25.444450891934906L78.5465,25.444189731891328L79.27149999999999,25.48764023414023L80.09075,25.470468961275515L80.81575000000001,25.47608390221228L81.54075,25.421011778024507L82.36,25.44823771256665L83.085,25.48519185873178L83.80999999999999,25.443732701815065L84.62925,25.497923410855805L85.35425000000001,25.42822632422812L86.07925,25.484506313617402L86.89850000000001,25.519142664395844L87.62349999999999,25.470305736248292L88.34849999999999,25.477487637446472L89.16775,25.488129909221925L89.89275,25.503734221825226L90.61775,25.439064466036257L91.43700000000001,25.452383628258332L92.162,25.469554901123047L92.88699999999999,25.489239839407105L93.70625,25.495442390441895L94.43125,25.432829269996034L95.15625,25.40162064478946L95.97550000000001,25.388040322523835L96.7005,25.362773088308472L97.42550000000001,25.564323351933382L98.24475,25.46808587587796L98.96975,25.41637618725116L99.69475,25.467759425823488L100.51400000000001,25.316841565645632L101.239,25.541112753061128L101.96400000000001,25.41885720766507L102.78325,25.50846774761493L103.50825,25.46570279048038L104.23325,25.465115180382355L105.05250000000001,25.479576917795015L105.7775,25.515976098867554L106.50250000000001,25.317429175743683L107.32175,25.798159525944612L108.04675,27.377786049476015L108.77175,28.97331069065973L109.59100000000001,30.090977742121765L110.316,30.887483230003937L111.04100000000001,31.95990430391751L111.86025,34.32480643345758L112.58525,37.95160124852106L113.31025,40.87962972200833L114.12950000000001,43.96180791121262L114.8545,46.00894355773926L115.57950000000001,47.84254822364218L116.39874999999999,52.121427022493805L117.12375,54.592490709744965L117.84875,58.2985149530264L118.668,61.89570074815015L119.393,64.03101055438702L120.11800000000001,66.24649649399976L120.93724999999999,69.49751465137189L121.66225,71.92170011080228L122.38725,74.03807581388034L123.2065,78.13172685183011L123.9315,79.9067337329571L124.65650000000001,82.11154475578894L125.47574999999999,84.8263034086961L126.20075,87.21852940779465L126.92575,89.16097252185529L127.745,91.78086478893573L128.47,92.64762232853816L129.195,94.77242044302133L130.01425,96.58092109973614L130.73925,97.11185946831337L131.46425,98.9382495880127L132.2835,100.0842198591966L133.0085,102.55505503140964L133.7335,103.92663493523231L134.55275,105.51899301088774L135.27775,106.19415701352634L136.00275,108.19114993168758L136.822,110.48753019479605L137.547,112.00003858713004L138.272,113.55387555635893L139.09125,115.99366532839262L139.81625,117.34751899425801L140.54125,118.37309448535626L141.3605,119.4168858894935L142.0855,120.15260637723483L142.8105,120.84076309204102L143.62975,121.96505707960863L144.35475,122.66408458122841L145.07975000000002,122.64612982823299L145.899,123.61916318306557L146.62400000000002,124.4487054164593L147.349,124.8680794789241L148.16825,125.66249568645772L148.89325,125.76958762682402L149.61825,126.03223301814154L150.4375,127.25374383192796L151.1625,127.22637099486131L151.88750000000002,127.25423350700966L152.70675,128.10608860162588L153.43175,128.37878865462085L154.15675000000002,128.93683870022113L154.976,129.23651985021738L155.70100000000002,129.70050331262442L156.426,129.8476996421814L157.24525,130.15640713618353L157.97025,130.32305988898645L158.69525,130.91718266560483L159.5145,131.50830210172214L160.2395,131.0563320013193L160.96450000000002,131.42384947263278L161.78375,131.9619370974027L162.50875,131.7541679602403L163.23375000000001,132.50983454630926L164.053,132.50841448857236L164.77800000000002,132.84149147914007L165.503,133.08756953019363L166.32225,133.4483621303852L167.04725,133.37988923146176L167.77224999999999,133.6641782613901L168.5915,134.35894558979916L169.3165,134.05694664441623L170.0415,133.7761343075679L170.86075,134.3885056422307L171.58575,134.91149495198178L172.31075,134.62780985465417L173.13,135.16196375626785L173.85500000000002,135.20329233316275L174.57999999999998,135.17985321925238L175.39925,135.63530001273523L176.12425,135.34138070620025L176.84924999999998,135.48431686254648L177.6685,136.24956475771393L178.3935,136.28274840575L179.1185,135.74216343806341L179.93775,136.47352581757767L180.66275,136.4211469063392L181.38775,136.41115753467267L182.207,136.3757050587581L182.93200000000002,137.05052628883948L183.65699999999998,137.02374106187088L184.47625000000002,137.1347993703989L185.20125,136.91986465454102L185.92624999999998,137.5719159933237L186.7455,137.7777590751648L187.4705,137.46240832255438L188.1955,137.28380749775815L189.01475,137.78378207866962L189.73975000000002,137.8409108382005L190.46475,137.97743225097656L191.284,138.04621527745175L192.00900000000001,137.9340143937331L192.73399999999998,138.19625172248254L193.55325000000002,138.45098069997934L194.27824999999999,138.50810945951022L195.00325,138.05765735186066L195.8225,138.7043385872474L196.54749999999999,138.67028984656702L197.2725,138.4852089881897L198.09175,138.48037752738367L198.81675,139.1461724134592L199.54175,139.2084101163424L200.361,139.35684695610632L201.086,138.861165193411L201.81099999999998,139.19283844874457L202.63025000000002,139.06395596724292L203.35524999999998,139.58500289916992L204.08025,139.57026367921097L204.8995,139.31285781126758L205.62449999999998,139.360699066749L206.3495,139.5468408878033L207.16875,139.60569983262283L207.89375,139.76996950002817L208.61875,139.79765246464657L209.438,139.87746950296255L210.163,139.93107260190524L210.88799999999998,139.73717759205746L211.70725000000002,139.94006630090567L212.43224999999998,140.17563266020557L213.15725,140.06276255387527L213.97650000000002,140.1619054354154L214.70149999999998,140.27061330355133L215.4265,140.30913440997784L216.24575,140.5407996911269L216.97075,140.13619749362653L217.69575,140.39064898857703L218.515,140.5110600911654L219.24,140.67554195110614L219.96499999999997,140.5588850241441L220.78425000000001,140.64227669055646L221.50924999999998,140.80906002338116L222.23425,140.63922438254724L223.0535,141.30146096302914L223.77849999999998,140.7361147587116L224.5035,140.89566722282996L225.32274999999998,140.92413366757907L226.04775,140.92336650995108L226.77275,140.9391177250789L227.592,141.1554888211764L228.317,141.34453604771542L229.04199999999997,140.8914560171274L229.86125,141.47607909716095L230.58624999999998,141.16208311227652L231.31125,141.05866373502292L232.1305,141.1589655142564L232.8555,141.29073707874005L233.5805,141.3676160665659L234.39974999999998,141.44865729258612L235.12475,141.46746081572314L235.84975,141.26662874221802L236.669,141.55279485995953L237.394,141.55720193569476L238.11900000000003,141.61899893100446L238.93825,141.79797517336334L239.66324999999998,141.83563118714554L240.38825,141.6387328367967L241.2075,141.9155624829806L241.9325,142.1972072674678L242.6575,141.5902713262118L243.47674999999998,141.69106278052698L244.20175,142.03306818008423L244.92675,141.79222965240479L245.746,141.94076442718506L246.471,142.05639303647555L247.19600000000003,142.06109391725983L248.01525,142.19936183782724L248.74024999999997,142.13665078236508L249.46525,141.89667734732996L250.2845,142.31929958783664L251.0095,142.05853128433228L251.7345,142.22586958224957L252.55374999999998,142.1714993256789L253.27875,142.0782651901245L254.00375,142.27008724212646L254.823,142.26434172116794L255.548,142.36258686505832L256.273,142.48319383767935L257.09225,142.10384255189163L257.81725,142.46990732046274L258.54225,142.55786928763757L259.3615,142.5275747225835L260.0865,142.52558337725128L260.81149999999997,142.36583504310022L261.63075,142.8853150147658L262.35575,142.88174038666946L263.08074999999997,142.40907335281372" style="fill: none;" fill="none"></path></g></g></g></g></g></g><g transform="translate(40, 178)" clip-path="url(#clip_1)"><clipPath id="clip_1"><rect width="290" height="22"></rect></clipPath><g><g><line x1="0" y1="0" x2="0" y2="5" style="visibility: inherit;" fill="rgb(0, 0, 0)" stroke="rgb(204, 204, 204)" stroke-width="1px"></line><line x1="36.25" y1="0" x2="36.25" y2="5" style="visibility: inherit;" fill="rgb(0, 0, 0)" stroke="rgb(204, 204, 204)" stroke-width="1px"></line><line x1="72.5" y1="0" x2="72.5" y2="5" style="visibility: inherit;" fill="rgb(0, 0, 0)" stroke="rgb(204, 204, 204)" stroke-width="1px"></line><line x1="108.75" y1="0" x2="108.75" y2="5" style="visibility: inherit;" fill="rgb(0, 0, 0)" stroke="rgb(204, 204, 204)" stroke-width="1px"></line><line x1="145" y1="0" x2="145" y2="5" style="visibility: inherit;" fill="rgb(0, 0, 0)" stroke="rgb(204, 204, 204)" stroke-width="1px"></line><line x1="181.25" y1="0" x2="181.25" y2="5" style="visibility: inherit;" fill="rgb(0, 0, 0)" stroke="rgb(204, 204, 204)" stroke-width="1px"></line><line x1="217.5" y1="0" x2="217.5" y2="5" style="visibility: inherit;" fill="rgb(0, 0, 0)" stroke="rgb(204, 204, 204)" stroke-width="1px"></line><line x1="253.75" y1="0" x2="253.75" y2="5" style="visibility: inherit;" fill="rgb(0, 0, 0)" stroke="rgb(204, 204, 204)" stroke-width="1px"></line><line x1="290" y1="0" x2="290" y2="5" style="visibility: inherit;" fill="rgb(0, 0, 0)" stroke="rgb(204, 204, 204)" stroke-width="1px"></line></g><g transform="translate(0, 8)"><text x="0" y="0" dx="0em" dy="0.95em" style="text-anchor: middle; visibility: hidden; font-family: &quot;Helvetica Neue&quot;, sans-serif; font-size: 12px; font-weight: 200;" fill="rgb(50, 49, 63)" stroke="none" stroke-width="1px">-5k</text><text x="36.25" y="0" dx="0em" dy="0.95em" style="text-anchor: middle; visibility: inherit; font-family: &quot;Helvetica Neue&quot;, sans-serif; font-size: 12px; font-weight: 200;" fill="rgb(50, 49, 63)" stroke="none" stroke-width="1px">0</text><text x="72.5" y="0" dx="0em" dy="0.95em" style="text-anchor: middle; visibility: inherit; font-family: &quot;Helvetica Neue&quot;, sans-serif; font-size: 12px; font-weight: 200;" fill="rgb(50, 49, 63)" stroke="none" stroke-width="1px">5k</text><text x="108.75" y="0" dx="0em" dy="0.95em" style="text-anchor: middle; visibility: inherit; font-family: &quot;Helvetica Neue&quot;, sans-serif; font-size: 12px; font-weight: 200;" fill="rgb(50, 49, 63)" stroke="none" stroke-width="1px">10k</text><text x="145" y="0" dx="0em" dy="0.95em" style="text-anchor: middle; visibility: inherit; font-family: &quot;Helvetica Neue&quot;, sans-serif; font-size: 12px; font-weight: 200;" fill="rgb(50, 49, 63)" stroke="none" stroke-width="1px">15k</text><text x="181.25" y="0" dx="0em" dy="0.95em" style="text-anchor: middle; visibility: inherit; font-family: &quot;Helvetica Neue&quot;, sans-serif; font-size: 12px; font-weight: 200;" fill="rgb(50, 49, 63)" stroke="none" stroke-width="1px">20k</text><text x="217.5" y="0" dx="0em" dy="0.95em" style="text-anchor: middle; visibility: inherit; font-family: &quot;Helvetica Neue&quot;, sans-serif; font-size: 12px; font-weight: 200;" fill="rgb(50, 49, 63)" stroke="none" stroke-width="1px">25k</text><text x="253.75" y="0" dx="0em" dy="0.95em" style="text-anchor: middle; visibility: inherit; font-family: &quot;Helvetica Neue&quot;, sans-serif; font-size: 12px; font-weight: 200;" fill="rgb(50, 49, 63)" stroke="none" stroke-width="1px">30k</text><text x="290" y="0" dx="0em" dy="0.95em" style="text-anchor: middle; visibility: hidden; font-family: &quot;Helvetica Neue&quot;, sans-serif; font-size: 12px; font-weight: 200;" fill="rgb(50, 49, 63)" stroke="none" stroke-width="1px">35k</text></g><line x1="0" y1="0" x2="290" y2="0" fill="rgb(0, 0, 0)" stroke="rgb(204, 204, 204)" stroke-width="1px"></line></g></g></g></g></svg>